<?xml version="1.0" encoding="utf-8"?>
<!-- Generator: Adobe Illustrator 16.0.3, SVG Export Plug-In . SVG Version: 6.00 Build 0)  -->
<!DOCTYPE svg PUBLIC "-//W3C//DTD SVG 1.1//EN" "http://www.w3.org/Graphics/SVG/1.1/DTD/svg11.dtd">
<svg version="1.1" xmlns="http://www.w3.org/2000/svg" xmlns:xlink="http://www.w3.org/1999/xlink" x="0px" y="0px"
	 width="199.333px" height="218px" viewBox="0 0 199.333 218" enable-background="new 0 0 199.333 218" xml:space="preserve">
<g id="Layer_5">
</g>
<g id="Layer_3">
	<g>
		<g>
			<g>
				<g>
					<linearGradient id="SVGID_1_" gradientUnits="userSpaceOnUse" x1="16.6626" y1="111.7891" x2="190.2376" y2="111.7891">
						<stop  offset="0.0078" style="stop-color:#DAE1E2;stop-opacity:0.1216"/>
						<stop  offset="0.0824" style="stop-color:#EEF8FA;stop-opacity:0.6"/>
						<stop  offset="0.1686" style="stop-color:#CCD0D2;stop-opacity:0.1882"/>
						<stop  offset="0.4549" style="stop-color:#FFFFFF;stop-opacity:0"/>
						<stop  offset="0.8667" style="stop-color:#CBCBCB;stop-opacity:0.1882"/>
						<stop  offset="0.9412" style="stop-color:#C1E0E0;stop-opacity:0.7686"/>
						<stop  offset="1" style="stop-color:#CED1D2;stop-opacity:0.149"/>
					</linearGradient>
					<path fill-rule="evenodd" clip-rule="evenodd" fill="url(#SVGID_1_)" d="M5.35,8.383c1.133,0.534,6.6,1,16.4,1.4
						c3.867,0.133,7.566,0.233,11.1,0.3c18.233,0.333,40.7,0.5,67.4,0.5c26.634,0,49.017-0.167,67.15-0.5
						c10.533-0.3,17.983-0.6,22.35-0.9c2.934-0.233,4.717-0.5,5.35-0.8c-3.267,1.967-5.05,5.717-5.35,11.25v33v133.75
						c-0.2,1.967-0.467,3.733-0.8,5.3c-0.7,2.934-1.983,5.65-3.851,8.15c-0.966,1.233-2.166,2.384-3.6,3.45
						c-2.9,1.967-6.917,3.517-12.05,4.649c-1.767,0.534-4.367,1.167-7.8,1.9c-40.033,7.634-80,7.116-119.9-1.55
						c-4.467-1.367-8.167-2.816-11.1-4.351c-2.733-1.566-4.667-3.25-5.8-5.05c-2.2-3.633-3.233-7.649-3.1-12.05v-134.2v-15.65
						C21.017,23.216,15.55,13.683,5.35,8.383z"/>
					<path fill-rule="evenodd" clip-rule="evenodd" fill="#FFFFFF" d="M195.1,8.183v0.2c-0.633,0.3-2.416,0.567-5.35,0.8
						c-4.366,0.3-11.816,0.6-22.35,0.9c-18.134,0.333-40.517,0.5-67.15,0.5c-26.7,0-49.167-0.167-67.4-0.5
						c-3.534-0.067-7.233-0.167-11.1-0.3c-9.8-0.4-15.267-0.867-16.4-1.4H5v-0.2c0-0.05,0.083-0.1,0.25-0.15h4.325
						C9.559,8.049,9.55,8.066,9.55,8.083c0,0.066,4.067,0.217,12.2,0.45l14.2,0.3c18.366,0.233,39.583,0.35,63.65,0.35
						c24.034,0,45.284-0.117,63.75-0.35c17.601-0.3,26.4-0.55,26.4-0.75l-0.075-0.05h4.8C194.797,8.086,195.006,8.136,195.1,8.183
						h0.301c0,0.133-0.101,0.2-0.301,0.2V8.183z"/>
					
						<path fill-rule="evenodd" clip-rule="evenodd" fill="none" stroke="#CFD4D4" stroke-width="0.1" stroke-linecap="round" stroke-linejoin="round" stroke-miterlimit="3" d="
						M195.1,8.383c-3.267,1.967-5.05,5.717-5.35,11.25v33v133.75c-0.2,1.967-0.467,3.733-0.8,5.3c-0.7,2.934-1.983,5.65-3.851,8.15
						c-0.966,1.233-2.166,2.384-3.6,3.45c-2.9,1.967-6.917,3.517-12.05,4.649c-1.767,0.534-4.367,1.167-7.8,1.9
						c-40.033,7.634-80,7.116-119.9-1.55c-4.467-1.367-8.167-2.816-11.1-4.351c-2.733-1.566-4.667-3.25-5.8-5.05
						c-2.2-3.633-3.233-7.649-3.1-12.05v-134.2v-15.65c-0.733-13.767-6.2-23.3-16.4-28.6H5v-0.2c0-0.05,0.083-0.1,0.25-0.15
						 M194.475,8.033c0.322,0.053,0.531,0.103,0.625,0.15h0.301c0,0.133-0.101,0.2-0.301,0.2c-0.633,0.3-2.416,0.567-5.35,0.8
						c-4.366,0.3-11.816,0.6-22.35,0.9c-18.134,0.333-40.517,0.5-67.15,0.5c-26.7,0-49.167-0.167-67.4-0.5
						c-3.534-0.067-7.233-0.167-11.1-0.3c-9.8-0.4-15.267-0.867-16.4-1.4 M195.1,8.183v0.2"/>
				</g>
			</g>
		</g>
		
			<radialGradient id="SVGID_2_" cx="24.5" cy="273.7832" r="24.9" gradientTransform="matrix(0.2973 0 0 0.6182 172.2254 -150.9331)" gradientUnits="userSpaceOnUse">
			<stop  offset="0" style="stop-color:#FFFFFF"/>
			<stop  offset="0.1216" style="stop-color:#FFFFFF"/>
			<stop  offset="0.2824" style="stop-color:#FFFFFF;stop-opacity:0.4471"/>
			<stop  offset="0.502" style="stop-color:#FFFFFF;stop-opacity:0.1882"/>
			<stop  offset="0.6824" style="stop-color:#FFFFFF;stop-opacity:0.0863"/>
			<stop  offset="0.9294" style="stop-color:#FFFFFF;stop-opacity:0"/>
		</radialGradient>
		<path fill-rule="evenodd" clip-rule="evenodd" fill="url(#SVGID_2_)" d="M186.896,18.331c0,4.224-0.724,7.831-2.17,10.819
			c-1.438,3.009-3.171,4.513-5.203,4.513c-2.031,0-3.771-1.504-5.217-4.513c-1.438-2.988-2.155-6.595-2.155-10.819
			c0-4.225,0.718-7.842,2.155-10.85c1.446-2.989,3.186-4.482,5.217-4.482c2.032,0,3.766,1.494,5.203,4.482
			C186.173,10.489,186.896,14.106,186.896,18.331z"/>
		
			<radialGradient id="SVGID_3_" cx="24.5" cy="273.7842" r="24.8995" gradientTransform="matrix(0.2973 0 0 3.2279 172.2254 -774.1019)" gradientUnits="userSpaceOnUse">
			<stop  offset="0" style="stop-color:#FFFFFF"/>
			<stop  offset="0.1216" style="stop-color:#FFFFFF"/>
			<stop  offset="0.2824" style="stop-color:#FFFFFF;stop-opacity:0.4471"/>
			<stop  offset="0.502" style="stop-color:#FFFFFF;stop-opacity:0.1882"/>
			<stop  offset="0.6824" style="stop-color:#FFFFFF;stop-opacity:0.0863"/>
			<stop  offset="0.9294" style="stop-color:#FFFFFF;stop-opacity:0"/>
		</radialGradient>
		<path fill-rule="evenodd" clip-rule="evenodd" fill="url(#SVGID_3_)" d="M186.896,109.646c0,22.056-0.724,40.885-2.17,56.488
			c-1.438,15.708-3.171,23.563-5.203,23.563c-2.031,0-3.771-7.854-5.217-23.563c-1.438-15.604-2.155-34.432-2.155-56.488
			c0-22.06,0.718-40.941,2.155-56.649c1.446-15.604,3.186-23.402,5.217-23.402c2.032,0,3.766,7.799,5.203,23.402
			C186.173,68.704,186.896,87.586,186.896,109.646z"/>
		
			<radialGradient id="SVGID_4_" cx="24.5488" cy="273.7832" r="24.8755" gradientTransform="matrix(0.2973 0 0 2.303 23.9251 -512.8604)" gradientUnits="userSpaceOnUse">
			<stop  offset="0" style="stop-color:#FFFFFF"/>
			<stop  offset="0.1216" style="stop-color:#FFFFFF"/>
			<stop  offset="0.2824" style="stop-color:#FFFFFF;stop-opacity:0.4471"/>
			<stop  offset="0.502" style="stop-color:#FFFFFF;stop-opacity:0.1882"/>
			<stop  offset="0.6824" style="stop-color:#FFFFFF;stop-opacity:0.0863"/>
			<stop  offset="0.9294" style="stop-color:#FFFFFF;stop-opacity:0"/>
		</radialGradient>
		<path fill-rule="evenodd" clip-rule="evenodd" fill="url(#SVGID_4_)" d="M38.596,117.673c0,15.736-0.724,29.17-2.17,40.303
			c-1.437,11.207-3.171,16.813-5.202,16.813c-2.032,0-3.771-5.605-5.217-16.813c-1.437-11.133-2.156-24.566-2.156-40.303
			c0-15.739,0.719-29.211,2.156-40.418c1.447-11.133,3.186-16.697,5.217-16.697c2.031,0,3.766,5.564,5.202,16.697
			C37.873,88.462,38.596,101.934,38.596,117.673z"/>
		
			<radialGradient id="SVGID_5_" cx="24.5493" cy="273.7803" r="24.8767" gradientTransform="matrix(0.4277 0.2175 -0.0615 0.1209 41.6158 161.2431)" gradientUnits="userSpaceOnUse">
			<stop  offset="0" style="stop-color:#FFFFFF"/>
			<stop  offset="0.1216" style="stop-color:#FFFFFF"/>
			<stop  offset="0.2824" style="stop-color:#FFFFFF;stop-opacity:0.4471"/>
			<stop  offset="0.502" style="stop-color:#FFFFFF;stop-opacity:0.1882"/>
			<stop  offset="0.6824" style="stop-color:#FFFFFF;stop-opacity:0.0863"/>
			<stop  offset="0.9294" style="stop-color:#FFFFFF;stop-opacity:0"/>
		</radialGradient>
		<path fill-rule="evenodd" clip-rule="evenodd" fill="url(#SVGID_5_)" d="M45.896,205.067c-0.42,0.826-1.819,1.001-4.198,0.527
			c-2.366-0.463-5.011-1.438-7.933-2.924c-2.923-1.486-5.275-3.053-7.058-4.699c-1.771-1.636-2.445-2.866-2.025-3.692
			c0.42-0.825,1.813-1.007,4.18-0.544c2.378,0.475,5.029,1.454,7.952,2.94s5.269,3.047,7.039,4.683
			C45.635,203.005,46.316,204.241,45.896,205.067z"/>
		<g>
			<g>
				
					<radialGradient id="SVGID_6_" cx="106.9502" cy="180.4834" r="36.525" gradientTransform="matrix(-4.371139e-008 -1 2.988 -1.306106e-007 -432.3381 287.4336)" gradientUnits="userSpaceOnUse">
					<stop  offset="0.749" style="stop-color:#FFFFFF;stop-opacity:0"/>
					<stop  offset="1" style="stop-color:#EEF8FA;stop-opacity:0.6"/>
				</radialGradient>
				<path fill-rule="evenodd" clip-rule="evenodd" fill="url(#SVGID_6_)" d="M21.75,179.233h168c0,1.033,0,2.116,0,3.25v3.899
					c-0.2,1.967-0.467,3.733-0.8,5.3c-0.7,2.934-1.983,5.65-3.851,8.15c-0.966,1.233-2.166,2.384-3.6,3.45
					c-2.9,1.967-6.917,3.517-12.05,4.649c-1.767,0.534-4.367,1.167-7.8,1.9c-40.033,7.634-80,7.116-119.9-1.55
					c-4.467-1.367-8.167-2.816-11.1-4.351c-2.733-1.566-4.667-3.25-5.8-5.05c-2.2-3.633-3.233-7.649-3.1-12.05V179.233z"/>
				
					<path fill-rule="evenodd" clip-rule="evenodd" fill="none" stroke="#FFFFFF" stroke-width="0.1" stroke-linecap="round" stroke-linejoin="round" stroke-miterlimit="3" d="
					M21.75,179.233v7.6c-0.133,4.4,0.9,8.417,3.1,12.05c1.133,1.8,3.066,3.483,5.8,5.05c2.934,1.534,6.633,2.983,11.1,4.351
					c39.9,8.666,79.867,9.184,119.9,1.55c3.433-0.733,6.033-1.366,7.8-1.9c5.133-1.133,9.149-2.683,12.05-4.649
					c1.434-1.066,2.634-2.217,3.6-3.45c1.867-2.5,3.15-5.217,3.851-8.15c0.333-1.566,0.6-3.333,0.8-5.3v-3.899"/>
			</g>
		</g>
		<g>
			<g>
				<path fill-rule="evenodd" clip-rule="evenodd" fill="#FFFFFF" d="M119.1,43.083c-0.399,0.3-0.6,0.717-0.6,1.25h-1.1
					c0.199-0.833,0.5-1.467,0.899-1.9c0.533-0.533,1.283-0.8,2.25-0.8c0.7,0,1.317,0.267,1.851,0.8c0.433,0.533,0.649,1.1,0.649,1.7
					c0,0.434-0.066,0.817-0.2,1.15c-0.166,0.2-0.366,0.566-0.6,1.1c-0.434,0.4-1,0.867-1.7,1.4c-0.666,0.6-1.083,1.017-1.25,1.25
					c-0.233,0.2-0.45,0.35-0.649,0.45h4.399v1.25h-5.8c0-0.3,0.05-0.617,0.15-0.95c0.199-0.3,0.467-0.667,0.8-1.1
					c0.2-0.4,0.649-0.817,1.35-1.25c0.967-0.934,1.601-1.617,1.9-2.05c0.399-0.4,0.6-0.816,0.6-1.25c0-0.4-0.149-0.75-0.45-1.05
					c-0.3-0.333-0.716-0.5-1.25-0.5C119.816,42.583,119.4,42.75,119.1,43.083z M135.4,41.983c0.3,0.2,0.566,0.5,0.8,0.9
					c0.167,0.333,0.366,0.75,0.6,1.25c0.067,0.534,0.101,1.217,0.101,2.05c0,1.066-0.084,1.9-0.25,2.5c-0.233,0.667-0.567,1.2-1,1.6
					c-0.4,0.3-0.9,0.45-1.5,0.45c-0.967,0-1.65-0.316-2.051-0.95c-0.633-0.733-0.949-1.934-0.949-3.6c0-1.033,0.1-1.867,0.3-2.5
					c0.3-0.6,0.616-1.117,0.95-1.55c0.5-0.333,1.083-0.5,1.75-0.5C134.55,41.633,134.967,41.75,135.4,41.983z M128.35,41.983
					c0.4,0.2,0.717,0.5,0.95,0.9c0.3,0.333,0.5,0.75,0.601,1.25c0.199,0.534,0.3,1.217,0.3,2.05c0,1.066-0.15,1.9-0.45,2.5
					c-0.233,0.667-0.55,1.2-0.95,1.6c-0.433,0.3-0.95,0.45-1.55,0.45c-0.833,0-1.517-0.316-2.05-0.95
					c-0.5-0.733-0.75-1.934-0.75-3.6c0-1.033,0.05-1.867,0.149-2.5c0.2-0.6,0.518-1.117,0.95-1.55c0.5-0.333,1.067-0.5,1.7-0.5
					C127.783,41.633,128.15,41.75,128.35,41.983z M128.35,43.383c-0.199-0.533-0.566-0.8-1.1-0.8c-0.633,0-1.05,0.267-1.25,0.8
					c-0.434,0.434-0.65,1.367-0.65,2.8c0,1.5,0.217,2.483,0.65,2.95c0.2,0.434,0.617,0.65,1.25,0.65c0.533,0,0.9-0.217,1.1-0.65
					c0.4-0.466,0.601-1.45,0.601-2.95C128.95,44.75,128.75,43.816,128.35,43.383z M134.15,42.583c-0.533,0-0.95,0.267-1.25,0.8
					c-0.434,0.434-0.65,1.367-0.65,2.8c0,1.5,0.15,2.483,0.45,2.95c0.434,0.434,0.917,0.65,1.45,0.65c0.399,0,0.816-0.217,1.25-0.65
					c0.3-0.466,0.449-1.45,0.449-2.95c0-1.434-0.149-2.367-0.449-2.8C134.967,42.85,134.55,42.583,134.15,42.583z M118.3,91.083v-1
					c0.533-0.3,1.067-0.65,1.601-1.05c0.433-0.3,0.733-0.667,0.899-1.1h0.8v8.9h-1.05v-7c-0.3,0.3-0.666,0.533-1.1,0.7
					C118.917,90.766,118.533,90.95,118.3,91.083z M136.2,89.033c0.167,0.4,0.366,0.816,0.6,1.25c0.067,0.533,0.101,1.25,0.101,2.15
					c0,1.066-0.084,1.867-0.25,2.4c-0.233,0.7-0.567,1.2-1,1.5c-0.4,0.433-0.9,0.65-1.5,0.65c-0.967,0-1.65-0.3-2.051-0.9
					c-0.633-0.833-0.949-2.05-0.949-3.65c0-1.033,0.1-1.9,0.3-2.6c0.3-0.667,0.616-1.15,0.95-1.45c0.5-0.3,1.083-0.45,1.75-0.45
					c0.399,0,0.816,0.1,1.25,0.3C135.7,88.466,135.967,88.733,136.2,89.033z M134.15,88.733c-0.533,0-0.95,0.217-1.25,0.65
					c-0.434,0.6-0.65,1.617-0.65,3.05c0,1.467,0.15,2.417,0.45,2.85c0.434,0.533,0.917,0.8,1.45,0.8c0.399,0,0.816-0.267,1.25-0.8
					c0.3-0.434,0.449-1.383,0.449-2.85c0-1.434-0.149-2.417-0.449-2.95C134.967,88.983,134.55,88.733,134.15,88.733z M129.75,88.133
					v0.9h-3.45l-0.45,2.5c0.4-0.434,0.917-0.65,1.551-0.65c0.733,0,1.399,0.267,2,0.8c0.533,0.5,0.8,1.217,0.8,2.15
					c0,0.733-0.267,1.417-0.8,2.05c-0.601,0.733-1.367,1.1-2.301,1.1c-0.732,0-1.366-0.217-1.899-0.65c-0.5-0.5-0.75-1.167-0.75-2
					h1.1c0,0.633,0.2,1.1,0.601,1.4c0.199,0.233,0.517,0.35,0.949,0.35c0.634,0,1.101-0.217,1.4-0.65c0.3-0.4,0.45-0.934,0.45-1.6
					c0-0.6-0.15-1.067-0.45-1.4c-0.3-0.434-0.767-0.65-1.4-0.65c-0.333,0-0.6,0.117-0.8,0.35c-0.3,0.2-0.55,0.35-0.75,0.45h-1.1
					l0.899-4.45H129.75z M118.3,136.383c0.533-0.333,1.067-0.65,1.601-0.95c0.433-0.533,0.733-1,0.899-1.4h0.8v8.9h-1.05v-6.9
					c-0.3,0.233-0.666,0.5-1.1,0.8c-0.533,0.2-0.917,0.417-1.15,0.65V136.383z M135.4,134.333c0.3,0.2,0.566,0.517,0.8,0.95
					c0.167,0.333,0.366,0.75,0.6,1.25c0.067,0.533,0.101,1.216,0.101,2.05c0,1.033-0.084,1.917-0.25,2.65
					c-0.233,0.533-0.567,1-1,1.4c-0.4,0.434-0.9,0.65-1.5,0.65c-0.967,0-1.65-0.383-2.051-1.15c-0.633-0.6-0.949-1.783-0.949-3.55
					c0-0.967,0.1-1.817,0.3-2.55c0.3-0.6,0.616-1.067,0.95-1.4c0.5-0.4,1.083-0.6,1.75-0.6
					C134.55,134.033,134.967,134.133,135.4,134.333z M132.25,138.583c0,1.467,0.15,2.45,0.45,2.95c0.434,0.533,0.917,0.8,1.45,0.8
					c0.399,0,0.816-0.267,1.25-0.8c0.3-0.5,0.449-1.483,0.449-2.95s-0.149-2.4-0.449-2.8c-0.434-0.434-0.851-0.65-1.25-0.65
					c-0.533,0-0.95,0.15-1.25,0.45C132.467,136.116,132.25,137.116,132.25,138.583z M128.35,134.333c0.4,0.2,0.717,0.517,0.95,0.95
					c0.3,0.333,0.5,0.75,0.601,1.25c0.199,0.533,0.3,1.216,0.3,2.05c0,1.033-0.15,1.917-0.45,2.65c-0.233,0.533-0.55,1-0.95,1.4
					c-0.433,0.434-0.95,0.65-1.55,0.65c-0.833,0-1.517-0.383-2.05-1.15c-0.5-0.6-0.75-1.783-0.75-3.55
					c0-0.967,0.05-1.817,0.149-2.55c0.2-0.6,0.518-1.067,0.95-1.4c0.5-0.4,1.067-0.6,1.7-0.6
					C127.783,134.033,128.15,134.133,128.35,134.333z M125.35,138.583c0,1.467,0.217,2.45,0.65,2.95c0.2,0.533,0.617,0.8,1.25,0.8
					c0.533,0,0.9-0.267,1.1-0.8c0.4-0.5,0.601-1.483,0.601-2.95s-0.2-2.4-0.601-2.8c-0.199-0.434-0.566-0.65-1.1-0.65
					c-0.633,0-1.05,0.15-1.25,0.45C125.566,136.116,125.35,137.116,125.35,138.583z M122.85,178.283h-3.399l-0.601,2.2
					c0.467-0.334,1.034-0.5,1.7-0.5c0.834,0,1.45,0.267,1.851,0.8c0.6,0.533,0.899,1.217,0.899,2.05c0,0.934-0.233,1.65-0.7,2.15
					c-0.533,0.767-1.283,1.149-2.25,1.149c-0.833,0-1.517-0.267-2.05-0.8c-0.467-0.434-0.767-1.017-0.899-1.75l1.1-0.15
					c0.1,0.601,0.3,1.017,0.6,1.25c0.301,0.301,0.717,0.45,1.25,0.45c0.434,0,0.851-0.2,1.25-0.6c0.434-0.434,0.65-0.95,0.65-1.55
					c0-0.634-0.217-1.101-0.65-1.4c-0.3-0.434-0.716-0.65-1.25-0.65c-0.399,0-0.75,0.101-1.05,0.301
					c-0.3,0.233-0.517,0.433-0.649,0.6l-0.95-0.1l0.8-4.551h4.35V178.283z M129.3,178.083c0.3,0.333,0.5,0.75,0.601,1.25
					c0.199,0.667,0.3,1.417,0.3,2.25c0,0.934-0.15,1.767-0.45,2.5c-0.233,0.6-0.55,1.066-0.95,1.4
					c-0.433,0.433-0.95,0.649-1.55,0.649c-0.833,0-1.517-0.333-2.05-1c-0.5-0.7-0.75-1.883-0.75-3.55c0-1.066,0.05-1.967,0.149-2.7
					c0.2-0.533,0.518-1,0.95-1.399c0.5-0.434,1.067-0.65,1.7-0.65c0.533,0,0.9,0.167,1.1,0.5
					C128.75,177.533,129.066,177.783,129.3,178.083z M126,178.433c-0.434,0.601-0.65,1.65-0.65,3.15c0,1.434,0.217,2.35,0.65,2.75
					c0.2,0.533,0.617,0.8,1.25,0.8c0.533,0,0.9-0.267,1.1-0.8c0.4-0.4,0.601-1.316,0.601-2.75c0-1.5-0.2-2.5-0.601-3
					c-0.199-0.4-0.566-0.6-1.1-0.6C126.617,177.983,126.2,178.133,126,178.433z"/>
				
					<polyline fill-rule="evenodd" clip-rule="evenodd" fill="none" stroke="#FFFFFF" stroke-width="0.75" stroke-linecap="round" stroke-linejoin="round" stroke-miterlimit="3" stroke-opacity="0.6" points="
					83.95,182.333 83.95,139.333 83.95,93.033 83.95,46.983 				"/>
				
					<path fill-rule="evenodd" clip-rule="evenodd" fill="none" stroke="#E6E6E6" stroke-width="0.75" stroke-linecap="round" stroke-linejoin="round" stroke-miterlimit="3" d="
					M83.95,46.983h29.55 M83.95,93.033h29.55 M83.95,182.333h29.55 M83.95,139.333h29.55"/>
			</g>
		</g>
	</g>
</g>
</svg>
