<?xml version="1.0" encoding="utf-8"?>
<!-- Generator: Adobe Illustrator 16.0.3, SVG Export Plug-In . SVG Version: 6.00 Build 0)  -->
<!DOCTYPE svg PUBLIC "-//W3C//DTD SVG 1.1//EN" "http://www.w3.org/Graphics/SVG/1.1/DTD/svg11.dtd">
<svg version="1.1" xmlns="http://www.w3.org/2000/svg" xmlns:xlink="http://www.w3.org/1999/xlink" x="0px" y="0px" width="50.5px"
	 height="41.5px" viewBox="0 0 50.5 41.5" enable-background="new 0 0 50.5 41.5" xml:space="preserve">
<g id="Layer_3">
	<g>
		<g>
			<g>
				<g>
					<linearGradient id="SVGID_1_" gradientUnits="userSpaceOnUse" x1="1.5" y1="20.0571" x2="48.9" y2="20.0571">
						<stop  offset="0" style="stop-color:#A8A5A5"/>
						<stop  offset="0.0667" style="stop-color:#CDCDCD"/>
						<stop  offset="0.3098" style="stop-color:#D4D4D4"/>
						<stop  offset="0.502" style="stop-color:#F7F7F7"/>
						<stop  offset="0.8745" style="stop-color:#FFFFFF"/>
						<stop  offset="1" style="stop-color:#B8B8B8"/>
					</linearGradient>
					<path fill-rule="evenodd" clip-rule="evenodd" fill="url(#SVGID_1_)" d="M48.95,35.333c-0.101,0.033-0.233,0.083-0.4,0.15
						c-0.233,0.066-0.483,0.133-0.75,0.199c-0.1,0.034-0.2,0.067-0.3,0.101c-0.233,0.033-0.483,0.066-0.75,0.1
						c-0.366,0.033-0.767,0.084-1.2,0.15c-0.233,0-0.483,0.017-0.75,0.05c-0.366,0.033-0.767,0.066-1.2,0.1
						c-0.199,0.067-0.433,0.101-0.699,0.101c-0.2,0-0.4,0.017-0.601,0.05c-0.2,0-0.434,0.017-0.7,0.05s-0.566,0.05-0.899,0.05
						c-0.4,0.034-0.851,0.067-1.351,0.101c-0.3,0-0.633,0.017-1,0.05c-0.5,0.033-1,0.066-1.5,0.1c-0.333,0-0.649,0-0.949,0
						c-0.534,0-1.084,0.017-1.65,0.051c-0.333,0-0.667,0.017-1,0.05c-0.6,0-1.217,0.033-1.85,0.1c-0.301,0-0.617,0-0.95,0
						c-0.733,0-1.467,0-2.2,0c-0.066,0-0.15,0-0.25,0c-0.2,0-0.4,0.017-0.6,0.05c-0.7,0-1.417,0-2.15,0H25.2
						c-0.267,0-0.517,0-0.75,0c-0.1,0-0.217,0-0.35,0c-0.633,0-1.267,0-1.9,0c-0.367-0.033-0.717-0.05-1.05-0.05
						c-0.767,0-1.533,0-2.3,0c-0.267-0.066-0.533-0.1-0.8-0.1c-0.767-0.033-1.517-0.05-2.25-0.05c-0.3-0.034-0.617-0.051-0.95-0.051
						c-0.6,0-1.2-0.017-1.8-0.05c-0.367-0.033-0.683-0.05-0.95-0.05c-0.6-0.033-1.167-0.066-1.7-0.1
						c-0.233-0.034-0.483-0.051-0.75-0.051H9.6c-0.033,0-0.083,0-0.15,0c-0.434-0.033-0.85-0.066-1.25-0.1
						c-0.067,0-0.167-0.017-0.3-0.05c-0.033,0-0.083,0-0.15,0c-0.2,0-0.383,0-0.55,0c-0.1-0.066-0.2-0.101-0.3-0.101
						c-0.467-0.033-0.917-0.083-1.35-0.149c-0.1,0-0.2,0-0.3,0c-0.167,0-0.3-0.017-0.4-0.05c-0.067,0-0.133,0-0.2,0
						c-0.467-0.067-0.883-0.134-1.25-0.2c-0.133,0-0.267-0.017-0.4-0.05c-0.067,0-0.133-0.017-0.2-0.051c-0.066,0-0.117,0-0.15,0
						c-0.066-0.066-0.133-0.1-0.2-0.1c-0.3-0.066-0.55-0.134-0.75-0.2c-0.034-0.033-0.067-0.05-0.1-0.05v-0.15v-0.05v-0.399v-0.95
						c0-0.101,0-0.2,0-0.3v-3.551c0-0.033,0-0.066,0-0.1v-21.9c0-2.367,0.75-3.95,2.25-4.75c-0.533,0.566-0.233,1,0.9,1.3
						c1.1,0.3,3.083,0.517,5.95,0.65c4.267,0.3,9.083,0.45,14.45,0.45c5.9,0,10.734-0.133,14.5-0.4c2.833-0.233,4.767-0.467,5.8-0.7
						l0.1-0.05c1.134-0.3,1.584-0.667,1.351-1.1l0.149,0.15c0.967,0.7,1.601,2.033,1.9,4v22.8v1.35V35.333z"/>
					<linearGradient id="SVGID_2_" gradientUnits="userSpaceOnUse" x1="0.0127" y1="4.1074" x2="50.4877" y2="4.1074">
						<stop  offset="0" style="stop-color:#989898"/>
						<stop  offset="0.2118" style="stop-color:#D3D3D3"/>
						<stop  offset="0.2588" style="stop-color:#E5E5E5"/>
						<stop  offset="0.7686" style="stop-color:#FFFFFF"/>
						<stop  offset="0.9451" style="stop-color:#B6B6B6"/>
					</linearGradient>
					<path fill-rule="evenodd" clip-rule="evenodd" fill="url(#SVGID_2_)" d="M46.9,3.333c0.233,0.433-0.217,0.8-1.351,1.1
						l-0.1,0.05c-1.033,0.233-2.967,0.467-5.8,0.7c-3.767,0.267-8.601,0.4-14.5,0.4c-5.367,0-10.183-0.15-14.45-0.45
						c-2.867-0.133-4.85-0.35-5.95-0.65c-1.133-0.3-1.433-0.733-0.9-1.3C4.283,2.916,4.667,2.766,5,2.732
						c-0.167,0.067-0.25,0.133-0.25,0.2c0,0.367,1.983,0.683,5.95,0.95c4.267,0.3,9.083,0.45,14.45,0.45s10.15-0.15,14.35-0.45
						c4-0.267,6-0.583,6-0.95c0-0.1-0.184-0.2-0.55-0.3C45.684,2.732,46.333,2.966,46.9,3.333z"/>
					
						<radialGradient id="SVGID_3_" cx="23.25" cy="12.7324" r="22.825" fx="16.4473" fy="12.7324" gradientTransform="matrix(1 0 0 1.0372 0 -0.4742)" gradientUnits="userSpaceOnUse">
						<stop  offset="0.1804" style="stop-color:#BBBBBB"/>
						<stop  offset="0.3412" style="stop-color:#C2C2C2"/>
						<stop  offset="0.7961" style="stop-color:#ECECEC"/>
					</radialGradient>
					<path fill-rule="evenodd" clip-rule="evenodd" fill="url(#SVGID_3_)" d="M44.95,2.632c0.366,0.1,0.55,0.2,0.55,0.3
						c0,0.367-2,0.683-6,0.95c-4.2,0.3-8.983,0.45-14.35,0.45s-10.183-0.15-14.45-0.45c-3.967-0.267-5.95-0.583-5.95-0.95
						c0-0.067,0.083-0.133,0.25-0.2c0.3-0.133,0.9-0.267,1.8-0.4c0.767-0.133,2.067-0.25,3.9-0.35c3.7-0.267,8.517-0.4,14.45-0.4
						c5.9,0,10.683,0.133,14.35,0.4c1.6,0.1,2.967,0.233,4.1,0.4L44.95,2.632z"/>
					<linearGradient id="SVGID_4_" gradientUnits="userSpaceOnUse" x1="1.1499" y1="37.9067" x2="49.4004" y2="37.9067">
						<stop  offset="0" style="stop-color:#BFBFBF"/>
						<stop  offset="0.2863" style="stop-color:#CFCFCF"/>
						<stop  offset="0.651" style="stop-color:#FFFFFF"/>
						<stop  offset="0.7922" style="stop-color:#F8F8F8"/>
						<stop  offset="1" style="stop-color:#ADADAD"/>
					</linearGradient>
					<path fill-rule="evenodd" clip-rule="evenodd" fill="url(#SVGID_4_)" d="M1.15,35.682c0.002,0.102,0.119,0.201,0.35,0.301
						c0.033,0.033,0.067,0.05,0.1,0.05c0.2,0.066,0.483,0.149,0.85,0.25c0.066,0.033,0.133,0.05,0.2,0.05
						c0.033,0,0.083,0.017,0.15,0.05c0.067,0,0.133,0.017,0.2,0.05c0.133,0,0.267,0.017,0.4,0.051
						c0.367,0.033,0.783,0.083,1.25,0.149c0.067,0,0.133,0.017,0.2,0.05c0.1,0,0.233,0,0.4,0c0.1,0,0.2,0.017,0.3,0.051
						c0.434,0.033,0.883,0.1,1.35,0.199c0.1,0,0.2,0,0.3,0c0.167,0,0.35,0.017,0.55,0.051c0.067,0,0.117,0,0.15,0
						c0.133,0,0.233,0,0.3,0c0.4,0.033,0.816,0.066,1.25,0.1c0.066,0,0.117,0.017,0.15,0.05c0.233,0,0.5,0.017,0.8,0.05
						c0.533,0,1.1,0.017,1.7,0.051c0.267,0.033,0.583,0.05,0.95,0.05c0.6,0.033,1.2,0.066,1.8,0.1c0.333,0,0.65,0,0.95,0
						c0.733,0.066,1.483,0.117,2.25,0.15c0.267,0,0.534,0,0.8,0c0.767,0,1.533,0.017,2.3,0.05c0.333,0,0.684,0,1.05,0
						c0.633,0,1.267,0,1.9,0c0.133,0,0.25,0,0.35,0c0.233,0,0.483,0,0.75,0h0.05c0.733,0,1.45,0,2.15,0c0.2,0,0.4,0,0.6,0
						c0.1,0,0.184,0,0.25,0c0.733,0,1.467-0.017,2.2-0.05c0.333,0,0.649,0,0.95,0c0.633,0,1.25-0.017,1.85-0.05c0.333,0,0.667,0,1,0
						c0.566-0.067,1.116-0.101,1.65-0.101c0.3-0.033,0.616-0.05,0.949-0.05c0.5-0.033,1-0.05,1.5-0.05
						c0.367-0.033,0.7-0.066,1-0.101c0.5,0,0.95-0.017,1.351-0.05c0.333-0.033,0.633-0.05,0.899-0.05c0.267-0.033,0.5-0.066,0.7-0.1
						c0.2,0,0.4,0,0.601,0c0.267-0.034,0.5-0.051,0.699-0.051c0.434-0.1,0.834-0.166,1.2-0.199c0.267-0.034,0.517-0.051,0.75-0.051
						c0.434-0.033,0.834-0.083,1.2-0.149c0.267-0.033,0.517-0.066,0.75-0.101c0.1-0.033,0.2-0.05,0.3-0.05
						c0.267-0.066,0.517-0.149,0.75-0.25c0.2-0.066,0.367-0.116,0.5-0.149c0.2-0.101,0.316-0.184,0.351-0.25v2.6
						c-0.108,0.113-0.392,0.247-0.851,0.4c-0.233,0.066-0.483,0.133-0.75,0.199c-0.1,0-0.2,0.017-0.3,0.051
						c-0.233,0.033-0.483,0.083-0.75,0.149c-0.366,0.033-0.767,0.066-1.2,0.101c-0.233,0.066-0.483,0.116-0.75,0.149
						c-0.366,0-0.767,0.033-1.2,0.101c-0.199,0-0.433,0.017-0.699,0.05c-0.2,0-0.4,0.017-0.601,0.05c-0.2,0-0.434,0.017-0.7,0.05
						c-0.267,0-0.566,0.017-0.899,0.05c-0.4,0.034-0.851,0.067-1.351,0.101c-0.3,0-0.633,0.017-1,0.05c-0.5,0-1,0.033-1.5,0.1
						c-0.333,0-0.649,0.017-0.949,0.051c-0.534,0-1.084,0.017-1.65,0.05c-0.333,0-0.667,0-1,0c-0.6,0.033-1.217,0.05-1.85,0.05
						c-0.301,0-0.617,0-0.95,0c-0.733,0.033-1.467,0.05-2.2,0.05c-0.066,0-0.15,0-0.25,0c-0.2,0-0.4,0-0.6,0c-0.7,0-1.417,0-2.15,0
						H25.2c-0.267,0-0.517,0-0.75,0c-0.1,0-0.217,0-0.35,0c-0.633,0-1.267,0-1.9,0c-0.367,0-0.717,0-1.05,0
						c-0.767-0.033-1.533-0.05-2.3-0.05c-0.267,0-0.533,0-0.8,0c-0.767-0.033-1.517-0.05-2.25-0.05c-0.3-0.033-0.617-0.05-0.95-0.05
						c-0.6-0.034-1.2-0.084-1.8-0.15c-0.367,0-0.683-0.017-0.95-0.05c-0.6,0-1.167-0.017-1.7-0.05
						c-0.333-0.034-0.65-0.067-0.95-0.101c-0.434-0.033-0.85-0.05-1.25-0.05c-0.067,0-0.167-0.017-0.3-0.05
						c-0.3-0.033-0.633-0.05-1-0.05c-0.467-0.067-0.917-0.117-1.35-0.15c-0.3-0.066-0.6-0.116-0.9-0.15
						c-0.467-0.033-0.883-0.083-1.25-0.149C3.167,39,2.967,38.966,2.8,38.932c-0.066,0-0.117,0-0.15,0
						c-0.533-0.133-0.917-0.267-1.15-0.399c-0.231-0.1-0.348-0.199-0.35-0.3V35.682z"/>
					<linearGradient id="SVGID_5_" gradientUnits="userSpaceOnUse" x1="5.5" y1="36.3823" x2="45" y2="36.3823">
						<stop  offset="0" style="stop-color:#B7B5B5"/>
						<stop  offset="0.6039" style="stop-color:#DEDEDE"/>
						<stop  offset="1" style="stop-color:#BDBDBD"/>
					</linearGradient>
					<path fill-rule="evenodd" clip-rule="evenodd" fill="url(#SVGID_5_)" d="M49.4,35.733c-0.034,0.066-0.15,0.149-0.351,0.25
						c-0.133,0.033-0.3,0.083-0.5,0.149c-0.233,0.101-0.483,0.184-0.75,0.25c-0.1,0-0.2,0.017-0.3,0.05
						c-0.233,0.034-0.483,0.067-0.75,0.101c-0.366,0.066-0.767,0.116-1.2,0.149c-0.233,0-0.483,0.017-0.75,0.051
						c-0.366,0.033-0.767,0.1-1.2,0.199c-0.199,0-0.433,0.017-0.699,0.051c-0.2,0-0.4,0-0.601,0c-0.2,0.033-0.434,0.066-0.7,0.1
						c-0.267,0-0.566,0.017-0.899,0.05c-0.4,0.033-0.851,0.05-1.351,0.05c-0.3,0.034-0.633,0.067-1,0.101c-0.5,0-1,0.017-1.5,0.05
						c-0.333,0-0.649,0.017-0.949,0.05c-0.534,0-1.084,0.033-1.65,0.101c-0.333,0-0.667,0-1,0c-0.6,0.033-1.217,0.05-1.85,0.05
						c-0.301,0-0.617,0-0.95,0c-0.733,0.033-1.467,0.05-2.2,0.05c-0.066,0-0.15,0-0.25,0c-0.2,0-0.4,0-0.6,0c-0.7,0-1.417,0-2.15,0
						H25.2c-0.267,0-0.517,0-0.75,0c-0.1,0-0.217,0-0.35,0c-0.633,0-1.267,0-1.9,0c-0.367,0-0.717,0-1.05,0
						c-0.767-0.033-1.533-0.05-2.3-0.05c-0.267,0-0.533,0-0.8,0c-0.767-0.033-1.517-0.084-2.25-0.15c-0.3,0-0.617,0-0.95,0
						c-0.6-0.033-1.2-0.066-1.8-0.1c-0.367,0-0.683-0.017-0.95-0.05c-0.6-0.034-1.167-0.051-1.7-0.051
						c-0.3-0.033-0.566-0.05-0.8-0.05c-0.033-0.033-0.083-0.05-0.15-0.05c-0.434-0.033-0.85-0.066-1.25-0.1c-0.067,0-0.167,0-0.3,0
						c-0.033,0-0.083,0-0.15,0c-0.2-0.034-0.383-0.051-0.55-0.051c-0.1,0-0.2,0-0.3,0c-0.467-0.1-0.917-0.166-1.35-0.199
						c-0.1-0.034-0.2-0.051-0.3-0.051c-0.167,0-0.3,0-0.4,0c-0.067-0.033-0.133-0.05-0.2-0.05c-0.467-0.066-0.883-0.116-1.25-0.149
						c-0.133-0.034-0.267-0.051-0.4-0.051c-0.067-0.033-0.133-0.05-0.2-0.05c-0.066-0.033-0.117-0.05-0.15-0.05
						c-0.066,0-0.133-0.017-0.2-0.05c-0.367-0.101-0.65-0.184-0.85-0.25c-0.033,0-0.067-0.017-0.1-0.05
						c-0.231-0.1-0.348-0.199-0.35-0.301v-0.149l0.4-0.3l0.05-0.051v0.15c0.033,0,0.066,0.017,0.1,0.05
						c0.2,0.066,0.45,0.134,0.75,0.2c0.066,0,0.133,0.033,0.2,0.1c0.033,0,0.083,0,0.15,0c0.067,0.034,0.133,0.051,0.2,0.051
						c0.133,0.033,0.267,0.05,0.4,0.05c0.367,0.066,0.783,0.133,1.25,0.2c0.067,0,0.133,0,0.2,0c0.1,0.033,0.233,0.05,0.4,0.05
						c0.1,0,0.2,0,0.3,0c0.434,0.066,0.883,0.116,1.35,0.149c0.1,0,0.2,0.034,0.3,0.101c0.167,0,0.35,0,0.55,0
						c0.067,0,0.117,0,0.15,0c0.133,0.033,0.233,0.05,0.3,0.05c0.4,0.033,0.816,0.066,1.25,0.1c0.066,0,0.117,0,0.15,0h0.05
						c0.267,0,0.517,0.017,0.75,0.051c0.533,0.033,1.1,0.066,1.7,0.1c0.267,0,0.583,0.017,0.95,0.05c0.6,0.033,1.2,0.05,1.8,0.05
						c0.333,0,0.65,0.017,0.95,0.051c0.733,0,1.483,0.017,2.25,0.05c0.267,0,0.534,0.033,0.8,0.1c0.767,0,1.533,0,2.3,0
						c0.333,0,0.684,0.017,1.05,0.05c0.633,0,1.267,0,1.9,0c0.133,0,0.25,0,0.35,0c0.233,0,0.483,0,0.75,0h0.05
						c0.733,0,1.45,0,2.15,0c0.2-0.033,0.4-0.05,0.6-0.05c0.1,0,0.184,0,0.25,0c0.733,0,1.467,0,2.2,0c0.333,0,0.649,0,0.95,0
						c0.633-0.066,1.25-0.1,1.85-0.1c0.333-0.033,0.667-0.05,1-0.05c0.566-0.034,1.116-0.051,1.65-0.051c0.3,0,0.616,0,0.949,0
						c0.5-0.033,1-0.066,1.5-0.1c0.367-0.033,0.7-0.05,1-0.05c0.5-0.033,0.95-0.066,1.351-0.101c0.333,0,0.633-0.017,0.899-0.05
						s0.5-0.05,0.7-0.05c0.2-0.033,0.4-0.05,0.601-0.05c0.267,0,0.5-0.033,0.699-0.101c0.434-0.033,0.834-0.066,1.2-0.1
						c0.267-0.033,0.517-0.05,0.75-0.05c0.434-0.066,0.834-0.117,1.2-0.15c0.267-0.033,0.517-0.066,0.75-0.1
						c0.1-0.033,0.2-0.066,0.3-0.101c0.267-0.066,0.517-0.133,0.75-0.199c0.167-0.067,0.3-0.117,0.4-0.15H49l0.1,0.075l0.301,0.175
						V35.733z"/>
				</g>
			</g>
			<g>
				
					<radialGradient id="SVGID_6_" cx="24.3999" cy="41.8325" r="119.1625" gradientTransform="matrix(1 0 0 0.472 0 22.0857)" gradientUnits="userSpaceOnUse">
					<stop  offset="0.5529" style="stop-color:#C9C8C6;stop-opacity:0"/>
					<stop  offset="0.702" style="stop-color:#8A8988;stop-opacity:0.502"/>
					<stop  offset="0.749" style="stop-color:#8E8D8C;stop-opacity:0.4745"/>
					<stop  offset="0.7843" style="stop-color:#8A8988;stop-opacity:0.502"/>
				</radialGradient>
				<path fill-rule="evenodd" clip-rule="evenodd" fill="url(#SVGID_6_)" d="M4.75,4.482c1.1,0.3,3.083,0.517,5.95,0.65
					c4.267,0.3,9.083,0.45,14.45,0.45c5.9,0,10.734-0.133,14.5-0.4c2.833-0.233,4.767-0.467,5.8-0.7l0.1-0.05
					c1.134-0.3,1.584-0.667,1.351-1.1l0.149,0.15c0.967,0.7,1.601,2.033,1.9,4v27.85c-0.101,0.033-0.233,0.083-0.4,0.15
					c-0.233,0.066-0.483,0.133-0.75,0.199c-0.1,0.034-0.2,0.067-0.3,0.101c-0.233,0.033-0.483,0.066-0.75,0.1
					c-0.366,0.033-0.767,0.084-1.2,0.15c-0.233,0-0.483,0.017-0.75,0.05c-0.366,0.033-0.767,0.066-1.2,0.1
					c-0.199,0.067-0.433,0.101-0.699,0.101c-0.2,0-0.4,0.017-0.601,0.05c-0.2,0-0.434,0.017-0.7,0.05s-0.566,0.05-0.899,0.05
					c-0.4,0.034-0.851,0.067-1.351,0.101c-0.3,0-0.633,0.017-1,0.05c-0.5,0.033-1,0.066-1.5,0.1c-0.333,0-0.649,0-0.949,0
					c-0.534,0-1.084,0.017-1.65,0.051c-0.333,0-0.667,0.017-1,0.05c-0.6,0-1.217,0.033-1.85,0.1c-0.301,0-0.617,0-0.95,0
					c-0.733,0-1.467,0-2.2,0c-0.066,0-0.15,0-0.25,0c-0.2,0-0.4,0.017-0.6,0.05c-0.7,0-1.417,0-2.15,0H25.2c-0.267,0-0.517,0-0.75,0
					c-0.1,0-0.217,0-0.35,0c-0.633,0-1.267,0-1.9,0c-0.367-0.033-0.717-0.05-1.05-0.05c-0.767,0-1.533,0-2.3,0
					c-0.267-0.066-0.533-0.1-0.8-0.1c-0.767-0.033-1.517-0.05-2.25-0.05c-0.3-0.034-0.617-0.051-0.95-0.051
					c-0.6,0-1.2-0.017-1.8-0.05c-0.367-0.033-0.683-0.05-0.95-0.05c-0.6-0.033-1.167-0.066-1.7-0.1
					c-0.233-0.034-0.483-0.051-0.75-0.051H9.6c-0.033,0-0.083,0-0.15,0c-0.434-0.033-0.85-0.066-1.25-0.1
					c-0.067,0-0.167-0.017-0.3-0.05c-0.033,0-0.083,0-0.15,0c-0.2,0-0.383,0-0.55,0c-0.1-0.066-0.2-0.101-0.3-0.101
					c-0.467-0.033-0.917-0.083-1.35-0.149c-0.1,0-0.2,0-0.3,0c-0.167,0-0.3-0.017-0.4-0.05c-0.067,0-0.133,0-0.2,0
					c-0.467-0.067-0.883-0.134-1.25-0.2c-0.133,0-0.267-0.017-0.4-0.05c-0.067,0-0.133-0.017-0.2-0.051c-0.066,0-0.117,0-0.15,0
					c-0.066-0.066-0.133-0.1-0.2-0.1c-0.3-0.066-0.55-0.134-0.75-0.2c-0.034-0.033-0.067-0.05-0.1-0.05v-0.15v-0.05v-0.399v-0.95
					c0-0.101,0-0.2,0-0.3v-3.551c0-0.033,0-0.066,0-0.1v-21.9c0-2.367,0.75-3.95,2.25-4.75C3.317,3.749,3.617,4.183,4.75,4.482z"/>
			</g>
			
				<linearGradient id="SVGID_7_" gradientUnits="userSpaceOnUse" x1="171.4004" y1="-47.9673" x2="174.4004" y2="-47.9673" gradientTransform="matrix(1.0471 0 0 1.1082 -174.3264 73.6589)">
				<stop  offset="0" style="stop-color:#D9D9D9"/>
				<stop  offset="1" style="stop-color:#A6A5A4"/>
			</linearGradient>
			<path fill-rule="evenodd" clip-rule="evenodd" fill="url(#SVGID_7_)" d="M5.139,9.197c0-0.443,0.157-0.832,0.471-1.164
				c0.315-0.333,0.681-0.499,1.1-0.499c0.418,0,0.785,0.166,1.099,0.499C8.123,8.366,8.28,8.754,8.28,9.197v22.607
				c0,0.443-0.157,0.832-0.471,1.164c-0.314,0.333-0.681,0.499-1.099,0.499c-0.419,0-0.785-0.166-1.1-0.499
				c-0.314-0.332-0.471-0.721-0.471-1.164V9.197z"/>
			
				<linearGradient id="SVGID_8_" gradientUnits="userSpaceOnUse" x1="171.4004" y1="-47.9673" x2="174.4004" y2="-47.9673" gradientTransform="matrix(1.0471 0 0 1.1082 -168.2766 74.7595)">
				<stop  offset="0" style="stop-color:#D9D9D9"/>
				<stop  offset="1" style="stop-color:#A6A5A4"/>
			</linearGradient>
			<path fill-rule="evenodd" clip-rule="evenodd" fill="url(#SVGID_8_)" d="M11.189,10.297c0-0.443,0.157-0.832,0.471-1.164
				c0.315-0.333,0.681-0.499,1.1-0.499c0.418,0,0.785,0.166,1.099,0.499c0.314,0.332,0.471,0.72,0.471,1.164v22.607
				c0,0.443-0.157,0.831-0.471,1.164c-0.314,0.332-0.681,0.498-1.099,0.498c-0.419,0-0.785-0.166-1.1-0.498
				c-0.314-0.333-0.471-0.721-0.471-1.164V10.297z"/>
			
				<linearGradient id="SVGID_9_" gradientUnits="userSpaceOnUse" x1="171.4004" y1="-47.9673" x2="174.4004" y2="-47.9673" gradientTransform="matrix(1.0471 0 0 1.1082 -161.926 75.1091)">
				<stop  offset="0" style="stop-color:#D9D9D9"/>
				<stop  offset="1" style="stop-color:#A6A5A4"/>
			</linearGradient>
			<path fill-rule="evenodd" clip-rule="evenodd" fill="url(#SVGID_9_)" d="M17.54,10.647c0-0.443,0.157-0.832,0.471-1.164
				c0.315-0.333,0.681-0.499,1.1-0.499c0.418,0,0.785,0.166,1.099,0.499c0.314,0.332,0.471,0.72,0.471,1.164v22.607
				c0,0.443-0.157,0.832-0.471,1.164c-0.314,0.333-0.681,0.499-1.099,0.499c-0.419,0-0.785-0.166-1.1-0.499
				c-0.314-0.332-0.471-0.721-0.471-1.164V10.647z"/>
			
				<linearGradient id="SVGID_10_" gradientUnits="userSpaceOnUse" x1="171.4004" y1="-47.9673" x2="174.4004" y2="-47.9673" gradientTransform="matrix(1.0471 0 0 1.1082 -155.4768 75.3591)">
				<stop  offset="0" style="stop-color:#D9D9D9"/>
				<stop  offset="1" style="stop-color:#A6A5A4"/>
			</linearGradient>
			<path fill-rule="evenodd" clip-rule="evenodd" fill="url(#SVGID_10_)" d="M23.989,10.897c0-0.443,0.157-0.832,0.471-1.164
				c0.315-0.333,0.681-0.499,1.1-0.499c0.418,0,0.785,0.166,1.099,0.499c0.314,0.332,0.471,0.72,0.471,1.164v22.607
				c0,0.443-0.157,0.832-0.471,1.164c-0.314,0.333-0.681,0.499-1.099,0.499c-0.419,0-0.785-0.166-1.1-0.499
				c-0.314-0.332-0.471-0.721-0.471-1.164V10.897z"/>
			
				<linearGradient id="SVGID_11_" gradientUnits="userSpaceOnUse" x1="171.4004" y1="-47.9673" x2="174.4004" y2="-47.9673" gradientTransform="matrix(1.0471 0 0 1.1082 -149.426 75.3591)">
				<stop  offset="0" style="stop-color:#D9D9D9"/>
				<stop  offset="1" style="stop-color:#A6A5A4"/>
			</linearGradient>
			<path fill-rule="evenodd" clip-rule="evenodd" fill="url(#SVGID_11_)" d="M30.04,10.897c0-0.443,0.156-0.832,0.47-1.164
				c0.315-0.333,0.682-0.499,1.101-0.499c0.418,0,0.785,0.166,1.1,0.499c0.313,0.332,0.471,0.72,0.471,1.164v22.607
				c0,0.443-0.157,0.832-0.471,1.164c-0.314,0.333-0.682,0.499-1.1,0.499c-0.419,0-0.785-0.166-1.101-0.499
				c-0.313-0.332-0.47-0.721-0.47-1.164V10.897z"/>
			
				<linearGradient id="SVGID_12_" gradientUnits="userSpaceOnUse" x1="171.4004" y1="-47.9673" x2="174.4004" y2="-47.9673" gradientTransform="matrix(1.0471 0 0 1.1082 -143.0764 74.7595)">
				<stop  offset="0" style="stop-color:#D9D9D9"/>
				<stop  offset="1" style="stop-color:#A6A5A4"/>
			</linearGradient>
			<path fill-rule="evenodd" clip-rule="evenodd" fill="url(#SVGID_12_)" d="M36.39,10.297c0-0.443,0.156-0.832,0.47-1.164
				c0.315-0.333,0.682-0.499,1.101-0.499c0.418,0,0.785,0.166,1.1,0.499c0.313,0.332,0.471,0.72,0.471,1.164v22.607
				c0,0.443-0.157,0.831-0.471,1.164c-0.314,0.332-0.682,0.498-1.1,0.498c-0.419,0-0.785-0.166-1.101-0.498
				c-0.313-0.333-0.47-0.721-0.47-1.164V10.297z"/>
			
				<linearGradient id="SVGID_13_" gradientUnits="userSpaceOnUse" x1="171.4004" y1="-47.9673" x2="174.4004" y2="-47.9673" gradientTransform="matrix(1.0471 0 0 1.1082 -136.6262 73.7595)">
				<stop  offset="0" style="stop-color:#D9D9D9"/>
				<stop  offset="1" style="stop-color:#A6A5A4"/>
			</linearGradient>
			<path fill-rule="evenodd" clip-rule="evenodd" fill="url(#SVGID_13_)" d="M42.84,9.297c0-0.443,0.156-0.832,0.47-1.164
				c0.315-0.333,0.682-0.499,1.101-0.499c0.418,0,0.785,0.166,1.1,0.499c0.313,0.332,0.471,0.72,0.471,1.164v22.607
				c0,0.443-0.157,0.831-0.471,1.164c-0.314,0.332-0.682,0.498-1.1,0.498c-0.419,0-0.785-0.166-1.101-0.498
				c-0.313-0.333-0.47-0.721-0.47-1.164V9.297z"/>
		</g>
	</g>
</g>
<g id="Layer_1">
	<g>
		<g>
			<g>
				<linearGradient id="SVGID_14_" gradientUnits="userSpaceOnUse" x1="0.0127" y1="3.5576" x2="50.4877" y2="3.5576">
					<stop  offset="0" style="stop-color:#989898"/>
					<stop  offset="0.2118" style="stop-color:#D3D3D3"/>
					<stop  offset="0.2588" style="stop-color:#E5E5E5"/>
					<stop  offset="0.7686" style="stop-color:#FFFFFF"/>
					<stop  offset="0.9451" style="stop-color:#B6B6B6"/>
				</linearGradient>
				<path fill-rule="evenodd" clip-rule="evenodd" fill="url(#SVGID_14_)" d="M5,2.183c-0.167,0.066-0.25,0.133-0.25,0.2
					c0,0.367,1.983,0.684,5.95,0.95c4.267,0.3,9.083,0.45,14.45,0.45s10.15-0.15,14.35-0.45c4-0.267,6-0.583,6-0.95
					c0-0.1-0.184-0.2-0.55-0.3c0.733,0.1,1.383,0.333,1.95,0.7c0.233,0.433-0.217,0.8-1.351,1.1l-0.1,0.05
					c-1.033,0.233-2.967,0.467-5.8,0.7c-3.767,0.267-8.601,0.4-14.5,0.4c-5.367,0-10.183-0.15-14.45-0.45
					c-2.867-0.133-4.85-0.35-5.95-0.65c-1.133-0.3-1.433-0.733-0.9-1.3C4.283,2.366,4.667,2.216,5,2.183z"/>
				<linearGradient id="SVGID_15_" gradientUnits="userSpaceOnUse" x1="1.5" y1="19.5073" x2="48.9" y2="19.5073">
					<stop  offset="0" style="stop-color:#A8A5A5"/>
					<stop  offset="0.0667" style="stop-color:#CDCDCD"/>
					<stop  offset="0.3098" style="stop-color:#D4D4D4"/>
					<stop  offset="0.502" style="stop-color:#F7F7F7"/>
					<stop  offset="0.8745" style="stop-color:#FFFFFF"/>
					<stop  offset="1" style="stop-color:#B8B8B8"/>
				</linearGradient>
				<path fill-rule="evenodd" clip-rule="evenodd" fill="url(#SVGID_15_)" d="M48.95,34.783c-0.101,0.033-0.233,0.083-0.4,0.149
					c-0.233,0.067-0.483,0.134-0.75,0.2c-0.1,0.033-0.2,0.066-0.3,0.101c-0.233,0.033-0.483,0.066-0.75,0.1
					c-0.366,0.033-0.767,0.083-1.2,0.15c-0.233,0-0.483,0.017-0.75,0.05c-0.366,0.033-0.767,0.066-1.2,0.1
					c-0.199,0.066-0.433,0.101-0.699,0.101c-0.2,0-0.4,0.017-0.601,0.05c-0.2,0-0.434,0.017-0.7,0.05s-0.566,0.05-0.899,0.05
					c-0.4,0.033-0.851,0.066-1.351,0.101c-0.3,0-0.633,0.017-1,0.05c-0.5,0.033-1,0.066-1.5,0.1c-0.333,0-0.649,0-0.949,0
					c-0.534,0-1.084,0.017-1.65,0.05c-0.333,0-0.667,0.017-1,0.051c-0.6,0-1.217,0.033-1.85,0.1c-0.301,0-0.617,0-0.95,0
					c-0.733,0-1.467,0-2.2,0c-0.066,0-0.15,0-0.25,0c-0.2,0-0.4,0.017-0.6,0.05c-0.7,0-1.417,0-2.15,0H25.2c-0.267,0-0.517,0-0.75,0
					c-0.1,0-0.217,0-0.35,0c-0.633,0-1.267,0-1.9,0c-0.367-0.033-0.717-0.05-1.05-0.05c-0.767,0-1.533,0-2.3,0
					c-0.267-0.066-0.533-0.1-0.8-0.1c-0.767-0.034-1.517-0.051-2.25-0.051c-0.3-0.033-0.617-0.05-0.95-0.05
					c-0.6,0-1.2-0.017-1.8-0.05c-0.367-0.033-0.683-0.05-0.95-0.05c-0.6-0.033-1.167-0.066-1.7-0.101
					c-0.233-0.033-0.483-0.05-0.75-0.05H9.6c-0.033,0-0.083,0-0.15,0c-0.434-0.033-0.85-0.066-1.25-0.1
					c-0.067,0-0.167-0.017-0.3-0.05c-0.033,0-0.083,0-0.15,0c-0.2,0-0.383,0-0.55,0c-0.1-0.067-0.2-0.101-0.3-0.101
					c-0.467-0.033-0.917-0.083-1.35-0.149c-0.1,0-0.2,0-0.3,0c-0.167,0-0.3-0.017-0.4-0.051c-0.067,0-0.133,0-0.2,0
					c-0.467-0.066-0.883-0.133-1.25-0.199c-0.133,0-0.267-0.017-0.4-0.051c-0.067,0-0.133-0.017-0.2-0.05c-0.066,0-0.117,0-0.15,0
					c-0.066-0.066-0.133-0.1-0.2-0.1c-0.3-0.066-0.55-0.134-0.75-0.2c-0.034-0.033-0.067-0.05-0.1-0.05v-0.15v-0.05v-0.4v-0.949
					c0-0.101,0-0.2,0-0.301v-3.55c0-0.033,0-0.066,0-0.1v-21.9c0-2.367,0.75-3.95,2.25-4.75c-0.533,0.567-0.233,1,0.9,1.3
					c1.1,0.3,3.083,0.517,5.95,0.65c4.267,0.3,9.083,0.45,14.45,0.45c5.9,0,10.734-0.133,14.5-0.4c2.833-0.233,4.767-0.466,5.8-0.7
					l0.1-0.05c1.134-0.3,1.584-0.667,1.351-1.1l0.149,0.15c0.967,0.7,1.601,2.033,1.9,4v22.8v1.35V34.783z"/>
				
					<radialGradient id="SVGID_16_" cx="23.25" cy="12.1826" r="22.825" fx="16.3577" fy="12.1826" gradientTransform="matrix(1 0 0 1.0372 0 -0.4537)" gradientUnits="userSpaceOnUse">
					<stop  offset="0.1804" style="stop-color:#BBBBBB"/>
					<stop  offset="0.3412" style="stop-color:#C2C2C2"/>
					<stop  offset="0.7961" style="stop-color:#ECECEC"/>
				</radialGradient>
				<path fill-rule="evenodd" clip-rule="evenodd" fill="url(#SVGID_16_)" d="M44.95,2.083c0.366,0.1,0.55,0.2,0.55,0.3
					c0,0.367-2,0.684-6,0.95c-4.2,0.3-8.983,0.45-14.35,0.45s-10.183-0.15-14.45-0.45c-3.967-0.267-5.95-0.583-5.95-0.95
					c0-0.066,0.083-0.133,0.25-0.2c0.3-0.133,0.9-0.267,1.8-0.4c0.767-0.133,2.067-0.25,3.9-0.35c3.7-0.267,8.517-0.4,14.45-0.4
					c5.9,0,10.683,0.133,14.35,0.4c1.6,0.1,2.967,0.233,4.1,0.4L44.95,2.083z"/>
				<linearGradient id="SVGID_17_" gradientUnits="userSpaceOnUse" x1="5.5" y1="35.8325" x2="45" y2="35.8325">
					<stop  offset="0" style="stop-color:#B7B5B5"/>
					<stop  offset="0.6039" style="stop-color:#DEDEDE"/>
					<stop  offset="1" style="stop-color:#BDBDBD"/>
				</linearGradient>
				<path fill-rule="evenodd" clip-rule="evenodd" fill="url(#SVGID_17_)" d="M1.6,34.632v0.15c0.033,0,0.066,0.017,0.1,0.05
					c0.2,0.066,0.45,0.134,0.75,0.2c0.066,0,0.133,0.033,0.2,0.1c0.033,0,0.083,0,0.15,0c0.067,0.033,0.133,0.05,0.2,0.05
					c0.133,0.034,0.267,0.051,0.4,0.051c0.367,0.066,0.783,0.133,1.25,0.199c0.067,0,0.133,0,0.2,0c0.1,0.034,0.233,0.051,0.4,0.051
					c0.1,0,0.2,0,0.3,0c0.434,0.066,0.883,0.116,1.35,0.149c0.1,0,0.2,0.033,0.3,0.101c0.167,0,0.35,0,0.55,0
					c0.067,0,0.117,0,0.15,0c0.133,0.033,0.233,0.05,0.3,0.05c0.4,0.033,0.816,0.066,1.25,0.1c0.066,0,0.117,0,0.15,0h0.05
					c0.267,0,0.517,0.017,0.75,0.05c0.533,0.034,1.1,0.067,1.7,0.101c0.267,0,0.583,0.017,0.95,0.05c0.6,0.033,1.2,0.05,1.8,0.05
					c0.333,0,0.65,0.017,0.95,0.05c0.733,0,1.483,0.017,2.25,0.051c0.267,0,0.534,0.033,0.8,0.1c0.767,0,1.533,0,2.3,0
					c0.333,0,0.684,0.017,1.05,0.05c0.633,0,1.267,0,1.9,0c0.133,0,0.25,0,0.35,0c0.233,0,0.483,0,0.75,0h0.05
					c0.733,0,1.45,0,2.15,0c0.2-0.033,0.4-0.05,0.6-0.05c0.1,0,0.184,0,0.25,0c0.733,0,1.467,0,2.2,0c0.333,0,0.649,0,0.95,0
					c0.633-0.066,1.25-0.1,1.85-0.1c0.333-0.034,0.667-0.051,1-0.051c0.566-0.033,1.116-0.05,1.65-0.05c0.3,0,0.616,0,0.949,0
					c0.5-0.033,1-0.066,1.5-0.1c0.367-0.033,0.7-0.05,1-0.05c0.5-0.034,0.95-0.067,1.351-0.101c0.333,0,0.633-0.017,0.899-0.05
					s0.5-0.05,0.7-0.05c0.2-0.033,0.4-0.05,0.601-0.05c0.267,0,0.5-0.034,0.699-0.101c0.434-0.033,0.834-0.066,1.2-0.1
					c0.267-0.033,0.517-0.05,0.75-0.05c0.434-0.067,0.834-0.117,1.2-0.15c0.267-0.033,0.517-0.066,0.75-0.1
					c0.1-0.034,0.2-0.067,0.3-0.101c0.267-0.066,0.517-0.133,0.75-0.2c0.167-0.066,0.3-0.116,0.4-0.149H49l0.4,0.25v0.149
					c-0.034,0.067-0.15,0.15-0.351,0.25c-0.133,0.034-0.3,0.084-0.5,0.15c-0.233,0.1-0.483,0.184-0.75,0.25
					c-0.1,0-0.2,0.017-0.3,0.05c-0.233,0.033-0.483,0.066-0.75,0.101c-0.366,0.066-0.767,0.116-1.2,0.149
					c-0.233,0-0.483,0.017-0.75,0.05c-0.366,0.034-0.767,0.101-1.2,0.2c-0.199,0-0.433,0.017-0.699,0.05c-0.2,0-0.4,0-0.601,0
					c-0.2,0.034-0.434,0.067-0.7,0.101c-0.267,0-0.566,0.017-0.899,0.05c-0.4,0.033-0.851,0.05-1.351,0.05
					c-0.3,0.033-0.633,0.066-1,0.101c-0.5,0-1,0.017-1.5,0.05c-0.333,0-0.649,0.017-0.949,0.05c-0.534,0-1.084,0.033-1.65,0.1
					c-0.333,0-0.667,0-1,0c-0.6,0.034-1.217,0.051-1.85,0.051c-0.301,0-0.617,0-0.95,0c-0.733,0.033-1.467,0.05-2.2,0.05
					c-0.066,0-0.15,0-0.25,0c-0.2,0-0.4,0-0.6,0c-0.7,0-1.417,0-2.15,0H25.2c-0.267,0-0.517,0-0.75,0c-0.1,0-0.217,0-0.35,0
					c-0.633,0-1.267,0-1.9,0c-0.367,0-0.717,0-1.05,0c-0.767-0.033-1.533-0.05-2.3-0.05c-0.267,0-0.533,0-0.8,0
					c-0.767-0.034-1.517-0.084-2.25-0.15c-0.3,0-0.617,0-0.95,0c-0.6-0.033-1.2-0.066-1.8-0.1c-0.367,0-0.683-0.017-0.95-0.051
					c-0.6-0.033-1.167-0.05-1.7-0.05c-0.3-0.033-0.566-0.05-0.8-0.05c-0.033-0.033-0.083-0.05-0.15-0.05
					C9.017,36.5,8.6,36.466,8.2,36.432c-0.067,0-0.167,0-0.3,0c-0.033,0-0.083,0-0.15,0c-0.2-0.033-0.383-0.05-0.55-0.05
					c-0.1,0-0.2,0-0.3,0c-0.467-0.1-0.917-0.166-1.35-0.2c-0.1-0.033-0.2-0.05-0.3-0.05c-0.167,0-0.3,0-0.4,0
					c-0.067-0.033-0.133-0.05-0.2-0.05c-0.467-0.066-0.883-0.116-1.25-0.15c-0.133-0.033-0.267-0.05-0.4-0.05
					c-0.067-0.033-0.133-0.05-0.2-0.05c-0.066-0.033-0.117-0.05-0.15-0.05c-0.066,0-0.133-0.017-0.2-0.05
					c-0.367-0.101-0.65-0.184-0.85-0.25c-0.033,0-0.067-0.017-0.1-0.051c-0.231-0.099-0.348-0.199-0.35-0.3v-0.149l0.4-0.301
					L1.6,34.632z"/>
				<linearGradient id="SVGID_18_" gradientUnits="userSpaceOnUse" x1="1.1499" y1="37.6323" x2="49.4502" y2="37.6323">
					<stop  offset="0" style="stop-color:#BFBFBF"/>
					<stop  offset="0.2863" style="stop-color:#CFCFCF"/>
					<stop  offset="0.651" style="stop-color:#FFFFFF"/>
					<stop  offset="0.7922" style="stop-color:#F8F8F8"/>
					<stop  offset="1" style="stop-color:#ADADAD"/>
				</linearGradient>
				<path fill-rule="evenodd" clip-rule="evenodd" fill="url(#SVGID_18_)" d="M1.15,35.132c0.002,0.101,0.119,0.201,0.35,0.3
					c0.033,0.034,0.067,0.051,0.1,0.051c0.2,0.066,0.483,0.149,0.85,0.25c0.066,0.033,0.133,0.05,0.2,0.05
					c0.033,0,0.083,0.017,0.15,0.05c0.067,0,0.133,0.017,0.2,0.05c0.133,0,0.267,0.017,0.4,0.05c0.367,0.034,0.783,0.084,1.25,0.15
					c0.067,0,0.133,0.017,0.2,0.05c0.1,0,0.233,0,0.4,0c0.1,0,0.2,0.017,0.3,0.05c0.434,0.034,0.883,0.101,1.35,0.2
					c0.1,0,0.2,0,0.3,0c0.167,0,0.35,0.017,0.55,0.05c0.067,0,0.117,0,0.15,0c0.133,0,0.233,0,0.3,0
					c0.4,0.034,0.816,0.067,1.25,0.101c0.066,0,0.117,0.017,0.15,0.05c0.233,0,0.5,0.017,0.8,0.05c0.533,0,1.1,0.017,1.7,0.05
					c0.267,0.034,0.583,0.051,0.95,0.051c0.6,0.033,1.2,0.066,1.8,0.1c0.333,0,0.65,0,0.95,0c0.733,0.066,1.483,0.116,2.25,0.15
					c0.267,0,0.534,0,0.8,0c0.767,0,1.533,0.017,2.3,0.05c0.333,0,0.684,0,1.05,0c0.633,0,1.267,0,1.9,0c0.133,0,0.25,0,0.35,0
					c0.233,0,0.483,0,0.75,0h0.05c0.733,0,1.45,0,2.15,0c0.2,0,0.4,0,0.6,0c0.1,0,0.184,0,0.25,0c0.733,0,1.467-0.017,2.2-0.05
					c0.333,0,0.649,0,0.95,0c0.633,0,1.25-0.017,1.85-0.051c0.333,0,0.667,0,1,0c0.566-0.066,1.116-0.1,1.65-0.1
					c0.3-0.033,0.616-0.05,0.949-0.05c0.5-0.033,1-0.05,1.5-0.05c0.367-0.034,0.7-0.067,1-0.101c0.5,0,0.95-0.017,1.351-0.05
					c0.333-0.033,0.633-0.05,0.899-0.05c0.267-0.033,0.5-0.066,0.7-0.101c0.2,0,0.4,0,0.601,0c0.267-0.033,0.5-0.05,0.699-0.05
					c0.434-0.1,0.834-0.166,1.2-0.2c0.267-0.033,0.517-0.05,0.75-0.05c0.434-0.033,0.834-0.083,1.2-0.149
					c0.267-0.034,0.517-0.067,0.75-0.101c0.1-0.033,0.2-0.05,0.3-0.05c0.267-0.066,0.517-0.15,0.75-0.25
					c0.2-0.066,0.367-0.116,0.5-0.15c0.2-0.1,0.316-0.183,0.351-0.25v0.45v2.5l0.05,0.101c0,0.133-0.3,0.3-0.9,0.5
					c-0.233,0.066-0.483,0.133-0.75,0.199c-0.1,0-0.2,0.017-0.3,0.051c-0.233,0.033-0.483,0.083-0.75,0.149
					c-0.366,0.033-0.767,0.066-1.2,0.101c-0.233,0.066-0.483,0.116-0.75,0.149c-0.366,0-0.767,0.033-1.2,0.101
					c-0.199,0-0.433,0.017-0.699,0.05c-0.2,0-0.4,0.017-0.601,0.05c-0.2,0-0.434,0.017-0.7,0.05c-0.267,0-0.566,0.017-0.899,0.05
					c-0.4,0.034-0.851,0.067-1.351,0.101c-0.3,0-0.633,0.017-1,0.05c-0.5,0-1,0.033-1.5,0.1c-0.333,0-0.649,0.017-0.949,0.051
					c-0.534,0-1.084,0.017-1.65,0.05c-0.333,0-0.667,0-1,0c-0.6,0.033-1.217,0.05-1.85,0.05c-0.301,0-0.617,0-0.95,0
					c-0.733,0.033-1.467,0.05-2.2,0.05c-0.066,0-0.15,0-0.25,0c-0.2,0-0.4,0-0.6,0c-0.7,0-1.417,0-2.15,0H25.2
					c-0.267,0-0.517,0-0.75,0c-0.1,0-0.217,0-0.35,0c-0.633,0-1.267,0-1.9,0c-0.367,0-0.717,0-1.05,0
					c-0.767-0.033-1.533-0.05-2.3-0.05c-0.267,0-0.533,0-0.8,0c-0.767-0.033-1.517-0.05-2.25-0.05c-0.3-0.033-0.617-0.05-0.95-0.05
					c-0.6-0.034-1.2-0.084-1.8-0.15c-0.367,0-0.683-0.017-0.95-0.05c-0.6,0-1.167-0.017-1.7-0.05
					c-0.333-0.034-0.65-0.067-0.95-0.101c-0.434-0.033-0.85-0.05-1.25-0.05c-0.067,0-0.167-0.017-0.3-0.05
					c-0.3-0.033-0.633-0.05-1-0.05c-0.467-0.067-0.917-0.117-1.35-0.15c-0.3-0.066-0.6-0.116-0.9-0.15
					c-0.467-0.033-0.883-0.083-1.25-0.149C3.167,39,2.967,38.966,2.8,38.932c-0.066,0-0.117,0-0.15,0
					c-0.533-0.133-0.917-0.267-1.15-0.399c-0.233-0.101-0.35-0.2-0.35-0.3v-2.5V35.132z"/>
			</g>
		</g>
		<g>
			
				<radialGradient id="SVGID_19_" cx="24.3999" cy="41.2827" r="119.1625" gradientTransform="matrix(1 0 0 0.472 0 21.7954)" gradientUnits="userSpaceOnUse">
				<stop  offset="0.5529" style="stop-color:#C9C8C6;stop-opacity:0"/>
				<stop  offset="0.702" style="stop-color:#8A8988;stop-opacity:0.502"/>
				<stop  offset="0.749" style="stop-color:#8E8D8C;stop-opacity:0.4745"/>
				<stop  offset="0.7843" style="stop-color:#8A8988;stop-opacity:0.502"/>
			</radialGradient>
			<path fill-rule="evenodd" clip-rule="evenodd" fill="url(#SVGID_19_)" d="M39.65,4.632c2.833-0.233,4.767-0.466,5.8-0.7l0.1-0.05
				c1.134-0.3,1.583-0.667,1.351-1.1l0.149,0.15c0.967,0.7,1.601,2.033,1.9,4v27.85c-0.101,0.033-0.233,0.083-0.4,0.149
				c-0.233,0.067-0.483,0.134-0.75,0.2c-0.1,0.033-0.2,0.066-0.3,0.101c-0.233,0.033-0.483,0.066-0.75,0.1
				c-0.367,0.033-0.767,0.083-1.2,0.15c-0.233,0-0.483,0.017-0.75,0.05c-0.366,0.033-0.767,0.066-1.2,0.1
				c-0.199,0.066-0.433,0.101-0.699,0.101c-0.2,0-0.4,0.017-0.601,0.05c-0.2,0-0.433,0.017-0.7,0.05
				c-0.267,0.033-0.566,0.05-0.899,0.05c-0.4,0.033-0.851,0.066-1.351,0.101c-0.3,0-0.633,0.017-1,0.05c-0.5,0.033-1,0.066-1.5,0.1
				c-0.333,0-0.649,0-0.949,0c-0.533,0-1.084,0.017-1.65,0.05c-0.333,0-0.667,0.017-1,0.051c-0.6,0-1.217,0.033-1.85,0.1
				c-0.301,0-0.617,0-0.95,0c-0.733,0-1.467,0-2.2,0c-0.066,0-0.15,0-0.25,0c-0.2,0-0.4,0.017-0.6,0.05c-0.7,0-1.417,0-2.15,0H25.2
				c-0.267,0-0.517,0-0.75,0c-0.1,0-0.217,0-0.35,0c-0.633,0-1.267,0-1.9,0c-0.367-0.033-0.717-0.05-1.05-0.05
				c-0.767,0-1.533,0-2.3,0c-0.267-0.066-0.534-0.1-0.8-0.1c-0.767-0.034-1.517-0.051-2.25-0.051c-0.3-0.033-0.616-0.05-0.95-0.05
				c-0.6,0-1.2-0.017-1.8-0.05c-0.366-0.033-0.683-0.05-0.95-0.05c-0.6-0.033-1.167-0.066-1.7-0.101
				c-0.233-0.033-0.483-0.05-0.75-0.05H9.6c-0.034,0-0.083,0-0.15,0c-0.434-0.033-0.85-0.066-1.25-0.1
				c-0.067,0-0.167-0.017-0.3-0.05c-0.033,0-0.083,0-0.15,0c-0.2,0-0.383,0-0.55,0c-0.1-0.067-0.2-0.101-0.3-0.101
				c-0.466-0.033-0.917-0.083-1.35-0.149c-0.1,0-0.2,0-0.3,0c-0.167,0-0.3-0.017-0.4-0.051c-0.067,0-0.133,0-0.2,0
				c-0.466-0.066-0.883-0.133-1.25-0.199c-0.133,0-0.267-0.017-0.4-0.051c-0.066,0-0.133-0.017-0.2-0.05c-0.066,0-0.116,0-0.15,0
				c-0.066-0.066-0.133-0.1-0.2-0.1c-0.3-0.066-0.55-0.134-0.75-0.2c-0.034-0.033-0.067-0.05-0.1-0.05v-0.15v-0.05v-0.4v-0.949
				c0-0.101,0-0.2,0-0.301v-3.55c0-0.033,0-0.066,0-0.1v-21.9c0-2.367,0.75-3.95,2.25-4.75c-0.534,0.567-0.233,1,0.9,1.3
				c1.1,0.3,3.083,0.517,5.95,0.65c4.267,0.3,9.083,0.45,14.45,0.45C31.05,5.033,35.883,4.899,39.65,4.632z"/>
		</g>
		
			<radialGradient id="SVGID_20_" cx="197.9375" cy="-439.6938" r="9.6849" gradientTransform="matrix(0.4436 -0.3142 1.3013 -0.0236 523.4457 56.4874)" gradientUnits="userSpaceOnUse">
			<stop  offset="0" style="stop-color:#FFFFFF"/>
			<stop  offset="0.1216" style="stop-color:#FFFFFF"/>
			<stop  offset="0.2824" style="stop-color:#FFFFFF;stop-opacity:0.4471"/>
			<stop  offset="0.502" style="stop-color:#FFFFFF;stop-opacity:0.1882"/>
			<stop  offset="0.6824" style="stop-color:#FFFFFF;stop-opacity:0.0863"/>
			<stop  offset="0.9294" style="stop-color:#FFFFFF;stop-opacity:0"/>
		</radialGradient>
		<path fill-rule="evenodd" clip-rule="evenodd" fill="url(#SVGID_20_)" d="M51.55,4.453c-1.174,0.821-3.397,1.543-6.673,2.164
			c-3.292,0.671-6.656,1.031-10.094,1.08c-3.471,0.049-6.004-0.189-7.601-0.713c-1.597-0.548-1.816-1.233-0.659-2.055
			c1.189-0.846,3.43-1.605,6.722-2.276c3.259-0.596,6.607-0.931,10.045-1.005c3.471-0.048,6.013,0.189,7.625,0.713
			C52.512,2.909,52.724,3.606,51.55,4.453z"/>
		
			<linearGradient id="SVGID_21_" gradientUnits="userSpaceOnUse" x1="171.4004" y1="-47.9673" x2="174.4004" y2="-47.9673" gradientTransform="matrix(1.0471 0 0 1.1082 -174.3264 73.1091)">
			<stop  offset="0" style="stop-color:#D9D9D9"/>
			<stop  offset="1" style="stop-color:#A6A5A4"/>
		</linearGradient>
		<path fill-rule="evenodd" clip-rule="evenodd" fill="url(#SVGID_21_)" d="M5.139,8.647c0-0.443,0.157-0.832,0.471-1.164
			c0.315-0.333,0.681-0.499,1.1-0.499c0.418,0,0.785,0.166,1.099,0.499C8.123,7.816,8.28,8.204,8.28,8.647v22.607
			c0,0.443-0.157,0.832-0.471,1.164c-0.314,0.333-0.681,0.499-1.099,0.499c-0.419,0-0.785-0.166-1.1-0.499
			c-0.314-0.332-0.471-0.721-0.471-1.164V8.647z"/>
		
			<linearGradient id="SVGID_22_" gradientUnits="userSpaceOnUse" x1="171.4004" y1="-47.9673" x2="174.4004" y2="-47.9673" gradientTransform="matrix(1.0471 0 0 1.1082 -168.2766 74.2087)">
			<stop  offset="0" style="stop-color:#D9D9D9"/>
			<stop  offset="1" style="stop-color:#A6A5A4"/>
		</linearGradient>
		<path fill-rule="evenodd" clip-rule="evenodd" fill="url(#SVGID_22_)" d="M11.189,9.747c0-0.443,0.157-0.832,0.471-1.164
			c0.315-0.333,0.681-0.499,1.1-0.499c0.418,0,0.785,0.166,1.099,0.499c0.314,0.332,0.471,0.72,0.471,1.164v22.607
			c0,0.443-0.157,0.832-0.471,1.164c-0.314,0.333-0.681,0.499-1.099,0.499c-0.419,0-0.785-0.166-1.1-0.499
			c-0.314-0.332-0.471-0.721-0.471-1.164V9.747z"/>
		
			<linearGradient id="SVGID_23_" gradientUnits="userSpaceOnUse" x1="171.4004" y1="-47.9673" x2="174.4004" y2="-47.9673" gradientTransform="matrix(1.0471 0 0 1.1082 -161.926 74.5593)">
			<stop  offset="0" style="stop-color:#D9D9D9"/>
			<stop  offset="1" style="stop-color:#A6A5A4"/>
		</linearGradient>
		<path fill-rule="evenodd" clip-rule="evenodd" fill="url(#SVGID_23_)" d="M17.54,10.097c0-0.443,0.157-0.832,0.471-1.164
			c0.315-0.333,0.681-0.499,1.1-0.499c0.418,0,0.785,0.166,1.099,0.499c0.314,0.332,0.471,0.72,0.471,1.164v22.607
			c0,0.443-0.157,0.831-0.471,1.164c-0.314,0.332-0.681,0.498-1.099,0.498c-0.419,0-0.785-0.166-1.1-0.498
			c-0.314-0.333-0.471-0.721-0.471-1.164V10.097z"/>
		
			<linearGradient id="SVGID_24_" gradientUnits="userSpaceOnUse" x1="171.4004" y1="-47.9673" x2="174.4004" y2="-47.9673" gradientTransform="matrix(1.0471 0 0 1.1082 -155.4768 74.8093)">
			<stop  offset="0" style="stop-color:#D9D9D9"/>
			<stop  offset="1" style="stop-color:#A6A5A4"/>
		</linearGradient>
		<path fill-rule="evenodd" clip-rule="evenodd" fill="url(#SVGID_24_)" d="M23.989,10.347c0-0.443,0.157-0.832,0.471-1.164
			c0.315-0.333,0.681-0.499,1.1-0.499c0.418,0,0.785,0.166,1.099,0.499c0.314,0.332,0.471,0.72,0.471,1.164v22.607
			c0,0.443-0.157,0.831-0.471,1.164c-0.314,0.332-0.681,0.498-1.099,0.498c-0.419,0-0.785-0.166-1.1-0.498
			c-0.314-0.333-0.471-0.721-0.471-1.164V10.347z"/>
		
			<linearGradient id="SVGID_25_" gradientUnits="userSpaceOnUse" x1="171.4004" y1="-47.9673" x2="174.4004" y2="-47.9673" gradientTransform="matrix(1.0471 0 0 1.1082 -149.426 74.8093)">
			<stop  offset="0" style="stop-color:#D9D9D9"/>
			<stop  offset="1" style="stop-color:#A6A5A4"/>
		</linearGradient>
		<path fill-rule="evenodd" clip-rule="evenodd" fill="url(#SVGID_25_)" d="M30.04,10.347c0-0.443,0.156-0.832,0.47-1.164
			c0.315-0.333,0.682-0.499,1.101-0.499c0.418,0,0.785,0.166,1.1,0.499c0.313,0.332,0.471,0.72,0.471,1.164v22.607
			c0,0.443-0.157,0.831-0.471,1.164c-0.314,0.332-0.682,0.498-1.1,0.498c-0.419,0-0.785-0.166-1.101-0.498
			c-0.313-0.333-0.47-0.721-0.47-1.164V10.347z"/>
		
			<linearGradient id="SVGID_26_" gradientUnits="userSpaceOnUse" x1="171.4004" y1="-47.9673" x2="174.4004" y2="-47.9673" gradientTransform="matrix(1.0471 0 0 1.1082 -143.0764 74.2087)">
			<stop  offset="0" style="stop-color:#D9D9D9"/>
			<stop  offset="1" style="stop-color:#A6A5A4"/>
		</linearGradient>
		<path fill-rule="evenodd" clip-rule="evenodd" fill="url(#SVGID_26_)" d="M36.39,9.747c0-0.443,0.156-0.832,0.47-1.164
			c0.315-0.333,0.682-0.499,1.101-0.499c0.418,0,0.785,0.166,1.1,0.499c0.313,0.332,0.471,0.72,0.471,1.164v22.607
			c0,0.443-0.157,0.832-0.471,1.164c-0.314,0.333-0.682,0.499-1.1,0.499c-0.419,0-0.785-0.166-1.101-0.499
			c-0.313-0.332-0.47-0.721-0.47-1.164V9.747z"/>
		
			<linearGradient id="SVGID_27_" gradientUnits="userSpaceOnUse" x1="171.4004" y1="-47.9673" x2="174.4004" y2="-47.9673" gradientTransform="matrix(1.0471 0 0 1.1082 -136.6262 73.2087)">
			<stop  offset="0" style="stop-color:#D9D9D9"/>
			<stop  offset="1" style="stop-color:#A6A5A4"/>
		</linearGradient>
		<path fill-rule="evenodd" clip-rule="evenodd" fill="url(#SVGID_27_)" d="M42.84,8.747c0-0.443,0.156-0.832,0.47-1.164
			c0.315-0.333,0.682-0.499,1.101-0.499c0.418,0,0.785,0.166,1.1,0.499c0.313,0.332,0.471,0.72,0.471,1.164v22.607
			c0,0.443-0.157,0.832-0.471,1.164c-0.314,0.333-0.682,0.499-1.1,0.499c-0.419,0-0.785-0.166-1.101-0.499
			c-0.313-0.332-0.47-0.721-0.47-1.164V8.747z"/>
	</g>
</g>
</svg>
