<?xml version="1.0" encoding="utf-8"?>
<!-- Generator: Adobe Illustrator 16.0.3, SVG Export Plug-In . SVG Version: 6.00 Build 0)  -->
<!DOCTYPE svg PUBLIC "-//W3C//DTD SVG 1.1//EN" "http://www.w3.org/Graphics/SVG/1.1/DTD/svg11.dtd">
<svg version="1.1" xmlns="http://www.w3.org/2000/svg" xmlns:xlink="http://www.w3.org/1999/xlink" x="0px" y="0px" width="109.5px"
	 height="215px" viewBox="0 0 109.5 215" enable-background="new 0 0 109.5 215" xml:space="preserve">
<g id="Layer_2">
	<g>
		<g>
			<linearGradient id="SVGID_1_" gradientUnits="userSpaceOnUse" x1="2.8501" y1="33.5" x2="107.2998" y2="33.5">
				<stop  offset="0" style="stop-color:#AAAAAA"/>
				<stop  offset="0.1373" style="stop-color:#CCCACC"/>
				<stop  offset="0.6" style="stop-color:#EEEFF0"/>
				<stop  offset="1" style="stop-color:#A8A8A8"/>
			</linearGradient>
			<path fill-rule="evenodd" clip-rule="evenodd" fill="url(#SVGID_1_)" d="M107.3,45.85C107.066,33.017,100.434,26.6,87.4,26.6
				H22.75c-13.033,0-19.667,6.417-19.9,19.25V40.4C3.083,27.767,9.533,21.35,22.2,21.15c0.167,0,0.35,0,0.55,0H87.4
				c13.033,0,19.666,6.417,19.899,19.25V45.85z"/>
			<linearGradient id="SVGID_2_" gradientUnits="userSpaceOnUse" x1="2.8501" y1="118.9004" x2="107.2998" y2="118.9004">
				<stop  offset="0.0118" style="stop-color:#C4C4C4;stop-opacity:0.898"/>
				<stop  offset="0.0745" style="stop-color:#E2E2E2;stop-opacity:0.902"/>
				<stop  offset="0.4431" style="stop-color:#EBE7E6;stop-opacity:0.902"/>
				<stop  offset="0.702" style="stop-color:#D2D0D2;stop-opacity:0.902"/>
				<stop  offset="0.8627" style="stop-color:#E4E5E9"/>
				<stop  offset="1" style="stop-color:#C5C5C6"/>
			</linearGradient>
			<path fill-rule="evenodd" clip-rule="evenodd" fill="url(#SVGID_2_)" d="M2.85,45.85C3.083,33.017,9.717,26.6,22.75,26.6H87.4
				c13.033,0,19.666,6.417,19.899,19.25V192c-0.267,12.8-6.899,19.2-19.899,19.2H22.75c-13,0-19.633-6.4-19.9-19.2V45.85z"/>
			<linearGradient id="SVGID_3_" gradientUnits="userSpaceOnUse" x1="2.8501" y1="202.25" x2="107.2998" y2="202.25">
				<stop  offset="0" style="stop-color:#C6C4C1"/>
				<stop  offset="0.5373" style="stop-color:#D2D2D2"/>
				<stop  offset="0.8118" style="stop-color:#AFAAAF"/>
				<stop  offset="1" style="stop-color:#CDCDCD"/>
			</linearGradient>
			<path fill-rule="evenodd" clip-rule="evenodd" fill="url(#SVGID_3_)" d="M2.85,192c0.267,12.8,6.9,19.2,19.9,19.2H87.4
				c13,0,19.633-6.4,19.899-19.2v1.25c-0.233,12.833-6.866,19.25-19.899,19.25H22.75c-13.033,0-19.667-6.417-19.9-19.25V192z"/>
		</g>
	</g>
	<g>
		<g>
			<g>
				
					<linearGradient id="SVGID_4_" gradientUnits="userSpaceOnUse" x1="-55.771" y1="-325.6709" x2="-41.379" y2="-325.6709" gradientTransform="matrix(0.2779 0.9606 -0.9733 0.2342 -247.8617 138.6193)">
					<stop  offset="0.1686" style="stop-color:#C2C0C2"/>
					<stop  offset="0.9216" style="stop-color:#ECE5E5"/>
				</linearGradient>
				<path fill-rule="evenodd" clip-rule="evenodd" fill="url(#SVGID_4_)" d="M27.55,15.75V15.7c0-0.833,2.733-1.55,8.2-2.15
					c5.467-0.566,12.083-0.85,19.85-0.85c7.766,0,14.367,0.283,19.8,0.85c5.233,0.567,7.983,1.25,8.25,2.05L83.6,15.9
					c-0.399,0.733-3.133,1.35-8.199,1.85c-5.434,0.6-12.034,0.9-19.8,0.9c-7.767,0-14.383-0.3-19.85-0.9
					C30.317,17.217,27.583,16.55,27.55,15.75z"/>
				<linearGradient id="SVGID_5_" gradientUnits="userSpaceOnUse" x1="27.5498" y1="20.5" x2="83.5996" y2="20.5">
					<stop  offset="0" style="stop-color:#E2E2E2"/>
					<stop  offset="0.4431" style="stop-color:#EBE7E6"/>
					<stop  offset="0.702" style="stop-color:#D2D0D2"/>
					<stop  offset="1" style="stop-color:#E4E5E9"/>
				</linearGradient>
				<path fill-rule="evenodd" clip-rule="evenodd" fill="url(#SVGID_5_)" d="M83.6,15.9v6.55c-0.399,0.733-3.133,1.367-8.199,1.9
					c-5.434,0.6-12.034,0.9-19.8,0.9c-7.767,0-14.383-0.3-19.85-0.9c-5.433-0.567-8.167-1.267-8.2-2.1v-6.5
					c0.034,0.8,2.767,1.467,8.2,2c5.467,0.6,12.083,0.9,19.85,0.9c7.766,0,14.367-0.3,19.8-0.9C80.467,17.25,83.2,16.633,83.6,15.9z
					"/>
			</g>
		</g>
	</g>
	<g>
		<g>
			<g>
				
					<linearGradient id="SVGID_6_" gradientUnits="userSpaceOnUse" x1="40.4497" y1="9.9658" x2="72.0791" y2="9.9658" gradientTransform="matrix(0.9999 -0.0166 -0.0051 1.0002 -0.5043 -3.602)">
					<stop  offset="0.1686" style="stop-color:#C2C0C2"/>
					<stop  offset="0.702" style="stop-color:#ECE5E5"/>
					<stop  offset="1" style="stop-color:#C2C0C2"/>
				</linearGradient>
				<path fill-rule="evenodd" clip-rule="evenodd" fill="url(#SVGID_6_)" d="M39.5,4.25c4.2-0.3,9.283-0.45,15.25-0.45
					s11.033,0.15,15.2,0.45c4.033,0.333,6.166,0.717,6.399,1.15L76.3,5.55C76,5.983,73.884,6.333,69.95,6.6
					c-4.167,0.333-9.233,0.5-15.2,0.5S43.7,6.933,39.5,6.6c-4.167-0.3-6.267-0.667-6.3-1.1V5.45C33.2,4.983,35.3,4.583,39.5,4.25z"
					/>
				
					<linearGradient id="SVGID_7_" gradientUnits="userSpaceOnUse" x1="-62.0488" y1="-329.71" x2="-49.7853" y2="-329.71" gradientTransform="matrix(0.265 0.9642 -0.9695 0.2458 -250.334 140.4934)">
					<stop  offset="0.1686" style="stop-color:#FFFFFF"/>
					<stop  offset="0.9216" style="stop-color:#ECE5E5"/>
				</linearGradient>
				<path fill-rule="evenodd" clip-rule="evenodd" fill="url(#SVGID_7_)" d="M77.3,5.75c-0.333,0.633-2.566,1.167-6.7,1.6
					c-4.433,0.5-9.8,0.75-16.1,0.75c-6.333,0-11.717-0.25-16.15-0.75c-4.4-0.467-6.617-1.033-6.65-1.7v-0.1
					c0-0.7,2.216-1.3,6.65-1.8C42.783,3.25,48.167,3,54.5,3c6.3,0,11.667,0.25,16.1,0.75c4.267,0.467,6.517,1.05,6.75,1.75
					L77.3,5.75z M39.5,4.25c-4.2,0.333-6.3,0.733-6.3,1.2V5.5c0.033,0.433,2.133,0.8,6.3,1.1c4.2,0.333,9.283,0.5,15.25,0.5
					s11.033-0.167,15.2-0.5C73.884,6.333,76,5.983,76.3,5.55l0.05-0.15c-0.233-0.433-2.366-0.816-6.399-1.15
					c-4.167-0.3-9.233-0.45-15.2-0.45S43.7,3.95,39.5,4.25z"/>
				<linearGradient id="SVGID_8_" gradientUnits="userSpaceOnUse" x1="31.6499" y1="11.375" x2="77.2495" y2="11.375">
					<stop  offset="0" style="stop-color:#E2E2E2"/>
					<stop  offset="0.4431" style="stop-color:#EBE7E6"/>
					<stop  offset="0.702" style="stop-color:#D2D0D2"/>
					<stop  offset="1" style="stop-color:#E4E5E9"/>
				</linearGradient>
				<path fill-rule="evenodd" clip-rule="evenodd" fill="url(#SVGID_8_)" d="M77.3,5.75v9c-0.333,0.633-2.566,1.183-6.7,1.65
					c-4.433,0.467-9.8,0.7-16.1,0.7c-6.333,0-11.717-0.233-16.15-0.7c-4.434-0.5-6.65-1.1-6.65-1.8V5.65
					c0.033,0.667,2.25,1.233,6.65,1.7c4.433,0.5,9.816,0.75,16.15,0.75c6.3,0,11.667-0.25,16.1-0.75
					C74.733,6.917,76.967,6.383,77.3,5.75z"/>
			</g>
		</g>
	</g>
	<g>
		<g>
			<path fill-rule="evenodd" clip-rule="evenodd" fill="#FFFFFF" fill-opacity="0.6" d="M76.9,11.85v0.8
				c-0.567,0.633-2.75,1.184-6.551,1.65c-4.399,0.534-9.716,0.8-15.95,0.8c-6.267,0-11.6-0.267-16-0.8
				c-3.6-0.433-5.717-0.95-6.35-1.55v-0.8c0.633,0.566,2.75,1.083,6.35,1.55c4.4,0.533,9.733,0.8,16,0.8
				c6.234,0,11.55-0.267,15.95-0.8C74.15,13.033,76.333,12.483,76.9,11.85z"/>
			<path fill-rule="evenodd" clip-rule="evenodd" fill-opacity="0.2" d="M76.9,11v0.8c-0.567,0.633-2.75,1.184-6.551,1.65
				c-4.399,0.533-9.716,0.8-15.95,0.8c-6.267,0-11.6-0.267-16-0.8c-3.6-0.434-5.717-0.95-6.35-1.55v-0.8
				c0.633,0.566,2.75,1.083,6.35,1.55c4.4,0.533,9.733,0.8,16,0.8c6.234,0,11.55-0.267,15.95-0.8
				C74.15,12.183,76.333,11.633,76.9,11z"/>
		</g>
	</g>
	<g>
		<g>
			<path fill-rule="evenodd" clip-rule="evenodd" fill="#FFFFFF" fill-opacity="0.6" d="M76.9,8.75v0.8
				c-0.567,0.633-2.75,1.184-6.551,1.65C65.95,11.733,60.634,12,54.4,12c-6.267,0-11.6-0.267-16-0.8
				c-3.6-0.434-5.717-0.95-6.35-1.55v-0.8c0.633,0.566,2.75,1.083,6.35,1.55c4.4,0.533,9.733,0.8,16,0.8
				c6.234,0,11.55-0.267,15.95-0.8C74.15,9.933,76.333,9.383,76.9,8.75z"/>
			<path fill-rule="evenodd" clip-rule="evenodd" fill-opacity="0.2" d="M76.9,7.9v0.8c-0.567,0.633-2.75,1.183-6.551,1.65
				c-4.399,0.533-9.716,0.8-15.95,0.8c-6.267,0-11.6-0.267-16-0.8c-3.6-0.434-5.717-0.95-6.35-1.55V8
				c0.633,0.567,2.75,1.083,6.35,1.55c4.4,0.534,9.733,0.8,16,0.8c6.234,0,11.55-0.267,15.95-0.8C74.15,9.083,76.333,8.533,76.9,7.9
				z"/>
		</g>
	</g>
</g>
<g id="Layer_1">
	<g>
		<g>
			<g>
				<linearGradient id="SVGID_9_" gradientUnits="userSpaceOnUse" x1="2.8501" y1="32.5" x2="107.2998" y2="32.5">
					<stop  offset="0" style="stop-color:#AAAAAA"/>
					<stop  offset="0.1373" style="stop-color:#CCCACC"/>
					<stop  offset="0.6" style="stop-color:#EEEFF0"/>
					<stop  offset="1" style="stop-color:#A8A8A8"/>
				</linearGradient>
				<path fill-rule="evenodd" clip-rule="evenodd" fill="url(#SVGID_9_)" d="M107.3,44.85C107.066,32.017,100.434,25.6,87.4,25.6
					H22.75c-13.033,0-19.667,6.417-19.9,19.25V39.4C3.083,26.767,9.533,20.35,22.2,20.15c0.167,0,0.35,0,0.55,0H87.4
					c13.033,0,19.666,6.417,19.899,19.25V44.85z"/>
				<linearGradient id="SVGID_10_" gradientUnits="userSpaceOnUse" x1="2.8501" y1="117.9004" x2="107.2998" y2="117.9004">
					<stop  offset="0.0118" style="stop-color:#C4C4C4;stop-opacity:0.898"/>
					<stop  offset="0.0745" style="stop-color:#E2E2E2;stop-opacity:0.902"/>
					<stop  offset="0.4431" style="stop-color:#EBE7E6;stop-opacity:0.902"/>
					<stop  offset="0.702" style="stop-color:#D2D0D2;stop-opacity:0.902"/>
					<stop  offset="0.8627" style="stop-color:#E4E5E9"/>
					<stop  offset="1" style="stop-color:#C5C5C6"/>
				</linearGradient>
				<path fill-rule="evenodd" clip-rule="evenodd" fill="url(#SVGID_10_)" d="M107.3,44.85V191c-0.267,12.8-6.899,19.2-19.899,19.2
					H22.75c-13,0-19.633-6.4-19.9-19.2V44.85C3.083,32.017,9.717,25.6,22.75,25.6H87.4C100.434,25.6,107.066,32.017,107.3,44.85z"/>
				<linearGradient id="SVGID_11_" gradientUnits="userSpaceOnUse" x1="2.8501" y1="201.8496" x2="107.2998" y2="201.8496">
					<stop  offset="0" style="stop-color:#C6C4C1"/>
					<stop  offset="0.5373" style="stop-color:#D2D2D2"/>
					<stop  offset="0.8118" style="stop-color:#AFAAAF"/>
					<stop  offset="1" style="stop-color:#CDCDCD"/>
				</linearGradient>
				<path fill-rule="evenodd" clip-rule="evenodd" fill="url(#SVGID_11_)" d="M2.85,191c0.267,12.8,6.9,19.2,19.9,19.2H87.4
					c13,0,19.633-6.4,19.899-19.2v2.55c-0.233,12.767-6.866,19.15-19.899,19.15H22.75c-13,0-19.633-6.384-19.9-19.15V191z"/>
			</g>
		</g>
		
			<radialGradient id="SVGID_12_" cx="218.9502" cy="115.6504" r="100.8" gradientTransform="matrix(0.9946 0 0 0.8225 -162.4389 -22.8576)" gradientUnits="userSpaceOnUse">
			<stop  offset="0.5529" style="stop-color:#C9C8C6;stop-opacity:0"/>
			<stop  offset="0.702" style="stop-color:#8A8988;stop-opacity:0.502"/>
			<stop  offset="0.749" style="stop-color:#8E8D8C;stop-opacity:0.4745"/>
			<stop  offset="0.7843" style="stop-color:#8A8988;stop-opacity:0.502"/>
		</radialGradient>
		<path fill-rule="evenodd" clip-rule="evenodd" fill="url(#SVGID_12_)" d="M107.284,61.524H2.856V44.865
			C3.088,32.035,9.718,25.62,22.747,25.62h64.646c13.028,0,19.659,6.415,19.892,19.245V61.524z"/>
		
			<radialGradient id="SVGID_13_" cx="53.1499" cy="190.5996" r="30.0376" gradientTransform="matrix(0.003 -1 3.8077 0.0116 -672.7628 241.5422)" gradientUnits="userSpaceOnUse">
			<stop  offset="0.5529" style="stop-color:#C9C8C6;stop-opacity:0"/>
			<stop  offset="0.702" style="stop-color:#8A8988;stop-opacity:0.502"/>
			<stop  offset="0.749" style="stop-color:#8E8D8C;stop-opacity:0.4745"/>
			<stop  offset="0.7843" style="stop-color:#8A8988;stop-opacity:0.502"/>
		</radialGradient>
		<path fill-rule="evenodd" clip-rule="evenodd" fill="url(#SVGID_13_)" d="M107.3,193.25c-0.233,12.833-6.866,19.25-19.899,19.25
			H22.75c-13.033,0-19.667-6.417-19.9-19.25v-7.2H107.3V193.25z"/>
		<g>
			<g>
				<g>
					
						<linearGradient id="SVGID_14_" gradientUnits="userSpaceOnUse" x1="-56.7441" y1="-325.9487" x2="-42.3521" y2="-325.9487" gradientTransform="matrix(0.2779 0.9606 -0.9733 0.2342 -247.8617 138.6193)">
						<stop  offset="0.1686" style="stop-color:#C2C0C2"/>
						<stop  offset="0.9216" style="stop-color:#ECE5E5"/>
					</linearGradient>
					<path fill-rule="evenodd" clip-rule="evenodd" fill="url(#SVGID_14_)" d="M27.55,14.75V14.7c0-0.833,2.733-1.55,8.2-2.15
						c5.467-0.566,12.083-0.85,19.85-0.85c7.766,0,14.367,0.283,19.8,0.85c5.232,0.567,7.982,1.25,8.25,2.05L83.6,14.9
						c-0.399,0.733-3.133,1.35-8.199,1.85c-5.434,0.6-12.034,0.9-19.8,0.9c-7.767,0-14.383-0.3-19.85-0.9
						C30.316,16.217,27.583,15.55,27.55,14.75z"/>
					<linearGradient id="SVGID_15_" gradientUnits="userSpaceOnUse" x1="27.5498" y1="19.5" x2="83.5996" y2="19.5">
						<stop  offset="0" style="stop-color:#E2E2E2"/>
						<stop  offset="0.4431" style="stop-color:#EBE7E6"/>
						<stop  offset="0.702" style="stop-color:#D2D0D2"/>
						<stop  offset="1" style="stop-color:#E4E5E9"/>
					</linearGradient>
					<path fill-rule="evenodd" clip-rule="evenodd" fill="url(#SVGID_15_)" d="M83.6,14.9v6.55c-0.399,0.733-3.133,1.366-8.199,1.9
						c-5.434,0.6-12.034,0.9-19.8,0.9c-7.767,0-14.383-0.3-19.85-0.9c-5.434-0.567-8.167-1.267-8.2-2.1v-6.5
						c0.033,0.8,2.767,1.467,8.2,2c5.467,0.6,12.083,0.9,19.85,0.9c7.766,0,14.367-0.3,19.8-0.9C80.467,16.25,83.2,15.633,83.6,14.9
						z"/>
				</g>
			</g>
			
				<radialGradient id="SVGID_16_" cx="226.6855" cy="-350.7764" r="9.6858" gradientTransform="matrix(0.6886 -0.2699 1.9991 0.0307 610.4557 88.8497)" gradientUnits="userSpaceOnUse">
				<stop  offset="0" style="stop-color:#FFFFFF"/>
				<stop  offset="0.1216" style="stop-color:#FFFFFF"/>
				<stop  offset="0.2824" style="stop-color:#FFFFFF;stop-opacity:0.4471"/>
				<stop  offset="0.502" style="stop-color:#FFFFFF;stop-opacity:0.1882"/>
				<stop  offset="0.6824" style="stop-color:#FFFFFF;stop-opacity:0.0863"/>
				<stop  offset="0.9294" style="stop-color:#FFFFFF;stop-opacity:0"/>
			</radialGradient>
			<path fill-rule="evenodd" clip-rule="evenodd" fill="url(#SVGID_16_)" d="M84.517,17.19c-1.821,0.706-5.254,1.277-10.299,1.714
				c-5.071,0.483-10.247,0.677-15.527,0.583c-5.332-0.095-9.216-0.415-11.656-0.958c-2.439-0.566-2.76-1.203-0.963-1.909
				c1.847-0.728,5.306-1.333,10.377-1.814c5.019-0.416,10.168-0.587,15.451-0.517c5.331,0.095,9.229,0.415,11.693,0.959
				C86.03,15.815,86.339,16.462,84.517,17.19z"/>
		</g>
		<g>
			<g>
				<g>
					
						<linearGradient id="SVGID_17_" gradientUnits="userSpaceOnUse" x1="40.4448" y1="8.9658" x2="72.0742" y2="8.9658" gradientTransform="matrix(0.9999 -0.0166 -0.0051 1.0002 -0.5043 -3.602)">
						<stop  offset="0.1686" style="stop-color:#C2C0C2"/>
						<stop  offset="0.702" style="stop-color:#ECE5E5"/>
						<stop  offset="1" style="stop-color:#C2C0C2"/>
					</linearGradient>
					<path fill-rule="evenodd" clip-rule="evenodd" fill="url(#SVGID_17_)" d="M54.75,2.8c5.967,0,11.033,0.15,15.2,0.45
						c4.033,0.333,6.166,0.717,6.399,1.15L76.3,4.55C76,4.983,73.883,5.333,69.95,5.6c-4.167,0.333-9.233,0.5-15.2,0.5
						S43.7,5.933,39.5,5.6c-4.167-0.3-6.267-0.667-6.3-1.1V4.45c0-0.467,2.1-0.867,6.3-1.2C43.7,2.95,48.783,2.8,54.75,2.8z"/>
					
						<linearGradient id="SVGID_18_" gradientUnits="userSpaceOnUse" x1="-63.0181" y1="-329.9746" x2="-50.7546" y2="-329.9746" gradientTransform="matrix(0.265 0.9642 -0.9695 0.2458 -250.334 140.4934)">
						<stop  offset="0.1686" style="stop-color:#FFFFFF"/>
						<stop  offset="0.9216" style="stop-color:#ECE5E5"/>
					</linearGradient>
					<path fill-rule="evenodd" clip-rule="evenodd" fill="url(#SVGID_18_)" d="M77.3,4.75c-0.333,0.633-2.566,1.167-6.7,1.6
						c-4.433,0.5-9.8,0.75-16.1,0.75c-6.333,0-11.717-0.25-16.15-0.75c-4.4-0.467-6.617-1.033-6.65-1.7v-0.1
						c0-0.7,2.216-1.3,6.65-1.8C42.783,2.25,48.167,2,54.5,2c6.3,0,11.667,0.25,16.1,0.75c4.267,0.467,6.517,1.05,6.75,1.75
						L77.3,4.75z M54.75,2.8c-5.967,0-11.05,0.15-15.25,0.45c-4.2,0.333-6.3,0.733-6.3,1.2V4.5c0.033,0.433,2.133,0.8,6.3,1.1
						c4.2,0.333,9.283,0.5,15.25,0.5s11.033-0.167,15.2-0.5C73.883,5.333,76,4.983,76.3,4.55l0.05-0.15
						c-0.233-0.433-2.366-0.816-6.399-1.15C65.783,2.95,60.717,2.8,54.75,2.8z"/>
					<linearGradient id="SVGID_19_" gradientUnits="userSpaceOnUse" x1="31.6499" y1="10.375" x2="77.2495" y2="10.375">
						<stop  offset="0" style="stop-color:#E2E2E2"/>
						<stop  offset="0.4431" style="stop-color:#EBE7E6"/>
						<stop  offset="0.702" style="stop-color:#D2D0D2"/>
						<stop  offset="1" style="stop-color:#E4E5E9"/>
					</linearGradient>
					<path fill-rule="evenodd" clip-rule="evenodd" fill="url(#SVGID_19_)" d="M77.3,4.75v9c-0.333,0.633-2.566,1.183-6.7,1.65
						c-4.433,0.467-9.8,0.7-16.1,0.7c-6.333,0-11.717-0.233-16.15-0.7c-4.434-0.5-6.65-1.1-6.65-1.8V4.65
						c0.033,0.667,2.25,1.233,6.65,1.7c4.433,0.5,9.816,0.75,16.15,0.75c6.3,0,11.667-0.25,16.1-0.75
						C74.733,5.917,76.967,5.383,77.3,4.75z"/>
				</g>
			</g>
		</g>
		<g>
			<g>
				<path fill-rule="evenodd" clip-rule="evenodd" fill-opacity="0.2" d="M76.9,10.8c-0.567,0.633-2.75,1.184-6.551,1.65
					c-4.399,0.533-9.717,0.8-15.95,0.8c-6.267,0-11.6-0.267-16-0.8c-3.6-0.434-5.717-0.95-6.35-1.55v-0.8
					c0.633,0.566,2.75,1.083,6.35,1.55c4.4,0.533,9.733,0.8,16,0.8c6.233,0,11.55-0.267,15.95-0.8
					c3.801-0.467,5.983-1.017,6.551-1.65V10.8z"/>
				<path fill-rule="evenodd" clip-rule="evenodd" fill="#FFFFFF" fill-opacity="0.6" d="M76.9,10.85v0.8
					c-0.567,0.633-2.75,1.184-6.551,1.65c-4.399,0.534-9.717,0.8-15.95,0.8c-6.267,0-11.6-0.267-16-0.8
					c-3.6-0.433-5.717-0.95-6.35-1.55v-0.8c0.633,0.566,2.75,1.083,6.35,1.55c4.4,0.533,9.733,0.8,16,0.8
					c6.233,0,11.55-0.267,15.95-0.8C74.15,12.033,76.333,11.483,76.9,10.85z"/>
			</g>
		</g>
		<g>
			<g>
				<path fill-rule="evenodd" clip-rule="evenodd" fill-opacity="0.2" d="M76.9,7.7c-0.567,0.633-2.75,1.183-6.551,1.65
					c-4.399,0.533-9.717,0.8-15.95,0.8c-6.267,0-11.6-0.267-16-0.8c-3.6-0.434-5.717-0.95-6.35-1.55V7
					c0.633,0.567,2.75,1.083,6.35,1.55c4.4,0.534,9.733,0.8,16,0.8c6.233,0,11.55-0.267,15.95-0.8
					C74.15,8.083,76.333,7.533,76.9,6.9V7.7z"/>
				<path fill-rule="evenodd" clip-rule="evenodd" fill="#FFFFFF" fill-opacity="0.6" d="M76.9,7.75v0.8
					c-0.567,0.633-2.75,1.184-6.551,1.65C65.95,10.733,60.633,11,54.4,11c-6.267,0-11.6-0.267-16-0.8
					c-3.6-0.434-5.717-0.95-6.35-1.55v-0.8c0.633,0.566,2.75,1.083,6.35,1.55c4.4,0.533,9.733,0.8,16,0.8
					c6.233,0,11.55-0.267,15.95-0.8C74.15,8.933,76.333,8.383,76.9,7.75z"/>
			</g>
		</g>
		
			<radialGradient id="SVGID_20_" cx="419.8418" cy="202.2002" r="13.4933" gradientTransform="matrix(0.2334 -0.1157 0.6831 0.043 -151.3722 65.8584)" gradientUnits="userSpaceOnUse">
			<stop  offset="0" style="stop-color:#FFFFFF"/>
			<stop  offset="0.1216" style="stop-color:#FFFFFF"/>
			<stop  offset="0.2824" style="stop-color:#FFFFFF;stop-opacity:0.4471"/>
			<stop  offset="0.502" style="stop-color:#FFFFFF;stop-opacity:0.1882"/>
			<stop  offset="0.6824" style="stop-color:#FFFFFF;stop-opacity:0.0863"/>
			<stop  offset="0.9294" style="stop-color:#FFFFFF;stop-opacity:0"/>
		</radialGradient>
		<path fill-rule="evenodd" clip-rule="evenodd" fill="url(#SVGID_20_)" d="M89.006,27.474c-2.404,0.194-4.866,0.213-7.386,0.054
			c-2.533-0.16-4.381-0.449-5.542-0.867c-1.175-0.413-1.334-0.831-0.476-1.254c0.857-0.43,2.494-0.742,4.912-0.935
			c2.378-0.184,4.827-0.197,7.347-0.039c2.532,0.153,4.386,0.438,5.562,0.854c1.176,0.42,1.328,0.844,0.457,1.272
			C93.021,26.98,91.396,27.285,89.006,27.474z"/>
		
			<radialGradient id="SVGID_21_" cx="-361.4326" cy="-22.5894" r="9.3741" gradientTransform="matrix(0.4261 -0.8987 2.2632 -0.2071 295.397 -124.5941)" gradientUnits="userSpaceOnUse">
			<stop  offset="0" style="stop-color:#FFFFFF"/>
			<stop  offset="0.1216" style="stop-color:#FFFFFF"/>
			<stop  offset="0.2824" style="stop-color:#FFFFFF;stop-opacity:0.4471"/>
			<stop  offset="0.502" style="stop-color:#FFFFFF;stop-opacity:0.1882"/>
			<stop  offset="0.6824" style="stop-color:#FFFFFF;stop-opacity:0.0863"/>
			<stop  offset="0.9294" style="stop-color:#FFFFFF;stop-opacity:0"/>
		</radialGradient>
		<path fill-rule="evenodd" clip-rule="evenodd" fill="url(#SVGID_21_)" d="M107.896,197.576c3.382,1.26,4.509,3.066,3.382,5.42
			c-1.095,2.255-4.078,4.376-8.951,6.365c-4.907,2.022-10.244,3.315-16.013,3.879c-5.835,0.497-10.426,0.116-13.774-1.144
			c-3.282-1.227-4.376-3.001-3.282-5.321c1.094-2.288,4.095-4.442,9.001-6.465c4.84-1.988,10.161-3.248,15.962-3.779
			C99.988,195.968,104.547,196.316,107.896,197.576z"/>
		
			<radialGradient id="SVGID_22_" cx="-517.8452" cy="323.7549" r="6.9076" gradientTransform="matrix(0.5921 -0.7991 2.1543 -0.2934 -374.7071 -292.5095)" gradientUnits="userSpaceOnUse">
			<stop  offset="0" style="stop-color:#FFFFFF"/>
			<stop  offset="0.1216" style="stop-color:#FFFFFF"/>
			<stop  offset="0.2824" style="stop-color:#FFFFFF;stop-opacity:0.4471"/>
			<stop  offset="0.502" style="stop-color:#FFFFFF;stop-opacity:0.1882"/>
			<stop  offset="0.6824" style="stop-color:#FFFFFF;stop-opacity:0.0863"/>
			<stop  offset="0.9294" style="stop-color:#FFFFFF;stop-opacity:0"/>
		</radialGradient>
		<path fill-rule="evenodd" clip-rule="evenodd" fill="url(#SVGID_22_)" d="M4.668,30.593c0.153-2.279,1.786-4.326,4.898-6.141
			c3.11-1.816,6.682-3.018,10.717-3.605c4.031-0.594,7.089-0.527,9.174,0.199c2.089,0.663,2.57,1.757,1.442,3.282
			c-1.126,1.525-3.531,3-7.21,4.425c-3.644,1.493-7.365,2.62-11.164,3.381c-3.804,0.76-6.101,1.265-6.887,1.517
			C4.847,33.899,4.524,32.88,4.668,30.593z"/>
		<g>
			<g>
				<path fill-rule="evenodd" clip-rule="evenodd" d="M56.05,94.4c0.567,0,1.101,0.133,1.601,0.4c0.5,0.233,0.883,0.583,1.149,1.05
					c0.267,0.433,0.4,0.883,0.4,1.35c0,0.466-0.134,0.883-0.4,1.25c-0.233,0.366-0.6,0.667-1.1,0.9c0.633,0.133,1.133,0.433,1.5,0.9
					c0.333,0.467,0.5,1.05,0.5,1.75c0,0.934-0.334,1.717-1,2.35c-0.7,0.667-1.567,1-2.6,1c-0.934,0-1.717-0.284-2.35-0.85
					s-0.983-1.3-1.05-2.2l1.3-0.15c0.167,0.733,0.417,1.267,0.75,1.6c0.367,0.333,0.816,0.5,1.35,0.5c0.633,0,1.167-0.217,1.6-0.65
					c0.399-0.434,0.6-0.967,0.6-1.6c0-0.6-0.2-1.1-0.6-1.5c-0.367-0.4-0.867-0.6-1.5-0.6c-0.233,0-0.534,0.05-0.9,0.15l0.15-1.15
					c0.066,0,0.133,0,0.2,0c0.567,0,1.067-0.133,1.5-0.4c0.466-0.267,0.699-0.7,0.699-1.3c0-0.5-0.166-0.9-0.5-1.2
					c-0.333-0.333-0.767-0.5-1.3-0.5c-0.5,0-0.917,0.167-1.25,0.5c-0.333,0.3-0.55,0.783-0.65,1.45L52.8,97.2
					c0.167-0.867,0.533-1.55,1.1-2.05S55.183,94.4,56.05,94.4z"/>
			</g>
			<g>
				<path fill-rule="evenodd" clip-rule="evenodd" d="M70.45,108.05c0.399,0.233,0.733,0.566,1,1c0.3,0.467,0.533,1,0.7,1.601
					c0.133,0.633,0.199,1.483,0.199,2.55c0,1.267-0.116,2.283-0.35,3.05c-0.267,0.733-0.634,1.316-1.1,1.75
					c-0.534,0.434-1.2,0.65-2,0.65c-1.034,0-1.834-0.384-2.4-1.15c-0.733-0.833-1.1-2.267-1.1-4.3c0-1.267,0.133-2.283,0.399-3.05
					s0.667-1.367,1.2-1.801c0.5-0.433,1.133-0.649,1.9-0.649C69.5,107.7,70.017,107.816,70.45,108.05z M66.8,113.2
					c0,1.767,0.2,2.934,0.601,3.5c0.399,0.566,0.899,0.85,1.5,0.85c0.633,0,1.149-0.3,1.55-0.899c0.366-0.534,0.55-1.684,0.55-3.45
					s-0.184-2.934-0.55-3.5c-0.4-0.601-0.917-0.9-1.55-0.9c-0.601,0-1.084,0.267-1.45,0.8C67.017,110.233,66.8,111.434,66.8,113.2z"
					/>
			</g>
			<g>
				<path fill-rule="evenodd" clip-rule="evenodd" d="M39.95,113.2c0-1.267,0.133-2.283,0.4-3.05c0.267-0.767,0.667-1.367,1.2-1.801
					c0.5-0.433,1.133-0.649,1.9-0.649c0.566,0,1.066,0.116,1.5,0.35c0.433,0.233,0.783,0.566,1.05,1c0.3,0.467,0.533,1,0.7,1.601
					c0.133,0.633,0.2,1.483,0.2,2.55c0,1.267-0.117,2.283-0.35,3.05c-0.267,0.733-0.65,1.316-1.15,1.75
					c-0.533,0.434-1.183,0.65-1.95,0.65c-1.034,0-1.833-0.384-2.4-1.15C40.316,116.667,39.95,115.233,39.95,113.2z M41.95,116.7
					c0.4,0.566,0.9,0.85,1.5,0.85c0.6,0,1.1-0.3,1.5-0.899c0.4-0.534,0.6-1.684,0.6-3.45s-0.2-2.934-0.6-3.5
					c-0.4-0.601-0.9-0.9-1.5-0.9c-0.6,0-1.083,0.267-1.45,0.8c-0.434,0.634-0.65,1.834-0.65,3.601S41.55,116.134,41.95,116.7z"/>
			</g>
			<g>
				<path fill-rule="evenodd" clip-rule="evenodd" d="M82.65,113.55L56.05,140.1L29.5,113.55L56.1,87L82.65,113.55z M68.55,126.2
					l-12.6-12.55l-12.5,12.399l12.6,12.65L68.55,126.2z M56.65,112.95l12.6,12.6l12-12l-12.6-12.65L56.65,112.95z M30.9,113.55
					L42.75,125.4l12.45-12.5L43.4,101.05L30.9,113.55z M67.95,100.2L56.1,88.4l-12.05,11.95L55.9,112.2L67.95,100.2z"/>
			</g>
			<g>
				<path fill-rule="evenodd" clip-rule="evenodd" d="M51.6,126.5c0.167-0.434,0.417-0.866,0.75-1.3c0-0.066,0.083-0.2,0.25-0.4
					c-0.034,0.101-0.05,0.217-0.05,0.351c-0.033,0.1-0.05,0.199-0.05,0.3c-0.067,0.233-0.05,0.467,0.05,0.7
					c0.067,0.199,0.184,0.366,0.35,0.5c0.233,0.133,0.45,0.183,0.65,0.149c0.133-0.033,0.217-0.133,0.25-0.3
					c0.033-0.134,0.033-0.267,0-0.4c0-0.066-0.017-0.216-0.05-0.449c-0.067-0.367-0.1-0.667-0.1-0.9c-0.1-0.333-0.15-0.634-0.15-0.9
					c0-0.533,0.066-1.017,0.2-1.449c0.133-0.434,0.366-0.817,0.7-1.15c0.033-0.033,0.083-0.066,0.15-0.1
					c0.067-0.067,0.117-0.101,0.15-0.101c0.033-0.033,0.066-0.05,0.1-0.05l-0.05,0.1c-0.067,0.167-0.1,0.317-0.1,0.45
					c0,0.167,0.017,0.334,0.05,0.5c0.033,0.334,0.183,0.601,0.45,0.8c0.267,0.233,0.55,0.384,0.85,0.45
					c0.167,0.033,0.316,0.017,0.45-0.05c0.133-0.1,0.216-0.25,0.25-0.45c0.066-0.6-0.1-1.2-0.5-1.8
					c-0.034-0.033-0.067-0.066-0.1-0.1c-0.167-0.134-0.284-0.284-0.35-0.45c-0.1-0.167-0.15-0.351-0.15-0.55
					c-0.133-0.767,0.033-1.367,0.5-1.801c0.066-0.033,0.15-0.083,0.25-0.149c0.033-0.033,0.117-0.066,0.25-0.101
					c-0.034,0.034-0.083,0.117-0.15,0.25c-0.034,0.101-0.05,0.184-0.05,0.25c-0.167,0.667,0.033,1.317,0.6,1.95
					c0.267,0.267,0.467,0.5,0.6,0.7c0.233,0.233,0.434,0.467,0.601,0.7c0.733,1.1,1.066,2.2,1,3.3c0,0.4-0.067,0.783-0.2,1.15
					c-0.1,0.333-0.25,0.699-0.45,1.1c-0.033,0.066-0.083,0.167-0.149,0.3l0.1-0.05c0.033,0,0.066,0,0.1,0
					c0.2-0.066,0.367-0.167,0.5-0.3c0.134-0.134,0.25-0.3,0.351-0.5c0.1-0.233,0.183-0.5,0.25-0.8c0.066-0.2,0.116-0.45,0.149-0.75
					c0-0.067,0-0.117,0-0.15c0.033-0.033,0.051-0.066,0.051-0.1c0.033,0.1,0.066,0.233,0.1,0.399c0.066,0.134,0.1,0.233,0.1,0.3
					c0.301,1.067,0.45,2.067,0.45,3c-0.033,0.733-0.149,1.4-0.35,2c-0.267,0.634-0.634,1.167-1.101,1.601
					c-0.533,0.533-1.199,0.934-2,1.2c0.567-0.5,1-1.051,1.301-1.65c0.3-0.667,0.399-1.4,0.3-2.2c-0.101,0.5-0.3,0.917-0.601,1.25
					c-0.3,0.3-0.717,0.517-1.25,0.65l0.051-0.101c0.133-0.3,0.216-0.6,0.25-0.899c0.033-0.3,0.017-0.617-0.051-0.95
					c-0.066-0.366-0.199-0.667-0.399-0.9c-0.233-0.3-0.384-0.633-0.45-1c-0.133-0.3-0.2-0.649-0.2-1.05
					c0.033-0.467,0.117-0.95,0.25-1.45l0.05-0.1c-0.3,0.233-0.55,0.483-0.75,0.75c-0.367,0.667-0.434,1.417-0.2,2.25
					c0.067,0.2,0.1,0.384,0.1,0.55c0,0.2-0.017,0.384-0.05,0.55c-0.067,0.267-0.233,0.467-0.5,0.601
					c-0.233,0.1-0.483,0.083-0.75-0.05c-0.2-0.067-0.35-0.184-0.45-0.351c-0.1-0.166-0.167-0.35-0.2-0.55l-0.05-0.15h-0.05
					c-0.267,0.867-0.317,1.667-0.15,2.4c0.133,0.833,0.533,1.616,1.2,2.35c-0.1-0.066-0.233-0.149-0.4-0.25
					c-0.2-0.1-0.35-0.183-0.45-0.25c-0.4-0.3-0.75-0.616-1.05-0.949c-0.333-0.334-0.6-0.717-0.8-1.15
					c-0.533-0.833-0.733-1.733-0.6-2.7C51.233,127.517,51.367,127,51.6,126.5z"/>
			</g>
		</g>
		<g>
			<path fill-rule="evenodd" clip-rule="evenodd" d="M71.6,71.05c0,1.034,0.25,1.833,0.75,2.4c0.434,0.533,1.033,0.8,1.801,0.8
				c0.732,0,1.333-0.267,1.8-0.8c0.5-0.567,0.75-1.367,0.75-2.4c0-1.033-0.25-1.8-0.75-2.3c-0.434-0.533-1.033-0.8-1.8-0.8
				c-0.768,0-1.384,0.267-1.851,0.8C71.833,69.25,71.6,70.017,71.6,71.05z M72.15,66.75c0.566-0.233,1.232-0.35,2-0.35
				c1.333,0,2.416,0.417,3.25,1.25c0.8,0.8,1.199,1.95,1.199,3.45c0,1.466-0.399,2.617-1.199,3.45c-0.801,0.867-1.884,1.3-3.25,1.3
				c-1.367,0-2.45-0.417-3.25-1.25c-0.801-0.867-1.2-2.017-1.2-3.45c0-0.933,0.149-1.716,0.45-2.35
				c0.199-0.466,0.466-0.883,0.8-1.25C71.316,67.184,71.717,66.917,72.15,66.75z M68.15,66.5v9.15h-1.9L62.6,69.7v5.95h-1.75V66.5
				h1.75l3.801,6.1v-6.1H68.15z M81.85,66.6v7.5h4.65v1.55h-6.45V66.6H81.85z M47.85,70.15V66.5h1.85v9.15h-1.85v-4H44.2v4h-1.8
				V66.5h1.8v3.65H47.85z M52.65,75.65H50.7l3.55-9.15h1.9l3.7,9.15h-2l-0.8-2.1H53.4L52.65,75.65z M56.45,72.05l-1.25-3.4
				l-1.25,3.4H56.45z M32.85,68.1H27.9v2h4.6v1.5h-4.6v2.5h5.15v1.55h-7V66.5h6.8V68.1z M38.5,68.1v7.55h-1.85V68.1h-2.7v-1.6h7.25
				v1.6H38.5z"/>
		</g>
	</g>
</g>
</svg>
