<?xml version="1.0" encoding="utf-8"?>
<!-- Generator: Adobe Illustrator 16.0.3, SVG Export Plug-In . SVG Version: 6.00 Build 0)  -->
<!DOCTYPE svg PUBLIC "-//W3C//DTD SVG 1.1//EN" "http://www.w3.org/Graphics/SVG/1.1/DTD/svg11.dtd">
<svg version="1.1" id="Layer_1" xmlns="http://www.w3.org/2000/svg" xmlns:xlink="http://www.w3.org/1999/xlink" x="0px" y="0px"
	 width="156px" height="75px" viewBox="0 0 156 75" enable-background="new 0 0 156 75" xml:space="preserve">
<g>
	<g>
		<g>
			<linearGradient id="SVGID_1_" gradientUnits="userSpaceOnUse" x1="146.5996" y1="28.3252" x2="158.0996" y2="28.3252">
				<stop  offset="0" style="stop-color:#626262;stop-opacity:0.5686"/>
				<stop  offset="0.3451" style="stop-color:#FFFFFF;stop-opacity:0.4667"/>
				<stop  offset="0.4863" style="stop-color:#BD9A9A;stop-opacity:0.1765"/>
				<stop  offset="0.6667" style="stop-color:#FFFFFF;stop-opacity:0.3373"/>
				<stop  offset="0.8824" style="stop-color:#FFFFFF;stop-opacity:0.2431"/>
				<stop  offset="1" style="stop-color:#FFFFFF;stop-opacity:0.7686"/>
			</linearGradient>
			<path fill-rule="evenodd" clip-rule="evenodd" fill="url(#SVGID_1_)" d="M154.5,3.35l-0.25,10.4v1l-4,38.55v-8.8l3.1-32.75l0.9,3
				l-0.9-3l0.9-5.95L154.5,3.35z M154.25,13.75V5.8V13.75z"/>
			<linearGradient id="SVGID_2_" gradientUnits="userSpaceOnUse" x1="1" y1="48.9004" x2="150.9" y2="48.9004">
				<stop  offset="0" style="stop-color:#F7F7F7;stop-opacity:0.698"/>
				<stop  offset="0.098" style="stop-color:#D6CCCC;stop-opacity:0.3569"/>
				<stop  offset="0.2118" style="stop-color:#BBBBBB;stop-opacity:0.5765"/>
				<stop  offset="0.3451" style="stop-color:#FFFFFF;stop-opacity:0.4667"/>
				<stop  offset="0.4863" style="stop-color:#BD9A9A;stop-opacity:0.1765"/>
				<stop  offset="0.6667" style="stop-color:#FFFFFF;stop-opacity:0.3373"/>
				<stop  offset="0.8824" style="stop-color:#FFFFFF;stop-opacity:0.2431"/>
				<stop  offset="1" style="stop-color:#FFFFFF;stop-opacity:0.7686"/>
			</linearGradient>
			<path fill-rule="evenodd" clip-rule="evenodd" fill="url(#SVGID_2_)" d="M1.65,44.5h1.1H7.4h142.85v8.8h-46.4v-0.05L103.7,53.3
				H1.65V44.5z M1.65,53.3l5.75-8.8L1.65,53.3z"/>
			
				<linearGradient id="SVGID_3_" gradientUnits="userSpaceOnUse" x1="10.7974" y1="5.2998" x2="159.3974" y2="5.2998" gradientTransform="matrix(1 0 -0.2053 1 2.043843e-004 0)">
				<stop  offset="0" style="stop-color:#F7F7F7;stop-opacity:0.2627"/>
				<stop  offset="0.5412" style="stop-color:#FBFBFB;stop-opacity:0.0706"/>
				<stop  offset="1" style="stop-color:#FFFFFF;stop-opacity:0.1137"/>
			</linearGradient>
			<polygon fill-rule="evenodd" clip-rule="evenodd" fill="url(#SVGID_3_)" points="15.65,3.35 14.3,7.25 15.55,3.35 			"/>
			
				<path fill-rule="evenodd" clip-rule="evenodd" fill="none" stroke="#FFFFFF" stroke-linecap="round" stroke-linejoin="round" stroke-miterlimit="3" d="
				M154.25,13.75v1l-4,38.55h-46.4H103.7H1.65v-8.8L14.3,7.25l1.35-3.9h0.1h4.2h134.3h0.25 M153.35,11.75l0.9,3 M154.25,13.75V5.8
				l-0.9,5.95 M154.25,5.8V3.35 M154.25,5.8l0.25-2.45 M150.25,44.5l3.1-32.75 M7.4,44.5h142.85v8.8 M7.4,44.5H2.75h-1.1"/>
			
				<path fill-rule="evenodd" clip-rule="evenodd" fill="none" stroke="#FFFFFF" stroke-linecap="round" stroke-linejoin="round" stroke-miterlimit="3" stroke-opacity="0.498" d="
				M153.35,11.75H16.5L7.4,44.5 M15.75,3.35l0.75,8.4 M1.65,53.3l5.75-8.8"/>
			<line fill-rule="evenodd" clip-rule="evenodd" fill="none" x1="3.1" y1="43.45" x2="2.75" y2="44.5"/>
		</g>
	</g>
	<g>
		<linearGradient id="SVGID_4_" gradientUnits="userSpaceOnUse" x1="76.0498" y1="52.9004" x2="76.0498" y2="58.9004">
			<stop  offset="0" style="stop-color:#626262"/>
			<stop  offset="1" style="stop-color:#FFFFFF;stop-opacity:0"/>
		</linearGradient>
		<rect x="1.6" y="53.8" fill-rule="evenodd" clip-rule="evenodd" fill="url(#SVGID_4_)" width="148.9" height="8.8"/>
	</g>
	<g>
		
			<radialGradient id="SVGID_5_" cx="46.5" cy="44.75" r="82.6" gradientTransform="matrix(1 0 0 0.0309 0 43.3685)" gradientUnits="userSpaceOnUse">
			<stop  offset="0" style="stop-color:#FFFFFF"/>
			<stop  offset="0.1216" style="stop-color:#FFFFFF"/>
			<stop  offset="0.2824" style="stop-color:#FFFFFF;stop-opacity:0.4471"/>
			<stop  offset="0.502" style="stop-color:#FFFFFF;stop-opacity:0.1882"/>
			<stop  offset="0.6824" style="stop-color:#FFFFFF;stop-opacity:0.0863"/>
			<stop  offset="0.9294" style="stop-color:#FFFFFF;stop-opacity:0"/>
		</radialGradient>
		<path fill-rule="evenodd" clip-rule="evenodd" fill="url(#SVGID_5_)" d="M128.3,44.75c0,0.7-8,1.3-24,1.8
			C88.267,47.05,69,47.3,46.5,47.3c-16.8,0-31.8-0.133-45-0.399v-2.25l1-1.95c12.933-0.3,27.6-0.45,44-0.45
			c22.5,0,41.767,0.25,57.8,0.75C120.3,43.5,128.3,44.083,128.3,44.75z"/>
	</g>
	<g>
		<g>
			
				<linearGradient id="SVGID_6_" gradientUnits="userSpaceOnUse" x1="12.1338" y1="23.7251" x2="159.1338" y2="23.7251" gradientTransform="matrix(1 0 -0.209 1 7.182360e-005 0)">
				<stop  offset="0" style="stop-color:#F7F7F7;stop-opacity:0.2627"/>
				<stop  offset="0.5412" style="stop-color:#FBFBFB;stop-opacity:0.0706"/>
				<stop  offset="1" style="stop-color:#FFFFFF;stop-opacity:0.1137"/>
			</linearGradient>
			<path fill-rule="evenodd" clip-rule="evenodd" fill="url(#SVGID_6_)" d="M153.05,5.9l0.05-0.6L116.15,32.65l-2,9.4h0.25
				l-0.101,0.4L149,42.35l0.55-0.199l3.7-36.4L153.05,5.9z M154.25,3.75L150,43.7H3L16.85,3.75H154.25z M43.35,14l2.9-9.7H17.9
				L4.15,42.95c0.1-0.101,0.2-0.2,0.3-0.3C19.917,27.883,31.833,18.733,40.2,15.2C41.333,14.733,42.383,14.333,43.35,14z"/>
			
				<linearGradient id="SVGID_7_" gradientUnits="userSpaceOnUse" x1="-235.0747" y1="129.6563" x2="-211.8957" y2="129.6563" gradientTransform="matrix(-0.124 -0.9923 0.8382 -1.3568 1.908541e-004 -1.635551e-004)">
				<stop  offset="0" style="stop-color:#FFFFFF;stop-opacity:0.4706"/>
				<stop  offset="1" style="stop-color:#FFFFFF;stop-opacity:0"/>
			</linearGradient>
			<polygon fill-rule="evenodd" clip-rule="evenodd" fill="url(#SVGID_7_)" points="153.05,5.9 149.4,41.75 148.85,41.95 
				114.4,42.05 114.15,42.05 116.15,32.65 153.1,5.3 			"/>
			
				<linearGradient id="SVGID_8_" gradientUnits="userSpaceOnUse" x1="4.0728" y1="-7.4839" x2="42.2801" y2="-7.4839" gradientTransform="matrix(0.564 0.8258 -0.6839 0.7717 -4.595518e-005 -5.465746e-005)">
				<stop  offset="0" style="stop-color:#FFFFFF;stop-opacity:0.4706"/>
				<stop  offset="1" style="stop-color:#FFFFFF;stop-opacity:0"/>
			</linearGradient>
			<path fill-rule="evenodd" clip-rule="evenodd" fill="url(#SVGID_8_)" d="M43.35,14c-0.967,0.333-2.017,0.733-3.15,1.2
				c-8.367,3.533-20.284,12.683-35.75,27.45c-0.1,0.1-0.2,0.199-0.3,0.3L17.9,4.3h28.35L43.35,14z"/>
		</g>
	</g>
</g>
</svg>
