<?xml version="1.0" encoding="utf-8"?>
<!-- Generator: Adobe Illustrator 16.0.3, SVG Export Plug-In . SVG Version: 6.00 Build 0)  -->
<!DOCTYPE svg PUBLIC "-//W3C//DTD SVG 1.1//EN" "http://www.w3.org/Graphics/SVG/1.1/DTD/svg11.dtd">
<svg version="1.1" id="Layer_1" xmlns="http://www.w3.org/2000/svg" xmlns:xlink="http://www.w3.org/1999/xlink" x="0px" y="0px"
	 width="156px" height="75px" viewBox="0 0 156 75" enable-background="new 0 0 156 75" xml:space="preserve">
<g>
	<g>
		<g>
			<linearGradient id="SVGID_1_" gradientUnits="userSpaceOnUse" x1="146.5996" y1="33.3252" x2="158.0996" y2="33.3252">
				<stop  offset="0" style="stop-color:#626262;stop-opacity:0.5686"/>
				<stop  offset="0.3451" style="stop-color:#FFFFFF;stop-opacity:0.4667"/>
				<stop  offset="0.4863" style="stop-color:#BD9A9A;stop-opacity:0.1765"/>
				<stop  offset="0.6667" style="stop-color:#FFFFFF;stop-opacity:0.3373"/>
				<stop  offset="0.8824" style="stop-color:#FFFFFF;stop-opacity:0.2431"/>
				<stop  offset="1" style="stop-color:#FFFFFF;stop-opacity:0.7686"/>
			</linearGradient>
			<path fill-rule="evenodd" clip-rule="evenodd" fill="url(#SVGID_1_)" d="M150.25,63.3V44.5l3.075-29.75l0.925-8.975v7.95
				l-0.025,1.025L150.25,63.3z M154.25,5.775l0.25-2.425l-0.25,10.375V5.775z M153.325,14.75h0.899H153.325z"/>
			<linearGradient id="SVGID_2_" gradientUnits="userSpaceOnUse" x1="1" y1="53.9004" x2="150.9" y2="53.9004">
				<stop  offset="0" style="stop-color:#F7F7F7;stop-opacity:0.698"/>
				<stop  offset="0.098" style="stop-color:#D6CCCC;stop-opacity:0.3569"/>
				<stop  offset="0.2118" style="stop-color:#BBBBBB;stop-opacity:0.5765"/>
				<stop  offset="0.3451" style="stop-color:#FFFFFF;stop-opacity:0.4667"/>
				<stop  offset="0.4863" style="stop-color:#BD9A9A;stop-opacity:0.1765"/>
				<stop  offset="0.6667" style="stop-color:#FFFFFF;stop-opacity:0.3373"/>
				<stop  offset="0.8824" style="stop-color:#FFFFFF;stop-opacity:0.2431"/>
				<stop  offset="1" style="stop-color:#FFFFFF;stop-opacity:0.7686"/>
			</linearGradient>
			<polygon fill-rule="evenodd" clip-rule="evenodd" fill="url(#SVGID_2_)" points="7.375,44.5 104.875,44.5 104.9,44.5 
				150.25,44.5 150.25,63.3 103.85,63.3 103.85,63.25 103.7,63.3 1.65,63.3 1.65,44.5 2.75,44.5 7.375,44.5 1.65,63.3 			"/>
			
				<linearGradient id="SVGID_3_" gradientUnits="userSpaceOnUse" x1="10.7974" y1="5.2876" x2="159.3974" y2="5.2876" gradientTransform="matrix(1 0 -0.2053 1 2.043843e-004 0)">
				<stop  offset="0" style="stop-color:#F7F7F7;stop-opacity:0.2627"/>
				<stop  offset="0.5412" style="stop-color:#FBFBFB;stop-opacity:0.0706"/>
				<stop  offset="1" style="stop-color:#FFFFFF;stop-opacity:0.1137"/>
			</linearGradient>
			<polygon fill-rule="evenodd" clip-rule="evenodd" fill="url(#SVGID_3_)" points="15.65,3.35 14.275,7.225 15.55,3.35 			"/>
			
				<path fill-rule="evenodd" clip-rule="evenodd" fill="none" stroke="#FFFFFF" stroke-linecap="round" stroke-linejoin="round" stroke-miterlimit="3" d="
				M154.25,5.775V3.35H19.95h-4.2 M153.325,14.75l0.925-8.975 M154.25,3.35h0.25 M154.25,13.725l-0.025,1.025L150.25,63.3h-46.4
				H103.7H1.65V44.5L14.275,7.225L15.65,3.35h0.1 M154.25,13.725v-7.95l0.25-2.425 M104.9,44.5h45.35l3.075-29.75h0.899
				 M150.25,44.5v18.8 M2.75,44.5h4.625h97.5 M1.65,44.5h1.1"/>
			
				<path fill-rule="evenodd" clip-rule="evenodd" fill="none" stroke="#FFFFFF" stroke-linecap="round" stroke-linejoin="round" stroke-miterlimit="3" stroke-opacity="0.498" d="
				M15.75,3.35l0.75,11.4h136.825 M7.375,44.5L16.5,14.75 M1.65,63.3l5.725-18.8"/>
			<line fill-rule="evenodd" clip-rule="evenodd" fill="none" x1="3.1" y1="43.45" x2="2.75" y2="44.5"/>
		</g>
	</g>
	<g>
		<linearGradient id="SVGID_4_" gradientUnits="userSpaceOnUse" x1="76.0498" y1="62.9004" x2="76.0498" y2="68.9004">
			<stop  offset="0" style="stop-color:#626262"/>
			<stop  offset="1" style="stop-color:#FFFFFF;stop-opacity:0"/>
		</linearGradient>
		<rect x="1.6" y="63.8" fill-rule="evenodd" clip-rule="evenodd" fill="url(#SVGID_4_)" width="148.9" height="8.8"/>
	</g>
	<g>
		
			<radialGradient id="SVGID_5_" cx="46.5" cy="44.75" r="82.6" gradientTransform="matrix(1 0 0 0.0309 0 43.3685)" gradientUnits="userSpaceOnUse">
			<stop  offset="0" style="stop-color:#FFFFFF"/>
			<stop  offset="0.1216" style="stop-color:#FFFFFF"/>
			<stop  offset="0.2824" style="stop-color:#FFFFFF;stop-opacity:0.4471"/>
			<stop  offset="0.502" style="stop-color:#FFFFFF;stop-opacity:0.1882"/>
			<stop  offset="0.6824" style="stop-color:#FFFFFF;stop-opacity:0.0863"/>
			<stop  offset="0.9294" style="stop-color:#FFFFFF;stop-opacity:0"/>
		</radialGradient>
		<path fill-rule="evenodd" clip-rule="evenodd" fill="url(#SVGID_5_)" d="M46.5,47.3c-16.808,0-31.808-0.142-45-0.425v-2.25l1-1.95
			c12.946-0.283,27.613-0.425,44-0.425c22.5,0,41.767,0.25,57.8,0.75c16,0.5,24,1.083,24,1.75c0,0.7-8,1.3-24,1.8
			C88.267,47.05,69,47.3,46.5,47.3z"/>
	</g>
	<g>
		<g>
			
				<linearGradient id="SVGID_6_" gradientUnits="userSpaceOnUse" x1="12.1382" y1="23.9248" x2="159.1387" y2="23.9248" gradientTransform="matrix(1 0 -0.2075 1 -1.365542e-004 0)">
				<stop  offset="0" style="stop-color:#F7F7F7;stop-opacity:0.2627"/>
				<stop  offset="0.5412" style="stop-color:#FBFBFB;stop-opacity:0.0706"/>
				<stop  offset="1" style="stop-color:#FFFFFF;stop-opacity:0.1137"/>
			</linearGradient>
			<path fill-rule="evenodd" clip-rule="evenodd" fill="url(#SVGID_6_)" d="M114.4,42.35L114.3,42.8l34.7-0.1l0.55-0.25l3.7-36.65
				l-0.2,0.15l0.05-0.6L116.15,32.9l-2,9.45H114.4z M40.2,15.3c1.133-0.466,2.183-0.867,3.15-1.2l2.9-9.75H17.9L4.15,43.3
				c0.1-0.1,0.2-0.2,0.3-0.3C19.917,28.1,31.833,18.867,40.2,15.3z M154.25,3.8L150,44.05H3L16.85,3.8H154.25z"/>
			
				<linearGradient id="SVGID_7_" gradientUnits="userSpaceOnUse" x1="-236.8271" y1="129.6719" x2="-213.4745" y2="129.6719" gradientTransform="matrix(-0.1231 -0.9924 0.8381 -1.367 1.221895e-005 4.491806e-004)">
				<stop  offset="0" style="stop-color:#FFFFFF;stop-opacity:0.4706"/>
				<stop  offset="1" style="stop-color:#FFFFFF;stop-opacity:0"/>
			</linearGradient>
			<polygon fill-rule="evenodd" clip-rule="evenodd" fill="url(#SVGID_7_)" points="153.05,5.95 149.4,42.05 148.85,42.25 
				114.4,42.35 114.15,42.35 116.15,32.9 153.1,5.35 			"/>
			
				<linearGradient id="SVGID_8_" gradientUnits="userSpaceOnUse" x1="4.0845" y1="-7.4941" x2="42.4986" y2="-7.4941" gradientTransform="matrix(0.561 0.8278 -0.6824 0.7756 4.149675e-004 1.283288e-004)">
				<stop  offset="0" style="stop-color:#FFFFFF;stop-opacity:0.4706"/>
				<stop  offset="1" style="stop-color:#FFFFFF;stop-opacity:0"/>
			</linearGradient>
			<path fill-rule="evenodd" clip-rule="evenodd" fill="url(#SVGID_8_)" d="M40.2,15.3C31.833,18.867,19.917,28.1,4.45,43
				c-0.1,0.1-0.2,0.2-0.3,0.3L17.9,4.35h28.35l-2.9,9.75C42.383,14.433,41.333,14.833,40.2,15.3z"/>
		</g>
	</g>
</g>
</svg>
