<?xml version="1.0" encoding="utf-8"?>
<!-- Generator: Adobe Illustrator 16.0.3, SVG Export Plug-In . SVG Version: 6.00 Build 0)  -->
<!DOCTYPE svg PUBLIC "-//W3C//DTD SVG 1.1//EN" "http://www.w3.org/Graphics/SVG/1.1/DTD/svg11.dtd">
<svg version="1.1" id="Layer_1" xmlns="http://www.w3.org/2000/svg" xmlns:xlink="http://www.w3.org/1999/xlink" x="0px" y="0px"
	 width="58px" height="24px" viewBox="0 0 58 24" enable-background="new 0 0 58 24" xml:space="preserve">
<g>
	<path fill-rule="evenodd" clip-rule="evenodd" fill="#FFFFFF" d="M47.35,6.25c1.801,0.8,1.634,1.25-0.5,1.35
		c-0.399,0-0.55-0.217-0.449-0.65C46.533,6.483,46.85,6.25,47.35,6.25z M49.35,7.6c0.134-0.367,0.434-0.55,0.9-0.55
		c1.434,1.167,1.184,1.534-0.75,1.1C49.267,8.117,49.217,7.933,49.35,7.6z M49.25,10.25c1.467,1.1,1.217,1.5-0.75,1.2
		c-0.333-0.067-0.434-0.267-0.3-0.6C48.4,10.517,48.75,10.317,49.25,10.25z M46.15,11.5c-0.233-0.033-0.267-0.217-0.101-0.55
		c0.134-0.233,0.384-0.417,0.75-0.55c0.101-0.1,0.217-0.233,0.351-0.4c1.6,1.6,1.533,3.116-0.2,4.55
		c-0.167,0.167-0.283,0.15-0.351-0.05c-0.3-0.667-0.449-1.25-0.449-1.75c-0.301,0.033-0.767-0.033-1.4-0.2
		c-0.267-0.033-0.333-0.183-0.2-0.45c0.2-0.4,0.517-0.6,0.95-0.6c0.267,0.233,0.483,0.433,0.65,0.6c0-0.233,0.033-0.434,0.1-0.6
		H46.15z M55.4,9.1C55.134,9.067,55.1,8.883,55.3,8.55c0.134-0.3,0.4-0.483,0.8-0.55C57.566,9.167,57.333,9.533,55.4,9.1z
		 M48.2,15.85c-0.134-0.433,0-0.733,0.399-0.899c-0.066-0.033-0.1-0.084-0.1-0.15c-0.2-1,0.15-1.666,1.05-2
		c1.533,1.066,1.533,1.851,0,2.351c1.4,0.733,1.134,1.116-0.8,1.149C48.45,16.3,48.267,16.15,48.2,15.85z M45.4,16
		c0.066,0.033,0.1,0.083,0.1,0.15c0,0.066-0.033,0.116-0.1,0.149c-0.067,0.066-0.134,0.101-0.2,0.101L45.1,16.3
		c-0.066-0.033-0.1-0.083-0.1-0.149c0-0.067,0.033-0.117,0.1-0.15l0.101-0.05C45.267,15.95,45.333,15.967,45.4,16z M45.5,15.2
		c0.2-0.367,0.5-0.55,0.9-0.55c1.466,1.1,1.233,1.449-0.7,1.05C45.434,15.7,45.366,15.533,45.5,15.2z M37,1.6
		c1.566,1.066,1.35,1.45-0.65,1.15c-0.3,0-0.399-0.167-0.3-0.5C36.25,1.883,36.566,1.667,37,1.6z M31.05,1.05
		c1.434,1.034,1.184,1.483-0.75,1.35c-0.434,0-0.566-0.217-0.399-0.65C30.167,1.317,30.55,1.083,31.05,1.05z M33.85,1.35
		c1.867,0.833,1.834,1.333-0.1,1.5c-0.634,0.066-0.917-0.167-0.85-0.7C32.967,1.683,33.283,1.417,33.85,1.35z M33.65,3.75
		c0-0.1,0.033-0.15,0.1-0.15c0.066-0.067,0.134-0.1,0.2-0.1c0.133,0,0.2,0.033,0.2,0.1c0.033,0,0.05,0.05,0.05,0.15
		c0,0.067-0.017,0.117-0.05,0.15c1.399,0.867,1.333,1.367-0.2,1.5l0.2,0.05c0,0.1-0.067,0.15-0.2,0.15
		c0,0.033-0.033,0.05-0.101,0.05c-0.066,0-0.133-0.017-0.199-0.05c-0.067,0-0.101-0.05-0.101-0.15L33.65,5.4
		c-0.067,0-0.167,0-0.301,0c-0.033,0-0.083,0-0.149,0H33c0.073,0.001,0.173,0.019,0.3,0.05c0.033,0.1,0.05,0.167,0.05,0.2
		c0,0.133-0.017,0.217-0.05,0.25C33.167,6,33.066,6.05,33,6.05c-0.134,0-0.233-0.05-0.3-0.15c-0.134-0.033-0.2-0.117-0.2-0.25
		c0-0.033,0.066-0.1,0.2-0.2C32.767,5.417,32.866,5.4,33,5.4V5.3c-0.2-0.1-0.233-0.316-0.1-0.65C33.033,4.283,33.35,4.067,33.85,4
		l-0.1-0.1C33.684,3.867,33.65,3.817,33.65,3.75z M24.7,4.4h-0.2V4.3h0.2V4.4z M29.35,4.25c0.067,0,0.101,0.017,0.101,0.05H29.35
		V4.25z M28.1,4.8c-0.033,0-0.05-0.017-0.05-0.05l0.05-0.1h0.2V4.8l-0.1,0.1C28.133,4.9,28.1,4.867,28.1,4.8z M34.2,8.4
		c0.033,0,0.05,0.017,0.05,0.05l-0.05,0.1h-0.05l-0.101-0.1c0-0.034,0.033-0.05,0.101-0.05H34.2z M34.35,7.7
		c-0.1,0-0.166-0.034-0.199-0.1c-0.134-0.1-0.2-0.184-0.2-0.25c0-0.1,0.066-0.167,0.2-0.2c0.033-0.066,0.1-0.1,0.199-0.1
		c0.067,0,0.167,0.034,0.301,0.1c0.066,0.033,0.1,0.1,0.1,0.2c0,0.066-0.033,0.15-0.1,0.25C34.517,7.667,34.417,7.7,34.35,7.7z
		 M32.6,7.85c-0.066,0-0.1-0.017-0.1-0.05h0.1V7.7c0.067,0,0.101,0.033,0.101,0.1v0.05H32.6z M32.9,7.45
		c-0.067,0.066-0.134,0.1-0.2,0.1s-0.134-0.033-0.2-0.1v-0.1c0-0.033,0-0.083,0-0.15c0.066,0,0.134,0,0.2,0s0.133,0,0.2,0
		c0,0.066,0,0.117,0,0.15V7.45z M33.75,6.9c0-0.066,0-0.133,0-0.2c0.066,0,0.134,0,0.2,0h0.1c0.066,0.066,0.101,0.133,0.101,0.2
		c0,0.033-0.034,0.05-0.101,0.05c0,0.066-0.033,0.1-0.1,0.1s-0.134-0.033-0.2-0.1V6.9z M33.45,6.3c0.066,0,0.133,0.034,0.2,0.1
		c0.066,0.067,0.1,0.117,0.1,0.15c0,0.067-0.033,0.117-0.1,0.15c-0.067,0.066-0.134,0.1-0.2,0.1s-0.117-0.033-0.15-0.1
		c0-0.034,0-0.083,0-0.15c0-0.033,0-0.083,0-0.15C33.333,6.333,33.384,6.3,33.45,6.3z M30.6,6.55v0.1c0.7,0.267,1.15,0.5,1.351,0.7
		V7.3c0.133,0,0.2,0.017,0.2,0.05c0.066,0.066,0.1,0.133,0.1,0.2c0,0.034,0,0.083,0,0.15c1.134,0.833,0.816,1.283-0.95,1.35
		c-0.133,0-0.25-0.033-0.35-0.1c-0.066,0.066-0.167,0.1-0.3,0.1H30.6c0,0.034-0.033,0.083-0.1,0.15c-0.066,0-0.134,0-0.2,0h-0.1
		c0-0.067,0-0.117,0-0.15v-0.1l0.1-0.05c0.065,0,0.133,0.017,0.2,0.05c-0.066-0.035-0.1-0.084-0.1-0.15c-0.2,0-0.367,0.034-0.5,0.1
		c0,0.033-0.034,0.05-0.101,0.05c0,0.066-0.05,0.1-0.149,0.1l-0.101-0.1c-0.066,0-0.1-0.017-0.1-0.05H29.35
		c-0.199,0.033-0.366,0.05-0.5,0.05c-0.167,0-0.317-0.017-0.45-0.05c0,0.033,0,0.083,0,0.15c0.633,0.367,0.95,0.667,0.95,0.9
		c0.067,0,0.134,0.017,0.2,0.05c0-0.033,0.033-0.05,0.101-0.05c0.3,0.1,0.616,0.2,0.949,0.3c0-0.033,0-0.083,0-0.15
		c0.034,0,0.084,0,0.15,0h0.1c0.067,0,0.134,0.033,0.2,0.1l0.05,0.05c0.2-0.267,0.483-0.433,0.851-0.5
		c-0.063-0.031-0.063-0.048,0-0.05c-0.07,0-0.138,0-0.2,0l-0.1-0.1c-0.067-0.033-0.101-0.083-0.101-0.15
		c0-0.067,0.033-0.1,0.101-0.1l0.1-0.05c0.066,0,0.134,0.017,0.2,0.05c0.066,0,0.1,0.033,0.1,0.1c0.2-0.333,0.483-0.5,0.851-0.5
		L33.1,9.1c0.134,0.133,0.25,0.283,0.351,0.45c0.2-0.233,0.434-0.4,0.7-0.5c0.267,0.167,0.533,0.35,0.8,0.55
		c0.166-0.2,0.416-0.367,0.75-0.5c0.434,0.333,0.75,0.633,0.95,0.9c-0.067-0.867,0.333-1.533,1.199-2V7.95
		c0.101-0.1,0.184-0.15,0.25-0.15c0.134,0,0.233,0.05,0.301,0.15c0.066,0.033,0.1,0.1,0.1,0.2c0,0.067-0.033,0.117-0.1,0.15v0.15
		c0.8,1,0.449,1.883-1.051,2.65c-0.233,0.1-0.399,0.017-0.5-0.25c0-0.033,0-0.083,0-0.15c-0.133,0.267-0.483,0.483-1.05,0.65
		c0.066,0.066,0.101,0.117,0.101,0.15c0,0.133-0.034,0.217-0.101,0.25c-0.066,0-0.133,0-0.2,0c-0.066,0-0.133,0-0.199,0
		c-0.067-0.033-0.101-0.117-0.101-0.25h-0.1c-0.101,0-0.184,0-0.25,0c-0.2,0.133-0.434,0.25-0.7,0.35c0.467,0.433,0.533,0.7,0.2,0.8
		c0.2,0.267,0.133,0.45-0.2,0.55c-0.033,0-0.1,0-0.2,0c-0.133,0-0.3,0.033-0.5,0.1c0,0.033,0,0.101,0,0.2
		c0.134,0.1,0.167,0.233,0.101,0.4V14c0.6,0.434,0.933,0.816,1,1.15c0.199-0.134,0.416-0.25,0.649-0.351
		c0.134,0.101,0.267,0.217,0.4,0.351c0-0.134,0.033-0.25,0.1-0.351c0.233-0.434,0.617-0.649,1.15-0.649c0.033,0,0.05,0.033,0.05,0.1
		c0.167-0.267,0.45-0.434,0.85-0.5c1.301,0.866,1.301,1.3,0,1.3c0.034,0.367-0.566,0.5-1.8,0.4H36c0.1,0.166,0.15,0.333,0.15,0.5
		c0.133-0.233,0.399-0.367,0.8-0.4c1.333,1.101,1.133,1.467-0.601,1.101l0.101,0.05c0,0.066-0.033,0.133-0.101,0.2H36.15
		c-0.067-0.067-0.101-0.134-0.101-0.2l0.101-0.05c0-0.064,0.033-0.099,0.1-0.101h-0.1C36.05,16.483,36,16.434,36,16.4
		c-0.134,0.033-0.3,0.083-0.5,0.149h-0.1c0,0.066-0.034,0.101-0.101,0.101h-0.1c-0.367,0-0.816,0-1.351,0
		c-0.333,0-0.433-0.117-0.3-0.351c-0.166,0-0.316,0.033-0.45,0.101c-1.933,0.533-2.566,0.216-1.899-0.95
		c-0.066,0-0.117-0.017-0.15-0.05c-0.066,0-0.1-0.034-0.1-0.101c-0.066-0.066-0.134-0.1-0.2-0.1c0-0.033,0-0.117,0-0.25
		c0-0.033,0-0.084,0-0.15c0.066-0.033,0.167-0.05,0.3-0.05c0.033,0,0.084,0.017,0.15,0.05V14.9c0.133,0,0.233,0,0.3,0
		c0.033,0.033,0.05,0.116,0.05,0.25c0.267-0.233,0.617-0.317,1.05-0.25c0-0.233,0.067-0.4,0.2-0.5c-0.233,0.066-0.616,0.1-1.149,0.1
		c-0.101,0-0.184,0-0.25,0c-0.067,0.033-0.134,0.05-0.2,0.05c-0.233,0.134-0.667,0.2-1.3,0.2c-0.301,0-0.45-0.167-0.45-0.5
		c0-0.1,0-0.184,0-0.25c-0.134,0-0.2-0.033-0.2-0.1c-0.5-0.034-0.683-0.334-0.55-0.9v-0.2c0-0.1,0.033-0.183,0.1-0.25
		c0.034-0.033,0.083-0.05,0.15-0.05c0.065-0.065,0.132-0.099,0.2-0.1c-0.067,0-0.101-0.017-0.101-0.05c-0.066,0-0.1-0.033-0.1-0.1
		c-0.067,0.2-0.517,0.333-1.35,0.4c0,0.067,0.066,0.117,0.2,0.15c0.067-0.033,0.15-0.05,0.25-0.05c0.1,0,0.184,0.017,0.25,0.05
		l0.1,0.1v-0.1c0-0.033,0.033-0.05,0.1-0.05s0.1,0.017,0.1,0.05c0.064,0.065,0.098,0.131,0.1,0.2l-0.1,0.05h-0.2
		c0,0.101-0.033,0.184-0.1,0.25v0.05c0.267,0.334,0.1,0.5-0.5,0.5c0.2,0.367,0.067,0.667-0.4,0.9c-0.066,0-0.133,0-0.2,0
		c-0.067,0-0.1,0.017-0.1,0.05c-0.033,0.066-0.05,0.117-0.05,0.15c0.167-0.134,0.383-0.2,0.65-0.2c2.467,0.434,2.633,0.934,0.5,1.5
		c1.133,1,0.767,1.5-1.1,1.5c-0.3,0-0.45-0.184-0.45-0.55c0-0.367,0.1-0.634,0.3-0.8c-0.4-0.101-0.5-0.434-0.3-1
		c0.066-0.164,0.166-0.281,0.3-0.351c-0.138,0.067-0.338,0.117-0.6,0.15c0,0.066-0.033,0.1-0.1,0.1l-0.1,0.101
		c-0.033,0-0.083-0.034-0.15-0.101c-0.067,0-0.1-0.033-0.1-0.1c-0.133,0-0.267,0-0.4,0l-0.1,0.1h-0.15v-0.1
		c-0.067-0.033-0.133-0.084-0.2-0.15c-0.1,0-0.183-0.033-0.25-0.1h-0.1c0.066,0.066,0.1,0.133,0.1,0.2l-0.1,0.05
		c0,0.066-0.034,0.133-0.1,0.2c-0.067,0.033-0.133,0.05-0.2,0.05c-0.033,0-0.083-0.017-0.15-0.05c-0.067-0.067-0.1-0.134-0.1-0.2
		c0-0.101,0.033-0.184,0.1-0.25c-0.133,0-0.3,0-0.5,0c-0.233,0-0.383-0.101-0.45-0.3h-0.1V14.55l0.1-0.05c-0.066,0-0.133,0-0.2,0
		c0-0.066,0-0.134,0-0.2c0-0.033,0-0.083,0-0.149c0.066,0,0.133,0,0.2,0c0.067-0.334,0.217-0.567,0.45-0.7h0.1
		c-0.067-0.066-0.1-0.15-0.1-0.25c0.001-0.034,0.034-0.085,0.1-0.15c0.066-0.1,0.167-0.15,0.3-0.15s0.217,0.05,0.25,0.15
		c0.067,0.066,0.1,0.117,0.1,0.15v0.1c0.065,0,0.099,0.017,0.1,0.05V13.3c0-0.066,0.033-0.116,0.1-0.149
		c0.066-0.067,0.133-0.101,0.2-0.101c0.067,0,0.1,0.033,0.1,0.101c0.033-0.067,0.083-0.117,0.15-0.15v-0.1h0.1V13
		c0.164-0.131,0.381-0.214,0.65-0.25c0.233,0.1,0.45,0.233,0.65,0.4c0-0.067,0.034-0.101,0.1-0.101L26.55,13v-0.1l-0.1-0.1
		c-0.067-0.033-0.1-0.083-0.1-0.15c0-0.066,0.033-0.117,0.1-0.15c0.065-0.065,0.132-0.099,0.2-0.1c-0.066,0-0.1-0.017-0.1-0.05
		c-0.066,0-0.1-0.033-0.1-0.1c-0.067,0-0.1-0.033-0.1-0.1c0-0.033,0.033-0.05,0.1-0.05c0-0.133,0-0.217,0-0.25
		c0-0.067,0.033-0.1,0.1-0.1c-0.133-0.1-0.133-0.267,0-0.5c0.2-0.367,0.483-0.55,0.85-0.55c0.333,0.267,0.567,0.483,0.7,0.65
		c0.633,0.333,0.933,0.6,0.9,0.8l0.05-0.05h0.2c0.066,0.033,0.1,0.083,0.1,0.15s-0.033,0.1-0.1,0.1v0.05
		c0.066-0.033,0.134-0.05,0.2-0.05c0.233,0.033,0.483,0.083,0.75,0.15c-0.267-0.167-0.483-0.367-0.65-0.6
		c-0.399,0.067-0.566-0.083-0.5-0.45c-0.133,0-0.25,0-0.35,0h-0.1c-0.067,0-0.133,0-0.2,0c-0.066,0-0.1-0.034-0.1-0.1h-0.1
		c0-0.067,0-0.117,0-0.15v-0.1h0.1c-0.066-0.1-0.066-0.2,0-0.3c0.067-0.2,0.2-0.35,0.4-0.45c-0.133,0-0.3,0-0.5,0
		c0,0.033-0.05,0.117-0.15,0.25c-0.066,0.033-0.117,0.05-0.15,0.05c-0.133,0-0.233,0-0.3,0c-0.067,0-0.133-0.017-0.2-0.05
		c-0.066-0.067-0.1-0.133-0.1-0.2h-0.1c-0.067,0-0.1-0.017-0.1-0.05l0.1-0.1h0.1l0.1,0.1v-0.1c-0.2-0.033-0.3-0.167-0.3-0.4
		c-0.033-0.067-0.05-0.117-0.05-0.15c0-0.1,0.05-0.184,0.15-0.25c0.066-0.333,0.3-0.517,0.7-0.55c0-0.133,0.017-0.2,0.05-0.2
		c0-0.067,0.033-0.117,0.1-0.15c-0.1,0-0.183-0.033-0.25-0.1c-0.066,0-0.133-0.017-0.2-0.05V8.25c-0.067,0.033-0.133,0.083-0.2,0.15
		l-0.1,0.05c0,0.066-0.033,0.1-0.1,0.1l0.1,0.1V8.7h0.1v0.2h-0.1c-0.066,0.033-0.133,0.05-0.2,0.05c-0.033,0-0.05-0.017-0.05-0.05
		l-0.1-0.1c0,0.067-0.034,0.1-0.1,0.1C26.517,9.1,26.233,9.2,26,9.2c0.1,0.1,0.183,0.216,0.25,0.35h0.2c0,0.034,0,0.083,0,0.15v0.05
		c0,0.067-0.034,0.1-0.1,0.1c-0.067,0-0.133-0.033-0.2-0.1c-0.1,0.133-0.383,0.167-0.85,0.1c0,0.066-0.017,0.117-0.05,0.15
		c0,0.067-0.033,0.1-0.1,0.1c-0.066,0-0.117-0.033-0.15-0.1c-0.133,0.133-0.3,0.2-0.5,0.2c-0.1,0-0.183-0.034-0.25-0.1v0.1
		c0,0.1-0.033,0.15-0.1,0.15c-0.066,0.033-0.133,0.05-0.2,0.05c-0.067,0-0.133-0.017-0.2-0.05V10.1h-0.1c0-0.067,0.033-0.1,0.1-0.1
		h0.2c0.066,0,0.133,0,0.2,0l-0.1-0.05c-0.133-0.133-0.2-0.267-0.2-0.4s0.066-0.25,0.2-0.35c0.133-0.1,0.284-0.15,0.45-0.15
		c0.133-0.167,0.317-0.283,0.55-0.35c-0.167-0.2-0.316-0.383-0.45-0.55v0.1h-0.1c-0.067,0-0.117,0.017-0.15,0.05h-0.2
		c-0.267,0-0.617,0-1.05,0h-0.2l-0.1-0.05c-0.133-0.1-0.167-0.283-0.1-0.55c0.133-0.434,0.45-0.684,0.95-0.75h0.3
		c0,0.066-0.034,0.133-0.1,0.2c0.267,0.133,0.45,0.283,0.55,0.45c0-0.1,0.033-0.184,0.1-0.25h-0.1c-0.033,0-0.05-0.017-0.05-0.05
		c-0.067,0-0.1-0.05-0.1-0.15c-0.067-0.133-0.1-0.217-0.1-0.25c0-0.066,0.033-0.133,0.1-0.2c0-0.034,0-0.083,0-0.15h-0.1l-0.1-0.05
		c0-0.067,0.034-0.133,0.1-0.2h0.2l0.05,0.1V6.3c0.067-0.1,0.167-0.15,0.3-0.15c0.2,0,0.316,0.05,0.35,0.15
		c0.067,0.067,0.1,0.15,0.1,0.25c0,0.067,0,0.117,0,0.15c0.067-0.034,0.15-0.083,0.25-0.15c0.2,0,0.367,0,0.5,0h0.2
		c-0.069-0.001-0.169-0.051-0.3-0.15c-0.066-0.066-0.1-0.15-0.1-0.25c-0.133,0-0.233-0.033-0.3-0.1c0-0.033,0-0.083,0-0.15
		c0-0.1,0-0.183,0-0.25c0.133-0.033,0.233-0.05,0.3-0.05c0.133,0,0.233,0.017,0.3,0.05c0.067,0,0.117,0,0.15,0
		c0.067,0,0.133,0,0.2,0h0.1c0.066-0.167,0.35-0.367,0.85-0.6v-0.1c0-0.034,0.034-0.1,0.1-0.2c0.133-0.067,0.233-0.1,0.3-0.1
		c0.133,0,0.216,0.033,0.25,0.1c0.066,0.1,0.1,0.167,0.1,0.2v0.1h0.05v0.1h-0.05V5.2c0.3,0.066,0.567,0.15,0.8,0.25
		c0.2-0.333,0.5-0.5,0.9-0.5c1.267,1.066,1.134,1.433-0.4,1.1c0.301,0.3,0.483,0.517,0.551,0.65c0.133-0.1,0.267-0.15,0.399-0.15
		H30.6z M30.5,4.75c0-0.067,0-0.133,0-0.2h0.1c0-0.1,0.051-0.183,0.15-0.25c0.066-0.1,0.184-0.15,0.35-0.15
		c0.067,0,0.134,0.033,0.2,0.1c0.134-0.067,0.217-0.1,0.25-0.1c0.134,0,0.2,0.033,0.2,0.1c0.066,0.033,0.1,0.117,0.1,0.25
		c0,0.033-0.033,0.083-0.1,0.15c0,0.067-0.033,0.1-0.1,0.1c0,0.033-0.034,0.083-0.101,0.15v0.05c0,0.133-0.017,0.216-0.05,0.25
		c-0.066,0.133-0.167,0.2-0.3,0.2c-0.066,0-0.117-0.066-0.15-0.2c-0.066,0-0.1-0.017-0.1-0.05c-0.066,0-0.134-0.033-0.2-0.1
		c-0.1,0-0.184-0.033-0.25-0.1C30.5,4.917,30.5,4.85,30.5,4.75z M29.55,3h0.101c0.1,0.067,0.149,0.133,0.149,0.2
		c0,0.033-0.05,0.083-0.149,0.15c0,0.066-0.034,0.1-0.101,0.1s-0.133-0.034-0.2-0.1c-0.066-0.067-0.1-0.117-0.1-0.15
		c0-0.067,0.033-0.133,0.1-0.2C29.417,3,29.483,3,29.55,3z M30.6,2.65c0.034,0.067,0.051,0.133,0.051,0.2
		c0,0.1-0.017,0.183-0.051,0.25c-0.066,0.066-0.133,0.1-0.199,0.1c0,0.033-0.034,0.05-0.101,0.05c0,0.067-0.033,0.1-0.1,0.1
		L30.1,3.25V3.2c-0.066,0-0.1-0.034-0.1-0.1c-0.066-0.067-0.1-0.15-0.1-0.25c0-0.067,0.033-0.133,0.1-0.2
		c0.066-0.1,0.167-0.15,0.3-0.15C30.434,2.5,30.533,2.55,30.6,2.65z M26.25,2.6c0.2-0.333,0.517-0.533,0.95-0.6
		c1.433,1.1,1.183,1.467-0.75,1.1C26.217,3.033,26.15,2.867,26.25,2.6z M33.95,13.75c0-0.1,0.033-0.184,0.1-0.25
		c0-0.033,0.033-0.083,0.101-0.15c0-0.033,0.017-0.05,0.05-0.05s0.083,0.017,0.149,0.05c0.067,0,0.134,0.034,0.2,0.101V13.35
		c0-0.1,0.033-0.166,0.101-0.199c0.133-0.067,0.233-0.101,0.3-0.101c0.133,0,0.217,0.033,0.25,0.101c0.133,0.033,0.2,0.1,0.2,0.199
		c0,0.101-0.067,0.184-0.2,0.25c-0.033,0.034-0.117,0.051-0.25,0.051v0.1c0,0.167-0.066,0.283-0.2,0.35
		c-0.134,0.101-0.267,0.15-0.4,0.15c-0.1,0-0.199-0.05-0.3-0.15c-0.066-0.066-0.1-0.149-0.1-0.25H33.85v-0.1H33.95z M30.5,9.6
		l0.1,0.1v0.15h-0.1c-0.066,0-0.134,0-0.2,0V9.7C30.366,9.633,30.434,9.6,30.5,9.6z M29.8,9.45l0.101-0.1
		c0.066,0,0.133,0.033,0.199,0.1V9.6L30,9.7h-0.2V9.45z M31.2,9.45c0,0.066,0,0.15,0,0.25c0,0.033,0,0.117,0,0.25
		c-0.066,0-0.15,0-0.25,0h-0.2c-0.099-0.132-0.149-0.215-0.15-0.25c0-0.1,0.051-0.184,0.15-0.25c0-0.065,0.033-0.098,0.1-0.1h0.101
		C31.05,9.35,31.134,9.383,31.2,9.45z M30.85,9.1l0.101,0.1c0,0.066-0.033,0.117-0.101,0.15H30.65C30.616,9.317,30.6,9.267,30.6,9.2
		l0.051-0.1H30.85z M33.2,10.25c-0.134-0.033-0.3-0.05-0.5-0.05c-0.066,0-0.134,0-0.2,0c0.634,0.566,0.45,0.85-0.55,0.85
		c0.366,0.267,0.684,0.55,0.95,0.85c0.066-0.133,0.166-0.233,0.3-0.3v-0.15c0-0.067,0.033-0.1,0.1-0.1v0.1
		c0.033,0,0.05,0.017,0.05,0.05c0.067-0.033,0.134-0.05,0.2-0.05C33.25,10.95,33.134,10.55,33.2,10.25z M33.35,8.9v0.15L33.3,9.1
		c-0.066,0-0.1-0.017-0.1-0.05c-0.066,0-0.101-0.033-0.101-0.1c0-0.034,0.034-0.05,0.101-0.05H33.35z M26.95,12.65v0.1
		c0.066-0.067,0.15-0.1,0.25-0.1c-0.1-0.066-0.184-0.117-0.25-0.15h-0.1C26.917,12.533,26.95,12.583,26.95,12.65z M25.4,10.85V10.6
		h0.1c0.067-0.067,0.133-0.133,0.2-0.2c0.066-0.1,0.167-0.15,0.3-0.15c0.1,0,0.183,0.05,0.25,0.15c0.133,0.067,0.2,0.15,0.2,0.25
		s-0.067,0.167-0.2,0.2c-0.067,0.133-0.15,0.2-0.25,0.2c-0.067,0-0.133-0.033-0.2-0.1h-0.1c-0.067,0-0.133-0.034-0.2-0.1H25.4z
		 M25.15,10.4c0.067,0,0.1,0.033,0.1,0.1s-0.033,0.1-0.1,0.1c0,0.033-0.033,0.05-0.1,0.05c0.3,0.2,0.483,0.383,0.55,0.55
		c0.267,0.033,0.45,0.117,0.55,0.25c0.067,0,0.1,0.017,0.1,0.05c0.067,0,0.1,0.033,0.1,0.1c0.2,0.2,0.083,0.367-0.35,0.5
		c0.367,0.433,0.333,0.65-0.1,0.65c-0.276,0.031-0.709-0.036-1.3-0.2c-0.167-0.033-0.233-0.1-0.2-0.2c-0.3,0.033-0.517,0-0.65-0.1
		c-0.067,0.167-0.217,0.267-0.45,0.3c0,0.067-0.033,0.1-0.1,0.1c0,0.067-0.034,0.1-0.1,0.1c-0.066,0-0.099-0.033-0.1-0.1
		c-0.001,0.067-0.034,0.117-0.1,0.15v0.1c0,0.067,0,0.117,0,0.15c-0.066,0.066-0.167,0.101-0.3,0.101h-0.15c-0.067,0-0.133,0-0.2,0
		V13v-0.1c0-0.1,0.033-0.183,0.1-0.25c-0.067,0-0.133,0-0.2,0c-0.233,0-0.383-0.083-0.45-0.25c-0.034,0-0.083,0-0.15,0
		c-1.1-0.1-1.833-0.267-2.2-0.5c-0.2-0.133-0.3-0.283-0.3-0.45c-0.033,0-0.066-0.117-0.1-0.35c0-0.3-0.034-0.583-0.1-0.85
		c-0.2,0.067-0.45,0.1-0.75,0.1c-0.6,0.033-0.9-0.184-0.9-0.65c0-0.1,0.033-0.267,0.1-0.5c0.2-0.434,0.483-0.8,0.85-1.1
		C18.117,7.933,18.067,7.8,18,7.7h-0.1c0,0.066-0.033,0.1-0.1,0.1c-0.066,0.1-0.133,0.15-0.2,0.15c-0.133,0-0.233-0.05-0.3-0.15
		c-0.066-0.066-0.1-0.133-0.1-0.2c0-0.1,0.033-0.184,0.1-0.25c0.067-0.033,0.167-0.05,0.3-0.05c0.066,0,0.133,0.017,0.2,0.05
		l0.1,0.1H18c-0.067-0.267,0.117-0.434,0.55-0.5V6.9c0-0.066,0.034-0.15,0.1-0.25c0.067-0.066,0.133-0.1,0.2-0.1
		c0.066-0.1,0.133-0.2,0.2-0.3v-0.1c0.4-0.5,0.917-0.95,1.55-1.35c0-0.7,0.283-1.183,0.85-1.45c0.167-0.233,0.4-0.367,0.7-0.4
		L22.25,3c0.067,0,0.133,0.033,0.2,0.1c0.066,0.066,0.1,0.117,0.1,0.15c0.633,0.6,0.717,0.933,0.25,1h0.1c0,0.033,0,0.083,0,0.15
		v0.1c0,0.033,0,0.117,0,0.25c-0.066,0-0.133,0.017-0.2,0.05v0.1c0,0.033-0.034,0.083-0.1,0.15c0,0.067-0.05,0.1-0.15,0.1
		c-0.064,0-0.097-0.033-0.1-0.1c0.002,0.104,0.035,0.221,0.1,0.35l0.1-0.1c0.033-0.065,0.116-0.099,0.25-0.1
		c-0.066-0.001-0.1-0.018-0.1-0.05c0-0.066,0.033-0.133,0.1-0.2C22.867,4.917,22.933,4.9,23,4.9s0.133,0.017,0.2,0.05
		c0,0.066,0,0.133,0,0.2c0,0.033,0,0.083,0,0.15v0.3h0.1v0.15h-0.2c-0.133,0.1-0.233,0.15-0.3,0.15c-0.066,0-0.133,0-0.2,0
		C22.567,5.967,22.483,6,22.35,6c-0.067,0-0.133,0-0.2,0c-0.167,0.167-0.467,0.333-0.9,0.5c0.367,0.367,0.467,0.6,0.3,0.7
		c0.067,0.066,0.117,0.117,0.15,0.15V7.3l0.2-0.15c0.1,0,0.15,0.017,0.15,0.05l0.1,0.1c0,0.1-0.033,0.15-0.1,0.15
		c0,0.066-0.05,0.1-0.15,0.1c0.733,0.667,0.583,0.95-0.45,0.85h-0.2c0.133,0.1,0.267,0.2,0.4,0.3l0.05,0.1
		c0.566,0.534,0.55,0.8-0.05,0.8l0.05,0.1h0.1c0.067,0,0.117,0.017,0.15,0.05c0.066,0.067,0.1,0.133,0.1,0.2c0,0.033,0,0.083,0,0.15
		c0.133,0.167,0.2,0.3,0.2,0.4c0,0.067,0.033,0.1,0.1,0.1c0-0.067,0.033-0.133,0.1-0.2v-0.15c0-0.033,0-0.083,0-0.15V10h0.1V9.95
		c0.034,0,0.05,0.017,0.05,0.05h0.2l0.2,0.1L22.9,10c0-0.033,0.033-0.083,0.1-0.15c0-0.067,0.033-0.1,0.1-0.1
		c0.066,0,0.1,0.033,0.1,0.1c0.066,0.066,0.1,0.117,0.1,0.15l-0.1,0.1c0,0.066-0.034,0.1-0.1,0.1c0,0.033,0,0.083,0,0.15v0.05
		c0.066,0.133,0.1,0.233,0.1,0.3v0.1c0.133,0.1,0.25,0.2,0.35,0.3v-0.15c0-0.067,0.034-0.1,0.1-0.1c0.067-0.333,0.35-0.5,0.85-0.5
		c0.1,0.033,0.233,0.1,0.4,0.2V10.5c0-0.067,0.033-0.1,0.1-0.1H25.15z M26.15,10.1h0.1v0.1h-0.1V10.1z M26,10.1V9.95h0.1V10
		C26.1,10.067,26.067,10.1,26,10.1z M29.05,7.45h-0.1c-0.067,0-0.1-0.034-0.1-0.1l0.1-0.05h0.1V7.45z M28.95,7.6v0.1h-0.1V7.6H28.95
		z M28.2,8.55h-0.1c0.064,0.002,0.098,0.036,0.1,0.1V8.55z M28.2,6.9h-0.1c-0.033,0-0.083,0-0.15,0c0.3,0.2,0.283,0.567-0.05,1.1
		c0.033-0.033,0.083-0.05,0.15-0.05c0.1,0,0.184,0.017,0.25,0.05V7.95c0.2-0.1,0.383-0.15,0.55-0.15c0.133,0,0.266,0.017,0.4,0.05
		c0-0.033,0.033-0.05,0.1-0.05V7.55h0.101v-0.1c0-0.167,0.033-0.3,0.1-0.4C29.283,7.05,28.833,7,28.2,6.9z M24.6,8.4h-0.1V8.3
		L24.6,8.4z M26.85,6.5l-0.2-0.1h-0.1c-0.131,0.099-0.231,0.148-0.3,0.15c0.135,0,0.302,0.034,0.5,0.1
		C26.75,6.583,26.783,6.533,26.85,6.5z M43.3,4.75c-0.2-0.133-0.233-0.333-0.1-0.6c0.133-0.333,0.434-0.517,0.899-0.55
		c1.334,1.033,1.217,1.45-0.35,1.25c1.467,1.1,1.217,1.8-0.75,2.1c-0.333,0.066-0.5-0.034-0.5-0.3
		c-0.167-0.967,0.217-1.566,1.15-1.8C43.55,4.817,43.434,4.783,43.3,4.75z M10.8,2.5c0.067-0.067,0.117-0.1,0.15-0.1l0.1,0.1
		c0.067,0,0.1,0.033,0.1,0.1c0,0.1-0.033,0.15-0.1,0.15l-0.1,0.05c-0.034,0-0.083-0.017-0.15-0.05c-0.066,0-0.1-0.05-0.1-0.15
		C10.7,2.533,10.733,2.5,10.8,2.5z M13.6,4.8c0,0.067,0,0.117,0,0.15c0,0.066,0,0.133,0,0.2c-0.067,0-0.133,0-0.2,0
		c-0.066,0-0.133,0-0.2,0c0-0.066,0-0.133,0-0.2c0-0.034,0-0.083,0-0.15c0.066,0,0.133,0,0.2,0C13.467,4.8,13.533,4.8,13.6,4.8z
		 M14.05,4.5c0-0.067,0.034-0.1,0.1-0.1l0.1,0.1v0.15l-0.1,0.1c-0.066,0-0.1-0.033-0.1-0.1c-0.066,0-0.1-0.033-0.1-0.1
		C13.95,4.517,13.983,4.5,14.05,4.5z M12.5,5.45h0.2V5.6h-0.2V5.45z M17.2,2.1c0.066,0,0.1,0.017,0.1,0.05
		c0,0.067-0.033,0.1-0.1,0.1c0,0.067-0.017,0.1-0.05,0.1c-0.066,0-0.1-0.033-0.1-0.1c-0.066,0-0.1-0.033-0.1-0.1
		c0-0.033,0.033-0.05,0.1-0.05c0-0.067,0.034-0.1,0.1-0.1C17.183,2,17.2,2.033,17.2,2.1z M41.2,14c-0.5-0.066-0.667-0.283-0.5-0.65
		c0.399-0.667,1.066-0.933,2-0.8c0.066,0.067,0.166,0.133,0.3,0.2h0.1c0.101,0,0.2,0.05,0.301,0.15c0.133,0.1,0.199,0.2,0.199,0.3
		c0,0.1,0,0.184,0,0.25C43.733,13.983,42.934,14.167,41.2,14z M41.85,12.15c-0.066-0.033-0.1-0.083-0.1-0.15s0.033-0.117,0.1-0.15
		c0.067-0.067,0.134-0.1,0.2-0.1s0.134,0.033,0.2,0.1c0.033,0.033,0.05,0.083,0.05,0.15s-0.017,0.117-0.05,0.15
		c-0.066,0.067-0.134,0.1-0.2,0.1S41.917,12.217,41.85,12.15z M40.35,9.05h0.101c0.033,0.034,0.05,0.083,0.05,0.15
		c0,0.066-0.017,0.117-0.05,0.15c0,0.066-0.033,0.1-0.101,0.1c-0.066,0-0.116-0.034-0.149-0.1C40.134,9.317,40.1,9.267,40.1,9.2
		c0-0.067,0.034-0.117,0.101-0.15C40.233,9.05,40.283,9.05,40.35,9.05z M43.1,10.5c0,0.067-0.033,0.117-0.1,0.15h-0.2
		c0.068,0.001,0.135,0.052,0.2,0.15c0.066,0.034,0.1,0.117,0.1,0.25c0,0.034-0.033,0.083-0.1,0.15c-0.066,0.033-0.134,0.05-0.2,0.05
		c-0.133,0-0.233-0.017-0.3-0.05c-0.134-0.067-0.2-0.117-0.2-0.15c0-0.133,0.066-0.216,0.2-0.25c0.064-0.097,0.156-0.146,0.275-0.15
		c-0.055,0-0.113,0-0.176,0c0-0.033,0-0.083,0-0.15s0-0.117,0-0.15c0.134-0.067,0.233-0.1,0.301-0.1l0.1,0.1
		C43.066,10.383,43.1,10.433,43.1,10.5z M39.6,12.4c-0.1,0-0.149-0.017-0.149-0.05c-0.066-0.067-0.101-0.133-0.101-0.2
		c0-0.1,0.034-0.15,0.101-0.15c0-0.067,0.05-0.1,0.149-0.1c0.067,0,0.134,0.033,0.2,0.1c0.066,0,0.101,0.05,0.101,0.15
		c0,0.067-0.034,0.133-0.101,0.2C39.733,12.383,39.667,12.4,39.6,12.4z M35.3,12.75H35.4v0.05L35.3,12.75z M36.45,11.5
		c-0.066-0.033-0.101-0.117-0.101-0.25c0-0.033,0.034-0.083,0.101-0.15c0.066-0.033,0.133-0.05,0.2-0.05
		c0.133,0,0.233,0.017,0.3,0.05c0.033,0.066,0.05,0.117,0.05,0.15v0.1c0,0.066,0.033,0.1,0.1,0.1c0.101,0.033,0.15,0.117,0.15,0.25
		c0,0.1-0.05,0.167-0.15,0.2c1.233,1.067,0.917,1.4-0.949,1c-0.233-0.066-0.267-0.25-0.101-0.55c0.066-0.233,0.267-0.4,0.601-0.5
		c-0.067-0.067-0.101-0.117-0.101-0.15c0-0.067,0-0.133,0-0.2H36.45z M34.75,9.05c0.066,0,0.134,0,0.2,0s0.133,0,0.2,0
		c0,0.034,0,0.083,0,0.15c0,0.066,0,0.117,0,0.15c-0.067,0.066-0.134,0.1-0.2,0.1s-0.134-0.034-0.2-0.1
		c-0.066-0.033-0.1-0.083-0.1-0.15C34.65,9.133,34.684,9.083,34.75,9.05z M39.05,11.5c0.066,0,0.101,0.033,0.101,0.1
		c0.066,0,0.1,0.033,0.1,0.1c0,0.033-0.033,0.05-0.1,0.05c0,0.067-0.034,0.1-0.101,0.1l-0.1-0.1V11.6L39.05,11.5z M38.4,11.35H38.6
		l0.101,0.1c0,0.033-0.033,0.05-0.101,0.05H38.4V11.35z M37.65,11.45h-0.2v-0.2l0.1-0.05c0.066,0,0.101,0.017,0.101,0.05V11.45z
		 M35.05,7.6c0-0.1,0.05-0.184,0.15-0.25c0.133-0.133,0.3-0.2,0.5-0.2c0.066,0,0.133,0.017,0.2,0.05V7.15
		c-0.467-0.767-0.217-1.233,0.75-1.4c0.233,0.167,0.466,0.3,0.699,0.4C37.483,6.05,37.667,6,37.9,6
		c1.533,1.033,1.35,1.483-0.551,1.35h-0.1c-0.2,0.066-0.467,0.1-0.8,0.1H36.35c0.067,0.1,0.101,0.216,0.101,0.35
		c0,0.1,0,0.167,0,0.2c0.366,0.533-0.134,0.767-1.5,0.7c-0.4-0.034-0.533-0.233-0.4-0.6C34.684,7.9,34.85,7.733,35.05,7.6z
		 M34.75,6.25l0.1-0.1h0.101V6.3H34.85L34.75,6.25z M34.95,6.9h0.2c0.033,0.033,0.05,0.083,0.05,0.15l-0.05,0.1
		c0,0.033-0.034,0.05-0.101,0.05s-0.1-0.017-0.1-0.05l-0.101-0.1C34.85,6.983,34.884,6.933,34.95,6.9z M38,4.9
		c0.134,0,0.233,0.017,0.3,0.05c0.134,0.133,0.2,0.216,0.2,0.25c0,0.167-0.066,0.267-0.2,0.3v0.1c0,0.267-0.55,0.267-1.649,0
		c-0.267-0.067-0.334-0.217-0.2-0.45c0.2-0.4,0.5-0.6,0.899-0.6c0.2,0.133,0.367,0.267,0.5,0.4C37.884,4.917,37.934,4.9,38,4.9z
		 M37.9,3.75c0.133-0.067,0.233-0.1,0.3-0.1c0.133,0,0.233,0.033,0.3,0.1c0.066,0.1,0.1,0.183,0.1,0.25c0,0.1-0.033,0.183-0.1,0.25
		c-0.066,0.033-0.167,0.05-0.3,0.05c-0.066,0-0.167-0.017-0.3-0.05C37.866,4.183,37.85,4.1,37.85,4
		C37.85,3.933,37.866,3.85,37.9,3.75z M41.3,8.4c0.101,0,0.217,0.05,0.351,0.15c0.066,0.067,0.133,0.117,0.199,0.15
		c0.067-0.733,0.483-1.233,1.25-1.5c1.534,1.333,1.334,2.216-0.6,2.65c-0.366,0.1-0.583-0.033-0.65-0.4c0-0.167,0-0.3,0-0.4
		c-0.066,0.034-0.133,0.083-0.199,0.15C41.517,9.3,41.4,9.35,41.3,9.35c-0.2,0-0.333-0.05-0.399-0.15c-0.134-0.1-0.2-0.2-0.2-0.3
		c0-0.167,0.066-0.283,0.2-0.35C40.967,8.45,41.1,8.4,41.3,8.4z M40,4.75v0.2c-0.066,0.133-0.134,0.2-0.2,0.2
		c-0.133,0-0.217-0.066-0.25-0.2v-0.2c0.033-0.067,0.117-0.1,0.25-0.1C39.866,4.65,39.934,4.683,40,4.75z M10.9,3.5
		c0.167-0.333,0.483-0.517,0.95-0.55c1.4,1.133,1.133,1.517-0.8,1.15C10.817,4.033,10.767,3.833,10.9,3.5z M6.85,11.35
		c0.133,0,0.233,0.033,0.3,0.1c0.067,0.033,0.1,0.117,0.1,0.25c0,0.033-0.033,0.083-0.1,0.15c-0.066,0.033-0.167,0.05-0.3,0.05
		c-0.067,0-0.117-0.017-0.15-0.05c-0.067-0.067-0.1-0.117-0.1-0.15c0-0.133,0.033-0.217,0.1-0.25
		C6.733,11.383,6.783,11.35,6.85,11.35z M8.55,6.05l-0.1,0.1c-0.067,0-0.1-0.033-0.1-0.1L8.25,6c0-0.067,0.033-0.117,0.1-0.15
		c0-0.067,0.033-0.1,0.1-0.1l0.1,0.1c0,0.033,0,0.083,0,0.15V6.05z M8.35,5.3h0.1c0.066,0,0.1,0.034,0.1,0.1h-0.2V5.3z M14.15,8.4
		l-0.1-0.1c0-0.033,0.034-0.05,0.1-0.05c0-0.067,0.033-0.1,0.1-0.1l0.1,0.1V8.4H14.15z M13.65,8.45c-0.033,0-0.05-0.017-0.05-0.05
		c0-0.066,0.017-0.117,0.05-0.15c0.067-0.067,0.133-0.1,0.2-0.1l0.1,0.1c0.066,0.033,0.1,0.083,0.1,0.15
		c0,0.033-0.033,0.05-0.1,0.05l-0.1,0.1C13.783,8.55,13.717,8.517,13.65,8.45z M10.2,8.3c-0.067,0.067-0.15,0.1-0.25,0.1
		c-0.133,0-0.217-0.033-0.25-0.1C9.567,8.267,9.5,8.2,9.5,8.1s0.067-0.184,0.2-0.25C9.733,7.75,9.817,7.7,9.95,7.7
		c0.1,0,0.183,0.05,0.25,0.15C10.333,7.917,10.4,8,10.4,8.1S10.333,8.267,10.2,8.3z M10.7,6.7c0.133,0,0.216,0.033,0.25,0.1
		c0.066,0.067,0.1,0.15,0.1,0.25c0,0.067-0.033,0.117-0.1,0.15c-0.034,0.066-0.117,0.1-0.25,0.1h-0.1
		c0.133,0.367-0.417,0.417-1.65,0.15C8.683,7.383,8.65,7.2,8.85,6.9c0-0.064,0.033-0.098,0.1-0.1h-0.1c-0.067,0-0.133-0.05-0.2-0.15
		v-0.1c0-0.033,0-0.083,0-0.15c0.067-0.066,0.133-0.1,0.2-0.1c0.066,0,0.133,0.034,0.2,0.1c0.067,0.067,0.1,0.117,0.1,0.15
		c0.1-0.1,0.283-0.183,0.55-0.25l0.05,0.1V6.3c0-0.033,0.033-0.083,0.1-0.15c0.066-0.066,0.133-0.1,0.2-0.1
		c0.1,0,0.184,0.034,0.25,0.1c0.067,0.067,0.1,0.117,0.1,0.15c0,0.133-0.033,0.217-0.1,0.25c-0.066,0.067-0.15,0.1-0.25,0.1
		c0.167,0.167,0.284,0.3,0.35,0.4c0-0.1,0-0.183,0-0.25C10.533,6.733,10.633,6.7,10.7,6.7z M5.65,8.9c0.2-0.5,0.567-0.8,1.1-0.9
		c1.6,0.9,1.367,1.417-0.7,1.55C5.617,9.583,5.483,9.367,5.65,8.9z M12,11.1h-0.1c0.333,0.6-0.2,0.867-1.6,0.8
		c-0.367,0-0.55-0.15-0.55-0.45c0-0.7,0.383-1.1,1.15-1.2c0.3,0.267,0.583,0.467,0.85,0.6l0.1-0.05c0.033,0,0.083,0.017,0.15,0.05
		v0.1C12,11.017,12,11.067,12,11.1z M12.5,8.7c0.067,0.066,0.1,0.133,0.1,0.2c0,0.033-0.033,0.05-0.1,0.05
		c0,0.066-0.033,0.1-0.1,0.1c-0.066,0-0.133-0.033-0.2-0.1V8.9c0-0.066,0-0.133,0-0.2c0.066,0,0.133,0,0.2,0H12.5z M13.65,9.55v-0.2
		h0.1c0.067,0,0.1,0.033,0.1,0.1l-0.1,0.1H13.65z M13.1,8.8c0.133,0,0.233,0,0.3,0c0.067,0.1,0.1,0.184,0.1,0.25
		c0,0.1-0.033,0.184-0.1,0.25c-0.066,0.034-0.167,0.05-0.3,0.05c-0.067,0-0.167-0.017-0.3-0.05c0-0.066,0-0.15,0-0.25
		c0-0.066,0-0.15,0-0.25C12.933,8.8,13.033,8.8,13.1,8.8z M13.95,9.2c0-0.1,0.033-0.15,0.1-0.15c0.067-0.066,0.133-0.1,0.2-0.1
		s0.133,0.033,0.2,0.1V9.3h0.05c0.067,0.034,0.1,0.083,0.1,0.15c0,0.066-0.033,0.117-0.1,0.15c-0.033,0.066-0.083,0.1-0.15,0.1
		l-0.1-0.1c-0.067-0.033-0.1-0.083-0.1-0.15v-0.1h-0.1C13.983,9.317,13.95,9.267,13.95,9.2z M7.9,12.8c0-0.033,0-0.083,0-0.15v-0.1
		c0.067,0,0.133,0,0.2,0l0.1,0.1c0,0.067-0.034,0.117-0.1,0.15C8.033,12.8,7.967,12.8,7.9,12.8z M14.05,11.05v-0.2l0.1-0.05
		c0.067,0,0.1,0.017,0.1,0.05c0.067,0,0.1,0.033,0.1,0.1c0.066,0,0.15,0,0.25,0c0.867,0.533,1.183,0.933,0.95,1.2
		c-0.066,0.067-0.117,0.133-0.15,0.2c-0.066,0.1-0.2,0.15-0.4,0.15c-0.067,0-0.167-0.033-0.3-0.1c-0.133,0-0.217,0.033-0.25,0.1
		c-0.2,0-0.4,0.017-0.6,0.05c-0.133,0-0.217,0.034-0.25,0.1l-0.1,0.15c-0.067,0.067-0.133,0.1-0.2,0.1h-0.2
		c-0.2,0-0.333-0.083-0.4-0.25c-0.067-0.066-0.1-0.117-0.1-0.15c-0.267-0.233-0.367-0.567-0.3-1c0.067-0.433,0.367-0.667,0.9-0.7
		C13.5,10.9,13.783,10.983,14.05,11.05z M20.5,8.4c-0.067,0-0.133,0-0.2,0c0.067,0.033,0.1,0.117,0.1,0.25
		c0.197-0.23,0.447-0.347,0.75-0.35c-0.139-0.001-0.289-0.018-0.45-0.05h-0.1C20.6,8.283,20.567,8.333,20.5,8.4z M23.95,4.95
		l-0.1,0.1V4.9h0.1V4.95z M23.75,4.9l-0.1-0.1V4.75l0.1-0.1c0.067,0,0.1,0.033,0.1,0.1h0.1c0,0.033-0.034,0.05-0.1,0.05
		C23.85,4.867,23.817,4.9,23.75,4.9z M23.55,3.5c-0.033-0.033-0.05-0.083-0.05-0.15c0-0.067,0.017-0.117,0.05-0.15h0.1
		c0.067,0,0.133,0,0.2,0c0,0.033,0,0.083,0,0.15c0,0.066,0,0.117,0,0.15c-0.067,0.067-0.133,0.1-0.2,0.1
		C23.583,3.6,23.55,3.567,23.55,3.5z M14.05,14.5c0.067,0,0.133,0,0.2,0c0.133,0.1,0.2,0.184,0.2,0.25c0,0.1-0.067,0.167-0.2,0.2
		c-0.067,0.066-0.133,0.1-0.2,0.1c-0.133,0-0.233-0.033-0.3-0.1c-0.1-0.033-0.15-0.1-0.15-0.2c0-0.067,0.051-0.15,0.15-0.25
		C13.817,14.5,13.917,14.5,14.05,14.5z M13.3,14.5c0.067,0,0.133,0.017,0.2,0.05c0.066,0.066,0.1,0.133,0.1,0.2
		c0,0.034-0.034,0.084-0.1,0.15l0.1,0.05c0.033,0.066,0.05,0.133,0.05,0.2c0,0.033-0.017,0.083-0.05,0.149
		c-0.067,0.066-0.133,0.101-0.2,0.101c-0.066,0-0.133-0.034-0.2-0.101c0-0.066,0-0.116,0-0.149c0-0.067,0-0.134,0-0.2l-0.1-0.05
		c-0.067-0.067-0.1-0.117-0.1-0.15c0-0.066,0.033-0.134,0.1-0.2C13.167,14.517,13.233,14.5,13.3,14.5z M13.85,13.75h-0.1v0.1
		c0,0.034-0.033,0.084-0.1,0.15c-0.033,0.066-0.117,0.1-0.25,0.1c-0.066,0-0.133-0.033-0.2-0.1c-0.067-0.066-0.1-0.116-0.1-0.15
		c0-0.133,0.033-0.199,0.1-0.199c0.066-0.101,0.133-0.15,0.2-0.15h0.1c0-0.1,0.033-0.15,0.1-0.15c0.033-0.1,0.117-0.149,0.25-0.149
		c0.066,0,0.133,0.05,0.2,0.149c0.067,0,0.1,0.051,0.1,0.15c0,0.066-0.033,0.116-0.1,0.15C13.983,13.717,13.917,13.75,13.85,13.75z
		 M12.4,14.25c-0.066,0.033-0.133,0.05-0.2,0.05c-0.067,0-0.1-0.017-0.1-0.05c-0.067-0.066-0.1-0.116-0.1-0.15
		c0-0.066,0.033-0.1,0.1-0.1c0-0.066,0.033-0.1,0.1-0.1c0.066,0,0.133,0.033,0.2,0.1v0.1C12.4,14.134,12.4,14.184,12.4,14.25z
		 M13.95,13.15V13c0.066,0,0.1,0.017,0.1,0.05C14.05,13.116,14.017,13.15,13.95,13.15z M10.8,14c0-0.1,0.034-0.184,0.1-0.25
		c0.033-0.1,0.117-0.15,0.25-0.15c0.067,0,0.167,0.051,0.3,0.15c0.066,0.066,0.1,0.15,0.1,0.25c0,0.066-0.033,0.15-0.1,0.25
		c-0.133,0.033-0.233,0.05-0.3,0.05c-0.133,0-0.217-0.017-0.25-0.05C10.833,14.15,10.8,14.066,10.8,14z M9.95,10
		c0.066-0.033,0.116-0.05,0.15-0.05L10.2,10v0.2l-0.1,0.05c-0.033,0-0.083-0.017-0.15-0.05V10z M10.3,9.55
		c0.067,0.034,0.1,0.083,0.1,0.15c0,0.033-0.033,0.083-0.1,0.15c-0.066,0.066-0.133,0.1-0.2,0.1c-0.034,0-0.084-0.034-0.15-0.1
		c0-0.067,0-0.117,0-0.15c0-0.067,0-0.117,0-0.15c0.066-0.066,0.117-0.1,0.15-0.1C10.167,9.45,10.233,9.483,10.3,9.55z M10.8,9.05
		c-0.066,0.034-0.133,0.05-0.2,0.05l-0.1-0.05V8.9l0.1-0.1c0.066,0,0.133,0.034,0.2,0.1V9.05z M20.4,7.95L20.5,8
		c-0.067-0.1-0.067-0.2,0-0.3c0.067-0.167,0.183-0.284,0.35-0.35L20.7,7.2c-0.133-0.034-0.3-0.05-0.5-0.05
		C20.333,7.417,20.4,7.683,20.4,7.95z M22.8,6.8c0,0.067-0.033,0.1-0.1,0.1c-0.067,0-0.1-0.033-0.1-0.1V6.65h0.2l0.1,0.05
		C22.9,6.767,22.867,6.8,22.8,6.8z M23.85,5.85c0.066,0,0.133,0.017,0.2,0.05c0,0.067,0,0.117,0,0.15c0,0.067,0,0.133,0,0.2
		c-0.066,0.033-0.133,0.05-0.2,0.05c-0.133,0-0.2-0.017-0.2-0.05c-0.066,0-0.1-0.033-0.1-0.1C23.517,6.083,23.5,6.033,23.5,6
		l0.05-0.1c0-0.033,0.034-0.05,0.1-0.05C23.717,5.85,23.783,5.85,23.85,5.85z M17.7,5.3c-0.9,0.133-1.317-0.133-1.25-0.8
		c0.066-0.5,0.383-0.75,0.95-0.75C19.9,4.45,20,4.967,17.7,5.3z M16.45,17.75c0.066-0.033,0.133-0.05,0.2-0.05
		c0.067,0,0.1,0.017,0.1,0.05c0.067,0,0.1,0.033,0.1,0.1l-0.1,0.101c0,0.033-0.033,0.05-0.1,0.05c-0.066,0-0.133-0.017-0.2-0.05
		V17.75z M16.85,17.45h-0.1V17.35h0.1V17.45z M16,15.55c0.067,0.033,0.1,0.084,0.1,0.15s-0.033,0.1-0.1,0.1
		c0,0.033-0.05,0.05-0.15,0.05c-0.067,0-0.1-0.017-0.1-0.05c-0.067,0-0.1-0.033-0.1-0.1s0.033-0.117,0.1-0.15
		c0-0.066,0.033-0.1,0.1-0.1C15.95,15.45,16,15.483,16,15.55z M16.35,14.95v0.1c-0.033,0.066-0.083,0.101-0.15,0.101l-0.2-0.2
		c0-0.033,0.033-0.084,0.1-0.15l0.1-0.05c0.066,0,0.117,0.017,0.15,0.05C16.35,14.866,16.35,14.917,16.35,14.95z M18.85,16.05
		c0-0.033,0.033-0.066,0.1-0.1c0-0.066,0.033-0.101,0.1-0.101c0.067,0,0.133,0.034,0.2,0.101c0.067,0.033,0.1,0.066,0.1,0.1
		c0,0.066-0.033,0.134-0.1,0.2c-0.067,0.033-0.133,0.05-0.2,0.05c-0.066,0-0.1-0.017-0.1-0.05
		C18.883,16.184,18.85,16.116,18.85,16.05z M18.45,16c0.066-0.033,0.133-0.05,0.2-0.05l0.1,0.05H18.45z M24.25,18.25
		c0-0.1,0.05-0.233,0.15-0.4c0.067,0,0.133-0.033,0.2-0.1c0-0.033,0-0.083,0-0.15c0-0.033,0.033-0.083,0.1-0.149
		c0.066-0.066,0.167-0.101,0.3-0.101c0.033,0,0.083,0.034,0.15,0.101c0.067,0.066,0.1,0.116,0.1,0.149c0,0.101-0.033,0.184-0.1,0.25
		v0.101c0.1-0.066,0.184-0.101,0.25-0.101c0.2,0,0.333,0.051,0.4,0.15c0.133,0.066,0.2,0.15,0.2,0.25
		c1.467,1.233,0.933,1.684-1.6,1.35c-0.433-0.066-0.483-0.283-0.15-0.649c0.1-0.167,0.25-0.283,0.45-0.351h-0.3
		C24.3,18.467,24.25,18.35,24.25,18.25z M23.75,18.25c0.067,0.066,0.1,0.184,0.1,0.35H22.7c0-0.166,0.066-0.283,0.2-0.35
		c0.133-0.1,0.3-0.15,0.5-0.15C23.5,18.1,23.617,18.15,23.75,18.25z M21.8,18.5v-0.15h0.15c0.066,0,0.1,0.017,0.1,0.051l-0.1,0.1
		H21.8z M19.9,16.15c-0.033,0-0.05-0.034-0.05-0.101c-0.067,0-0.1-0.017-0.1-0.05s0.033-0.083,0.1-0.15h0.05c0.067,0,0.133,0,0.2,0
		c0.066,0.067,0.1,0.117,0.1,0.15s-0.034,0.05-0.1,0.05C20.033,16.116,19.967,16.15,19.9,16.15z M19.75,15.15
		c0.067,0,0.117,0,0.15,0L20,15.2c0,0.066-0.033,0.133-0.1,0.2c-0.033,0-0.083,0-0.15,0c0-0.067,0-0.134,0-0.2V15.15z M20.1,14.9
		l0.1,0.05c0,0.066-0.034,0.1-0.1,0.1c0,0.066-0.033,0.101-0.1,0.101l-0.1-0.101V14.9H20.1z M21.65,14.8h0.15V14.9h-0.15V14.8z
		 M23.85,17.35c0-0.1,0.033-0.183,0.1-0.25c0.066-0.033,0.167-0.05,0.3-0.05c0.1,0,0.15,0.017,0.15,0.05
		c0.133,0.067,0.2,0.15,0.2,0.25c0,0.067-0.067,0.134-0.2,0.2c0,0.033-0.05,0.05-0.15,0.05c-0.133,0-0.233-0.017-0.3-0.05
		C23.883,17.483,23.85,17.417,23.85,17.35z M23.95,16.45v0.1l-0.1,0.101c-0.067,0-0.1-0.034-0.1-0.101v-0.1
		c0-0.033,0.033-0.05,0.1-0.05L23.95,16.45z M23,17.6h-0.2v-0.05l0.1-0.1l0.1,0.1V17.6z M22.9,17.7c0.067,0,0.133,0,0.2,0h0.1
		c0,0.033,0,0.083,0,0.149v0.101L23.1,18c-0.067,0-0.133-0.017-0.2-0.05l-0.1-0.101C22.8,17.783,22.833,17.733,22.9,17.7z
		 M22.45,15.2v0.1c0.066,0,0.1,0.033,0.1,0.101c0.034,0,0.05,0.017,0.05,0.05c0,0.1-0.017,0.149-0.05,0.149
		c0,0.067-0.033,0.101-0.1,0.101c-0.067,0-0.133-0.033-0.2-0.101c-0.066,0-0.099-0.05-0.1-0.149c0-0.033,0.034-0.05,0.1-0.05
		l-0.1-0.101c0-0.066,0.033-0.1,0.1-0.1c0-0.033,0.033-0.05,0.1-0.05L22.45,15.2z M22.05,15.3c0.066,0.066,0.1,0.116,0.1,0.15
		c-0.001,0.067-0.034,0.117-0.1,0.149h-0.1c-0.034,0-0.083,0-0.15,0c0-0.033,0-0.083,0-0.149c0-0.033,0-0.084,0-0.15h0.1v-0.1h0.15
		V15.3z M23.4,16.25c-0.066,0-0.133,0-0.2,0c-0.067,0.033-0.133,0.05-0.2,0.05c-0.133,0-0.233-0.017-0.3-0.05
		c-0.067-0.134-0.1-0.217-0.1-0.25c0-0.1,0.033-0.167,0.1-0.2c0.066-0.066,0.167-0.1,0.3-0.1s0.233,0.033,0.3,0.1l0.1,0.05
		c0.067,0.067,0.1,0.134,0.1,0.2S23.467,16.184,23.4,16.25z M23.2,15.15c0.066-0.067,0.133-0.101,0.2-0.101l0.1,0.101V15.3h-0.1
		c-0.066,0-0.133,0-0.2,0V15.15z M24.25,12.9l-0.1-0.1v-0.15h0.2v0.15C24.35,12.867,24.317,12.9,24.25,12.9z M23.75,13.15v0.05h-0.1
		c-0.066,0-0.1-0.017-0.1-0.05h0.1V13.05L23.75,13.15z M21.15,14.5h0.1v-0.2c0-0.033,0.033-0.083,0.1-0.149h0.1
		c0.066,0,0.133,0,0.2,0v0.1c0.033,0,0.05,0.017,0.05,0.05c0.066,0,0.133,0,0.2,0c0,0.066,0,0.134,0,0.2v0.05h-0.1
		c0,0.066-0.033,0.101-0.1,0.101c-0.034,0.066-0.083,0.1-0.15,0.1h-0.1l-0.1,0.05c-0.067,0-0.133-0.017-0.2-0.05
		c0-0.066,0-0.134,0-0.2V14.5z M20,14.55V14.4c0.067,0,0.1,0.033,0.1,0.1v0.05H20z M20,14.15V14l0.1-0.1c0.066,0,0.1,0.033,0.1,0.1
		v0.15H20z M20.2,13.5v-0.05c0-0.066,0.033-0.101,0.1-0.101l0.1,0.101v0.05l-0.1,0.1C20.233,13.6,20.2,13.566,20.2,13.5z
		 M20.4,13.85c0.067-0.066,0.133-0.1,0.2-0.1c0.066,0,0.133,0.033,0.2,0.1c0.034,0.034,0.05,0.084,0.05,0.15s-0.017,0.116-0.05,0.15
		c-0.066,0.066-0.133,0.1-0.2,0.1c-0.067,0-0.133-0.033-0.2-0.1c-0.066-0.034-0.1-0.084-0.1-0.15S20.333,13.884,20.4,13.85z
		 M20,13.05c0,0.066,0,0.117,0,0.15c-0.067,0-0.117,0-0.15,0h-0.1c-0.067-0.033-0.1-0.084-0.1-0.15c0-0.033,0.033-0.05,0.1-0.05
		c0-0.067,0.033-0.1,0.1-0.1c0.033,0,0.083,0.033,0.15,0.1V13.05z M20.1,12.25c0.066,0.067,0.1,0.117,0.1,0.15
		c0,0.067-0.034,0.117-0.1,0.15h-0.25c-0.067-0.033-0.1-0.083-0.1-0.15h-0.1c-0.066,0-0.133,0-0.2,0c0-0.033,0-0.083,0-0.15v-0.1
		c0.066-0.033,0.133-0.05,0.2-0.05l0.2,0.15H20.1z M21.9,12.8v-0.05h0.15v0.05c0,0.065-0.033,0.098-0.1,0.1L21.9,12.8z M20.8,13
		v0.15h-0.2V13H20.8z M21.05,12.4h0.1v0.15h-0.1l-0.1-0.05C20.95,12.433,20.983,12.4,21.05,12.4z M21.35,12.4h0.2v0.15h0.15
		c0.066,0.067,0.1,0.133,0.1,0.2c0,0.033-0.033,0.083-0.1,0.15c0.066,0,0.133,0.033,0.2,0.1l0.05-0.1h0.2l0.1,0.1
		c-0.001,0.034-0.034,0.084-0.1,0.15h-0.2l0.1,0.05c0.067,0.066,0.1,0.116,0.1,0.149c0,0.067,0,0.117,0,0.15v0.1
		c0,0.101-0.033,0.184-0.1,0.25C21.983,13.884,21.9,13.9,21.8,13.9c-0.1,0-0.183-0.017-0.25-0.051c0-0.066,0-0.149,0-0.25v-0.1
		c-0.066,0-0.133,0-0.2,0h-0.1c-0.067-0.033-0.1-0.083-0.1-0.15l0.1-0.05v-0.1c0-0.101,0.033-0.167,0.1-0.2
		c0.129-0.064,0.229-0.098,0.3-0.1c-0.069,0-0.135,0-0.2,0c0-0.066,0-0.117,0-0.15v-0.1c-0.067,0-0.1-0.033-0.1-0.1V12.4z M20.7,9.7
		c0.033-0.067,0.083-0.117,0.15-0.15c-0.033,0-0.083,0-0.15,0C20.7,9.617,20.7,9.667,20.7,9.7z M23.55,9.05l0.1,0.05v0.2l-0.1,0.05
		c-0.033,0-0.05-0.017-0.05-0.05c-0.067,0-0.1-0.033-0.1-0.1c0-0.067,0.033-0.1,0.1-0.1C23.5,9.067,23.517,9.05,23.55,9.05z
		 M23.2,9.05c0.066,0.034,0.1,0.117,0.1,0.25c0,0.034-0.033,0.083-0.1,0.15c-0.067,0.066-0.133,0.1-0.2,0.1s-0.133-0.033-0.2-0.1
		c-0.066-0.067-0.1-0.117-0.1-0.15c0-0.133,0.033-0.216,0.1-0.25c-0.066-0.066-0.1-0.117-0.1-0.15c0-0.066,0.033-0.1,0.1-0.1
		l0.1-0.1c0.133,0,0.2,0.033,0.2,0.1c0.066,0,0.1,0.034,0.1,0.1c0,0.033-0.034,0.083-0.1,0.15H23.2z M17.15,14.5h-0.2v-0.2l0.1-0.05
		c0.067,0,0.1,0.017,0.1,0.05c0.033,0,0.05,0.033,0.05,0.101C17.2,14.467,17.183,14.5,17.15,14.5z M18,13.75h0.1
		c0.033,0,0.083,0.033,0.15,0.1h0.1c0.066,0.034,0.167,0.084,0.3,0.15l0.1,0.1c0.6,0.467,0.8,0.834,0.6,1.101h0.1v0.1
		c0,0.066,0,0.117,0,0.15c-0.067,0-0.133,0-0.2,0h-0.1l-0.1-0.05H19c0.033,0.033,0.05,0.083,0.05,0.149
		c0,0.101-0.017,0.184-0.05,0.25c-0.033,0.033-0.083,0.05-0.15,0.05c-0.067,0-0.133-0.017-0.2-0.05c-0.066-0.066-0.1-0.133-0.1-0.2
		c-0.066,0-0.133,0-0.2,0c-0.133,0-0.25-0.05-0.35-0.149h-0.1c-0.333,0-0.5-0.167-0.5-0.5c-0.066-0.434,0.033-0.717,0.3-0.851V14
		c0-0.066,0.033-0.15,0.1-0.25C17.867,13.75,17.933,13.75,18,13.75z M17.15,12.15l0.05,0.1v0.15l-0.05,0.1
		c-0.066,0-0.133-0.033-0.2-0.1v-0.15C17.017,12.183,17.083,12.15,17.15,12.15z M17.9,12.4H18l0.1,0.1c0,0.033,0,0.083,0,0.15v0.1
		c-0.067,0.033-0.133,0.05-0.2,0.05c-0.066,0-0.1-0.017-0.1-0.05c-0.066,0-0.1-0.033-0.1-0.1c0-0.066,0.033-0.117,0.1-0.15
		L17.9,12.4z M18.85,12.8c0-0.1,0.033-0.183,0.1-0.25c0.033-0.033,0.066-0.05,0.1-0.05c0.133,0,0.233,0.017,0.3,0.05
		c0.066,0.067,0.1,0.15,0.1,0.25c0,0.067,0,0.15,0,0.25c1,0.834,0.633,1.066-1.1,0.7c-0.233-0.066-0.3-0.217-0.2-0.45
		C18.283,13.033,18.517,12.867,18.85,12.8z M18.85,12.1h0.2c0.067,0.033,0.1,0.083,0.1,0.15s-0.033,0.117-0.1,0.15
		c0,0.067-0.017,0.1-0.05,0.1c-0.1,0-0.15-0.033-0.15-0.1c-0.067-0.033-0.1-0.083-0.1-0.15S18.783,12.133,18.85,12.1z M16.2,14.3
		c-0.067,0-0.1-0.017-0.1-0.05l0.1-0.1h0.1l0.05,0.1c0,0.033-0.017,0.05-0.05,0.05H16.2z M16.35,13.5l0.1,0.1v0.15l-0.1,0.1
		c-0.033,0-0.083-0.033-0.15-0.1V13.6C16.267,13.533,16.317,13.5,16.35,13.5z M16.75,13.65c-0.067-0.034-0.1-0.084-0.1-0.15
		c0-0.1,0.033-0.15,0.1-0.15c0.067-0.033,0.133-0.05,0.2-0.05c0.066,0,0.133,0.017,0.2,0.05c0.033,0,0.05,0.051,0.05,0.15
		c0,0.066-0.017,0.116-0.05,0.15c-0.066,0.066-0.133,0.1-0.2,0.1C16.883,13.75,16.817,13.717,16.75,13.65z M15,13.75
		c0.067,0.066,0.1,0.116,0.1,0.15c0,0.066-0.067,0.1-0.2,0.1c0,0.066-0.033,0.1-0.1,0.1c-0.133,0-0.233-0.033-0.3-0.1v-0.1
		c0-0.101,0-0.184,0-0.25c0.067,0,0.133,0,0.2,0c0.066-0.034,0.133-0.051,0.2-0.051v0.051C14.967,13.65,15,13.684,15,13.75z
		 M15.45,12.5h0.1c0.067,0,0.1,0.017,0.1,0.05l-0.1,0.1h-0.1l-0.05-0.1C15.4,12.517,15.417,12.5,15.45,12.5z M16.55,13.05
		c-0.066,0-0.1-0.017-0.1-0.05c-0.067,0-0.1-0.033-0.1-0.1c0-0.066,0.033-0.1,0.1-0.1c0-0.033,0.033-0.05,0.1-0.05
		c0.067,0,0.1,0.017,0.1,0.05c0.067,0,0.1,0.034,0.1,0.1c0,0.067-0.033,0.1-0.1,0.1C16.65,13.033,16.617,13.05,16.55,13.05z
		 M15.65,13.05v0.15c-0.066,0-0.1-0.017-0.1-0.05V13.05H15.65z M16.3,11.9c0.034,0,0.083,0.067,0.15,0.2
		c0.066,0.033,0.1,0.083,0.1,0.15s-0.033,0.117-0.1,0.15c-0.067,0.067-0.117,0.1-0.15,0.1h-0.1c-0.067,0.033-0.133,0.05-0.2,0.05
		c-0.1,0-0.183-0.017-0.25-0.05c0-0.067,0-0.117,0-0.15c0-0.067,0-0.133,0-0.2c0.067-0.033,0.15-0.05,0.25-0.05h0.1
		C16.167,11.967,16.233,11.9,16.3,11.9z M16.65,11.9h0.2V12c0,0.067,0,0.117,0,0.15h-0.2c0-0.033,0-0.083,0-0.15V11.9z M16.3,11.35
		h0.15v0.1c0,0.033-0.034,0.05-0.1,0.05l-0.05-0.05V11.35z M15.75,10.6c0-0.067,0.033-0.1,0.1-0.1c0-0.067,0.017-0.1,0.05-0.1
		l0.1,0.1v0.15h-0.15L15.75,10.6z M16.55,10.5v-0.1l0.1,0.1H16.55z M15.4,11.25h0.15c0.067,0.001,0.1,0.034,0.1,0.1
		c0,0.066-0.033,0.1-0.1,0.1H15.4V11.25z M15.4,11.05v-0.1c0.033-0.067,0.083-0.1,0.15-0.1c0.067,0,0.1,0.033,0.1,0.1l0.1,0.1
		c0,0.034-0.033,0.083-0.1,0.15c0,0.033-0.033,0.049-0.1,0.05c-0.068-0.001-0.118-0.018-0.15-0.05
		C15.4,11.133,15.4,11.083,15.4,11.05z M15,9.1h0.1c0.066,0,0.133,0,0.2,0c0,0.066,0,0.133,0,0.2c0,0.034,0,0.083,0,0.15
		c-0.066,0-0.133,0-0.2,0H15c-0.067-0.067-0.1-0.117-0.1-0.15C14.9,9.233,14.933,9.167,15,9.1z M15.75,9.75v0.2h-0.1
		c0,0.033,0,0.083,0,0.15l-0.1,0.1c0,0.133-0.05,0.267-0.15,0.4c-0.133,0.033-0.267,0.05-0.4,0.05c-0.2,0-0.367-0.017-0.5-0.05
		c-0.033-0.133-0.05-0.267-0.05-0.4s0.017-0.25,0.05-0.35c0.133-0.1,0.3-0.15,0.5-0.15c0.067,0,0.133,0.017,0.2,0.05V9.7
		c0.066-0.067,0.133-0.1,0.2-0.1c0.033,0,0.117,0.033,0.25,0.1v0.05H15.75z M16.1,9.55c0,0.034-0.033,0.083-0.1,0.15h-0.1
		c-0.033,0-0.083,0-0.15,0c0-0.067,0-0.117,0-0.15c0-0.066,0-0.133,0-0.2c0.067,0,0.117,0,0.15,0H16
		C16.067,9.417,16.1,9.483,16.1,9.55z M16.85,8.9h-0.1c0-0.066,0.033-0.1,0.1-0.1V8.9z M16.65,9.3h0.1v0.05h-0.1V9.3z M18.65,11.6
		v-0.1h0.1v0.2C18.683,11.7,18.65,11.667,18.65,11.6z M18,11.5c0-0.033,0.033-0.05,0.1-0.05c0.033,0,0.05,0.017,0.05,0.05
		c0.067,0,0.1,0.033,0.1,0.1v0.1c0.002-0.067,0.036-0.1,0.1-0.1c0.066,0,0.133,0.033,0.2,0.1c0,0.033,0,0.083,0,0.15v0.05h0.1v0.2
		l-0.1,0.05h-0.2c-0.067,0-0.133-0.017-0.2-0.05c-0.033-0.067-0.05-0.15-0.05-0.25v-0.1c-0.067,0-0.1-0.017-0.1-0.05l-0.1-0.1
		C17.9,11.533,17.933,11.5,18,11.5z M17.05,11.1h-0.1l-0.1-0.05c0-0.066,0.033-0.1,0.1-0.1v-0.1c0.066,0,0.1,0.033,0.1,0.1
		c0.067,0,0.1,0.033,0.1,0.1L17.05,11.1z M17.05,10.65c-0.066,0-0.1-0.05-0.1-0.15c0-0.067,0.033-0.117,0.1-0.15h0.15
		c0.066,0,0.133,0,0.2,0c0,0.033,0,0.083,0,0.15v0.15c-0.066,0.033-0.133,0.05-0.2,0.05C17.167,10.7,17.117,10.683,17.05,10.65z
		 M17.6,10.85c0-0.033,0-0.083,0-0.15c0-0.034,0-0.067,0-0.1c0.133-0.067,0.233-0.1,0.3-0.1c0.067,0,0.133,0.033,0.2,0.1l0.05-0.1
		c0.067-0.067,0.133-0.1,0.2-0.1c0.066,0,0.133,0.033,0.2,0.1v0.1c0.067,0,0.133,0,0.2,0c0,0.033,0,0.066,0,0.1v0.1h0.1v0.05
		c0,0.066,0,0.133,0,0.2c-0.067,0-0.133,0-0.2,0h-0.1c0-0.066,0-0.133,0-0.2h-0.3v0.1h-0.1V10.8l-0.05,0.05
		c-0.067,0.066-0.133,0.1-0.2,0.1C17.833,10.95,17.733,10.917,17.6,10.85z M17.2,8V7.95h0.2V8H17.2z M18.15,6.5
		c0.067,0,0.1,0.017,0.1,0.05h0.1l0.1,0.1c0.066,0.033,0.1,0.083,0.1,0.15c0,0.067-0.033,0.1-0.1,0.1
		c-0.067,0.033-0.133,0.05-0.2,0.05l-0.1-0.05c-0.033,0-0.083,0-0.15,0c-0.067-0.066-0.1-0.133-0.1-0.2c0-0.1,0.033-0.15,0.1-0.15
		C18.067,6.517,18.117,6.5,18.15,6.5z M16.2,8.55h0.1c0.1,0,0.15,0.034,0.15,0.1c0.066,0.033,0.1,0.117,0.1,0.25
		c0,0.1-0.033,0.15-0.1,0.15c0,0.034-0.05,0.05-0.15,0.05c-0.133,0-0.233-0.017-0.3-0.05V8.9c0-0.133,0-0.217,0-0.25
		C16.065,8.584,16.132,8.551,16.2,8.55z M16,8.15c0.067-0.033,0.133-0.05,0.2-0.05c0.066,0,0.117,0.017,0.15,0.05
		c0.066,0.067,0.1,0.117,0.1,0.15c0,0.067-0.034,0.117-0.1,0.15c-0.032,0.064-0.083,0.098-0.15,0.1
		c-0.068-0.001-0.135-0.034-0.2-0.1c-0.067-0.034-0.1-0.083-0.1-0.15C15.9,8.267,15.933,8.217,16,8.15z M15.3,8.45
		c0.067-0.034,0.117-0.05,0.15-0.05c0.066,0,0.133,0.017,0.2,0.05V8.7c-0.066,0.066-0.133,0.1-0.2,0.1
		c-0.034,0-0.083-0.033-0.15-0.1c-0.066,0-0.1-0.05-0.1-0.15C15.2,8.483,15.233,8.45,15.3,8.45z M15.3,8c0-0.1,0.034-0.15,0.1-0.15
		c0.033-0.033,0.083-0.05,0.15-0.05V7.7c0-0.1,0.067-0.184,0.2-0.25c0.067-0.067,0.117-0.1,0.15-0.1c0.133,0,0.233,0.033,0.3,0.1
		c0.066,0.066,0.1,0.15,0.1,0.25c0,0.066-0.033,0.117-0.1,0.15c0,0.066,0,0.117,0,0.15c-0.067,0-0.133,0-0.2,0h-0.1
		c-0.032,0-0.049-0.017-0.05-0.05V8c0,0.067-0.033,0.117-0.1,0.15c-0.067,0.067-0.133,0.1-0.2,0.1c-0.066,0-0.117-0.033-0.15-0.1
		C15.333,8.117,15.3,8.067,15.3,8z M15.3,5.75c-0.066,0-0.1-0.033-0.1-0.1h0.1V5.6c0.067,0,0.1,0.017,0.1,0.05h0.05
		c0,0.067-0.017,0.1-0.05,0.1c0,0.067-0.033,0.1-0.1,0.1V5.75z M15.75,5.9V6h0.1c0,0.033-0.033,0.05-0.1,0.05h-0.1V6
		C15.65,5.933,15.683,5.9,15.75,5.9z M14.6,5.45h0.1l0.1,0.05c0,0.067-0.033,0.1-0.1,0.1c0,0.033-0.034,0.05-0.1,0.05V5.6
		c-0.067,0-0.1-0.033-0.1-0.1L14.6,5.45z M14.9,4.5h-0.1V4.4h0.1V4.5z M16.95,3.1c0.066,0.066,0.1,0.15,0.1,0.25
		c0,0.066-0.033,0.117-0.1,0.15c-0.067,0.067-0.133,0.1-0.2,0.1c-0.133,0-0.233-0.033-0.3-0.1c0-0.033,0-0.083,0-0.15
		c0-0.1,0-0.184,0-0.25c0.066-0.067,0.167-0.1,0.3-0.1C16.817,3,16.883,3.033,16.95,3.1z M17.5,19.85
		c0.2-0.366,0.517-0.583,0.95-0.649c1.566,1.066,1.35,1.467-0.65,1.2C17.467,20.366,17.367,20.184,17.5,19.85z M15.55,21.35
		c1.434-0.199,2.833-0.3,4.2-0.3c1.433,0.7,1.3,1.316-0.4,1.851c-2.467,0.767-3.883,0.466-4.25-0.9
		C14.967,21.667,15.117,21.45,15.55,21.35z M21.95,21.25c0.433-0.4,0.966-0.684,1.6-0.85c2,0.8,1.75,1.416-0.75,1.85
		C21.467,22.45,21.183,22.116,21.95,21.25z M9.5,17.05l0.1-0.1c0.066,0,0.1,0.033,0.1,0.1l0.05,0.05c0,0.067-0.017,0.101-0.05,0.101
		c0,0.066-0.034,0.1-0.1,0.1l-0.1-0.1V17.05z M14.15,16.25c0-0.066,0.033-0.1,0.1-0.1s0.133,0.033,0.2,0.1H14.15z M10.05,18.2
		c0.034-0.5,0.333-0.783,0.9-0.851c1.566,0.967,1.417,1.417-0.45,1.351C10.133,18.7,9.983,18.533,10.05,18.2z M13.75,18.25
		c0.133-0.434,0.45-0.667,0.95-0.7c1.566,0.934,1.417,1.367-0.45,1.3C13.85,18.816,13.683,18.616,13.75,18.25z M8.45,15.15
		c-0.3,0.166-0.667,0.3-1.1,0.399c-0.5,0.101-0.717-0.066-0.65-0.5c0.167-1.033,0.816-1.783,1.95-2.25
		c1.1,0.867,1.133,1.617,0.1,2.25h-0.1C8.583,15.116,8.517,15.15,8.45,15.15z M8.25,15.45c1.367,1.233,0.867,2.3-1.5,3.2
		c-0.333,0.133-0.5,0.033-0.5-0.301C6.317,16.983,6.983,16.017,8.25,15.45z M12.6,21.35c1.4,1.067,1.117,1.551-0.85,1.45
		c-0.467,0-0.567-0.217-0.3-0.649C11.717,21.717,12.1,21.45,12.6,21.35z M43.2,15.4c0.066,0.033,0.1,0.1,0.1,0.199
		c0,0.134-0.033,0.217-0.1,0.25C43.134,15.95,43.033,16,42.9,16c-0.134,0-0.233-0.05-0.301-0.15
		c-0.133-0.033-0.199-0.116-0.199-0.25c0-0.1,0.066-0.166,0.199-0.199c0.067-0.134,0.167-0.2,0.301-0.2
		C43.033,15.2,43.134,15.267,43.2,15.4z M40.7,18.25c1.467,1.134,1.233,1.483-0.7,1.05c-0.267,0-0.333-0.166-0.2-0.5
		C40,18.5,40.3,18.316,40.7,18.25z M43.7,18.65c1.5,0.966,1.333,1.399-0.5,1.3c-0.4,0-0.533-0.2-0.4-0.601
		C42.934,18.917,43.233,18.684,43.7,18.65z M43.6,20.15c1.467,0.966,1.233,1.416-0.699,1.35c-0.4-0.033-0.534-0.233-0.4-0.6
		C42.7,20.467,43.066,20.217,43.6,20.15z M35.9,18.2H36l0.05,0.05L36,18.35h-0.1V18.2z M36.85,18.1c0-0.066,0.034-0.116,0.101-0.149
		c0-0.066,0.017-0.101,0.05-0.101c0.066,0,0.134,0.034,0.2,0.101c0.033,0.033,0.05,0.083,0.05,0.149c0,0.067-0.017,0.117-0.05,0.15
		c-0.066,0-0.134,0-0.2,0h-0.05C36.884,18.217,36.85,18.167,36.85,18.1z M39.15,16.9v-0.2c0-0.033,0.033-0.05,0.1-0.05
		s0.1,0.017,0.1,0.05c0.067,0,0.101,0.033,0.101,0.1L39.35,16.9H39.15z M38.3,17.7c-0.066,0.033-0.133,0.05-0.2,0.05
		c-0.133,0-0.216-0.017-0.25-0.05c-0.066-0.066-0.1-0.117-0.1-0.15c0-0.066,0.033-0.133,0.1-0.2c0.034-0.033,0.117-0.05,0.25-0.05
		c0.067,0,0.134,0.017,0.2,0.05c0.066,0.067,0.101,0.134,0.101,0.2C38.4,17.583,38.366,17.634,38.3,17.7z M35.5,18.4
		c2.066,1.033,2.1,1.566,0.1,1.6c-0.633,0.066-0.949-0.167-0.949-0.7C34.583,18.767,34.866,18.467,35.5,18.4z M35.5,22.3
		c-0.233-0.033-0.267-0.217-0.1-0.55c0.133-0.333,0.416-0.517,0.85-0.55C37.684,22.333,37.434,22.7,35.5,22.3z M26.45,18.6
		c0-0.066,0.033-0.133,0.1-0.199c0-0.034,0.067-0.051,0.2-0.051s0.233,0.017,0.3,0.051c0,0.066,0,0.133,0,0.199H26.45z M25.25,16.25
		h0.05l0.1,0.05L25.3,16.4h-0.05l-0.1-0.101L25.25,16.25z M32.15,18.2c-0.067,0-0.101-0.033-0.101-0.101c-0.066,0-0.1-0.033-0.1-0.1
		c0-0.033,0.033-0.05,0.1-0.05c-0.066-0.4,0.25-0.733,0.95-1c2.366,0.967,2.583,1.684,0.65,2.149c-0.301,0.067-0.617-0.033-0.95-0.3
		C32.4,18.6,32.217,18.4,32.15,18.2z M31.2,17.3c0.066,0,0.133,0.017,0.2,0.05c0.066,0.067,0.1,0.134,0.1,0.2
		c0,0.033-0.033,0.084-0.1,0.15c-0.067,0.033-0.134,0.05-0.2,0.05s-0.117-0.017-0.15-0.05c-0.066-0.066-0.1-0.117-0.1-0.15
		c0-0.066,0.033-0.133,0.1-0.2C31.083,17.316,31.134,17.3,31.2,17.3z M29.9,17.7c0.133-0.066,0.267-0.101,0.399-0.101
		c0.134,0,0.233,0.034,0.3,0.101c0.101,0.033,0.15,0.116,0.15,0.25c0,0.1-0.05,0.2-0.15,0.3c-0.066,0.066-0.166,0.1-0.3,0.1
		c-0.133,0-0.267-0.033-0.399-0.1c-0.067-0.1-0.101-0.2-0.101-0.3C29.8,17.816,29.833,17.733,29.9,17.7z M28.2,21.35
		c0.2-0.3,0.517-0.483,0.95-0.55c1.433,1.167,1.183,1.533-0.75,1.101C28.167,21.866,28.1,21.684,28.2,21.35z M1.55,8.55
		c0-0.066,0.034-0.1,0.1-0.1l0.1-0.05c0.067,0,0.1,0.017,0.1,0.05c0.066,0,0.1,0.033,0.1,0.1l-0.1,0.1c0,0.033-0.033,0.05-0.1,0.05
		L1.55,8.55z M1,8.4c-0.133,0-0.2-0.033-0.2-0.1c-0.066,0-0.1-0.017-0.1-0.05c0-0.067,0.033-0.117,0.1-0.15C0.8,8.033,0.867,8,1,8
		l0.05,0.1c0.067,0.033,0.1,0.083,0.1,0.15c0,0.033-0.033,0.05-0.1,0.05L1,8.4z M2.2,12.25c0-0.667,0.35-1.05,1.05-1.15
		c1.6,0.867,1.45,1.417-0.45,1.65C2.4,12.783,2.2,12.617,2.2,12.25z"/>
</g>
</svg>
