<?xml version="1.0" encoding="utf-8"?>
<!-- Generator: Adobe Illustrator 16.0.3, SVG Export Plug-In . SVG Version: 6.00 Build 0)  -->
<!DOCTYPE svg PUBLIC "-//W3C//DTD SVG 1.1//EN" "http://www.w3.org/Graphics/SVG/1.1/DTD/svg11.dtd">
<svg version="1.1" id="Layer_1" xmlns="http://www.w3.org/2000/svg" xmlns:xlink="http://www.w3.org/1999/xlink" x="0px" y="0px"
	 width="112.393px" height="441.503px" viewBox="0 0 112.393 441.503" enable-background="new 0 0 112.393 441.503"
	 xml:space="preserve">
<g>
	<linearGradient id="SVGID_1_" gradientUnits="userSpaceOnUse" x1="56.1968" y1="37.0039" x2="56.1968" y2="419.8095">
		<stop  offset="0" style="stop-color:#B2C0CF"/>
		<stop  offset="1" style="stop-color:#B5ABAA"/>
	</linearGradient>
	<rect fill="url(#SVGID_1_)" width="112.393" height="441.503"/>
	
		<line fill="#FFFFFF" stroke="#000000" stroke-width="0.25" stroke-miterlimit="10" x1="98.762" y1="419.773" x2="112.379" y2="419.773"/>
	
		<line fill="#FFFFFF" stroke="#000000" stroke-width="0.25" stroke-miterlimit="10" x1="102.331" y1="411.944" x2="112.379" y2="411.944"/>
	
		<line fill="#FFFFFF" stroke="#000000" stroke-width="0.25" stroke-miterlimit="10" x1="102.331" y1="404.118" x2="112.379" y2="404.118"/>
	
		<line fill="#FFFFFF" stroke="#000000" stroke-width="0.25" stroke-miterlimit="10" x1="102.331" y1="396.29" x2="112.379" y2="396.29"/>
	
		<line fill="#FFFFFF" stroke="#000000" stroke-width="0.25" stroke-miterlimit="10" x1="102.331" y1="388.463" x2="112.379" y2="388.463"/>
	
		<line fill="#FFFFFF" stroke="#000000" stroke-width="0.25" stroke-miterlimit="10" x1="98.762" y1="380.634" x2="112.379" y2="380.634"/>
	
		<line fill="#FFFFFF" stroke="#000000" stroke-width="0.25" stroke-miterlimit="10" x1="102.331" y1="372.809" x2="112.379" y2="372.809"/>
	
		<line fill="#FFFFFF" stroke="#000000" stroke-width="0.25" stroke-miterlimit="10" x1="102.331" y1="364.98" x2="112.379" y2="364.98"/>
	
		<line fill="#FFFFFF" stroke="#000000" stroke-width="0.25" stroke-miterlimit="10" x1="102.331" y1="357.152" x2="112.379" y2="357.152"/>
	
		<line fill="#FFFFFF" stroke="#000000" stroke-width="0.25" stroke-miterlimit="10" x1="102.331" y1="349.324" x2="112.379" y2="349.324"/>
	
		<line fill="#FFFFFF" stroke="#000000" stroke-width="0.25" stroke-miterlimit="10" x1="98.762" y1="341.497" x2="112.379" y2="341.497"/>
	
		<line fill="#FFFFFF" stroke="#000000" stroke-width="0.25" stroke-miterlimit="10" x1="102.331" y1="333.669" x2="112.379" y2="333.669"/>
	
		<line fill="#FFFFFF" stroke="#000000" stroke-width="0.25" stroke-miterlimit="10" x1="102.331" y1="325.842" x2="112.379" y2="325.842"/>
	
		<line fill="#FFFFFF" stroke="#000000" stroke-width="0.25" stroke-miterlimit="10" x1="102.331" y1="318.015" x2="112.379" y2="318.015"/>
	
		<line fill="#FFFFFF" stroke="#000000" stroke-width="0.25" stroke-miterlimit="10" x1="102.331" y1="310.189" x2="112.379" y2="310.189"/>
	
		<line fill="#FFFFFF" stroke="#000000" stroke-width="0.25" stroke-miterlimit="10" x1="98.762" y1="302.358" x2="112.379" y2="302.358"/>
	
		<line fill="#FFFFFF" stroke="#000000" stroke-width="0.25" stroke-miterlimit="10" x1="102.331" y1="294.531" x2="112.379" y2="294.531"/>
	
		<line fill="#FFFFFF" stroke="#000000" stroke-width="0.25" stroke-miterlimit="10" x1="102.331" y1="286.703" x2="112.379" y2="286.703"/>
	
		<line fill="#FFFFFF" stroke="#000000" stroke-width="0.25" stroke-miterlimit="10" x1="102.331" y1="278.876" x2="112.379" y2="278.876"/>
	
		<line fill="#FFFFFF" stroke="#000000" stroke-width="0.25" stroke-miterlimit="10" x1="102.331" y1="271.048" x2="112.379" y2="271.048"/>
	
		<line fill="#FFFFFF" stroke="#000000" stroke-width="0.25" stroke-miterlimit="10" x1="98.762" y1="263.224" x2="112.379" y2="263.224"/>
	
		<line fill="#FFFFFF" stroke="#000000" stroke-width="0.25" stroke-miterlimit="10" x1="102.331" y1="255.394" x2="112.379" y2="255.394"/>
	
		<line fill="#FFFFFF" stroke="#000000" stroke-width="0.25" stroke-miterlimit="10" x1="102.331" y1="247.566" x2="112.379" y2="247.566"/>
	
		<line fill="#FFFFFF" stroke="#000000" stroke-width="0.25" stroke-miterlimit="10" x1="102.331" y1="239.74" x2="112.379" y2="239.74"/>
	
		<line fill="#FFFFFF" stroke="#000000" stroke-width="0.25" stroke-miterlimit="10" x1="102.331" y1="231.912" x2="112.379" y2="231.912"/>
	
		<line fill="#FFFFFF" stroke="#000000" stroke-width="0.25" stroke-miterlimit="10" x1="98.762" y1="224.084" x2="112.379" y2="224.084"/>
	
		<line fill="#FFFFFF" stroke="#000000" stroke-width="0.25" stroke-miterlimit="10" x1="102.331" y1="216.256" x2="112.379" y2="216.256"/>
	
		<line fill="#FFFFFF" stroke="#000000" stroke-width="0.25" stroke-miterlimit="10" x1="102.331" y1="208.429" x2="112.379" y2="208.429"/>
	
		<line fill="#FFFFFF" stroke="#000000" stroke-width="0.25" stroke-miterlimit="10" x1="102.331" y1="200.602" x2="112.379" y2="200.602"/>
	
		<line fill="#FFFFFF" stroke="#000000" stroke-width="0.25" stroke-miterlimit="10" x1="102.331" y1="192.772" x2="112.379" y2="192.772"/>
	
		<line fill="#FFFFFF" stroke="#000000" stroke-width="0.25" stroke-miterlimit="10" x1="98.762" y1="184.945" x2="112.379" y2="184.945"/>
	
		<line fill="#FFFFFF" stroke="#000000" stroke-width="0.25" stroke-miterlimit="10" x1="102.331" y1="177.119" x2="112.379" y2="177.119"/>
	
		<line fill="#FFFFFF" stroke="#000000" stroke-width="0.25" stroke-miterlimit="10" x1="102.331" y1="169.29" x2="112.379" y2="169.29"/>
	
		<line fill="#FFFFFF" stroke="#000000" stroke-width="0.25" stroke-miterlimit="10" x1="102.331" y1="161.464" x2="112.379" y2="161.464"/>
	
		<line fill="#FFFFFF" stroke="#000000" stroke-width="0.25" stroke-miterlimit="10" x1="102.331" y1="153.636" x2="112.379" y2="153.636"/>
	
		<line fill="#FFFFFF" stroke="#000000" stroke-width="0.25" stroke-miterlimit="10" x1="98.762" y1="145.809" x2="112.379" y2="145.809"/>
	
		<line fill="#FFFFFF" stroke="#000000" stroke-width="0.25" stroke-miterlimit="10" x1="102.331" y1="137.98" x2="112.379" y2="137.98"/>
	
		<line fill="#FFFFFF" stroke="#000000" stroke-width="0.25" stroke-miterlimit="10" x1="102.331" y1="130.153" x2="112.379" y2="130.153"/>
	
		<line fill="#FFFFFF" stroke="#000000" stroke-width="0.25" stroke-miterlimit="10" x1="102.331" y1="122.325" x2="112.379" y2="122.325"/>
	
		<line fill="#FFFFFF" stroke="#000000" stroke-width="0.25" stroke-miterlimit="10" x1="102.331" y1="114.497" x2="112.379" y2="114.497"/>
	
		<line fill="#FFFFFF" stroke="#000000" stroke-width="0.25" stroke-miterlimit="10" x1="98.762" y1="106.67" x2="112.379" y2="106.67"/>
	
		<line fill="#FFFFFF" stroke="#000000" stroke-width="0.25" stroke-miterlimit="10" x1="102.331" y1="98.843" x2="112.379" y2="98.843"/>
	
		<line fill="#FFFFFF" stroke="#000000" stroke-width="0.25" stroke-miterlimit="10" x1="102.331" y1="91.015" x2="112.379" y2="91.015"/>
	
		<line fill="#FFFFFF" stroke="#000000" stroke-width="0.25" stroke-miterlimit="10" x1="102.331" y1="83.188" x2="112.379" y2="83.188"/>
	
		<line fill="#FFFFFF" stroke="#000000" stroke-width="0.25" stroke-miterlimit="10" x1="102.331" y1="75.359" x2="112.379" y2="75.359"/>
	
		<line fill="#FFFFFF" stroke="#000000" stroke-width="0.25" stroke-miterlimit="10" x1="98.762" y1="67.531" x2="112.379" y2="67.531"/>
	
		<line fill="#FFFFFF" stroke="#000000" stroke-width="0.25" stroke-miterlimit="10" x1="102.331" y1="59.703" x2="112.379" y2="59.703"/>
	
		<line fill="#FFFFFF" stroke="#000000" stroke-width="0.25" stroke-miterlimit="10" x1="102.331" y1="51.876" x2="112.379" y2="51.876"/>
	
		<line fill="#FFFFFF" stroke="#000000" stroke-width="0.25" stroke-miterlimit="10" x1="102.331" y1="44.049" x2="112.379" y2="44.049"/>
	
		<line fill="#FFFFFF" stroke="#000000" stroke-width="0.25" stroke-miterlimit="10" x1="102.331" y1="36.223" x2="112.379" y2="36.223"/>
	
		<line fill="#FFFFFF" stroke="#000000" stroke-width="0.25" stroke-miterlimit="10" x1="98.762" y1="28.394" x2="112.379" y2="28.394"/>
	<g>
		<path d="M96.757,418.193c0,4.368-1.621,6.776-4.464,6.776c-2.512,0-4.211-2.351-4.248-6.598c0-4.307,1.856-6.68,4.463-6.68
			C95.217,411.692,96.757,414.104,96.757,418.193z M89.782,418.391c0,3.34,1.025,5.236,2.609,5.236c1.778,0,2.625-2.075,2.625-5.353
			c0-3.163-0.807-5.238-2.604-5.238C90.889,413.036,89.782,414.894,89.782,418.391z"/>
	</g>
	<g>
		<path d="M95.889,374.396h-4.9l-0.495,3.301c0.297-0.042,0.571-0.08,1.05-0.08c0.988,0,1.975,0.219,2.762,0.692
			c1.009,0.572,1.837,1.679,1.837,3.301c0,2.505-1.993,4.386-4.779,4.386c-1.403,0-2.588-0.395-3.198-0.791l0.433-1.321
			c0.531,0.312,1.579,0.709,2.745,0.709c1.642,0,3.044-1.066,3.044-2.787c-0.021-1.659-1.127-2.844-3.694-2.844
			c-0.732,0-1.305,0.078-1.778,0.138l0.829-6.163h6.146V374.396z"/>
	</g>
	<g>
		<path d="M81.854,299.334h-0.039l-2.233,1.205l-0.337-1.322l2.808-1.503h1.48v12.844h-1.679V299.334z"/>
		<path d="M95.889,299.178h-4.9l-0.495,3.298c0.297-0.04,0.571-0.078,1.05-0.078c0.988,0,1.975,0.218,2.762,0.69
			c1.009,0.575,1.837,1.681,1.837,3.302c0,2.506-1.993,4.386-4.779,4.386c-1.403,0-2.588-0.396-3.198-0.792l0.433-1.325
			c0.531,0.32,1.579,0.714,2.745,0.714c1.642,0,3.044-1.066,3.044-2.786c-0.021-1.659-1.127-2.845-3.694-2.845
			c-0.732,0-1.305,0.078-1.778,0.137l0.829-6.164h6.146V299.178z"/>
	</g>
	<g>
		<path d="M78.081,269.935v-1.068l1.363-1.322c3.278-3.122,4.764-4.783,4.782-6.718c0-1.304-0.636-2.511-2.549-2.511
			c-1.169,0-2.133,0.592-2.729,1.086l-0.551-1.223c0.891-0.75,2.156-1.305,3.635-1.305c2.766,0,3.933,1.896,3.933,3.731
			c0,2.373-1.719,4.29-4.426,6.895l-1.03,0.951v0.037h5.772v1.446H78.081z"/>
		<path d="M96.757,263.372c0,4.367-1.621,6.776-4.464,6.776c-2.512,0-4.211-2.349-4.248-6.598c0-4.305,1.856-6.677,4.463-6.677
			C95.217,256.874,96.757,259.284,96.757,263.372z M89.782,263.569c0,3.339,1.025,5.238,2.609,5.238
			c1.778,0,2.625-2.075,2.625-5.354c0-3.162-0.807-5.236-2.604-5.236C90.889,258.217,89.782,260.076,89.782,263.569z"/>
	</g>
	<g>
		<path d="M78.081,230.955v-1.065l1.363-1.324c3.278-3.121,4.764-4.78,4.782-6.719c0-1.301-0.636-2.508-2.549-2.508
			c-1.169,0-2.133,0.593-2.729,1.086l-0.551-1.224c0.891-0.75,2.156-1.305,3.635-1.305c2.766,0,3.933,1.896,3.933,3.733
			c0,2.373-1.719,4.288-4.426,6.896l-1.03,0.947v0.038h5.772v1.443H78.081z"/>
		<path d="M95.889,219.577h-4.9l-0.495,3.298c0.297-0.04,0.571-0.078,1.05-0.078c0.988,0,1.975,0.218,2.762,0.69
			c1.009,0.574,1.837,1.68,1.837,3.301c0,2.508-1.993,4.386-4.779,4.386c-1.403,0-2.588-0.396-3.198-0.79l0.433-1.322
			c0.531,0.316,1.579,0.71,2.745,0.71c1.642,0,3.044-1.066,3.044-2.786c-0.021-1.658-1.127-2.846-3.694-2.846
			c-0.732,0-1.305,0.08-1.778,0.138l0.829-6.163h6.146V219.577z"/>
	</g>
	<g>
		<path d="M78.496,189.985c0.495,0.314,1.64,0.807,2.844,0.807c2.235,0,2.926-1.42,2.906-2.487c-0.02-1.799-1.641-2.569-3.32-2.569
			H79.96v-1.302h0.965c1.261,0,2.866-0.654,2.866-2.175c0-1.027-0.654-1.937-2.253-1.937c-1.03,0-2.017,0.455-2.566,0.849
			l-0.457-1.264c0.672-0.492,1.975-0.988,3.359-0.988c2.526,0,3.673,1.501,3.673,3.063c0,1.324-0.789,2.452-2.371,3.023v0.038
			c1.582,0.317,2.868,1.503,2.868,3.3c0,2.056-1.604,3.854-4.681,3.854c-1.447,0-2.713-0.455-3.343-0.869L78.496,189.985z"/>
		<path d="M96.757,185.42c0,4.367-1.621,6.777-4.464,6.777c-2.512,0-4.211-2.352-4.248-6.6c0-4.307,1.856-6.679,4.463-6.679
			C95.217,178.919,96.757,181.329,96.757,185.42z M89.782,185.617c0,3.34,1.025,5.236,2.609,5.236c1.778,0,2.625-2.075,2.625-5.354
			c0-3.163-0.807-5.237-2.604-5.237C90.889,180.263,89.782,182.121,89.782,185.617z"/>
	</g>
	<g>
		<path d="M78.496,151.008c0.495,0.316,1.64,0.81,2.844,0.81c2.235,0,2.926-1.424,2.906-2.488c-0.02-1.801-1.641-2.571-3.32-2.571
			H79.96v-1.302h0.965c1.261,0,2.866-0.652,2.866-2.173c0-1.028-0.654-1.938-2.253-1.938c-1.03,0-2.017,0.457-2.566,0.85
			l-0.457-1.264c0.672-0.495,1.975-0.988,3.359-0.988c2.526,0,3.673,1.501,3.673,3.064c0,1.323-0.789,2.449-2.371,3.021v0.039
			c1.582,0.316,2.868,1.502,2.868,3.3c0,2.056-1.604,3.853-4.681,3.853c-1.447,0-2.713-0.453-3.343-0.869L78.496,151.008z"/>
		<path d="M95.889,141.622h-4.9l-0.495,3.301c0.297-0.041,0.571-0.081,1.05-0.081c0.988,0,1.975,0.218,2.762,0.694
			c1.009,0.57,1.837,1.679,1.837,3.298c0,2.508-1.993,4.386-4.779,4.386c-1.403,0-2.588-0.396-3.198-0.789l0.433-1.324
			c0.531,0.316,1.579,0.711,2.745,0.711c1.642,0,3.044-1.066,3.044-2.786c-0.021-1.66-1.127-2.845-3.694-2.845
			c-0.732,0-1.305,0.078-1.778,0.138l0.829-6.163h6.146V141.622z"/>
	</g>
	<g>
		<path d="M83.453,112.379v-3.499h-5.966v-1.145l5.732-8.199h1.874v7.981h1.802v1.362h-1.802v3.499H83.453z M83.453,107.518v-4.285
			c0-0.674,0.022-1.345,0.063-2.017h-0.063c-0.392,0.75-0.71,1.304-1.065,1.896l-3.143,4.365v0.041H83.453z"/>
		<path d="M96.757,105.819c0,4.366-1.621,6.776-4.464,6.776c-2.512,0-4.211-2.35-4.248-6.599c0-4.309,1.856-6.679,4.463-6.679
			C95.217,99.318,96.757,101.728,96.757,105.819z M89.782,106.015c0,3.342,1.025,5.237,2.609,5.237c1.778,0,2.625-2.074,2.625-5.354
			c0-3.161-0.807-5.236-2.604-5.236C90.889,100.661,89.782,102.52,89.782,106.015z"/>
	</g>
	<g>
		<path d="M83.453,75.05v-3.498h-5.966v-1.146l5.732-8.198h1.874v7.982h1.802v1.362h-1.802v3.498H83.453z M83.453,70.189v-4.288
			c0-0.672,0.022-1.342,0.063-2.017h-0.063c-0.392,0.753-0.71,1.305-1.065,1.898l-3.143,4.366v0.04H83.453z"/>
		<path d="M95.889,63.668h-4.9l-0.495,3.3c0.297-0.04,0.571-0.076,1.05-0.076c0.988,0,1.975,0.216,2.762,0.689
			c1.009,0.572,1.837,1.679,1.837,3.3c0,2.508-1.993,4.386-4.779,4.386c-1.403,0-2.588-0.396-3.198-0.791l0.433-1.323
			c0.531,0.316,1.579,0.712,2.745,0.712c1.642,0,3.044-1.067,3.044-2.787c-0.021-1.658-1.127-2.844-3.694-2.844
			c-0.732,0-1.305,0.076-1.778,0.139l0.829-6.165h6.146V63.668z"/>
	</g>
	<g>
		<path d="M85.749,23.042h-4.902l-0.495,3.301c0.297-0.039,0.574-0.077,1.048-0.077c0.988,0,1.977,0.214,2.77,0.69
			c1.008,0.573,1.836,1.68,1.836,3.301c0,2.508-1.998,4.384-4.781,4.384c-1.403,0-2.59-0.396-3.202-0.789l0.437-1.324
			c0.533,0.316,1.577,0.71,2.744,0.71c1.641,0,3.044-1.064,3.044-2.785c-0.02-1.658-1.127-2.845-3.692-2.845
			c-0.733,0-1.309,0.079-1.782,0.139l0.831-6.165h6.146V23.042z"/>
		<path d="M96.757,27.864c0,4.367-1.621,6.776-4.464,6.776c-2.512,0-4.211-2.35-4.248-6.599c0-4.306,1.856-6.679,4.463-6.679
			C95.217,21.363,96.757,23.775,96.757,27.864z M89.782,28.062c0,3.34,1.025,5.236,2.609,5.236c1.778,0,2.625-2.075,2.625-5.354
			c0-3.163-0.807-5.237-2.604-5.237C90.889,22.707,89.782,24.565,89.782,28.062z"/>
	</g>
	<path d="M79.696,340.86h-0.04l-2.232,1.206l-0.337-1.322l2.805-1.502h1.483v12.843h-1.679V340.86z"/>
	<path d="M94.599,345.285c0,4.367-1.621,6.777-4.464,6.777c-2.512,0-4.211-2.349-4.248-6.6c0-4.306,1.854-6.678,4.461-6.678
		C93.058,338.785,94.599,341.194,94.599,345.285z M87.624,345.482c0,3.338,1.025,5.237,2.609,5.237c1.776,0,2.625-2.075,2.625-5.353
		c0-3.164-0.809-5.238-2.604-5.238C88.731,340.129,87.624,341.986,87.624,345.482z"/>
</g>
</svg>
