<?xml version="1.0" encoding="utf-8"?>
<!-- Generator: Adobe Illustrator 16.0.3, SVG Export Plug-In . SVG Version: 6.00 Build 0)  -->
<!DOCTYPE svg PUBLIC "-//W3C//DTD SVG 1.1//EN" "http://www.w3.org/Graphics/SVG/1.1/DTD/svg11.dtd">
<svg version="1.1" id="Layer_1" xmlns="http://www.w3.org/2000/svg" xmlns:xlink="http://www.w3.org/1999/xlink" x="0px" y="0px"
	 width="114.377px" height="2561.72px" viewBox="0 0 114.377 2561.72" enable-background="new 0 0 114.377 2561.72"
	 xml:space="preserve">
<g>
	<linearGradient id="SVGID_1_" gradientUnits="userSpaceOnUse" x1="57.189" y1="214.708" x2="57.1889" y2="2435.8501">
		<stop  offset="0" style="stop-color:#B2C0CF"/>
		<stop  offset="1" style="stop-color:#B5ABAA"/>
	</linearGradient>
	<rect fill="url(#SVGID_1_)" width="114.377" height="2561.72"/>
	<g>
		<line fill="none" stroke="#1D1B1C" stroke-width="0.25" stroke-miterlimit="10" x1="0" y1="2539.99" x2="20.255" y2="2539.99"/>
		<line fill="none" stroke="#1D1B1C" stroke-width="0.25" stroke-miterlimit="10" x1="0" y1="2532.002" x2="12.982" y2="2532.002"/>
		<line fill="none" stroke="#1D1B1C" stroke-width="0.25" stroke-miterlimit="10" x1="0" y1="2524.015" x2="12.982" y2="2524.015"/>
		<line fill="none" stroke="#1D1B1C" stroke-width="0.25" stroke-miterlimit="10" x1="0" y1="2516.028" x2="12.982" y2="2516.028"/>
		<line fill="none" stroke="#1D1B1C" stroke-width="0.25" stroke-miterlimit="10" x1="0" y1="2508.042" x2="12.982" y2="2508.042"/>
		<line fill="none" stroke="#1D1B1C" stroke-width="0.25" stroke-miterlimit="10" x1="0" y1="2500.053" x2="16.819" y2="2500.053"/>
		<line fill="none" stroke="#1D1B1C" stroke-width="0.25" stroke-miterlimit="10" x1="0" y1="2492.065" x2="12.982" y2="2492.065"/>
		<line fill="none" stroke="#1D1B1C" stroke-width="0.25" stroke-miterlimit="10" x1="0" y1="2484.076" x2="12.982" y2="2484.076"/>
		<line fill="none" stroke="#1D1B1C" stroke-width="0.25" stroke-miterlimit="10" x1="0" y1="2476.089" x2="12.982" y2="2476.089"/>
		<line fill="none" stroke="#1D1B1C" stroke-width="0.25" stroke-miterlimit="10" x1="0" y1="2468.104" x2="12.982" y2="2468.104"/>
		<line fill="none" stroke="#1D1B1C" stroke-width="0.25" stroke-miterlimit="10" x1="0" y1="2460.118" x2="20.275" y2="2460.118"/>
		<line fill="none" stroke="#1D1B1C" stroke-width="0.25" stroke-miterlimit="10" x1="0" y1="2452.127" x2="12.982" y2="2452.127"/>
		<line fill="none" stroke="#1D1B1C" stroke-width="0.25" stroke-miterlimit="10" x1="0" y1="2444.142" x2="12.982" y2="2444.142"/>
		<line fill="none" stroke="#1D1B1C" stroke-width="0.25" stroke-miterlimit="10" x1="0" y1="2436.154" x2="12.982" y2="2436.154"/>
		<line fill="none" stroke="#1D1B1C" stroke-width="0.25" stroke-miterlimit="10" x1="0" y1="2428.169" x2="12.982" y2="2428.169"/>
		<line fill="none" stroke="#1D1B1C" stroke-width="0.25" stroke-miterlimit="10" x1="0" y1="2420.178" x2="16.819" y2="2420.178"/>
		<line fill="none" stroke="#1D1B1C" stroke-width="0.25" stroke-miterlimit="10" x1="0" y1="2412.192" x2="12.982" y2="2412.192"/>
		<line fill="none" stroke="#1D1B1C" stroke-width="0.25" stroke-miterlimit="10" x1="0" y1="2404.207" x2="12.982" y2="2404.207"/>
		<line fill="none" stroke="#1D1B1C" stroke-width="0.25" stroke-miterlimit="10" x1="0" y1="2396.216" x2="12.982" y2="2396.216"/>
		<line fill="none" stroke="#1D1B1C" stroke-width="0.25" stroke-miterlimit="10" x1="0" y1="2388.229" x2="12.982" y2="2388.229"/>
		<line fill="none" stroke="#1D1B1C" stroke-width="0.25" stroke-miterlimit="10" x1="0" y1="2380.243" x2="20.275" y2="2380.243"/>
		<line fill="none" stroke="#1D1B1C" stroke-width="0.25" stroke-miterlimit="10" x1="0" y1="2372.258" x2="12.982" y2="2372.258"/>
		<line fill="none" stroke="#1D1B1C" stroke-width="0.25" stroke-miterlimit="10" x1="0" y1="2364.267" x2="12.982" y2="2364.267"/>
		<line fill="none" stroke="#1D1B1C" stroke-width="0.25" stroke-miterlimit="10" x1="0" y1="2356.282" x2="12.982" y2="2356.282"/>
		<line fill="none" stroke="#1D1B1C" stroke-width="0.25" stroke-miterlimit="10" x1="0" y1="2348.294" x2="12.982" y2="2348.294"/>
		<line fill="none" stroke="#1D1B1C" stroke-width="0.25" stroke-miterlimit="10" x1="0" y1="2340.307" x2="16.819" y2="2340.307"/>
		<line fill="none" stroke="#1D1B1C" stroke-width="0.25" stroke-miterlimit="10" x1="0" y1="2332.319" x2="12.982" y2="2332.319"/>
		<line fill="none" stroke="#1D1B1C" stroke-width="0.25" stroke-miterlimit="10" x1="0" y1="2324.333" x2="12.982" y2="2324.333"/>
		<line fill="none" stroke="#1D1B1C" stroke-width="0.25" stroke-miterlimit="10" x1="0" y1="2316.345" x2="12.982" y2="2316.345"/>
		<line fill="none" stroke="#1D1B1C" stroke-width="0.25" stroke-miterlimit="10" x1="0" y1="2308.357" x2="12.982" y2="2308.357"/>
		<line fill="none" stroke="#1D1B1C" stroke-width="0.25" stroke-miterlimit="10" x1="0" y1="2300.37" x2="20.275" y2="2300.37"/>
		<line fill="none" stroke="#1D1B1C" stroke-width="0.25" stroke-miterlimit="10" x1="0" y1="2292.383" x2="12.982" y2="2292.383"/>
		<line fill="none" stroke="#1D1B1C" stroke-width="0.25" stroke-miterlimit="10" x1="0" y1="2284.396" x2="12.982" y2="2284.396"/>
		<line fill="none" stroke="#1D1B1C" stroke-width="0.25" stroke-miterlimit="10" x1="0" y1="2276.408" x2="12.982" y2="2276.408"/>
		<line fill="none" stroke="#1D1B1C" stroke-width="0.25" stroke-miterlimit="10" x1="0" y1="2268.42" x2="12.982" y2="2268.42"/>
		<line fill="none" stroke="#1D1B1C" stroke-width="0.25" stroke-miterlimit="10" x1="0" y1="2260.432" x2="16.819" y2="2260.432"/>
		<line fill="none" stroke="#1D1B1C" stroke-width="0.25" stroke-miterlimit="10" x1="0" y1="2252.444" x2="12.982" y2="2252.444"/>
		<line fill="none" stroke="#1D1B1C" stroke-width="0.25" stroke-miterlimit="10" x1="0" y1="2244.457" x2="12.982" y2="2244.457"/>
		<line fill="none" stroke="#1D1B1C" stroke-width="0.25" stroke-miterlimit="10" x1="0" y1="2236.472" x2="12.982" y2="2236.472"/>
		<line fill="none" stroke="#1D1B1C" stroke-width="0.25" stroke-miterlimit="10" x1="0" y1="2228.483" x2="12.982" y2="2228.483"/>
		<line fill="none" stroke="#1D1B1C" stroke-width="0.25" stroke-miterlimit="10" x1="0" y1="2220.499" x2="20.275" y2="2220.499"/>
		<line fill="none" stroke="#1D1B1C" stroke-width="0.25" stroke-miterlimit="10" x1="0" y1="2212.509" x2="12.982" y2="2212.509"/>
		<line fill="none" stroke="#1D1B1C" stroke-width="0.25" stroke-miterlimit="10" x1="0" y1="2204.521" x2="12.982" y2="2204.521"/>
		<line fill="none" stroke="#1D1B1C" stroke-width="0.25" stroke-miterlimit="10" x1="0" y1="2196.534" x2="12.982" y2="2196.534"/>
		<line fill="none" stroke="#1D1B1C" stroke-width="0.25" stroke-miterlimit="10" x1="0" y1="2188.548" x2="12.982" y2="2188.548"/>
		<line fill="none" stroke="#1D1B1C" stroke-width="0.25" stroke-miterlimit="10" x1="0" y1="2180.561" x2="16.819" y2="2180.561"/>
		<line fill="none" stroke="#1D1B1C" stroke-width="0.25" stroke-miterlimit="10" x1="0" y1="2172.573" x2="12.982" y2="2172.573"/>
		<line fill="none" stroke="#1D1B1C" stroke-width="0.25" stroke-miterlimit="10" x1="0" y1="2164.584" x2="12.982" y2="2164.584"/>
		<line fill="none" stroke="#1D1B1C" stroke-width="0.25" stroke-miterlimit="10" x1="0" y1="2156.598" x2="12.982" y2="2156.598"/>
		<line fill="none" stroke="#1D1B1C" stroke-width="0.25" stroke-miterlimit="10" x1="0" y1="2148.61" x2="12.982" y2="2148.61"/>
		<line fill="none" stroke="#1D1B1C" stroke-width="0.25" stroke-miterlimit="10" x1="0" y1="2140.622" x2="20.275" y2="2140.622"/>
	</g>
	<g>
		<line fill="none" stroke="#1D1B1C" stroke-width="0.25" stroke-miterlimit="10" x1="0" y1="2132.55" x2="12.982" y2="2132.55"/>
		<line fill="none" stroke="#1D1B1C" stroke-width="0.25" stroke-miterlimit="10" x1="0" y1="2124.563" x2="12.982" y2="2124.563"/>
		<line fill="none" stroke="#1D1B1C" stroke-width="0.25" stroke-miterlimit="10" x1="0" y1="2116.577" x2="12.982" y2="2116.577"/>
		<line fill="none" stroke="#1D1B1C" stroke-width="0.25" stroke-miterlimit="10" x1="0" y1="2108.589" x2="12.982" y2="2108.589"/>
		<line fill="none" stroke="#1D1B1C" stroke-width="0.25" stroke-miterlimit="10" x1="0" y1="2100.602" x2="16.819" y2="2100.602"/>
		<line fill="none" stroke="#1D1B1C" stroke-width="0.25" stroke-miterlimit="10" x1="0" y1="2092.614" x2="12.982" y2="2092.614"/>
		<line fill="none" stroke="#1D1B1C" stroke-width="0.25" stroke-miterlimit="10" x1="0" y1="2084.626" x2="12.982" y2="2084.626"/>
		<line fill="none" stroke="#1D1B1C" stroke-width="0.25" stroke-miterlimit="10" x1="0" y1="2076.639" x2="12.982" y2="2076.639"/>
		<line fill="none" stroke="#1D1B1C" stroke-width="0.25" stroke-miterlimit="10" x1="0" y1="2068.652" x2="12.982" y2="2068.652"/>
		<line fill="none" stroke="#1D1B1C" stroke-width="0.25" stroke-miterlimit="10" x1="0" y1="2060.665" x2="20.275" y2="2060.665"/>
		<line fill="none" stroke="#1D1B1C" stroke-width="0.25" stroke-miterlimit="10" x1="0" y1="2052.679" x2="12.982" y2="2052.679"/>
		<line fill="none" stroke="#1D1B1C" stroke-width="0.25" stroke-miterlimit="10" x1="0" y1="2044.69" x2="12.982" y2="2044.69"/>
		<line fill="none" stroke="#1D1B1C" stroke-width="0.25" stroke-miterlimit="10" x1="0" y1="2036.703" x2="12.982" y2="2036.703"/>
		<line fill="none" stroke="#1D1B1C" stroke-width="0.25" stroke-miterlimit="10" x1="0" y1="2028.715" x2="12.982" y2="2028.715"/>
		<line fill="none" stroke="#1D1B1C" stroke-width="0.25" stroke-miterlimit="10" x1="0" y1="2020.729" x2="16.819" y2="2020.729"/>
		<line fill="none" stroke="#1D1B1C" stroke-width="0.25" stroke-miterlimit="10" x1="0" y1="2012.741" x2="12.982" y2="2012.741"/>
		<line fill="none" stroke="#1D1B1C" stroke-width="0.25" stroke-miterlimit="10" x1="0" y1="2004.753" x2="12.982" y2="2004.753"/>
		<line fill="none" stroke="#1D1B1C" stroke-width="0.25" stroke-miterlimit="10" x1="0" y1="1996.767" x2="12.982" y2="1996.767"/>
		<line fill="none" stroke="#1D1B1C" stroke-width="0.25" stroke-miterlimit="10" x1="0" y1="1988.779" x2="12.982" y2="1988.779"/>
		<line fill="none" stroke="#1D1B1C" stroke-width="0.25" stroke-miterlimit="10" x1="0" y1="1980.792" x2="20.275" y2="1980.792"/>
		<line fill="none" stroke="#1D1B1C" stroke-width="0.25" stroke-miterlimit="10" x1="0" y1="1972.804" x2="12.982" y2="1972.804"/>
		<line fill="none" stroke="#1D1B1C" stroke-width="0.25" stroke-miterlimit="10" x1="0" y1="1964.816" x2="12.982" y2="1964.816"/>
		<line fill="none" stroke="#1D1B1C" stroke-width="0.25" stroke-miterlimit="10" x1="0" y1="1956.829" x2="12.982" y2="1956.829"/>
		<line fill="none" stroke="#1D1B1C" stroke-width="0.25" stroke-miterlimit="10" x1="0" y1="1948.842" x2="12.982" y2="1948.842"/>
		<line fill="none" stroke="#1D1B1C" stroke-width="0.25" stroke-miterlimit="10" x1="0" y1="1940.855" x2="16.819" y2="1940.855"/>
		<line fill="none" stroke="#1D1B1C" stroke-width="0.25" stroke-miterlimit="10" x1="0" y1="1932.868" x2="12.982" y2="1932.868"/>
		<line fill="none" stroke="#1D1B1C" stroke-width="0.25" stroke-miterlimit="10" x1="0" y1="1924.881" x2="12.982" y2="1924.881"/>
		<line fill="none" stroke="#1D1B1C" stroke-width="0.25" stroke-miterlimit="10" x1="0" y1="1916.894" x2="12.982" y2="1916.894"/>
		<line fill="none" stroke="#1D1B1C" stroke-width="0.25" stroke-miterlimit="10" x1="0" y1="1908.905" x2="12.982" y2="1908.905"/>
		<line fill="none" stroke="#1D1B1C" stroke-width="0.25" stroke-miterlimit="10" x1="0" y1="1900.918" x2="20.275" y2="1900.918"/>
		<line fill="none" stroke="#1D1B1C" stroke-width="0.25" stroke-miterlimit="10" x1="0" y1="1892.932" x2="12.982" y2="1892.932"/>
		<line fill="none" stroke="#1D1B1C" stroke-width="0.25" stroke-miterlimit="10" x1="0" y1="1884.944" x2="12.982" y2="1884.944"/>
		<line fill="none" stroke="#1D1B1C" stroke-width="0.25" stroke-miterlimit="10" x1="0" y1="1876.956" x2="12.982" y2="1876.956"/>
		<line fill="none" stroke="#1D1B1C" stroke-width="0.25" stroke-miterlimit="10" x1="0" y1="1868.97" x2="12.982" y2="1868.97"/>
		<line fill="none" stroke="#1D1B1C" stroke-width="0.25" stroke-miterlimit="10" x1="0" y1="1860.982" x2="16.819" y2="1860.982"/>
		<line fill="none" stroke="#1D1B1C" stroke-width="0.25" stroke-miterlimit="10" x1="0" y1="1852.994" x2="12.982" y2="1852.994"/>
		<line fill="none" stroke="#1D1B1C" stroke-width="0.25" stroke-miterlimit="10" x1="0" y1="1845.008" x2="12.982" y2="1845.008"/>
		<line fill="none" stroke="#1D1B1C" stroke-width="0.25" stroke-miterlimit="10" x1="0" y1="1837.021" x2="12.982" y2="1837.021"/>
		<line fill="none" stroke="#1D1B1C" stroke-width="0.25" stroke-miterlimit="10" x1="0" y1="1829.032" x2="12.982" y2="1829.032"/>
		<line fill="none" stroke="#1D1B1C" stroke-width="0.25" stroke-miterlimit="10" x1="0" y1="1821.046" x2="20.275" y2="1821.046"/>
		<line fill="none" stroke="#1D1B1C" stroke-width="0.25" stroke-miterlimit="10" x1="0" y1="1813.059" x2="12.982" y2="1813.059"/>
		<line fill="none" stroke="#1D1B1C" stroke-width="0.25" stroke-miterlimit="10" x1="0" y1="1805.071" x2="12.982" y2="1805.071"/>
		<line fill="none" stroke="#1D1B1C" stroke-width="0.25" stroke-miterlimit="10" x1="0" y1="1797.083" x2="12.982" y2="1797.083"/>
		<line fill="none" stroke="#1D1B1C" stroke-width="0.25" stroke-miterlimit="10" x1="0" y1="1789.097" x2="12.982" y2="1789.097"/>
		<line fill="none" stroke="#1D1B1C" stroke-width="0.25" stroke-miterlimit="10" x1="0" y1="1781.109" x2="16.819" y2="1781.109"/>
		<line fill="none" stroke="#1D1B1C" stroke-width="0.25" stroke-miterlimit="10" x1="0" y1="1773.122" x2="12.982" y2="1773.122"/>
		<line fill="none" stroke="#1D1B1C" stroke-width="0.25" stroke-miterlimit="10" x1="0" y1="1765.135" x2="12.982" y2="1765.135"/>
		<line fill="none" stroke="#1D1B1C" stroke-width="0.25" stroke-miterlimit="10" x1="0" y1="1757.147" x2="12.982" y2="1757.147"/>
		<line fill="none" stroke="#1D1B1C" stroke-width="0.25" stroke-miterlimit="10" x1="0" y1="1749.16" x2="12.982" y2="1749.16"/>
		<line fill="none" stroke="#1D1B1C" stroke-width="0.25" stroke-miterlimit="10" x1="0" y1="1741.173" x2="20.275" y2="1741.173"/>
	</g>
	<g>
		<line fill="none" stroke="#1D1B1C" stroke-width="0.25" stroke-miterlimit="10" x1="0" y1="1733.101" x2="12.982" y2="1733.101"/>
		<line fill="none" stroke="#1D1B1C" stroke-width="0.25" stroke-miterlimit="10" x1="0" y1="1725.113" x2="12.982" y2="1725.113"/>
		<line fill="none" stroke="#1D1B1C" stroke-width="0.25" stroke-miterlimit="10" x1="0" y1="1717.125" x2="12.982" y2="1717.125"/>
		<line fill="none" stroke="#1D1B1C" stroke-width="0.25" stroke-miterlimit="10" x1="0" y1="1709.138" x2="12.982" y2="1709.138"/>
		<line fill="none" stroke="#1D1B1C" stroke-width="0.25" stroke-miterlimit="10" x1="0" y1="1701.151" x2="16.819" y2="1701.151"/>
		<line fill="none" stroke="#1D1B1C" stroke-width="0.25" stroke-miterlimit="10" x1="0" y1="1693.164" x2="12.982" y2="1693.164"/>
		<line fill="none" stroke="#1D1B1C" stroke-width="0.25" stroke-miterlimit="10" x1="0" y1="1685.175" x2="12.982" y2="1685.175"/>
		<line fill="none" stroke="#1D1B1C" stroke-width="0.25" stroke-miterlimit="10" x1="0" y1="1677.188" x2="12.982" y2="1677.188"/>
		<line fill="none" stroke="#1D1B1C" stroke-width="0.25" stroke-miterlimit="10" x1="0" y1="1669.202" x2="12.982" y2="1669.202"/>
		<line fill="none" stroke="#1D1B1C" stroke-width="0.25" stroke-miterlimit="10" x1="0" y1="1661.214" x2="20.275" y2="1661.214"/>
		<line fill="none" stroke="#1D1B1C" stroke-width="0.25" stroke-miterlimit="10" x1="0" y1="1653.226" x2="12.982" y2="1653.226"/>
		<line fill="none" stroke="#1D1B1C" stroke-width="0.25" stroke-miterlimit="10" x1="0" y1="1645.24" x2="12.982" y2="1645.24"/>
		<line fill="none" stroke="#1D1B1C" stroke-width="0.25" stroke-miterlimit="10" x1="0" y1="1637.251" x2="12.982" y2="1637.251"/>
		<line fill="none" stroke="#1D1B1C" stroke-width="0.25" stroke-miterlimit="10" x1="0" y1="1629.266" x2="12.982" y2="1629.266"/>
		<line fill="none" stroke="#1D1B1C" stroke-width="0.25" stroke-miterlimit="10" x1="0" y1="1621.278" x2="16.819" y2="1621.278"/>
		<line fill="none" stroke="#1D1B1C" stroke-width="0.25" stroke-miterlimit="10" x1="0" y1="1613.291" x2="12.982" y2="1613.291"/>
		<line fill="none" stroke="#1D1B1C" stroke-width="0.25" stroke-miterlimit="10" x1="0" y1="1605.304" x2="12.982" y2="1605.304"/>
		<line fill="none" stroke="#1D1B1C" stroke-width="0.25" stroke-miterlimit="10" x1="0" y1="1597.314" x2="12.982" y2="1597.314"/>
		<line fill="none" stroke="#1D1B1C" stroke-width="0.25" stroke-miterlimit="10" x1="0" y1="1589.327" x2="12.982" y2="1589.327"/>
		<line fill="none" stroke="#1D1B1C" stroke-width="0.25" stroke-miterlimit="10" x1="0" y1="1581.343" x2="20.275" y2="1581.343"/>
		<line fill="none" stroke="#1D1B1C" stroke-width="0.25" stroke-miterlimit="10" x1="0" y1="1573.354" x2="12.982" y2="1573.354"/>
		<line fill="none" stroke="#1D1B1C" stroke-width="0.25" stroke-miterlimit="10" x1="0" y1="1565.367" x2="12.982" y2="1565.367"/>
		<line fill="none" stroke="#1D1B1C" stroke-width="0.25" stroke-miterlimit="10" x1="0" y1="1557.378" x2="12.982" y2="1557.378"/>
		<line fill="none" stroke="#1D1B1C" stroke-width="0.25" stroke-miterlimit="10" x1="0" y1="1549.393" x2="12.982" y2="1549.393"/>
		<line fill="none" stroke="#1D1B1C" stroke-width="0.25" stroke-miterlimit="10" x1="0" y1="1541.404" x2="16.819" y2="1541.404"/>
		<line fill="none" stroke="#1D1B1C" stroke-width="0.25" stroke-miterlimit="10" x1="0" y1="1533.416" x2="12.982" y2="1533.416"/>
		<line fill="none" stroke="#1D1B1C" stroke-width="0.25" stroke-miterlimit="10" x1="0" y1="1525.431" x2="12.982" y2="1525.431"/>
		<line fill="none" stroke="#1D1B1C" stroke-width="0.25" stroke-miterlimit="10" x1="0" y1="1517.441" x2="12.982" y2="1517.441"/>
		<line fill="none" stroke="#1D1B1C" stroke-width="0.25" stroke-miterlimit="10" x1="0" y1="1509.455" x2="12.982" y2="1509.455"/>
		<line fill="none" stroke="#1D1B1C" stroke-width="0.25" stroke-miterlimit="10" x1="0" y1="1501.467" x2="20.275" y2="1501.467"/>
		<line fill="none" stroke="#1D1B1C" stroke-width="0.25" stroke-miterlimit="10" x1="0" y1="1493.481" x2="12.982" y2="1493.481"/>
		<line fill="none" stroke="#1D1B1C" stroke-width="0.25" stroke-miterlimit="10" x1="0" y1="1485.493" x2="12.982" y2="1485.493"/>
		<line fill="none" stroke="#1D1B1C" stroke-width="0.25" stroke-miterlimit="10" x1="0" y1="1477.507" x2="12.982" y2="1477.507"/>
		<line fill="none" stroke="#1D1B1C" stroke-width="0.25" stroke-miterlimit="10" x1="0" y1="1469.52" x2="12.982" y2="1469.52"/>
		<line fill="none" stroke="#1D1B1C" stroke-width="0.25" stroke-miterlimit="10" x1="0" y1="1461.532" x2="16.819" y2="1461.532"/>
		<line fill="none" stroke="#1D1B1C" stroke-width="0.25" stroke-miterlimit="10" x1="0" y1="1453.543" x2="12.982" y2="1453.543"/>
		<line fill="none" stroke="#1D1B1C" stroke-width="0.25" stroke-miterlimit="10" x1="0" y1="1445.556" x2="12.982" y2="1445.556"/>
		<line fill="none" stroke="#1D1B1C" stroke-width="0.25" stroke-miterlimit="10" x1="0" y1="1437.57" x2="12.982" y2="1437.57"/>
		<line fill="none" stroke="#1D1B1C" stroke-width="0.25" stroke-miterlimit="10" x1="0" y1="1429.583" x2="12.982" y2="1429.583"/>
		<line fill="none" stroke="#1D1B1C" stroke-width="0.25" stroke-miterlimit="10" x1="0" y1="1421.595" x2="20.275" y2="1421.595"/>
		<line fill="none" stroke="#1D1B1C" stroke-width="0.25" stroke-miterlimit="10" x1="0" y1="1413.608" x2="12.982" y2="1413.608"/>
		<line fill="none" stroke="#1D1B1C" stroke-width="0.25" stroke-miterlimit="10" x1="0" y1="1405.62" x2="12.982" y2="1405.62"/>
		<line fill="none" stroke="#1D1B1C" stroke-width="0.25" stroke-miterlimit="10" x1="0" y1="1397.633" x2="12.982" y2="1397.633"/>
		<line fill="none" stroke="#1D1B1C" stroke-width="0.25" stroke-miterlimit="10" x1="0" y1="1389.645" x2="12.982" y2="1389.645"/>
		<line fill="none" stroke="#1D1B1C" stroke-width="0.25" stroke-miterlimit="10" x1="0" y1="1381.657" x2="16.819" y2="1381.657"/>
		<line fill="none" stroke="#1D1B1C" stroke-width="0.25" stroke-miterlimit="10" x1="0" y1="1373.671" x2="12.982" y2="1373.671"/>
		<line fill="none" stroke="#1D1B1C" stroke-width="0.25" stroke-miterlimit="10" x1="0" y1="1365.683" x2="12.982" y2="1365.683"/>
		<line fill="none" stroke="#1D1B1C" stroke-width="0.25" stroke-miterlimit="10" x1="0" y1="1357.694" x2="12.982" y2="1357.694"/>
		<line fill="none" stroke="#1D1B1C" stroke-width="0.25" stroke-miterlimit="10" x1="0" y1="1349.709" x2="12.982" y2="1349.709"/>
		<line fill="none" stroke="#1D1B1C" stroke-width="0.25" stroke-miterlimit="10" x1="0" y1="1341.722" x2="20.275" y2="1341.722"/>
	</g>
	<g>
		<line fill="none" stroke="#1D1B1C" stroke-width="0.25" stroke-miterlimit="10" x1="0" y1="1333.648" x2="12.982" y2="1333.648"/>
		<line fill="none" stroke="#1D1B1C" stroke-width="0.25" stroke-miterlimit="10" x1="0" y1="1325.659" x2="12.982" y2="1325.659"/>
		<line fill="none" stroke="#1D1B1C" stroke-width="0.25" stroke-miterlimit="10" x1="0" y1="1317.675" x2="12.982" y2="1317.675"/>
		<line fill="none" stroke="#1D1B1C" stroke-width="0.25" stroke-miterlimit="10" x1="0" y1="1309.688" x2="12.982" y2="1309.688"/>
		<line fill="none" stroke="#1D1B1C" stroke-width="0.25" stroke-miterlimit="10" x1="0" y1="1301.699" x2="16.819" y2="1301.699"/>
		<line fill="none" stroke="#1D1B1C" stroke-width="0.25" stroke-miterlimit="10" x1="0" y1="1293.712" x2="12.982" y2="1293.712"/>
		<line fill="none" stroke="#1D1B1C" stroke-width="0.25" stroke-miterlimit="10" x1="0" y1="1285.726" x2="12.982" y2="1285.726"/>
		<line fill="none" stroke="#1D1B1C" stroke-width="0.25" stroke-miterlimit="10" x1="0" y1="1277.736" x2="12.982" y2="1277.736"/>
		<line fill="none" stroke="#1D1B1C" stroke-width="0.25" stroke-miterlimit="10" x1="0" y1="1269.752" x2="12.982" y2="1269.752"/>
		<line fill="none" stroke="#1D1B1C" stroke-width="0.25" stroke-miterlimit="10" x1="0" y1="1261.763" x2="20.275" y2="1261.763"/>
		<line fill="none" stroke="#1D1B1C" stroke-width="0.25" stroke-miterlimit="10" x1="0" y1="1253.775" x2="12.982" y2="1253.775"/>
		<line fill="none" stroke="#1D1B1C" stroke-width="0.25" stroke-miterlimit="10" x1="0" y1="1245.788" x2="12.982" y2="1245.788"/>
		<line fill="none" stroke="#1D1B1C" stroke-width="0.25" stroke-miterlimit="10" x1="0" y1="1237.8" x2="12.982" y2="1237.8"/>
		<line fill="none" stroke="#1D1B1C" stroke-width="0.25" stroke-miterlimit="10" x1="0" y1="1229.815" x2="12.982" y2="1229.815"/>
		<line fill="none" stroke="#1D1B1C" stroke-width="0.25" stroke-miterlimit="10" x1="0" y1="1221.826" x2="16.819" y2="1221.826"/>
		<line fill="none" stroke="#1D1B1C" stroke-width="0.25" stroke-miterlimit="10" x1="0" y1="1213.84" x2="12.982" y2="1213.84"/>
		<line fill="none" stroke="#1D1B1C" stroke-width="0.25" stroke-miterlimit="10" x1="0" y1="1205.85" x2="12.982" y2="1205.85"/>
		<line fill="none" stroke="#1D1B1C" stroke-width="0.25" stroke-miterlimit="10" x1="0" y1="1197.863" x2="12.982" y2="1197.863"/>
		<line fill="none" stroke="#1D1B1C" stroke-width="0.25" stroke-miterlimit="10" x1="0" y1="1189.876" x2="12.982" y2="1189.876"/>
		<line fill="none" stroke="#1D1B1C" stroke-width="0.25" stroke-miterlimit="10" x1="0" y1="1181.891" x2="20.275" y2="1181.891"/>
		<line fill="none" stroke="#1D1B1C" stroke-width="0.25" stroke-miterlimit="10" x1="0" y1="1173.901" x2="12.982" y2="1173.901"/>
		<line fill="none" stroke="#1D1B1C" stroke-width="0.25" stroke-miterlimit="10" x1="0" y1="1165.916" x2="12.982" y2="1165.916"/>
		<line fill="none" stroke="#1D1B1C" stroke-width="0.25" stroke-miterlimit="10" x1="0" y1="1157.928" x2="12.982" y2="1157.928"/>
		<line fill="none" stroke="#1D1B1C" stroke-width="0.25" stroke-miterlimit="10" x1="0" y1="1149.94" x2="12.982" y2="1149.94"/>
		<line fill="none" stroke="#1D1B1C" stroke-width="0.25" stroke-miterlimit="10" x1="0" y1="1141.952" x2="16.819" y2="1141.952"/>
		<line fill="none" stroke="#1D1B1C" stroke-width="0.25" stroke-miterlimit="10" x1="0" y1="1133.965" x2="12.982" y2="1133.965"/>
		<line fill="none" stroke="#1D1B1C" stroke-width="0.25" stroke-miterlimit="10" x1="0" y1="1125.978" x2="12.982" y2="1125.978"/>
		<line fill="none" stroke="#1D1B1C" stroke-width="0.25" stroke-miterlimit="10" x1="0" y1="1117.99" x2="12.982" y2="1117.99"/>
		<line fill="none" stroke="#1D1B1C" stroke-width="0.25" stroke-miterlimit="10" x1="0" y1="1110.004" x2="12.982" y2="1110.004"/>
		<line fill="none" stroke="#1D1B1C" stroke-width="0.25" stroke-miterlimit="10" x1="0" y1="1102.017" x2="20.275" y2="1102.017"/>
		<line fill="none" stroke="#1D1B1C" stroke-width="0.25" stroke-miterlimit="10" x1="0" y1="1094.028" x2="12.982" y2="1094.028"/>
		<line fill="none" stroke="#1D1B1C" stroke-width="0.25" stroke-miterlimit="10" x1="0" y1="1086.042" x2="12.982" y2="1086.042"/>
		<line fill="none" stroke="#1D1B1C" stroke-width="0.25" stroke-miterlimit="10" x1="0" y1="1078.054" x2="12.982" y2="1078.054"/>
		<line fill="none" stroke="#1D1B1C" stroke-width="0.25" stroke-miterlimit="10" x1="0" y1="1070.066" x2="12.982" y2="1070.066"/>
		<line fill="none" stroke="#1D1B1C" stroke-width="0.25" stroke-miterlimit="10" x1="0" y1="1062.081" x2="16.819" y2="1062.081"/>
		<line fill="none" stroke="#1D1B1C" stroke-width="0.25" stroke-miterlimit="10" x1="0" y1="1054.092" x2="12.982" y2="1054.092"/>
		<line fill="none" stroke="#1D1B1C" stroke-width="0.25" stroke-miterlimit="10" x1="0" y1="1046.104" x2="12.982" y2="1046.104"/>
		<line fill="none" stroke="#1D1B1C" stroke-width="0.25" stroke-miterlimit="10" x1="0" y1="1038.117" x2="12.982" y2="1038.117"/>
		<line fill="none" stroke="#1D1B1C" stroke-width="0.25" stroke-miterlimit="10" x1="0" y1="1030.13" x2="12.982" y2="1030.13"/>
		<line fill="none" stroke="#1D1B1C" stroke-width="0.25" stroke-miterlimit="10" x1="0" y1="1022.143" x2="20.275" y2="1022.143"/>
		<line fill="none" stroke="#1D1B1C" stroke-width="0.25" stroke-miterlimit="10" x1="0" y1="1014.156" x2="12.982" y2="1014.156"/>
		<line fill="none" stroke="#1D1B1C" stroke-width="0.25" stroke-miterlimit="10" x1="0" y1="1006.168" x2="12.982" y2="1006.168"/>
		<line fill="none" stroke="#1D1B1C" stroke-width="0.25" stroke-miterlimit="10" x1="0" y1="998.181" x2="12.982" y2="998.181"/>
		<line fill="none" stroke="#1D1B1C" stroke-width="0.25" stroke-miterlimit="10" x1="0" y1="990.195" x2="12.982" y2="990.195"/>
		<line fill="none" stroke="#1D1B1C" stroke-width="0.25" stroke-miterlimit="10" x1="0" y1="982.207" x2="16.819" y2="982.207"/>
		<line fill="none" stroke="#1D1B1C" stroke-width="0.25" stroke-miterlimit="10" x1="0" y1="974.219" x2="12.982" y2="974.219"/>
		<line fill="none" stroke="#1D1B1C" stroke-width="0.25" stroke-miterlimit="10" x1="0" y1="966.231" x2="12.982" y2="966.231"/>
		<line fill="none" stroke="#1D1B1C" stroke-width="0.25" stroke-miterlimit="10" x1="0" y1="958.245" x2="12.982" y2="958.245"/>
		<line fill="none" stroke="#1D1B1C" stroke-width="0.25" stroke-miterlimit="10" x1="0" y1="950.257" x2="12.982" y2="950.257"/>
		<line fill="none" stroke="#1D1B1C" stroke-width="0.25" stroke-miterlimit="10" x1="0" y1="942.269" x2="20.275" y2="942.269"/>
	</g>
	<g>
		<line fill="none" stroke="#1D1B1C" stroke-width="0.25" stroke-miterlimit="10" x1="0" y1="934.197" x2="12.982" y2="934.197"/>
		<line fill="none" stroke="#1D1B1C" stroke-width="0.25" stroke-miterlimit="10" x1="0" y1="926.21" x2="12.982" y2="926.21"/>
		<line fill="none" stroke="#1D1B1C" stroke-width="0.25" stroke-miterlimit="10" x1="0" y1="918.223" x2="12.982" y2="918.223"/>
		<line fill="none" stroke="#1D1B1C" stroke-width="0.25" stroke-miterlimit="10" x1="0" y1="910.235" x2="12.982" y2="910.235"/>
		<line fill="none" stroke="#1D1B1C" stroke-width="0.25" stroke-miterlimit="10" x1="0" y1="902.249" x2="16.819" y2="902.248"/>
		<line fill="none" stroke="#1D1B1C" stroke-width="0.25" stroke-miterlimit="10" x1="0" y1="894.261" x2="12.982" y2="894.26"/>
		<line fill="none" stroke="#1D1B1C" stroke-width="0.25" stroke-miterlimit="10" x1="0" y1="886.273" x2="12.982" y2="886.273"/>
		<line fill="none" stroke="#1D1B1C" stroke-width="0.25" stroke-miterlimit="10" x1="0" y1="878.286" x2="12.982" y2="878.286"/>
		<line fill="none" stroke="#1D1B1C" stroke-width="0.25" stroke-miterlimit="10" x1="0" y1="870.3" x2="12.982" y2="870.3"/>
		<line fill="none" stroke="#1D1B1C" stroke-width="0.25" stroke-miterlimit="10" x1="0" y1="862.312" x2="20.275" y2="862.312"/>
		<line fill="none" stroke="#1D1B1C" stroke-width="0.25" stroke-miterlimit="10" x1="0" y1="854.324" x2="12.982" y2="854.324"/>
		<line fill="none" stroke="#1D1B1C" stroke-width="0.25" stroke-miterlimit="10" x1="0" y1="846.337" x2="12.982" y2="846.337"/>
		<line fill="none" stroke="#1D1B1C" stroke-width="0.25" stroke-miterlimit="10" x1="0" y1="838.349" x2="12.982" y2="838.349"/>
		<line fill="none" stroke="#1D1B1C" stroke-width="0.25" stroke-miterlimit="10" x1="0" y1="830.362" x2="12.982" y2="830.362"/>
		<line fill="none" stroke="#1D1B1C" stroke-width="0.25" stroke-miterlimit="10" x1="0" y1="822.375" x2="16.819" y2="822.375"/>
		<line fill="none" stroke="#1D1B1C" stroke-width="0.25" stroke-miterlimit="10" x1="0" y1="814.388" x2="12.982" y2="814.388"/>
		<line fill="none" stroke="#1D1B1C" stroke-width="0.25" stroke-miterlimit="10" x1="0" y1="806.4" x2="12.982" y2="806.4"/>
		<line fill="none" stroke="#1D1B1C" stroke-width="0.25" stroke-miterlimit="10" x1="0" y1="798.411" x2="12.982" y2="798.411"/>
		<line fill="none" stroke="#1D1B1C" stroke-width="0.25" stroke-miterlimit="10" x1="0" y1="790.424" x2="12.982" y2="790.424"/>
		<line fill="none" stroke="#1D1B1C" stroke-width="0.25" stroke-miterlimit="10" x1="0" y1="782.438" x2="20.275" y2="782.438"/>
		<line fill="none" stroke="#1D1B1C" stroke-width="0.25" stroke-miterlimit="10" x1="0" y1="774.452" x2="12.982" y2="774.451"/>
		<line fill="none" stroke="#1D1B1C" stroke-width="0.25" stroke-miterlimit="10" x1="0" y1="766.464" x2="12.982" y2="766.463"/>
		<line fill="none" stroke="#1D1B1C" stroke-width="0.25" stroke-miterlimit="10" x1="0" y1="758.477" x2="12.982" y2="758.477"/>
		<line fill="none" stroke="#1D1B1C" stroke-width="0.25" stroke-miterlimit="10" x1="0" y1="750.489" x2="12.982" y2="750.489"/>
		<line fill="none" stroke="#1D1B1C" stroke-width="0.25" stroke-miterlimit="10" x1="0" y1="742.502" x2="16.819" y2="742.502"/>
		<line fill="none" stroke="#1D1B1C" stroke-width="0.25" stroke-miterlimit="10" x1="0" y1="734.513" x2="12.982" y2="734.513"/>
		<line fill="none" stroke="#1D1B1C" stroke-width="0.25" stroke-miterlimit="10" x1="0" y1="726.527" x2="12.982" y2="726.527"/>
		<line fill="none" stroke="#1D1B1C" stroke-width="0.25" stroke-miterlimit="10" x1="0" y1="718.54" x2="12.982" y2="718.54"/>
		<line fill="none" stroke="#1D1B1C" stroke-width="0.25" stroke-miterlimit="10" x1="0" y1="710.553" x2="12.982" y2="710.553"/>
		<line fill="none" stroke="#1D1B1C" stroke-width="0.25" stroke-miterlimit="10" x1="0" y1="702.564" x2="20.275" y2="702.564"/>
		<line fill="none" stroke="#1D1B1C" stroke-width="0.25" stroke-miterlimit="10" x1="0" y1="694.578" x2="12.982" y2="694.578"/>
		<line fill="none" stroke="#1D1B1C" stroke-width="0.25" stroke-miterlimit="10" x1="0" y1="686.589" x2="12.982" y2="686.589"/>
		<line fill="none" stroke="#1D1B1C" stroke-width="0.25" stroke-miterlimit="10" x1="0" y1="678.603" x2="12.982" y2="678.603"/>
		<line fill="none" stroke="#1D1B1C" stroke-width="0.25" stroke-miterlimit="10" x1="0" y1="670.617" x2="12.982" y2="670.617"/>
		<line fill="none" stroke="#1D1B1C" stroke-width="0.25" stroke-miterlimit="10" x1="0" y1="662.629" x2="16.819" y2="662.629"/>
		<line fill="none" stroke="#1D1B1C" stroke-width="0.25" stroke-miterlimit="10" x1="0" y1="654.642" x2="12.982" y2="654.642"/>
		<line fill="none" stroke="#1D1B1C" stroke-width="0.25" stroke-miterlimit="10" x1="0" y1="646.653" x2="12.982" y2="646.653"/>
		<line fill="none" stroke="#1D1B1C" stroke-width="0.25" stroke-miterlimit="10" x1="0" y1="638.667" x2="12.982" y2="638.667"/>
		<line fill="none" stroke="#1D1B1C" stroke-width="0.25" stroke-miterlimit="10" x1="0" y1="630.68" x2="12.982" y2="630.68"/>
		<line fill="none" stroke="#1D1B1C" stroke-width="0.25" stroke-miterlimit="10" x1="0" y1="622.693" x2="20.275" y2="622.693"/>
		<line fill="none" stroke="#1D1B1C" stroke-width="0.25" stroke-miterlimit="10" x1="0" y1="614.706" x2="12.982" y2="614.706"/>
		<line fill="none" stroke="#1D1B1C" stroke-width="0.25" stroke-miterlimit="10" x1="0" y1="606.716" x2="12.982" y2="606.716"/>
		<line fill="none" stroke="#1D1B1C" stroke-width="0.25" stroke-miterlimit="10" x1="0" y1="598.731" x2="12.982" y2="598.731"/>
		<line fill="none" stroke="#1D1B1C" stroke-width="0.25" stroke-miterlimit="10" x1="0" y1="590.743" x2="12.982" y2="590.743"/>
		<line fill="none" stroke="#1D1B1C" stroke-width="0.25" stroke-miterlimit="10" x1="0" y1="582.754" x2="16.819" y2="582.754"/>
		<line fill="none" stroke="#1D1B1C" stroke-width="0.25" stroke-miterlimit="10" x1="0" y1="574.768" x2="12.982" y2="574.768"/>
		<line fill="none" stroke="#1D1B1C" stroke-width="0.25" stroke-miterlimit="10" x1="0" y1="566.78" x2="12.982" y2="566.78"/>
		<line fill="none" stroke="#1D1B1C" stroke-width="0.25" stroke-miterlimit="10" x1="0" y1="558.793" x2="12.982" y2="558.793"/>
		<line fill="none" stroke="#1D1B1C" stroke-width="0.25" stroke-miterlimit="10" x1="0" y1="550.807" x2="12.982" y2="550.807"/>
		<line fill="none" stroke="#1D1B1C" stroke-width="0.25" stroke-miterlimit="10" x1="0" y1="542.82" x2="20.275" y2="542.82"/>
	</g>
	<g>
		<line fill="none" stroke="#1D1B1C" stroke-width="0.25" stroke-miterlimit="10" x1="0" y1="534.746" x2="12.982" y2="534.746"/>
		<line fill="none" stroke="#1D1B1C" stroke-width="0.25" stroke-miterlimit="10" x1="0" y1="526.758" x2="12.982" y2="526.758"/>
		<line fill="none" stroke="#1D1B1C" stroke-width="0.25" stroke-miterlimit="10" x1="0" y1="518.771" x2="12.982" y2="518.771"/>
		<line fill="none" stroke="#1D1B1C" stroke-width="0.25" stroke-miterlimit="10" x1="0" y1="510.785" x2="12.982" y2="510.785"/>
		<line fill="none" stroke="#1D1B1C" stroke-width="0.25" stroke-miterlimit="10" x1="0" y1="502.798" x2="16.819" y2="502.798"/>
		<line fill="none" stroke="#1D1B1C" stroke-width="0.25" stroke-miterlimit="10" x1="0" y1="494.809" x2="12.982" y2="494.809"/>
		<line fill="none" stroke="#1D1B1C" stroke-width="0.25" stroke-miterlimit="10" x1="0" y1="486.82" x2="12.982" y2="486.82"/>
		<line fill="none" stroke="#1D1B1C" stroke-width="0.25" stroke-miterlimit="10" x1="0" y1="478.833" x2="12.982" y2="478.833"/>
		<line fill="none" stroke="#1D1B1C" stroke-width="0.25" stroke-miterlimit="10" x1="0" y1="470.849" x2="12.982" y2="470.849"/>
		<line fill="none" stroke="#1D1B1C" stroke-width="0.25" stroke-miterlimit="10" x1="0" y1="462.862" x2="20.275" y2="462.862"/>
		<line fill="none" stroke="#1D1B1C" stroke-width="0.25" stroke-miterlimit="10" x1="0" y1="454.873" x2="12.982" y2="454.873"/>
		<line fill="none" stroke="#1D1B1C" stroke-width="0.25" stroke-miterlimit="10" x1="0" y1="446.884" x2="12.982" y2="446.884"/>
		<line fill="none" stroke="#1D1B1C" stroke-width="0.25" stroke-miterlimit="10" x1="0" y1="438.896" x2="12.982" y2="438.896"/>
		<line fill="none" stroke="#1D1B1C" stroke-width="0.25" stroke-miterlimit="10" x1="0" y1="430.913" x2="12.982" y2="430.913"/>
		<line fill="none" stroke="#1D1B1C" stroke-width="0.25" stroke-miterlimit="10" x1="0" y1="422.923" x2="16.819" y2="422.923"/>
		<line fill="none" stroke="#1D1B1C" stroke-width="0.25" stroke-miterlimit="10" x1="0" y1="414.936" x2="12.982" y2="414.936"/>
		<line fill="none" stroke="#1D1B1C" stroke-width="0.25" stroke-miterlimit="10" x1="0" y1="406.948" x2="12.982" y2="406.948"/>
		<line fill="none" stroke="#1D1B1C" stroke-width="0.25" stroke-miterlimit="10" x1="0" y1="398.963" x2="12.982" y2="398.963"/>
		<line fill="none" stroke="#1D1B1C" stroke-width="0.25" stroke-miterlimit="10" x1="0" y1="390.974" x2="12.982" y2="390.974"/>
		<line fill="none" stroke="#1D1B1C" stroke-width="0.25" stroke-miterlimit="10" x1="0" y1="382.987" x2="20.275" y2="382.987"/>
		<line fill="none" stroke="#1D1B1C" stroke-width="0.25" stroke-miterlimit="10" x1="0" y1="375" x2="12.982" y2="375"/>
		<line fill="none" stroke="#1D1B1C" stroke-width="0.25" stroke-miterlimit="10" x1="0" y1="367.012" x2="12.982" y2="367.012"/>
		<line fill="none" stroke="#1D1B1C" stroke-width="0.25" stroke-miterlimit="10" x1="0" y1="359.025" x2="12.982" y2="359.025"/>
		<line fill="none" stroke="#1D1B1C" stroke-width="0.25" stroke-miterlimit="10" x1="0" y1="351.039" x2="12.982" y2="351.039"/>
		<line fill="none" stroke="#1D1B1C" stroke-width="0.25" stroke-miterlimit="10" x1="0" y1="343.05" x2="16.819" y2="343.05"/>
		<line fill="none" stroke="#1D1B1C" stroke-width="0.25" stroke-miterlimit="10" x1="0" y1="335.062" x2="12.982" y2="335.062"/>
		<line fill="none" stroke="#1D1B1C" stroke-width="0.25" stroke-miterlimit="10" x1="0" y1="327.076" x2="12.982" y2="327.076"/>
		<line fill="none" stroke="#1D1B1C" stroke-width="0.25" stroke-miterlimit="10" x1="0" y1="319.088" x2="12.982" y2="319.088"/>
		<line fill="none" stroke="#1D1B1C" stroke-width="0.25" stroke-miterlimit="10" x1="0" y1="311.102" x2="12.982" y2="311.102"/>
		<line fill="none" stroke="#1D1B1C" stroke-width="0.25" stroke-miterlimit="10" x1="0" y1="303.113" x2="20.275" y2="303.113"/>
		<line fill="none" stroke="#1D1B1C" stroke-width="0.25" stroke-miterlimit="10" x1="0" y1="295.126" x2="12.982" y2="295.126"/>
		<line fill="none" stroke="#1D1B1C" stroke-width="0.25" stroke-miterlimit="10" x1="0" y1="287.14" x2="12.982" y2="287.14"/>
		<line fill="none" stroke="#1D1B1C" stroke-width="0.25" stroke-miterlimit="10" x1="0" y1="279.152" x2="12.982" y2="279.152"/>
		<line fill="none" stroke="#1D1B1C" stroke-width="0.25" stroke-miterlimit="10" x1="0" y1="271.164" x2="12.982" y2="271.164"/>
		<line fill="none" stroke="#1D1B1C" stroke-width="0.25" stroke-miterlimit="10" x1="0" y1="263.177" x2="16.819" y2="263.177"/>
		<line fill="none" stroke="#1D1B1C" stroke-width="0.25" stroke-miterlimit="10" x1="0" y1="255.19" x2="12.982" y2="255.19"/>
		<line fill="none" stroke="#1D1B1C" stroke-width="0.25" stroke-miterlimit="10" x1="0" y1="247.202" x2="12.982" y2="247.202"/>
		<line fill="none" stroke="#1D1B1C" stroke-width="0.25" stroke-miterlimit="10" x1="0" y1="239.215" x2="12.982" y2="239.215"/>
		<line fill="none" stroke="#1D1B1C" stroke-width="0.25" stroke-miterlimit="10" x1="0" y1="231.227" x2="12.982" y2="231.227"/>
		<line fill="none" stroke="#1D1B1C" stroke-width="0.25" stroke-miterlimit="10" x1="0" y1="223.242" x2="20.275" y2="223.242"/>
		<line fill="none" stroke="#1D1B1C" stroke-width="0.25" stroke-miterlimit="10" x1="0" y1="215.252" x2="12.982" y2="215.252"/>
		<line fill="none" stroke="#1D1B1C" stroke-width="0.25" stroke-miterlimit="10" x1="0" y1="207.265" x2="12.982" y2="207.265"/>
		<line fill="none" stroke="#1D1B1C" stroke-width="0.25" stroke-miterlimit="10" x1="0" y1="199.28" x2="12.982" y2="199.28"/>
		<line fill="none" stroke="#1D1B1C" stroke-width="0.25" stroke-miterlimit="10" x1="0" y1="191.292" x2="12.982" y2="191.292"/>
		<line fill="none" stroke="#1D1B1C" stroke-width="0.25" stroke-miterlimit="10" x1="0" y1="183.304" x2="16.819" y2="183.304"/>
		<line fill="none" stroke="#1D1B1C" stroke-width="0.25" stroke-miterlimit="10" x1="0" y1="175.316" x2="12.982" y2="175.316"/>
		<line fill="none" stroke="#1D1B1C" stroke-width="0.25" stroke-miterlimit="10" x1="0" y1="167.329" x2="12.982" y2="167.329"/>
		<line fill="none" stroke="#1D1B1C" stroke-width="0.25" stroke-miterlimit="10" x1="0" y1="159.342" x2="12.982" y2="159.342"/>
		<line fill="none" stroke="#1D1B1C" stroke-width="0.25" stroke-miterlimit="10" x1="0" y1="151.356" x2="12.982" y2="151.356"/>
		<line fill="none" stroke="#1D1B1C" stroke-width="0.25" stroke-miterlimit="10" x1="0" y1="143.366" x2="20.275" y2="143.366"/>
	</g>
	<g>
		<path d="M32.629,2538.41c0,4.368-1.619,6.776-4.464,6.776c-2.508,0-4.208-2.351-4.249-6.598c0-4.307,1.86-6.68,4.466-6.68
			C31.087,2531.909,32.629,2534.32,32.629,2538.41z M25.658,2538.607c0,3.34,1.024,5.236,2.607,5.236
			c1.776,0,2.626-2.075,2.626-5.353c0-3.163-0.81-5.238-2.608-5.238C26.765,2533.253,25.658,2535.11,25.658,2538.607z"/>
	</g>
	<g>
		<path d="M30.951,2373.713h-0.039l-2.234,1.203l-0.336-1.321l2.807-1.503h1.481v12.843h-1.679V2373.713z"/>
	</g>
	<g>
		<path d="M24.431,2226.548v-1.068l1.363-1.324c3.28-3.12,4.762-4.78,4.781-6.718c0-1.303-0.632-2.507-2.547-2.507
			c-1.168,0-2.137,0.592-2.729,1.085l-0.552-1.224c0.889-0.751,2.153-1.305,3.635-1.305c2.769,0,3.935,1.898,3.935,3.733
			c0,2.372-1.719,4.287-4.429,6.896l-1.027,0.948v0.04h5.769v1.443H24.431z"/>
	</g>
	<g>
		<path d="M25.083,2062.563c0.492,0.315,1.639,0.81,2.844,0.81c2.232,0,2.925-1.422,2.906-2.487
			c-0.021-1.799-1.641-2.572-3.32-2.572h-0.972v-1.301h0.972c1.264,0,2.865-0.654,2.865-2.175c0-1.026-0.65-1.937-2.251-1.937
			c-1.029,0-2.017,0.455-2.572,0.85l-0.452-1.266c0.674-0.492,1.974-0.988,3.359-0.988c2.528,0,3.676,1.504,3.676,3.065
			c0,1.324-0.793,2.45-2.373,3.022v0.038c1.58,0.317,2.864,1.503,2.864,3.301c0,2.056-1.599,3.853-4.683,3.853
			c-1.44,0-2.707-0.454-3.338-0.869L25.083,2062.563z"/>
	</g>
	<g>
		<path d="M29.193,1907.819v-3.499h-5.968v-1.145l5.729-8.2h1.879v7.982h1.796v1.362h-1.796v3.499H29.193z M29.193,1902.958v-4.288
			c0-0.671,0.02-1.343,0.058-2.015h-0.058c-0.396,0.752-0.712,1.304-1.065,1.896l-3.145,4.366v0.04H29.193z"/>
	</g>
	<g>
		<path d="M32.375,1734.687h-4.902l-0.491,3.3c0.296-0.04,0.572-0.078,1.048-0.078c0.986,0,1.975,0.217,2.766,0.693
			c1.004,0.57,1.835,1.677,1.835,3.298c0,2.508-1.995,4.386-4.781,4.386c-1.401,0-2.586-0.395-3.199-0.789l0.435-1.324
			c0.534,0.316,1.582,0.712,2.746,0.712c1.641,0,3.043-1.068,3.043-2.788c-0.021-1.657-1.125-2.844-3.693-2.844
			c-0.732,0-1.307,0.079-1.779,0.138l0.83-6.164h6.145V1734.687z"/>
	</g>
	<g>
		<path d="M31.365,1574.416c-0.354-0.021-0.81,0-1.303,0.078c-2.729,0.454-4.17,2.45-4.466,4.563h0.058
			c0.616-0.809,1.68-1.48,3.104-1.48c2.273,0,3.872,1.641,3.872,4.149c0,2.35-1.599,4.523-4.269,4.523
			c-2.743,0-4.545-2.132-4.545-5.472c0-2.529,0.911-4.525,2.176-5.788c1.064-1.049,2.489-1.702,4.11-1.897
			c0.515-0.079,0.948-0.1,1.263-0.1V1574.416z M30.873,1581.824c0-1.838-1.048-2.944-2.647-2.944c-1.049,0-2.017,0.649-2.489,1.58
			c-0.118,0.198-0.199,0.455-0.199,0.771c0.041,2.114,1.01,3.674,2.824,3.674C29.865,1584.905,30.873,1583.66,30.873,1581.824z"/>
	</g>
	<g>
		<path d="M32.629,1414.803v1.146l-5.589,11.696H25.24l5.572-11.361v-0.039H24.53v-1.442H32.629z"/>
	</g>
	<g>
		<path d="M23.958,1265.692c0-1.62,0.968-2.766,2.549-3.438l-0.02-0.06c-1.424-0.673-2.036-1.779-2.036-2.885
			c0-2.034,1.72-3.418,3.971-3.418c2.49,0,3.733,1.56,3.733,3.162c0,1.087-0.533,2.251-2.113,3.002v0.06
			c1.6,0.632,2.588,1.757,2.588,3.318c0,2.234-1.913,3.734-4.367,3.734C25.576,1269.168,23.958,1267.568,23.958,1265.692z
			 M30.873,1265.61c0-1.561-1.087-2.31-2.826-2.804c-1.505,0.437-2.313,1.423-2.313,2.648c-0.059,1.303,0.929,2.449,2.57,2.449
			C29.865,1267.903,30.873,1266.936,30.873,1265.61z M26.091,1259.191c0,1.284,0.969,1.976,2.447,2.371
			c1.107-0.375,1.957-1.167,1.957-2.331c0-1.028-0.611-2.096-2.171-2.096C26.88,1257.135,26.091,1258.083,26.091,1259.191z"/>
	</g>
	<g>
		<path d="M25.083,1106.045c0.376,0.038,0.81,0,1.403-0.061c1.008-0.14,1.953-0.554,2.685-1.246
			c0.851-0.771,1.463-1.898,1.699-3.418h-0.058c-0.71,0.87-1.737,1.384-3.025,1.384c-2.31,0-3.792-1.739-3.792-3.931
			c0-2.432,1.761-4.566,4.388-4.566c2.626,0,4.247,2.134,4.247,5.413c0,2.828-0.948,4.804-2.212,6.028
			c-0.988,0.969-2.354,1.559-3.735,1.717c-0.631,0.101-1.185,0.121-1.6,0.101V1106.045z M25.713,1098.653
			c0,1.602,0.969,2.728,2.471,2.728c1.165,0,2.075-0.574,2.528-1.345c0.1-0.157,0.157-0.355,0.157-0.633
			c0-2.19-0.808-3.873-2.627-3.873C26.761,1095.531,25.713,1096.837,25.713,1098.653z"/>
	</g>
	<g>
		<path d="M17.729,937.351h-0.041l-2.233,1.206l-0.336-1.322l2.806-1.503h1.483v12.844h-1.679V937.351z"/>
		<path d="M32.629,942.015c0,4.367-1.619,6.778-4.465,6.778c-2.507,0-4.208-2.35-4.248-6.6c0-4.307,1.858-6.678,4.466-6.678
			C31.087,935.514,32.629,937.923,32.629,942.015z M25.658,942.212c0,3.34,1.024,5.238,2.607,5.238c1.776,0,2.626-2.075,2.626-5.355
			c0-3.161-0.81-5.237-2.608-5.237C26.761,936.857,25.658,938.716,25.658,942.212z"/>
	</g>
	<g>
		<path d="M20.81,777.316h-0.039l-2.233,1.207l-0.335-1.324l2.805-1.502h1.483v12.844H20.81V777.316z"/>
		<path d="M30.951,777.316h-0.039l-2.234,1.207l-0.335-1.324l2.806-1.502h1.481v12.844h-1.679V777.316z"/>
	</g>
	<g>
		<path d="M18.065,617.214h-0.04l-2.234,1.204l-0.336-1.321l2.806-1.502h1.484v12.842h-1.68V617.214z"/>
		<path d="M24.429,628.437v-1.068l1.364-1.324c3.281-3.121,4.762-4.781,4.782-6.718c0-1.302-0.632-2.507-2.551-2.507
			c-1.164,0-2.133,0.592-2.726,1.086l-0.552-1.224c0.888-0.751,2.153-1.306,3.635-1.306c2.766,0,3.93,1.898,3.93,3.737
			c0,2.369-1.717,4.286-4.424,6.893l-1.027,0.95v0.039h5.769v1.444H24.429z"/>
	</g>
	<g>
		<path d="M18.302,458.825H18.26l-2.233,1.206l-0.336-1.323l2.805-1.503h1.483v12.843h-1.677V458.825z"/>
		<path d="M25.083,468.053c0.493,0.315,1.64,0.81,2.845,0.81c2.232,0,2.925-1.423,2.902-2.489c-0.018-1.797-1.637-2.568-3.316-2.568
			h-0.972v-1.303h0.972c1.264,0,2.863-0.654,2.863-2.173c0-1.029-0.652-1.938-2.253-1.938c-1.025,0-2.013,0.456-2.568,0.849
			l-0.452-1.264c0.672-0.495,1.974-0.988,3.357-0.988c2.529,0,3.674,1.503,3.674,3.063c0,1.323-0.789,2.451-2.369,3.022v0.039
			c1.58,0.319,2.864,1.504,2.864,3.301c0,2.055-1.599,3.852-4.683,3.852c-1.44,0-2.707-0.453-3.338-0.868L25.083,468.053z"/>
	</g>
	<g>
		<path d="M17.453,297.143h-0.04l-2.235,1.205l-0.336-1.324l2.805-1.501h1.484v12.843h-1.678V297.143z"/>
		<path d="M29.193,308.366v-3.497h-5.969v-1.145l5.73-8.201h1.875v7.983h1.8v1.363h-1.8v3.497H29.193z M29.193,303.506v-4.288
			c0-0.671,0.02-1.343,0.058-2.016h-0.058c-0.396,0.752-0.712,1.305-1.069,1.898l-3.141,4.365v0.041H29.193z"/>
	</g>
	<g>
		<g>
			<path d="M18.341,137.041h-0.039l-2.234,1.204l-0.336-1.321l2.806-1.504h1.483v12.843h-1.68V137.041z"/>
			<path d="M32.373,136.882h-4.9l-0.491,3.3c0.296-0.04,0.572-0.08,1.044-0.08c0.988,0,1.979,0.217,2.77,0.693
				c1.004,0.571,1.835,1.677,1.835,3.299c0,2.507-1.995,4.386-4.781,4.386c-1.401,0-2.587-0.397-3.202-0.791l0.437-1.324
				c0.535,0.316,1.579,0.71,2.747,0.71c1.64,0,3.043-1.066,3.043-2.787c-0.021-1.658-1.127-2.843-3.696-2.843
				c-0.729,0-1.304,0.079-1.777,0.138l0.831-6.166h6.143V136.882z"/>
		</g>
	</g>
</g>
</svg>
