<?xml version="1.0" encoding="utf-8"?>
<!-- Generator: Adobe Illustrator 16.0.3, SVG Export Plug-In . SVG Version: 6.00 Build 0)  -->
<!DOCTYPE svg PUBLIC "-//W3C//DTD SVG 1.1//EN" "http://www.w3.org/Graphics/SVG/1.1/DTD/svg11.dtd">
<svg version="1.1" xmlns="http://www.w3.org/2000/svg" xmlns:xlink="http://www.w3.org/1999/xlink" x="0px" y="0px" width="449px"
	 height="118.691px" viewBox="0 0 449 118.691" enable-background="new 0 0 449 118.691" xml:space="preserve">
<g id="Layer_2">
	<rect fill="#CECBCB" width="449" height="119"/>
</g>
<g id="Layer_1">
	<g>
		<g>
			<rect x="96.099" y="71.658" fill="#231F20" width="1" height="47.033"/>
		</g>
	</g>
	<g>
		<g>
			<rect x="101.247" y="93.016" fill="#231F20" width="1" height="25.676"/>
		</g>
	</g>
	<g>
		<g>
			<rect x="106.395" y="92.846" fill="#231F20" width="1" height="25.846"/>
		</g>
	</g>
	<g>
		<g>
			<rect x="111.543" y="93.016" fill="#231F20" width="1" height="25.676"/>
		</g>
	</g>
	<g>
		<g>
			<rect x="116.691" y="92.846" fill="#231F20" width="1" height="25.846"/>
		</g>
	</g>
	<g>
		<g>
			<rect x="121.839" y="85.573" fill="#231F20" width="1" height="33.118"/>
		</g>
	</g>
	<g>
		<g>
			<rect x="126.987" y="92.846" fill="#231F20" width="1" height="25.846"/>
		</g>
	</g>
	<g>
		<g>
			<rect x="132.135" y="93.016" fill="#231F20" width="1" height="25.676"/>
		</g>
	</g>
	<g>
		<g>
			<rect x="137.284" y="92.846" fill="#231F20" width="1" height="25.846"/>
		</g>
	</g>
	<g>
		<g>
			<rect x="142.432" y="93.016" fill="#231F20" width="1" height="25.676"/>
		</g>
	</g>
	<g>
		<g>
			<rect x="147.58" y="70.521" fill="#231F20" width="1" height="48.17"/>
		</g>
	</g>
	<g>
		<g>
			<rect x="152.728" y="93.016" fill="#231F20" width="1" height="25.676"/>
		</g>
	</g>
	<g>
		<g>
			<rect x="157.876" y="92.846" fill="#231F20" width="1" height="25.846"/>
		</g>
	</g>
	<g>
		<g>
			<rect x="163.024" y="93.016" fill="#231F20" width="1" height="25.676"/>
		</g>
	</g>
	<g>
		<g>
			<rect x="168.172" y="92.846" fill="#231F20" width="1" height="25.846"/>
		</g>
	</g>
	<g>
		<g>
			<rect x="173.32" y="85.573" fill="#231F20" width="1" height="33.118"/>
		</g>
	</g>
	<g>
		<g>
			<rect x="178.468" y="92.846" fill="#231F20" width="1" height="25.846"/>
		</g>
	</g>
	<g>
		<g>
			<rect x="183.616" y="93.016" fill="#231F20" width="1" height="25.676"/>
		</g>
	</g>
	<g>
		<g>
			<rect x="188.764" y="92.846" fill="#231F20" width="1" height="25.846"/>
		</g>
	</g>
	<g>
		<g>
			<rect x="193.912" y="93.016" fill="#231F20" width="1" height="25.676"/>
		</g>
	</g>
	<g>
		<g>
			<rect x="199.061" y="70.521" fill="#231F20" width="1" height="48.17"/>
		</g>
	</g>
	<g>
		<g>
			<rect x="204.209" y="93.016" fill="#231F20" width="1" height="25.676"/>
		</g>
	</g>
	<g>
		<g>
			<rect x="209.357" y="92.846" fill="#231F20" width="1" height="25.846"/>
		</g>
	</g>
	<g>
		<g>
			<rect x="214.505" y="93.016" fill="#231F20" width="1" height="25.676"/>
		</g>
	</g>
	<g>
		<g>
			<rect x="219.653" y="92.846" fill="#231F20" width="1" height="25.846"/>
		</g>
	</g>
	<g>
		<g>
			<rect x="224.801" y="85.573" fill="#231F20" width="1" height="33.118"/>
		</g>
	</g>
	<g>
		<g>
			<rect x="229.949" y="92.846" fill="#231F20" width="1" height="25.846"/>
		</g>
	</g>
	<g>
		<g>
			<rect x="235.097" y="93.016" fill="#231F20" width="1" height="25.676"/>
		</g>
	</g>
	<g>
		<g>
			<rect x="240.245" y="92.846" fill="#231F20" width="1" height="25.846"/>
		</g>
	</g>
	<g>
		<g>
			<rect x="245.393" y="93.016" fill="#231F20" width="1" height="25.676"/>
		</g>
	</g>
	<g>
		<g>
			<rect x="250.541" y="70.521" fill="#231F20" width="1" height="48.17"/>
		</g>
	</g>
	<g>
		<g>
			<rect x="255.689" y="93.016" fill="#231F20" width="1" height="25.676"/>
		</g>
	</g>
	<g>
		<g>
			<rect x="260.838" y="92.846" fill="#231F20" width="1" height="25.846"/>
		</g>
	</g>
	<g>
		<g>
			<rect x="265.986" y="93.016" fill="#231F20" width="1" height="25.676"/>
		</g>
	</g>
	<g>
		<g>
			<rect x="271.134" y="92.846" fill="#231F20" width="1" height="25.846"/>
		</g>
	</g>
	<g>
		<g>
			<rect x="276.282" y="85.573" fill="#231F20" width="1" height="33.118"/>
		</g>
	</g>
	<g>
		<g>
			<rect x="281.43" y="92.846" fill="#231F20" width="1" height="25.846"/>
		</g>
	</g>
	<g>
		<g>
			<rect x="286.578" y="93.016" fill="#231F20" width="1" height="25.676"/>
		</g>
	</g>
	<g>
		<g>
			<rect x="291.727" y="92.846" fill="#231F20" width="1" height="25.846"/>
		</g>
	</g>
	<g>
		<g>
			<rect x="296.874" y="93.016" fill="#231F20" width="1" height="25.676"/>
		</g>
	</g>
	<g>
		<g>
			<rect x="302.022" y="70.521" fill="#231F20" width="1" height="48.17"/>
		</g>
	</g>
	<g>
		<g>
			<rect x="307.17" y="93.016" fill="#231F20" width="1" height="25.676"/>
		</g>
	</g>
	<g>
		<g>
			<rect x="312.318" y="92.846" fill="#231F20" width="1" height="25.846"/>
		</g>
	</g>
	<g>
		<g>
			<rect x="317.467" y="93.016" fill="#231F20" width="1" height="25.676"/>
		</g>
	</g>
	<g>
		<g>
			<rect x="322.615" y="92.846" fill="#231F20" width="1" height="25.846"/>
		</g>
	</g>
	<g>
		<g>
			<rect x="327.764" y="85.573" fill="#231F20" width="1" height="33.118"/>
		</g>
	</g>
	<g>
		<g>
			<rect x="332.912" y="92.846" fill="#231F20" width="1" height="25.846"/>
		</g>
	</g>
	<g>
		<g>
			<rect x="338.059" y="93.016" fill="#231F20" width="1" height="25.676"/>
		</g>
	</g>
	<g>
		<g>
			<rect x="343.207" y="92.846" fill="#231F20" width="1" height="25.846"/>
		</g>
	</g>
	<g>
		<g>
			<rect x="348.355" y="93.016" fill="#231F20" width="1" height="25.676"/>
		</g>
	</g>
	<g>
		<g>
			<rect x="353.504" y="70.521" fill="#231F20" width="1" height="48.17"/>
		</g>
	</g>
	<g>
		<g>
			<g>
				<path fill="#010101" d="M101.202,60.06c0,4.934-1.83,7.658-5.046,7.658c-2.835,0-4.756-2.657-4.8-7.457
					c0-4.868,2.098-7.546,5.046-7.546C99.461,52.714,101.202,55.438,101.202,60.06z M93.321,60.283c0,3.773,1.162,5.916,2.948,5.916
					c2.009,0,2.969-2.344,2.969-6.05c0-3.572-0.916-5.917-2.947-5.917C94.571,54.232,93.321,56.332,93.321,60.283z"/>
			</g>
		</g>
	</g>
	<g>
		<g>
			<g>
				<path fill="#010101" d="M139.153,64.451c0-0.826,0.559-1.406,1.34-1.406s1.317,0.58,1.317,1.406c0,0.804-0.514,1.406-1.34,1.406
					C139.689,65.857,139.153,65.255,139.153,64.451z"/>
			</g>
		</g>
		<g>
			<g>
				<path fill="#010101" d="M147.882,52.93h-0.044l-2.523,1.362l-0.38-1.497l3.17-1.697h1.675v14.512h-1.898V52.93z"/>
			</g>
		</g>
	</g>
	<g>
		<g>
			<g>
				<path fill="#010101" d="M193.104,64.451c0-0.826,0.558-1.406,1.34-1.406s1.317,0.58,1.317,1.406c0,0.804-0.514,1.406-1.34,1.406
					C193.641,65.857,193.104,65.255,193.104,64.451z"/>
			</g>
		</g>
		<g>
			<g>
				<path fill="#010101" d="M197.569,65.611v-1.205l1.541-1.496c3.707-3.528,5.381-5.403,5.403-7.591
					c0-1.474-0.714-2.835-2.88-2.835c-1.317,0-2.411,0.67-3.081,1.228l-0.625-1.385c1.005-0.848,2.434-1.473,4.108-1.473
					c3.126,0,4.443,2.143,4.443,4.22c0,2.679-1.942,4.845-5.001,7.792l-1.161,1.072v0.045h6.52v1.629H197.569z"/>
			</g>
		</g>
	</g>
	<g>
		<g>
			<g>
				<path fill="#010101" d="M245.195,64.451c0-0.826,0.559-1.406,1.34-1.406s1.318,0.58,1.318,1.406
					c0,0.804-0.514,1.406-1.341,1.406C245.731,65.857,245.195,65.255,245.195,64.451z"/>
			</g>
		</g>
		<g>
			<g>
				<path fill="#010101" d="M250.129,63.356c0.559,0.358,1.854,0.916,3.216,0.916c2.522,0,3.304-1.608,3.282-2.813
					c-0.023-2.031-1.854-2.902-3.751-2.902h-1.095v-1.474h1.095c1.429,0,3.237-0.737,3.237-2.456c0-1.161-0.737-2.188-2.546-2.188
					c-1.161,0-2.277,0.513-2.902,0.96l-0.514-1.429c0.76-0.559,2.233-1.117,3.796-1.117c2.857,0,4.152,1.697,4.152,3.461
					c0,1.495-0.893,2.768-2.679,3.416v0.044c1.786,0.358,3.237,1.697,3.237,3.729c0,2.322-1.809,4.354-5.292,4.354
					c-1.63,0-3.058-0.514-3.772-0.982L250.129,63.356z"/>
			</g>
		</g>
	</g>
	<g>
		<g>
			<g>
				<path fill="#010101" d="M295.426,64.451c0-0.826,0.559-1.406,1.34-1.406s1.318,0.58,1.318,1.406c0,0.804-0.515,1.406-1.34,1.406
					C295.962,65.857,295.426,65.255,295.426,64.451z"/>
			</g>
		</g>
		<g>
			<g>
				<path fill="#010101" d="M305.965,65.611V61.66h-6.744v-1.295l6.475-9.266h2.121v9.021h2.032v1.541h-2.032v3.951H305.965z
					 M305.965,60.12v-4.845c0-0.759,0.021-1.518,0.066-2.277h-0.066c-0.447,0.849-0.805,1.474-1.207,2.144l-3.55,4.934v0.045
					H305.965z"/>
			</g>
		</g>
	</g>
	<g>
		<g>
			<g>
				<path fill="#010101" d="M349.377,64.451c0-0.826,0.559-1.406,1.341-1.406c0.781,0,1.316,0.58,1.316,1.406
					c0,0.804-0.513,1.406-1.34,1.406C349.914,65.857,349.377,65.255,349.377,64.451z"/>
			</g>
		</g>
		<g>
			<g>
				<path fill="#010101" d="M362.505,52.751h-5.537l-0.558,3.729c0.334-0.044,0.647-0.089,1.183-0.089
					c1.116,0,2.233,0.246,3.126,0.782c1.139,0.647,2.076,1.897,2.076,3.729c0,2.835-2.254,4.957-5.402,4.957
					c-1.585,0-2.925-0.446-3.617-0.893l0.491-1.496c0.603,0.357,1.786,0.804,3.104,0.804c1.853,0,3.438-1.206,3.438-3.147
					c-0.022-1.876-1.273-3.216-4.176-3.216c-0.825,0-1.473,0.09-2.01,0.157l0.938-6.966h6.943V52.751z"/>
			</g>
		</g>
	</g>
</g>
</svg>
