<?xml version="1.0" encoding="utf-8"?>
<!-- Generator: Adobe Illustrator 16.0.3, SVG Export Plug-In . SVG Version: 6.00 Build 0)  -->
<!DOCTYPE svg PUBLIC "-//W3C//DTD SVG 1.1//EN" "http://www.w3.org/Graphics/SVG/1.1/DTD/svg11.dtd">
<svg version="1.1" xmlns="http://www.w3.org/2000/svg" xmlns:xlink="http://www.w3.org/1999/xlink" x="0px" y="0px" width="2444px"
	 height="155.902px" viewBox="0 0 2444 155.902" enable-background="new 0 0 2444 155.902" xml:space="preserve">
<g id="Layer_2">
	<rect y="-0.098" fill="#E2E7EE" width="2444" height="156"/>
</g>
<g id="Layer_1">
	<g>
		<rect x="90.099" fill="#231F20" width="1" height="50.935"/>
	</g>
	<g>
		<rect x="95.352" fill="#231F20" width="1" height="22.919"/>
	</g>
	<g>
		<rect x="100.605" fill="#231F20" width="1" height="30.279"/>
	</g>
	<g>
		<rect x="105.858" fill="#231F20" width="1" height="22.919"/>
	</g>
	<g>
		<rect x="111.111" fill="#231F20" width="1" height="30.279"/>
	</g>
	<g>
		<rect x="116.364" fill="#231F20" width="1" height="22.919"/>
	</g>
	<g>
		<rect x="121.618" fill="#231F20" width="1" height="30.279"/>
	</g>
	<g>
		<rect x="126.871" fill="#231F20" width="1" height="22.919"/>
	</g>
	<g>
		<rect x="132.124" fill="#231F20" width="1" height="30.279"/>
	</g>
	<g>
		<rect x="137.377" fill="#231F20" width="1" height="22.919"/>
	</g>
	<g>
		<rect x="142.63" fill="#231F20" width="1" height="38.291"/>
	</g>
	<g>
		<rect x="147.883" fill="#231F20" width="1" height="22.919"/>
	</g>
	<g>
		<rect x="153.137" fill="#231F20" width="1" height="30.279"/>
	</g>
	<g>
		<rect x="158.39" fill="#231F20" width="1" height="22.919"/>
	</g>
	<g>
		<rect x="163.643" fill="#231F20" width="1" height="30.279"/>
	</g>
	<g>
		<rect x="168.896" fill="#231F20" width="1" height="22.919"/>
	</g>
	<g>
		<rect x="174.149" fill="#231F20" width="1" height="30.279"/>
	</g>
	<g>
		<rect x="179.402" fill="#231F20" width="1" height="22.919"/>
	</g>
	<g>
		<rect x="184.655" fill="#231F20" width="1" height="30.279"/>
	</g>
	<g>
		<rect x="189.909" fill="#231F20" width="1" height="22.919"/>
	</g>
	<g>
		<rect x="195.162" fill="#231F20" width="1" height="50.935"/>
	</g>
	<g>
		<rect x="200.415" fill="#231F20" width="1" height="22.919"/>
	</g>
	<g>
		<rect x="205.668" fill="#231F20" width="1" height="30.279"/>
	</g>
	<g>
		<rect x="210.922" fill="#231F20" width="1" height="22.919"/>
	</g>
	<g>
		<rect x="216.175" fill="#231F20" width="1" height="30.279"/>
	</g>
	<g>
		<rect x="221.428" fill="#231F20" width="1" height="22.919"/>
	</g>
	<g>
		<rect x="226.681" fill="#231F20" width="1" height="30.279"/>
	</g>
	<g>
		<rect x="231.934" fill="#231F20" width="1" height="22.919"/>
	</g>
	<g>
		<rect x="237.188" fill="#231F20" width="1" height="30.279"/>
	</g>
	<g>
		<rect x="242.44" fill="#231F20" width="1" height="22.919"/>
	</g>
	<g>
		<rect x="247.693" fill="#231F20" width="1" height="38.291"/>
	</g>
	<g>
		<rect x="252.946" fill="#231F20" width="1" height="22.919"/>
	</g>
	<g>
		<rect x="258.2" fill="#231F20" width="1" height="30.279"/>
	</g>
	<g>
		<rect x="263.453" fill="#231F20" width="1" height="22.919"/>
	</g>
	<g>
		<rect x="268.707" fill="#231F20" width="1" height="30.279"/>
	</g>
	<g>
		<rect x="273.959" fill="#231F20" width="1" height="22.919"/>
	</g>
	<g>
		<rect x="279.212" fill="#231F20" width="1" height="30.279"/>
	</g>
	<g>
		<rect x="284.465" fill="#231F20" width="1" height="22.919"/>
	</g>
	<g>
		<rect x="289.719" fill="#231F20" width="1" height="30.279"/>
	</g>
	<g>
		<rect x="294.972" fill="#231F20" width="1" height="22.919"/>
	</g>
	<g>
		<rect x="300.225" fill="#231F20" width="1" height="50.935"/>
	</g>
	<g>
		<rect x="305.478" fill="#231F20" width="1" height="22.919"/>
	</g>
	<g>
		<rect x="310.731" fill="#231F20" width="1" height="30.279"/>
	</g>
	<g>
		<rect x="315.984" fill="#231F20" width="1" height="22.919"/>
	</g>
	<g>
		<rect x="321.238" fill="#231F20" width="1" height="30.279"/>
	</g>
	<g>
		<rect x="326.491" fill="#231F20" width="1" height="22.919"/>
	</g>
	<g>
		<rect x="331.744" fill="#231F20" width="1" height="30.279"/>
	</g>
	<g>
		<rect x="336.997" fill="#231F20" width="1" height="22.919"/>
	</g>
	<g>
		<rect x="342.25" fill="#231F20" width="1" height="30.279"/>
	</g>
	<g>
		<rect x="347.504" fill="#231F20" width="1" height="22.919"/>
	</g>
	<g>
		<rect x="352.756" fill="#231F20" width="1" height="38.291"/>
	</g>
	<g>
		<rect x="358.01" fill="#231F20" width="1" height="22.919"/>
	</g>
	<g>
		<rect x="363.263" fill="#231F20" width="1" height="30.279"/>
	</g>
	<g>
		<rect x="368.516" fill="#231F20" width="1" height="22.919"/>
	</g>
	<g>
		<rect x="373.77" fill="#231F20" width="1" height="30.279"/>
	</g>
	<g>
		<rect x="379.023" fill="#231F20" width="1" height="22.919"/>
	</g>
	<g>
		<rect x="384.276" fill="#231F20" width="1" height="30.279"/>
	</g>
	<g>
		<rect x="389.529" fill="#231F20" width="1" height="22.919"/>
	</g>
	<g>
		<rect x="394.782" fill="#231F20" width="1" height="30.279"/>
	</g>
	<g>
		<rect x="400.035" fill="#231F20" width="1" height="22.919"/>
	</g>
	<g>
		<rect x="405.289" fill="#231F20" width="1" height="50.935"/>
	</g>
	<g>
		<rect x="410.541" fill="#231F20" width="1" height="22.919"/>
	</g>
	<g>
		<rect x="415.794" fill="#231F20" width="1" height="30.279"/>
	</g>
	<g>
		<rect x="421.048" fill="#231F20" width="1" height="22.919"/>
	</g>
	<g>
		<rect x="426.301" fill="#231F20" width="1" height="30.279"/>
	</g>
	<g>
		<rect x="431.554" fill="#231F20" width="1" height="22.919"/>
	</g>
	<g>
		<rect x="436.808" fill="#231F20" width="1" height="30.279"/>
	</g>
	<g>
		<rect x="442.06" fill="#231F20" width="1" height="22.919"/>
	</g>
	<g>
		<rect x="447.313" fill="#231F20" width="1" height="30.279"/>
	</g>
	<g>
		<rect x="452.566" fill="#231F20" width="1" height="22.919"/>
	</g>
	<g>
		<rect x="457.82" fill="#231F20" width="1" height="38.291"/>
	</g>
	<g>
		<rect x="463.073" fill="#231F20" width="1" height="22.919"/>
	</g>
	<g>
		<rect x="468.326" fill="#231F20" width="1" height="30.279"/>
	</g>
	<g>
		<rect x="473.579" fill="#231F20" width="1" height="22.919"/>
	</g>
	<g>
		<rect x="478.833" fill="#231F20" width="1" height="30.279"/>
	</g>
	<g>
		<rect x="484.086" fill="#231F20" width="1" height="22.919"/>
	</g>
	<g>
		<rect x="489.339" fill="#231F20" width="1" height="30.279"/>
	</g>
	<g>
		<rect x="494.592" fill="#231F20" width="1" height="22.919"/>
	</g>
	<g>
		<rect x="499.845" fill="#231F20" width="1" height="30.279"/>
	</g>
	<g>
		<rect x="505.098" fill="#231F20" width="1" height="22.919"/>
	</g>
	<g>
		<rect x="510.352" fill="#231F20" width="1" height="50.935"/>
	</g>
	<g>
		<rect x="515.605" fill="#231F20" width="1" height="22.919"/>
	</g>
	<g>
		<rect x="520.858" fill="#231F20" width="1" height="30.279"/>
	</g>
	<g>
		<rect x="526.111" fill="#231F20" width="1" height="22.919"/>
	</g>
	<g>
		<rect x="531.364" fill="#231F20" width="1" height="30.279"/>
	</g>
	<g>
		<rect x="536.617" fill="#231F20" width="1" height="22.919"/>
	</g>
	<g>
		<rect x="541.871" fill="#231F20" width="1" height="30.279"/>
	</g>
	<g>
		<rect x="547.124" fill="#231F20" width="1" height="22.919"/>
	</g>
	<g>
		<rect x="552.376" fill="#231F20" width="1" height="30.279"/>
	</g>
	<g>
		<rect x="557.63" fill="#231F20" width="1" height="22.919"/>
	</g>
	<g>
		<rect x="562.883" fill="#231F20" width="1" height="38.291"/>
	</g>
	<g>
		<rect x="568.137" fill="#231F20" width="1" height="22.919"/>
	</g>
	<g>
		<rect x="573.389" fill="#231F20" width="1" height="30.279"/>
	</g>
	<g>
		<rect x="578.643" fill="#231F20" width="1" height="22.919"/>
	</g>
	<g>
		<rect x="583.896" fill="#231F20" width="1" height="30.279"/>
	</g>
	<g>
		<rect x="589.148" fill="#231F20" width="1" height="22.919"/>
	</g>
	<g>
		<rect x="594.402" fill="#231F20" width="1" height="30.279"/>
	</g>
	<g>
		<rect x="599.656" fill="#231F20" width="1" height="22.919"/>
	</g>
	<g>
		<rect x="604.909" fill="#231F20" width="1" height="30.279"/>
	</g>
	<g>
		<rect x="610.162" fill="#231F20" width="1" height="22.919"/>
	</g>
	<g>
		<rect x="615.415" fill="#231F20" width="1" height="50.935"/>
	</g>
	<g>
		<rect x="620.668" fill="#231F20" width="1" height="22.919"/>
	</g>
	<g>
		<rect x="625.921" fill="#231F20" width="1" height="30.279"/>
	</g>
	<g>
		<rect x="631.174" fill="#231F20" width="1" height="22.919"/>
	</g>
	<g>
		<rect x="636.427" fill="#231F20" width="1" height="30.279"/>
	</g>
	<g>
		<rect x="641.68" fill="#231F20" width="1" height="22.919"/>
	</g>
	<g>
		<rect x="646.934" fill="#231F20" width="1" height="30.279"/>
	</g>
	<g>
		<rect x="652.187" fill="#231F20" width="1" height="22.919"/>
	</g>
	<g>
		<rect x="657.44" fill="#231F20" width="1" height="30.279"/>
	</g>
	<g>
		<rect x="662.693" fill="#231F20" width="1" height="22.919"/>
	</g>
	<g>
		<rect x="667.946" fill="#231F20" width="1" height="38.291"/>
	</g>
	<g>
		<rect x="673.199" fill="#231F20" width="1" height="22.919"/>
	</g>
	<g>
		<rect x="678.453" fill="#231F20" width="1" height="30.279"/>
	</g>
	<g>
		<rect x="683.706" fill="#231F20" width="1" height="22.919"/>
	</g>
	<g>
		<rect x="688.958" fill="#231F20" width="1" height="30.279"/>
	</g>
	<g>
		<rect x="694.212" fill="#231F20" width="1" height="22.919"/>
	</g>
	<g>
		<rect x="699.465" fill="#231F20" width="1" height="30.279"/>
	</g>
	<g>
		<rect x="704.719" fill="#231F20" width="1" height="22.919"/>
	</g>
	<g>
		<rect x="709.972" fill="#231F20" width="1" height="30.279"/>
	</g>
	<g>
		<rect x="715.225" fill="#231F20" width="1" height="22.919"/>
	</g>
	<g>
		<rect x="720.478" fill="#231F20" width="1" height="50.935"/>
	</g>
	<g>
		<rect x="725.731" fill="#231F20" width="1" height="22.919"/>
	</g>
	<g>
		<rect x="730.984" fill="#231F20" width="1" height="30.279"/>
	</g>
	<g>
		<rect x="736.238" fill="#231F20" width="1" height="22.919"/>
	</g>
	<g>
		<rect x="741.49" fill="#231F20" width="1" height="30.279"/>
	</g>
	<g>
		<rect x="746.744" fill="#231F20" width="1" height="22.919"/>
	</g>
	<g>
		<rect x="751.997" fill="#231F20" width="1" height="30.279"/>
	</g>
	<g>
		<rect x="757.25" fill="#231F20" width="1" height="22.919"/>
	</g>
	<g>
		<rect x="762.503" fill="#231F20" width="1" height="30.279"/>
	</g>
	<g>
		<rect x="767.756" fill="#231F20" width="1" height="22.919"/>
	</g>
	<g>
		<rect x="773.009" fill="#231F20" width="1" height="38.291"/>
	</g>
	<g>
		<rect x="778.262" fill="#231F20" width="1" height="22.919"/>
	</g>
	<g>
		<rect x="783.516" fill="#231F20" width="1" height="30.279"/>
	</g>
	<g>
		<rect x="788.769" fill="#231F20" width="1" height="22.919"/>
	</g>
	<g>
		<rect x="794.022" fill="#231F20" width="1" height="30.279"/>
	</g>
	<g>
		<rect x="799.275" fill="#231F20" width="1" height="22.919"/>
	</g>
	<g>
		<rect x="804.528" fill="#231F20" width="1" height="30.279"/>
	</g>
	<g>
		<rect x="809.781" fill="#231F20" width="1" height="22.919"/>
	</g>
	<g>
		<rect x="815.035" fill="#231F20" width="1" height="30.279"/>
	</g>
	<g>
		<rect x="820.288" fill="#231F20" width="1" height="22.919"/>
	</g>
	<g>
		<rect x="825.542" fill="#231F20" width="1" height="50.935"/>
	</g>
	<g>
		<rect x="830.794" fill="#231F20" width="1" height="22.919"/>
	</g>
	<g>
		<rect x="836.047" fill="#231F20" width="1" height="30.279"/>
	</g>
	<g>
		<rect x="841.301" fill="#231F20" width="1" height="22.919"/>
	</g>
	<g>
		<rect x="846.554" fill="#231F20" width="1" height="30.279"/>
	</g>
	<g>
		<rect x="851.807" fill="#231F20" width="1" height="22.919"/>
	</g>
	<g>
		<rect x="857.06" fill="#231F20" width="1" height="30.279"/>
	</g>
	<g>
		<rect x="862.313" fill="#231F20" width="1" height="22.919"/>
	</g>
	<g>
		<rect x="867.566" fill="#231F20" width="1" height="30.279"/>
	</g>
	<g>
		<rect x="872.82" fill="#231F20" width="1" height="22.919"/>
	</g>
	<g>
		<rect x="878.073" fill="#231F20" width="1" height="38.291"/>
	</g>
	<g>
		<rect x="883.326" fill="#231F20" width="1" height="22.919"/>
	</g>
	<g>
		<rect x="888.579" fill="#231F20" width="1" height="30.279"/>
	</g>
	<g>
		<rect x="893.832" fill="#231F20" width="1" height="22.919"/>
	</g>
	<g>
		<rect x="899.085" fill="#231F20" width="1" height="30.279"/>
	</g>
	<g>
		<rect x="904.339" fill="#231F20" width="1" height="22.919"/>
	</g>
	<g>
		<rect x="909.591" fill="#231F20" width="1" height="30.279"/>
	</g>
	<g>
		<rect x="914.845" fill="#231F20" width="1" height="22.919"/>
	</g>
	<g>
		<rect x="920.098" fill="#231F20" width="1" height="30.279"/>
	</g>
	<g>
		<rect x="925.351" fill="#231F20" width="1" height="22.919"/>
	</g>
	<g>
		<rect x="930.604" fill="#231F20" width="1" height="50.935"/>
	</g>
	<g>
		<rect x="935.858" fill="#231F20" width="1" height="22.919"/>
	</g>
	<g>
		<rect x="941.11" fill="#231F20" width="1" height="30.279"/>
	</g>
	<g>
		<rect x="946.364" fill="#231F20" width="1" height="22.919"/>
	</g>
	<g>
		<rect x="951.617" fill="#231F20" width="1" height="30.279"/>
	</g>
	<g>
		<rect x="956.87" fill="#231F20" width="1" height="22.919"/>
	</g>
	<g>
		<rect x="962.123" fill="#231F20" width="1" height="30.279"/>
	</g>
	<g>
		<rect x="967.376" fill="#231F20" width="1" height="22.919"/>
	</g>
	<g>
		<rect x="972.629" fill="#231F20" width="1" height="30.279"/>
	</g>
	<g>
		<rect x="977.883" fill="#231F20" width="1" height="22.919"/>
	</g>
	<g>
		<rect x="983.136" fill="#231F20" width="1" height="38.291"/>
	</g>
	<g>
		<rect x="988.389" fill="#231F20" width="1" height="22.919"/>
	</g>
	<g>
		<rect x="993.642" fill="#231F20" width="1" height="30.279"/>
	</g>
	<g>
		<rect x="998.895" fill="#231F20" width="1" height="22.919"/>
	</g>
	<g>
		<rect x="1004.148" fill="#231F20" width="1" height="30.279"/>
	</g>
	<g>
		<rect x="1009.402" fill="#231F20" width="1" height="22.919"/>
	</g>
	<g>
		<rect x="1014.655" fill="#231F20" width="1" height="30.279"/>
	</g>
	<g>
		<rect x="1019.908" fill="#231F20" width="1" height="22.919"/>
	</g>
	<g>
		<rect x="1025.161" fill="#231F20" width="1" height="30.279"/>
	</g>
	<g>
		<rect x="1030.414" fill="#231F20" width="1" height="22.919"/>
	</g>
	<g>
		<rect x="1035.667" fill="#231F20" width="1" height="50.935"/>
	</g>
	<g>
		<rect x="1040.921" fill="#231F20" width="1" height="22.919"/>
	</g>
	<g>
		<rect x="1046.174" fill="#231F20" width="1" height="30.279"/>
	</g>
	<g>
		<rect x="1051.427" fill="#231F20" width="1" height="22.919"/>
	</g>
	<g>
		<rect x="1056.68" fill="#231F20" width="1" height="30.279"/>
	</g>
	<g>
		<rect x="1061.934" fill="#231F20" width="1" height="22.919"/>
	</g>
	<g>
		<rect x="1067.187" fill="#231F20" width="1" height="30.279"/>
	</g>
	<g>
		<rect x="1072.44" fill="#231F20" width="1" height="22.919"/>
	</g>
	<g>
		<rect x="1077.692" fill="#231F20" width="1" height="30.279"/>
	</g>
	<g>
		<rect x="1082.946" fill="#231F20" width="1" height="22.919"/>
	</g>
	<g>
		<rect x="1088.199" fill="#231F20" width="1" height="38.291"/>
	</g>
	<g>
		<rect x="1093.453" fill="#231F20" width="1" height="22.919"/>
	</g>
	<g>
		<rect x="1098.706" fill="#231F20" width="1" height="30.279"/>
	</g>
	<g>
		<rect x="1103.958" fill="#231F20" width="1" height="22.919"/>
	</g>
	<g>
		<rect x="1109.211" fill="#231F20" width="1" height="30.279"/>
	</g>
	<g>
		<rect x="1114.465" fill="#231F20" width="1" height="22.919"/>
	</g>
	<g>
		<rect x="1119.718" fill="#231F20" width="1" height="30.279"/>
	</g>
	<g>
		<rect x="1124.971" fill="#231F20" width="1" height="22.919"/>
	</g>
	<g>
		<rect x="1130.224" fill="#231F20" width="1" height="30.279"/>
	</g>
	<g>
		<rect x="1135.477" fill="#231F20" width="1" height="22.919"/>
	</g>
	<g>
		<rect x="1140.73" fill="#231F20" width="1" height="50.935"/>
	</g>
	<g>
		<rect x="1145.984" fill="#231F20" width="1" height="22.919"/>
	</g>
	<g>
		<rect x="1151.237" fill="#231F20" width="1" height="30.279"/>
	</g>
	<g>
		<rect x="1156.49" fill="#231F20" width="1" height="22.919"/>
	</g>
	<g>
		<rect x="1161.743" fill="#231F20" width="1" height="30.279"/>
	</g>
	<g>
		<rect x="1166.996" fill="#231F20" width="1" height="22.919"/>
	</g>
	<g>
		<rect x="1172.25" fill="#231F20" width="1" height="30.279"/>
	</g>
	<g>
		<rect x="1177.503" fill="#231F20" width="1" height="22.919"/>
	</g>
	<g>
		<rect x="1182.756" fill="#231F20" width="1" height="30.279"/>
	</g>
	<g>
		<rect x="1188.009" fill="#231F20" width="1" height="22.919"/>
	</g>
	<g>
		<rect x="1193.262" fill="#231F20" width="1" height="38.291"/>
	</g>
	<g>
		<rect x="1198.516" fill="#231F20" width="1" height="22.919"/>
	</g>
	<g>
		<rect x="1203.769" fill="#231F20" width="1" height="30.279"/>
	</g>
	<g>
		<rect x="1209.022" fill="#231F20" width="1" height="22.919"/>
	</g>
	<g>
		<rect x="1214.274" fill="#231F20" width="1" height="30.279"/>
	</g>
	<g>
		<rect x="1219.528" fill="#231F20" width="1" height="22.919"/>
	</g>
	<g>
		<rect x="1224.781" fill="#231F20" width="1" height="30.279"/>
	</g>
	<g>
		<rect x="1230.035" fill="#231F20" width="1" height="22.919"/>
	</g>
	<g>
		<rect x="1235.287" fill="#231F20" width="1" height="30.279"/>
	</g>
	<g>
		<rect x="1240.541" fill="#231F20" width="1" height="22.919"/>
	</g>
	<g>
		<rect x="1245.793" fill="#231F20" width="1" height="50.935"/>
	</g>
	<g>
		<rect x="1251.047" fill="#231F20" width="1" height="22.919"/>
	</g>
	<g>
		<rect x="1256.301" fill="#231F20" width="1" height="30.279"/>
	</g>
	<g>
		<rect x="1261.554" fill="#231F20" width="1" height="22.919"/>
	</g>
	<g>
		<rect x="1266.807" fill="#231F20" width="1" height="30.279"/>
	</g>
	<g>
		<rect x="1272.06" fill="#231F20" width="1" height="22.919"/>
	</g>
	<g>
		<rect x="1277.313" fill="#231F20" width="1" height="30.279"/>
	</g>
	<g>
		<rect x="1282.566" fill="#231F20" width="1" height="22.919"/>
	</g>
	<g>
		<rect x="1287.819" fill="#231F20" width="1" height="30.279"/>
	</g>
	<g>
		<rect x="1293.072" fill="#231F20" width="1" height="22.919"/>
	</g>
	<g>
		<rect x="1298.325" fill="#231F20" width="1" height="38.291"/>
	</g>
	<g>
		<rect x="1303.578" fill="#231F20" width="1" height="22.919"/>
	</g>
	<g>
		<rect x="1308.832" fill="#231F20" width="1" height="30.279"/>
	</g>
	<g>
		<rect x="1314.085" fill="#231F20" width="1" height="22.919"/>
	</g>
	<g>
		<rect x="1319.338" fill="#231F20" width="1" height="30.279"/>
	</g>
	<g>
		<rect x="1324.592" fill="#231F20" width="1" height="22.919"/>
	</g>
	<g>
		<rect x="1329.844" fill="#231F20" width="1" height="30.279"/>
	</g>
	<g>
		<rect x="1335.098" fill="#231F20" width="1" height="22.919"/>
	</g>
	<g>
		<rect x="1340.352" fill="#231F20" width="1" height="30.279"/>
	</g>
	<g>
		<rect x="1345.604" fill="#231F20" width="1" height="22.919"/>
	</g>
	<g>
		<rect x="1350.857" fill="#231F20" width="1" height="50.935"/>
	</g>
	<g>
		<rect x="1356.109" fill="#231F20" width="1" height="22.919"/>
	</g>
	<g>
		<rect x="1361.363" fill="#231F20" width="1" height="30.279"/>
	</g>
	<g>
		<rect x="1366.617" fill="#231F20" width="1" height="22.919"/>
	</g>
	<g>
		<rect x="1371.869" fill="#231F20" width="1" height="30.279"/>
	</g>
	<g>
		<rect x="1377.123" fill="#231F20" width="1" height="22.919"/>
	</g>
	<g>
		<rect x="1382.375" fill="#231F20" width="1" height="30.279"/>
	</g>
	<g>
		<rect x="1387.629" fill="#231F20" width="1" height="22.919"/>
	</g>
	<g>
		<rect x="1392.883" fill="#231F20" width="1" height="30.279"/>
	</g>
	<g>
		<rect x="1398.136" fill="#231F20" width="1" height="22.919"/>
	</g>
	<g>
		<rect x="1403.389" fill="#231F20" width="1" height="38.291"/>
	</g>
	<g>
		<rect x="1408.642" fill="#231F20" width="1" height="22.919"/>
	</g>
	<g>
		<rect x="1413.895" fill="#231F20" width="1" height="30.279"/>
	</g>
	<g>
		<rect x="1419.148" fill="#231F20" width="1" height="22.919"/>
	</g>
	<g>
		<rect x="1424.401" fill="#231F20" width="1" height="30.279"/>
	</g>
	<g>
		<rect x="1429.654" fill="#231F20" width="1" height="22.919"/>
	</g>
	<g>
		<rect x="1434.908" fill="#231F20" width="1" height="30.279"/>
	</g>
	<g>
		<rect x="1440.16" fill="#231F20" width="1" height="22.919"/>
	</g>
	<g>
		<rect x="1445.414" fill="#231F20" width="1" height="30.279"/>
	</g>
	<g>
		<rect x="1450.667" fill="#231F20" width="1" height="22.919"/>
	</g>
	<g>
		<rect x="1455.92" fill="#231F20" width="1" height="50.935"/>
	</g>
	<g>
		<rect x="1461.174" fill="#231F20" width="1" height="22.919"/>
	</g>
	<g>
		<rect x="1466.426" fill="#231F20" width="1" height="30.279"/>
	</g>
	<g>
		<rect x="1471.68" fill="#231F20" width="1" height="22.919"/>
	</g>
	<g>
		<rect x="1476.934" fill="#231F20" width="1" height="30.279"/>
	</g>
	<g>
		<rect x="1482.186" fill="#231F20" width="1" height="22.919"/>
	</g>
	<g>
		<rect x="1487.439" fill="#231F20" width="1" height="30.279"/>
	</g>
	<g>
		<rect x="1492.691" fill="#231F20" width="1" height="22.919"/>
	</g>
	<g>
		<rect x="1497.945" fill="#231F20" width="1" height="30.279"/>
	</g>
	<g>
		<rect x="1503.199" fill="#231F20" width="1" height="22.919"/>
	</g>
	<g>
		<rect x="1508.452" fill="#231F20" width="1" height="38.291"/>
	</g>
	<g>
		<rect x="1513.705" fill="#231F20" width="1" height="22.919"/>
	</g>
	<g>
		<rect x="1518.958" fill="#231F20" width="1" height="30.279"/>
	</g>
	<g>
		<rect x="1524.211" fill="#231F20" width="1" height="22.919"/>
	</g>
	<g>
		<rect x="1529.465" fill="#231F20" width="1" height="30.279"/>
	</g>
	<g>
		<rect x="1534.718" fill="#231F20" width="1" height="22.919"/>
	</g>
	<g>
		<rect x="1539.971" fill="#231F20" width="1" height="30.279"/>
	</g>
	<g>
		<rect x="1545.225" fill="#231F20" width="1" height="22.919"/>
	</g>
	<g>
		<rect x="1550.477" fill="#231F20" width="1" height="30.279"/>
	</g>
	<g>
		<rect x="1555.73" fill="#231F20" width="1" height="22.919"/>
	</g>
	<g>
		<rect x="1560.983" fill="#231F20" width="1" height="50.935"/>
	</g>
	<g>
		<rect x="1566.236" fill="#231F20" width="1" height="22.919"/>
	</g>
	<g>
		<rect x="1571.49" fill="#231F20" width="1" height="30.279"/>
	</g>
	<g>
		<rect x="1576.742" fill="#231F20" width="1" height="22.919"/>
	</g>
	<g>
		<rect x="1581.996" fill="#231F20" width="1" height="30.279"/>
	</g>
	<g>
		<rect x="1587.25" fill="#231F20" width="1" height="22.919"/>
	</g>
	<g>
		<rect x="1592.502" fill="#231F20" width="1" height="30.279"/>
	</g>
	<g>
		<rect x="1597.756" fill="#231F20" width="1" height="22.919"/>
	</g>
	<g>
		<rect x="1603.008" fill="#231F20" width="1" height="30.279"/>
	</g>
	<g>
		<rect x="1608.262" fill="#231F20" width="1" height="22.919"/>
	</g>
	<g>
		<rect x="1613.516" fill="#231F20" width="1" height="38.291"/>
	</g>
	<g>
		<rect x="1618.769" fill="#231F20" width="1" height="22.919"/>
	</g>
	<g>
		<rect x="1624.021" fill="#231F20" width="1" height="30.279"/>
	</g>
	<g>
		<rect x="1629.274" fill="#231F20" width="1" height="22.919"/>
	</g>
	<g>
		<rect x="1634.527" fill="#231F20" width="1" height="30.279"/>
	</g>
	<g>
		<rect x="1639.781" fill="#231F20" width="1" height="22.919"/>
	</g>
	<g>
		<rect x="1645.034" fill="#231F20" width="1" height="30.279"/>
	</g>
	<g>
		<rect x="1650.287" fill="#231F20" width="1" height="22.919"/>
	</g>
	<g>
		<rect x="1655.541" fill="#231F20" width="1" height="30.279"/>
	</g>
	<g>
		<rect x="1660.793" fill="#231F20" width="1" height="22.919"/>
	</g>
	<g>
		<rect x="1666.047" fill="#231F20" width="1" height="50.935"/>
	</g>
	<g>
		<rect x="1671.3" fill="#231F20" width="1" height="22.919"/>
	</g>
	<g>
		<rect x="1676.553" fill="#231F20" width="1" height="30.279"/>
	</g>
	<g>
		<rect x="1681.807" fill="#231F20" width="1" height="22.919"/>
	</g>
	<g>
		<rect x="1687.059" fill="#231F20" width="1" height="30.279"/>
	</g>
	<g>
		<rect x="1692.313" fill="#231F20" width="1" height="22.919"/>
	</g>
	<g>
		<rect x="1697.566" fill="#231F20" width="1" height="30.279"/>
	</g>
	<g>
		<rect x="1702.818" fill="#231F20" width="1" height="22.919"/>
	</g>
	<g>
		<rect x="1708.072" fill="#231F20" width="1" height="30.279"/>
	</g>
	<g>
		<rect x="1713.324" fill="#231F20" width="1" height="22.919"/>
	</g>
	<g>
		<rect x="1718.578" fill="#231F20" width="1" height="38.291"/>
	</g>
	<g>
		<rect x="1723.832" fill="#231F20" width="1" height="22.919"/>
	</g>
	<g>
		<rect x="1729.084" fill="#231F20" width="1" height="30.279"/>
	</g>
	<g>
		<rect x="1734.338" fill="#231F20" width="1" height="22.919"/>
	</g>
	<g>
		<rect x="1739.591" fill="#231F20" width="1" height="30.279"/>
	</g>
	<g>
		<rect x="1744.844" fill="#231F20" width="1" height="22.919"/>
	</g>
	<g>
		<rect x="1750.098" fill="#231F20" width="1" height="30.279"/>
	</g>
	<g>
		<rect x="1755.351" fill="#231F20" width="1" height="22.919"/>
	</g>
	<g>
		<rect x="1760.604" fill="#231F20" width="1" height="30.279"/>
	</g>
	<g>
		<rect x="1765.857" fill="#231F20" width="1" height="22.919"/>
	</g>
	<g>
		<rect x="1771.109" fill="#231F20" width="1" height="50.935"/>
	</g>
	<g>
		<rect x="1776.363" fill="#231F20" width="1" height="22.919"/>
	</g>
	<g>
		<rect x="1781.616" fill="#231F20" width="1" height="30.279"/>
	</g>
	<g>
		<rect x="1786.869" fill="#231F20" width="1" height="22.919"/>
	</g>
	<g>
		<rect x="1792.123" fill="#231F20" width="1" height="30.279"/>
	</g>
	<g>
		<rect x="1797.375" fill="#231F20" width="1" height="22.919"/>
	</g>
	<g>
		<rect x="1802.629" fill="#231F20" width="1" height="30.279"/>
	</g>
	<g>
		<rect x="1807.882" fill="#231F20" width="1" height="22.919"/>
	</g>
	<g>
		<rect x="1813.135" fill="#231F20" width="1" height="30.279"/>
	</g>
	<g>
		<rect x="1818.389" fill="#231F20" width="1" height="22.919"/>
	</g>
	<g>
		<rect x="1823.641" fill="#231F20" width="1" height="38.291"/>
	</g>
	<g>
		<rect x="1828.895" fill="#231F20" width="1" height="22.919"/>
	</g>
	<g>
		<rect x="1834.148" fill="#231F20" width="1" height="30.279"/>
	</g>
	<g>
		<rect x="1839.4" fill="#231F20" width="1" height="22.919"/>
	</g>
	<g>
		<rect x="1844.654" fill="#231F20" width="1" height="30.279"/>
	</g>
	<g>
		<rect x="1849.907" fill="#231F20" width="1" height="22.919"/>
	</g>
	<g>
		<rect x="1855.16" fill="#231F20" width="1" height="30.279"/>
	</g>
	<g>
		<rect x="1860.414" fill="#231F20" width="1" height="22.919"/>
	</g>
	<g>
		<rect x="1865.667" fill="#231F20" width="1" height="30.279"/>
	</g>
	<g>
		<rect x="1870.92" fill="#231F20" width="1" height="22.919"/>
	</g>
	<g>
		<rect x="1876.174" fill="#231F20" width="1" height="50.935"/>
	</g>
	<g>
		<rect x="1881.426" fill="#231F20" width="1" height="22.919"/>
	</g>
	<g>
		<rect x="1886.68" fill="#231F20" width="1" height="30.279"/>
	</g>
	<g>
		<rect x="1891.933" fill="#231F20" width="1" height="22.919"/>
	</g>
	<g>
		<rect x="1897.186" fill="#231F20" width="1" height="30.279"/>
	</g>
	<g>
		<rect x="1902.439" fill="#231F20" width="1" height="22.919"/>
	</g>
	<g>
		<rect x="1907.691" fill="#231F20" width="1" height="30.279"/>
	</g>
	<g>
		<rect x="1912.945" fill="#231F20" width="1" height="22.919"/>
	</g>
	<g>
		<rect x="1918.198" fill="#231F20" width="1" height="30.279"/>
	</g>
	<g>
		<rect x="1923.451" fill="#231F20" width="1" height="22.919"/>
	</g>
	<g>
		<rect x="1928.705" fill="#231F20" width="1" height="38.291"/>
	</g>
	<g>
		<rect x="1933.958" fill="#231F20" width="1" height="22.919"/>
	</g>
	<g>
		<rect x="1939.211" fill="#231F20" width="1" height="30.279"/>
	</g>
	<g>
		<rect x="1944.465" fill="#231F20" width="1" height="22.919"/>
	</g>
	<g>
		<rect x="1949.717" fill="#231F20" width="1" height="30.279"/>
	</g>
	<g>
		<rect x="1954.971" fill="#231F20" width="1" height="22.919"/>
	</g>
	<g>
		<rect x="1960.223" fill="#231F20" width="1" height="30.279"/>
	</g>
	<g>
		<rect x="1965.477" fill="#231F20" width="1" height="22.919"/>
	</g>
	<g>
		<rect x="1970.73" fill="#231F20" width="1" height="30.279"/>
	</g>
	<g>
		<rect x="1975.982" fill="#231F20" width="1" height="22.919"/>
	</g>
	<g>
		<rect x="1981.236" fill="#231F20" width="1" height="50.935"/>
	</g>
	<g>
		<rect x="1986.489" fill="#231F20" width="1" height="22.919"/>
	</g>
	<g>
		<rect x="1991.743" fill="#231F20" width="1" height="30.279"/>
	</g>
	<g>
		<rect x="1996.996" fill="#231F20" width="1" height="22.919"/>
	</g>
	<g>
		<rect x="2002.25" fill="#231F20" width="1" height="30.279"/>
	</g>
	<g>
		<rect x="2007.502" fill="#231F20" width="1" height="22.919"/>
	</g>
	<g>
		<rect x="2012.755" fill="#231F20" width="1" height="30.279"/>
	</g>
	<g>
		<rect x="2018.008" fill="#231F20" width="1" height="22.919"/>
	</g>
	<g>
		<rect x="2023.262" fill="#231F20" width="1" height="30.279"/>
	</g>
	<g>
		<rect x="2028.515" fill="#231F20" width="1" height="22.919"/>
	</g>
	<g>
		<rect x="2033.768" fill="#231F20" width="1" height="38.291"/>
	</g>
	<g>
		<rect x="2039.021" fill="#231F20" width="1" height="22.919"/>
	</g>
	<g>
		<rect x="2044.274" fill="#231F20" width="1" height="30.279"/>
	</g>
	<g>
		<rect x="2049.527" fill="#231F20" width="1" height="22.919"/>
	</g>
	<g>
		<rect x="2054.781" fill="#231F20" width="1" height="30.279"/>
	</g>
	<g>
		<rect x="2060.033" fill="#231F20" width="1" height="22.919"/>
	</g>
	<g>
		<rect x="2065.287" fill="#231F20" width="1" height="30.279"/>
	</g>
	<g>
		<rect x="2070.539" fill="#231F20" width="1" height="22.919"/>
	</g>
	<g>
		<rect x="2075.793" fill="#231F20" width="1" height="30.279"/>
	</g>
	<g>
		<rect x="2081.047" fill="#231F20" width="1" height="22.919"/>
	</g>
	<g>
		<rect x="2086.3" fill="#231F20" width="1" height="50.935"/>
	</g>
	<g>
		<rect x="2091.489" fill="#231F20" width="1" height="22.919"/>
	</g>
	<g>
		<rect x="2096.743" fill="#231F20" width="1" height="30.279"/>
	</g>
	<g>
		<rect x="2101.996" fill="#231F20" width="1" height="22.919"/>
	</g>
	<g>
		<rect x="2107.25" fill="#231F20" width="1" height="30.279"/>
	</g>
	<g>
		<rect x="2112.502" fill="#231F20" width="1" height="22.919"/>
	</g>
	<g>
		<rect x="2117.755" fill="#231F20" width="1" height="30.279"/>
	</g>
	<g>
		<rect x="2123.008" fill="#231F20" width="1" height="22.919"/>
	</g>
	<g>
		<rect x="2128.262" fill="#231F20" width="1" height="30.279"/>
	</g>
	<g>
		<rect x="2133.515" fill="#231F20" width="1" height="22.919"/>
	</g>
	<g>
		<rect x="2138.768" fill="#231F20" width="1" height="38.291"/>
	</g>
	<g>
		<rect x="2144.021" fill="#231F20" width="1" height="22.919"/>
	</g>
	<g>
		<rect x="2149.274" fill="#231F20" width="1" height="30.279"/>
	</g>
	<g>
		<rect x="2154.527" fill="#231F20" width="1" height="22.919"/>
	</g>
	<g>
		<rect x="2159.781" fill="#231F20" width="1" height="30.279"/>
	</g>
	<g>
		<rect x="2165.033" fill="#231F20" width="1" height="22.919"/>
	</g>
	<g>
		<rect x="2170.287" fill="#231F20" width="1" height="30.279"/>
	</g>
	<g>
		<rect x="2175.539" fill="#231F20" width="1" height="22.919"/>
	</g>
	<g>
		<rect x="2180.793" fill="#231F20" width="1" height="30.279"/>
	</g>
	<g>
		<rect x="2186.047" fill="#231F20" width="1" height="22.919"/>
	</g>
	<g>
		<rect x="2191.3" fill="#231F20" width="1" height="50.935"/>
	</g>
	<g>
		<g>
			<path fill="#010101" d="M195,55.334h-0.044l-2.523,1.362l-0.38-1.496l3.17-1.697h1.674v14.513H195V55.334z"/>
		</g>
	</g>
	<g>
		<g>
			<path fill="#010101" d="M295.848,68.016V66.81l1.541-1.496c3.707-3.527,5.38-5.402,5.403-7.59c0-1.475-0.714-2.836-2.88-2.836
				c-1.317,0-2.411,0.67-3.081,1.228l-0.625-1.384c1.005-0.849,2.434-1.474,4.108-1.474c3.126,0,4.443,2.144,4.443,4.22
				c0,2.68-1.942,4.844-5.001,7.792l-1.161,1.071v0.045h6.52v1.63H295.848z"/>
		</g>
	</g>
	<g>
		<g>
			<path fill="#010101" d="M401.429,65.761c0.558,0.357,1.853,0.915,3.215,0.915c2.522,0,3.305-1.607,3.282-2.813
				c-0.022-2.031-1.853-2.902-3.75-2.902h-1.094v-1.473h1.094c1.429,0,3.237-0.737,3.237-2.457c0-1.16-0.736-2.188-2.545-2.188
				c-1.161,0-2.278,0.514-2.903,0.961l-0.513-1.43c0.759-0.559,2.232-1.116,3.796-1.116c2.857,0,4.152,1.696,4.152,3.46
				c0,1.496-0.893,2.77-2.679,3.416v0.045c1.786,0.357,3.237,1.697,3.237,3.729c0,2.322-1.809,4.354-5.292,4.354
				c-1.629,0-3.059-0.514-3.772-0.982L401.429,65.761z"/>
		</g>
	</g>
	<g>
		<g>
			<path fill="#010101" d="M512.145,68.016v-3.952h-6.743v-1.295l6.476-9.266h2.121v9.021h2.032v1.54h-2.032v3.952H512.145z
				 M512.145,62.524v-4.845c0-0.76,0.022-1.52,0.067-2.277h-0.067c-0.447,0.848-0.804,1.473-1.206,2.143l-3.55,4.935v0.045H512.145z
				"/>
		</g>
	</g>
	<g>
		<g>
			<path fill="#010101" d="M618.917,55.156h-5.538l-0.558,3.729c0.335-0.045,0.648-0.09,1.184-0.09c1.116,0,2.233,0.246,3.125,0.782
				c1.139,0.647,2.077,1.897,2.077,3.729c0,2.835-2.255,4.956-5.403,4.956c-1.585,0-2.925-0.446-3.617-0.893l0.491-1.496
				c0.603,0.357,1.787,0.804,3.104,0.804c1.853,0,3.438-1.206,3.438-3.147c-0.022-1.877-1.272-3.216-4.175-3.216
				c-0.826,0-1.474,0.089-2.009,0.156l0.937-6.966h6.944V55.156z"/>
		</g>
	</g>
	<g>
		<g>
			<path fill="#010101" d="M724.58,54.888c-0.402-0.023-0.916,0-1.473,0.09c-3.082,0.512-4.711,2.768-5.047,5.156h0.068
				c0.692-0.916,1.897-1.674,3.505-1.674c2.568,0,4.376,1.853,4.376,4.688c0,2.657-1.809,5.112-4.823,5.112
				c-3.103,0-5.135-2.411-5.135-6.185c0-2.858,1.027-5.112,2.456-6.542c1.206-1.183,2.813-1.92,4.644-2.143
				c0.58-0.09,1.072-0.111,1.429-0.111V54.888z M724.021,63.261c0-2.077-1.184-3.328-2.992-3.328c-1.183,0-2.277,0.738-2.813,1.787
				c-0.133,0.223-0.223,0.514-0.223,0.871c0.045,2.389,1.139,4.152,3.192,4.152C722.882,66.744,724.021,65.336,724.021,63.261z"/>
		</g>
	</g>
	<g>
		<g>
			<path fill="#010101" d="M830.831,53.503v1.295l-6.319,13.218h-2.031l6.296-12.838v-0.044h-7.1v-1.631H830.831z"/>
		</g>
	</g>
	<g>
		<g>
			<path fill="#010101" d="M925.412,64.332c0-1.83,1.094-3.125,2.88-3.885l-0.022-0.066c-1.607-0.76-2.3-2.01-2.3-3.26
				c0-2.3,1.942-3.862,4.487-3.862c2.813,0,4.22,1.764,4.22,3.572c0,1.228-0.604,2.546-2.389,3.394v0.066
				c1.809,0.715,2.925,1.987,2.925,3.751c0,2.522-2.166,4.22-4.934,4.22C927.243,68.261,925.412,66.453,925.412,64.332z
				 M933.226,64.243c0-1.764-1.228-2.612-3.193-3.171c-1.697,0.492-2.612,1.608-2.612,2.992c-0.067,1.475,1.049,2.77,2.902,2.77
				C932.088,66.833,933.226,65.739,933.226,64.243z M927.823,56.987c0,1.451,1.094,2.231,2.768,2.679
				c1.25-0.424,2.21-1.317,2.21-2.635c0-1.16-0.691-2.365-2.456-2.365C928.716,54.666,927.823,55.736,927.823,56.987z"/>
		</g>
	</g>
	<g>
		<g>
			<path fill="#010101" d="M1031.841,66.631c0.424,0.045,0.915,0,1.585-0.067c1.138-0.155,2.21-0.625,3.036-1.406
				c0.96-0.87,1.653-2.143,1.92-3.861h-0.067c-0.804,0.981-1.964,1.563-3.416,1.563c-2.612,0-4.287-1.965-4.287-4.443
				c0-2.746,1.987-5.157,4.957-5.157s4.801,2.411,4.801,6.118c0,3.191-1.072,5.424-2.501,6.809c-1.117,1.094-2.657,1.764-4.22,1.943
				c-0.714,0.111-1.34,0.133-1.809,0.111V66.631z M1032.556,58.282c0,1.809,1.094,3.081,2.791,3.081
				c1.317,0,2.344-0.647,2.858-1.519c0.111-0.179,0.178-0.401,0.178-0.714c0-2.479-0.916-4.377-2.969-4.377
				C1033.739,54.753,1032.556,56.228,1032.556,58.282z"/>
		</g>
	</g>
	<g>
		<g>
			<path fill="#010101" d="M1134.498,55.334h-0.045l-2.522,1.362l-0.38-1.496l3.17-1.697h1.675v14.513h-1.898V55.334z"/>
		</g>
		<g>
			<path fill="#010101" d="M1151.331,60.603c0,4.936-1.831,7.658-5.046,7.658c-2.836,0-4.756-2.656-4.8-7.457
				c0-4.867,2.098-7.546,5.046-7.546C1149.589,53.258,1151.331,55.982,1151.331,60.603z M1143.449,60.828
				c0,3.772,1.161,5.916,2.947,5.916c2.009,0,2.97-2.344,2.97-6.051c0-3.572-0.916-5.917-2.947-5.917
				C1144.7,54.776,1143.449,56.875,1143.449,60.828z"/>
		</g>
	</g>
	<g>
		<g>
			<path fill="#010101" d="M1239.609,55.334h-0.044l-2.522,1.362l-0.38-1.496l3.171-1.697h1.674v14.513h-1.898V55.334z"/>
		</g>
		<g>
			<path fill="#010101" d="M1251.063,55.334h-0.045l-2.522,1.362l-0.38-1.496l3.17-1.697h1.675v14.513h-1.897V55.334z"/>
		</g>
	</g>
	<g>
		<g>
			<path fill="#010101" d="M1344.723,55.334h-0.045l-2.523,1.362l-0.379-1.496l3.17-1.697h1.675v14.513h-1.897V55.334z"/>
		</g>
		<g>
			<path fill="#010101" d="M1351.91,68.016V66.81l1.541-1.496c3.705-3.527,5.38-5.402,5.402-7.59c0-1.475-0.714-2.836-2.881-2.836
				c-1.316,0-2.41,0.67-3.08,1.228l-0.625-1.384c1.005-0.849,2.434-1.474,4.107-1.474c3.126,0,4.443,2.144,4.443,4.22
				c0,2.68-1.942,4.844-5.002,7.792l-1.16,1.071v0.045h6.52v1.63H1351.91z"/>
		</g>
	</g>
	<g>
		<g>
			<path fill="#010101" d="M1449.834,55.334h-0.044l-2.522,1.362l-0.381-1.496l3.171-1.697h1.675v14.513h-1.898V55.334z"/>
		</g>
		<g>
			<path fill="#010101" d="M1457.49,65.761c0.559,0.357,1.854,0.915,3.216,0.915c2.522,0,3.305-1.607,3.282-2.813
				c-0.021-2.031-1.854-2.902-3.75-2.902h-1.095v-1.473h1.095c1.428,0,3.236-0.737,3.236-2.457c0-1.16-0.736-2.188-2.545-2.188
				c-1.161,0-2.277,0.514-2.902,0.961l-0.514-1.43c0.759-0.559,2.232-1.116,3.795-1.116c2.858,0,4.152,1.696,4.152,3.46
				c0,1.496-0.893,2.77-2.679,3.416v0.045c1.786,0.357,3.237,1.697,3.237,3.729c0,2.322-1.809,4.354-5.291,4.354
				c-1.629,0-3.059-0.514-3.773-0.982L1457.49,65.761z"/>
		</g>
	</g>
	<g>
		<g>
			<path fill="#010101" d="M1554.946,55.334h-0.044l-2.523,1.362L1552,55.201l3.17-1.697h1.675v14.513h-1.898V55.334z"/>
		</g>
		<g>
			<path fill="#010101" d="M1568.207,68.016v-3.952h-6.742v-1.295l6.475-9.266h2.121v9.021h2.031v1.54h-2.031v3.952H1568.207z
				 M1568.207,62.524v-4.845c0-0.76,0.022-1.52,0.067-2.277h-0.067c-0.447,0.848-0.803,1.473-1.205,2.143l-3.551,4.935v0.045
				H1568.207z"/>
		</g>
	</g>
	<g>
		<g>
			<path fill="#010101" d="M1660.059,55.334h-0.045l-2.522,1.362l-0.38-1.496l3.171-1.697h1.675v14.513h-1.898V55.334z"/>
		</g>
		<g>
			<path fill="#010101" d="M1675.91,55.156h-5.537l-0.559,3.729c0.334-0.045,0.647-0.09,1.184-0.09c1.115,0,2.232,0.246,3.125,0.782
				c1.139,0.647,2.076,1.897,2.076,3.729c0,2.835-2.254,4.956-5.402,4.956c-1.586,0-2.926-0.446-3.617-0.893l0.491-1.496
				c0.603,0.357,1.786,0.804,3.104,0.804c1.853,0,3.438-1.206,3.438-3.147c-0.022-1.877-1.273-3.216-4.176-3.216
				c-0.826,0-1.474,0.089-2.009,0.156l0.938-6.966h6.944V55.156z"/>
		</g>
	</g>
	<g>
		<g>
			<path fill="#010101" d="M1765.171,55.334h-0.044l-2.523,1.362l-0.38-1.496l3.171-1.697h1.674v14.513h-1.897V55.334z"/>
		</g>
		<g>
			<path fill="#010101" d="M1780.643,54.888c-0.402-0.023-0.916,0-1.475,0.09c-3.08,0.512-4.711,2.768-5.046,5.156h0.067
				c0.692-0.916,1.898-1.674,3.505-1.674c2.567,0,4.376,1.853,4.376,4.688c0,2.657-1.809,5.112-4.822,5.112
				c-3.104,0-5.135-2.411-5.135-6.185c0-2.858,1.027-5.112,2.456-6.542c1.206-1.183,2.813-1.92,4.644-2.143
				c0.58-0.09,1.072-0.111,1.43-0.111V54.888z M1780.084,63.261c0-2.077-1.184-3.328-2.992-3.328c-1.184,0-2.277,0.738-2.813,1.787
				c-0.135,0.223-0.224,0.514-0.224,0.871c0.044,2.389,1.139,4.152,3.192,4.152C1778.945,66.744,1780.084,65.336,1780.084,63.261z"
				/>
		</g>
	</g>
	<g>
		<g>
			<path fill="#010101" d="M1870.283,55.334h-0.045l-2.522,1.362l-0.38-1.496l3.17-1.697h1.676v14.513h-1.898V55.334z"/>
		</g>
		<g>
			<path fill="#010101" d="M1886.893,53.503v1.295l-6.318,13.218h-2.031l6.296-12.838v-0.044h-7.101v-1.631H1886.893z"/>
		</g>
	</g>
	<g>
		<g>
			<path fill="#010101" d="M1975.395,55.334h-0.044l-2.522,1.362l-0.38-1.496l3.171-1.697h1.674v14.513h-1.898V55.334z"/>
		</g>
		<g>
			<path fill="#010101" d="M1982.404,64.332c0-1.83,1.094-3.125,2.88-3.885l-0.022-0.066c-1.606-0.76-2.299-2.01-2.299-3.26
				c0-2.3,1.941-3.862,4.487-3.862c2.813,0,4.22,1.764,4.22,3.572c0,1.228-0.604,2.546-2.389,3.394v0.066
				c1.809,0.715,2.925,1.987,2.925,3.751c0,2.522-2.166,4.22-4.935,4.22C1984.235,68.261,1982.404,66.453,1982.404,64.332z
				 M1990.219,64.243c0-1.764-1.229-2.612-3.193-3.171c-1.696,0.492-2.611,1.608-2.611,2.992c-0.067,1.475,1.049,2.77,2.902,2.77
				C1989.08,66.833,1990.219,65.739,1990.219,64.243z M1984.816,56.987c0,1.451,1.093,2.231,2.768,2.679
				c1.25-0.424,2.211-1.317,2.211-2.635c0-1.16-0.692-2.365-2.457-2.365C1985.709,54.666,1984.816,55.736,1984.816,56.987z"/>
		</g>
	</g>
	<g>
		<g>
			<path fill="#010101" d="M2080.508,55.334h-0.045l-2.523,1.362l-0.379-1.496l3.17-1.697h1.675v14.513h-1.897V55.334z"/>
		</g>
		<g>
			<path fill="#010101" d="M2088.834,66.631c0.424,0.045,0.915,0,1.585-0.067c1.139-0.155,2.211-0.625,3.036-1.406
				c0.961-0.87,1.652-2.143,1.92-3.861h-0.066c-0.804,0.981-1.965,1.563-3.416,1.563c-2.612,0-4.287-1.965-4.287-4.443
				c0-2.746,1.987-5.157,4.957-5.157c2.969,0,4.801,2.411,4.801,6.118c0,3.191-1.072,5.424-2.502,6.809
				c-1.115,1.094-2.656,1.764-4.219,1.943c-0.715,0.111-1.34,0.133-1.809,0.111V66.631z M2089.549,58.282
				c0,1.809,1.094,3.081,2.791,3.081c1.316,0,2.344-0.647,2.857-1.519c0.111-0.179,0.178-0.401,0.178-0.714
				c0-2.479-0.915-4.377-2.969-4.377C2090.731,54.753,2089.549,56.228,2089.549,58.282z"/>
		</g>
	</g>
	<g>
		<g>
			<path fill="#010101" d="M2181.355,68.016V66.81l1.54-1.496c3.706-3.527,5.381-5.402,5.403-7.59c0-1.475-0.714-2.836-2.88-2.836
				c-1.317,0-2.411,0.67-3.082,1.228l-0.624-1.384c1.004-0.849,2.434-1.474,4.107-1.474c3.125,0,4.443,2.144,4.443,4.22
				c0,2.68-1.942,4.844-5.001,7.792l-1.161,1.071v0.045h6.52v1.63H2181.355z"/>
		</g>
		<g>
			<path fill="#010101" d="M2202.453,60.603c0,4.936-1.832,7.658-5.047,7.658c-2.835,0-4.754-2.656-4.801-7.457
				c0-4.867,2.1-7.546,5.047-7.546C2200.711,53.258,2202.453,55.982,2202.453,60.603z M2194.571,60.828
				c0,3.772,1.16,5.916,2.948,5.916c2.009,0,2.969-2.344,2.969-6.051c0-3.572-0.917-5.917-2.948-5.917
				C2195.821,54.776,2194.571,56.875,2194.571,60.828z"/>
		</g>
	</g>
	<g>
		<g>
			<path fill="#010101" d="M95.416,60.671c0,4.993-1.853,7.748-5.105,7.748c-2.869,0-4.812-2.688-4.856-7.544
				c0-4.925,2.123-7.636,5.105-7.636C93.653,53.24,95.416,55.996,95.416,60.671z M87.442,60.898c0,3.818,1.174,5.986,2.982,5.986
				c2.033,0,3.004-2.371,3.004-6.122c0-3.614-0.926-5.985-2.981-5.985C88.707,54.777,87.442,56.9,87.442,60.898z"/>
		</g>
	</g>
</g>
</svg>
