<?xml version="1.0" encoding="utf-8"?>
<!-- Generator: Adobe Illustrator 16.0.3, SVG Export Plug-In . SVG Version: 6.00 Build 0)  -->
<!DOCTYPE svg PUBLIC "-//W3C//DTD SVG 1.1//EN" "http://www.w3.org/Graphics/SVG/1.1/DTD/svg11.dtd">
<svg version="1.1" xmlns="http://www.w3.org/2000/svg" xmlns:xlink="http://www.w3.org/1999/xlink" x="0px" y="0px"
	 width="83.717px" height="407px" viewBox="0 0 83.717 407" enable-background="new 0 0 83.717 407" xml:space="preserve">
<g id="Layer_13">
	<g>
		<linearGradient id="SVGID_1_" gradientUnits="userSpaceOnUse" x1="8.8799" y1="11.125" x2="73.4549" y2="11.125">
			<stop  offset="0" style="stop-color:#FFFFFF"/>
			<stop  offset="1" style="stop-color:#74828F"/>
		</linearGradient>
		<path fill-rule="evenodd" clip-rule="evenodd" fill="url(#SVGID_1_)" d="M73.467,11.4c-0.333,0.833-2.733,1.567-7.2,2.2
			c-0.7,0.1-1.433,0.2-2.2,0.3c-6.333,0.767-13.95,1.15-22.85,1.15c-8.967,0-16.6-0.383-22.9-1.15c-0.767-0.1-1.483-0.2-2.15-0.3
			c-2.319-0.336-4.086-0.703-5.3-1.1V9.75c1.565-0.517,4.048-0.984,7.45-1.4c6.3-0.767,13.933-1.15,22.9-1.15
			c8.9,0,16.517,0.383,22.85,1.15c5.833,0.7,8.966,1.55,9.4,2.55V11.4z M41.567,9.7c-2.467,0-4.583,0.083-6.35,0.25
			c-1.733,0.2-2.6,0.417-2.6,0.65c0,0.267,0.867,0.483,2.6,0.65c1.767,0.167,3.883,0.25,6.35,0.25c2.5,0,4.633-0.083,6.4-0.25
			c1.733-0.167,2.6-0.383,2.6-0.65c0-0.233-0.867-0.45-2.6-0.65C46.201,9.783,44.067,9.7,41.567,9.7z"/>
		<linearGradient id="SVGID_2_" gradientUnits="userSpaceOnUse" x1="8.8799" y1="15.7246" x2="73.4549" y2="15.7246">
			<stop  offset="0" style="stop-color:#6C6C68"/>
			<stop  offset="0.2275" style="stop-color:#797979"/>
			<stop  offset="0.3725" style="stop-color:#8E8E8E"/>
			<stop  offset="0.8118" style="stop-color:#626262"/>
			<stop  offset="1" style="stop-color:#3F3F3F"/>
		</linearGradient>
		<path fill-rule="evenodd" clip-rule="evenodd" fill="url(#SVGID_2_)" d="M71.867,17.4c-1.566,0.533-4.167,1.033-7.8,1.5
			c-6.333,0.767-13.95,1.15-22.85,1.15c-8.967,0-16.6-0.383-22.9-1.15c-2.235-0.279-4.069-0.571-5.5-0.875V15.7
			c-1.3-0.434-1.95-0.9-1.95-1.4v-1.8c1.214,0.397,2.981,0.764,5.3,1.1c0.667,0.1,1.383,0.2,2.15,0.3
			c6.3,0.767,13.933,1.15,22.9,1.15c8.9,0,16.517-0.383,22.85-1.15c0.767-0.1,1.5-0.2,2.2-0.3c4.467-0.633,6.867-1.367,7.2-2.2v4.95
			C73.301,16.717,72.767,17.067,71.867,17.4z"/>
		<linearGradient id="SVGID_3_" gradientUnits="userSpaceOnUse" x1="10.8174" y1="47.5249" x2="71.8672" y2="47.5249">
			<stop  offset="0" style="stop-color:#16171B"/>
			<stop  offset="0.098" style="stop-color:#595E61"/>
			<stop  offset="0.1725" style="stop-color:#77848D"/>
			<stop  offset="0.2431" style="stop-color:#FAFBFF"/>
			<stop  offset="0.3255" style="stop-color:#FFFFFF"/>
			<stop  offset="0.4078" style="stop-color:#A4ADE4"/>
			<stop  offset="0.4706" style="stop-color:#555C8A"/>
			<stop  offset="0.5373" style="stop-color:#565B6F"/>
			<stop  offset="0.6353" style="stop-color:#353A3E"/>
			<stop  offset="0.8275" style="stop-color:#878F98"/>
			<stop  offset="1" style="stop-color:#0F1012"/>
		</linearGradient>
		<path fill-rule="evenodd" clip-rule="evenodd" fill="url(#SVGID_3_)" d="M71.817,74.55v0.5c-0.333,0.4-1.7,0.8-4.1,1.2
			c-0.8,0.1-1.7,0.217-2.7,0.35c-0.633,0.066-1.333,0.133-2.1,0.2c-5.967,0.567-13.184,0.85-21.65,0.85
			c-8.5,0-15.716-0.283-21.65-0.85c-0.767-0.066-1.483-0.133-2.15-0.2c-0.367-0.033-0.733-0.083-1.1-0.15
			c-3.2-0.434-5.05-0.883-5.55-1.35v-2v-1.4c0.208-0.053,0.425-0.103,0.65-0.15c0.4-0.1,0.85-0.183,1.35-0.25V18.025
			c1.431,0.304,3.265,0.596,5.5,0.875c6.3,0.767,13.933,1.15,22.9,1.15c8.9,0,16.517-0.383,22.85-1.15
			c3.633-0.467,6.233-0.967,7.8-1.5l-0.05,55.75V74.55z"/>
		<linearGradient id="SVGID_4_" gradientUnits="userSpaceOnUse" x1="32.4673" y1="10.6001" x2="49.8673" y2="10.6001">
			<stop  offset="0" style="stop-color:#8F9BA5"/>
			<stop  offset="0.5373" style="stop-color:#34373A"/>
			<stop  offset="1" style="stop-color:#808D99"/>
		</linearGradient>
		<path fill-rule="evenodd" clip-rule="evenodd" fill="url(#SVGID_4_)" d="M41.567,9.7c2.5,0,4.633,0.083,6.4,0.25
			c1.733,0.2,2.6,0.417,2.6,0.65c0,0.267-0.867,0.483-2.6,0.65c-1.767,0.167-3.9,0.25-6.4,0.25c-2.467,0-4.583-0.083-6.35-0.25
			c-1.733-0.167-2.6-0.383-2.6-0.65c0-0.233,0.867-0.45,2.6-0.65C36.984,9.783,39.101,9.7,41.567,9.7z"/>
		<linearGradient id="SVGID_5_" gradientUnits="userSpaceOnUse" x1="4.6924" y1="76.5498" x2="77.4424" y2="76.5498">
			<stop  offset="0" style="stop-color:#FFFFFF"/>
			<stop  offset="1" style="stop-color:#74828F"/>
		</linearGradient>
		<path fill-rule="evenodd" clip-rule="evenodd" fill="url(#SVGID_5_)" d="M71.817,75.05c0.033-0.033,0.05-0.066,0.05-0.1
			c0.034-0.067,0.05-0.133,0.05-0.2s-0.017-0.133-0.05-0.2h-0.05v-1.4c3.4,0.633,5.267,1.35,5.6,2.15v0.5
			c-0.367,0.967-3.067,1.817-8.1,2.55c-0.434,0.066-0.85,0.133-1.25,0.2c-0.4,0.034-0.817,0.083-1.25,0.15
			c-0.5,0.066-1,0.133-1.5,0.2c-0.7,0.033-1.4,0.083-2.1,0.15C56.884,79.683,49.567,80,41.267,80c-0.033,0-0.083,0-0.15,0
			c-8.267,0-15.533-0.3-21.8-0.9c-1.1-0.1-2.15-0.2-3.15-0.3c-0.3-0.033-0.583-0.066-0.85-0.1c-0.867-0.133-1.684-0.25-2.45-0.35
			c-2.767-0.408-4.833-0.849-6.2-1.325V74.1c0.732-0.261,1.666-0.511,2.8-0.75c0.4-0.1,0.85-0.184,1.35-0.25v2
			c0.5,0.467,2.35,0.917,5.55,1.35c0.367,0.066,0.733,0.117,1.1,0.15c0.667,0.066,1.383,0.133,2.15,0.2
			c5.934,0.567,13.15,0.85,21.65,0.85c8.467,0,15.684-0.283,21.65-0.85c0.767-0.066,1.466-0.133,2.1-0.2c1-0.133,1.9-0.25,2.7-0.35
			C70.117,75.85,71.484,75.45,71.817,75.05z"/>
		<linearGradient id="SVGID_6_" gradientUnits="userSpaceOnUse" x1="77.4175" y1="82.3999" x2="4.6675" y2="82.3999">
			<stop  offset="0" style="stop-color:#16171B"/>
			<stop  offset="0.098" style="stop-color:#595E61"/>
			<stop  offset="0.1725" style="stop-color:#77848D"/>
			<stop  offset="0.2431" style="stop-color:#FAFBFF"/>
			<stop  offset="0.3255" style="stop-color:#FFFFFF"/>
			<stop  offset="0.4078" style="stop-color:#A4ADE4"/>
			<stop  offset="0.4706" style="stop-color:#555C8A"/>
			<stop  offset="0.5373" style="stop-color:#565B6F"/>
			<stop  offset="0.6353" style="stop-color:#353A3E"/>
			<stop  offset="0.8275" style="stop-color:#878F98"/>
			<stop  offset="1" style="stop-color:#0F1012"/>
		</linearGradient>
		<path fill-rule="evenodd" clip-rule="evenodd" fill="url(#SVGID_6_)" d="M74.667,86.4c-1.8,0.467-4.417,0.9-7.85,1.3
			c-7.1,0.867-15.667,1.3-25.7,1.3c-10.066,0-18.667-0.433-25.8-1.3c-2.111-0.245-3.911-0.503-5.4-0.775V84.7
			c-2.167-0.6-3.25-1.233-3.25-1.9v-5.775c1.366,0.476,3.433,0.917,6.2,1.325c0.767,0.1,1.583,0.217,2.45,0.35
			c0.267,0.033,0.55,0.066,0.85,0.1c1,0.1,2.05,0.2,3.15,0.3c6.267,0.6,13.533,0.9,21.8,0.9c0.067,0,0.117,0,0.15,0
			c8.3,0,15.617-0.317,21.95-0.95c0.7-0.066,1.4-0.117,2.1-0.15c0.5-0.066,1-0.133,1.5-0.2c0.433-0.067,0.85-0.117,1.25-0.15
			c0.4-0.066,0.816-0.133,1.25-0.2c5.033-0.733,7.733-1.583,8.1-2.55v8.55c-0.229,0.085-0.479,0.169-0.75,0.25v1
			C76.206,85.872,75.54,86.139,74.667,86.4z"/>
		<linearGradient id="SVGID_7_" gradientUnits="userSpaceOnUse" x1="7.9546" y1="108.4502" x2="74.6796" y2="108.4502">
			<stop  offset="0" style="stop-color:#16171B"/>
			<stop  offset="0.098" style="stop-color:#595E61"/>
			<stop  offset="0.1725" style="stop-color:#77848D"/>
			<stop  offset="0.2431" style="stop-color:#FAFBFF"/>
			<stop  offset="0.3255" style="stop-color:#FFFFFF"/>
			<stop  offset="0.4078" style="stop-color:#A4ADE4"/>
			<stop  offset="0.4706" style="stop-color:#555C8A"/>
			<stop  offset="0.5373" style="stop-color:#565B6F"/>
			<stop  offset="0.6353" style="stop-color:#353A3E"/>
			<stop  offset="0.8275" style="stop-color:#878F98"/>
			<stop  offset="1" style="stop-color:#0F1012"/>
		</linearGradient>
		<path fill-rule="evenodd" clip-rule="evenodd" fill="url(#SVGID_7_)" d="M74.667,130.5H9.942L9.917,86.925
			c1.489,0.272,3.289,0.531,5.4,0.775c7.133,0.867,15.733,1.3,25.8,1.3c10.034,0,18.6-0.433,25.7-1.3c3.433-0.4,6.05-0.833,7.85-1.3
			V130.5z"/>
		<linearGradient id="SVGID_8_" gradientUnits="userSpaceOnUse" x1="7.9546" y1="181.7002" x2="74.6796" y2="181.7002">
			<stop  offset="0" style="stop-color:#16171B"/>
			<stop  offset="0.098" style="stop-color:#595E61"/>
			<stop  offset="0.1725" style="stop-color:#77848D"/>
			<stop  offset="0.2431" style="stop-color:#FAFBFF"/>
			<stop  offset="0.3255" style="stop-color:#FFFFFF"/>
			<stop  offset="0.4078" style="stop-color:#A4ADE4"/>
			<stop  offset="0.4706" style="stop-color:#555C8A"/>
			<stop  offset="0.5373" style="stop-color:#565B6F"/>
			<stop  offset="0.6353" style="stop-color:#353A3E"/>
			<stop  offset="0.8275" style="stop-color:#878F98"/>
			<stop  offset="1" style="stop-color:#0F1012"/>
		</linearGradient>
		<polygon fill-rule="evenodd" clip-rule="evenodd" fill="url(#SVGID_8_)" points="71.967,232.9 11.917,232.9 11.917,231.1 
			9.967,231.1 9.942,130.5 74.667,130.5 74.667,231.1 73.967,231.1 73.967,232.9 		"/>
		<linearGradient id="SVGID_9_" gradientUnits="userSpaceOnUse" x1="9.9175" y1="302.0752" x2="71.9946" y2="302.0752">
			<stop  offset="0" style="stop-color:#16171B"/>
			<stop  offset="0.098" style="stop-color:#595E61"/>
			<stop  offset="0.1725" style="stop-color:#77848D"/>
			<stop  offset="0.2431" style="stop-color:#FAFBFF"/>
			<stop  offset="0.3255" style="stop-color:#FFFFFF"/>
			<stop  offset="0.4078" style="stop-color:#A4ADE4"/>
			<stop  offset="0.4706" style="stop-color:#555C8A"/>
			<stop  offset="0.5373" style="stop-color:#565B6F"/>
			<stop  offset="0.6353" style="stop-color:#353A3E"/>
			<stop  offset="0.8275" style="stop-color:#878F98"/>
			<stop  offset="1" style="stop-color:#0F1012"/>
		</linearGradient>
		<path fill-rule="evenodd" clip-rule="evenodd" fill="url(#SVGID_9_)" d="M71.967,364.55v1.7c0.233,1.033-1.017,1.866-3.75,2.5
			c-2.733,0.6-4.483,0.967-5.25,1.1c-1.533,0.233-3.133,0.45-4.8,0.65c-5,0.5-10.717,0.75-17.15,0.75
			c-6.2,0-11.716-0.217-16.55-0.65c-1.633-0.199-3.184-0.399-4.65-0.6c-0.267-0.066-0.55-0.116-0.85-0.15
			c-0.733-0.133-1.417-0.25-2.05-0.35c-4.634-0.833-6.967-1.85-7-3.05v-1.9v-0.8c0.497-0.352,1.164-0.685,2-1V232.9h60.05V364.55z"
			/>
		<linearGradient id="SVGID_10_" gradientUnits="userSpaceOnUse" x1="-2.6079" y1="374.5996" x2="84.6421" y2="374.5996">
			<stop  offset="0" style="stop-color:#0A0B10"/>
			<stop  offset="0.3804" style="stop-color:#050608"/>
			<stop  offset="0.6314" style="stop-color:#575354"/>
			<stop  offset="0.8745" style="stop-color:#030405"/>
			<stop  offset="1" style="stop-color:#000000"/>
		</linearGradient>
		<path fill-rule="evenodd" clip-rule="evenodd" fill="url(#SVGID_10_)" d="M62.117,380.5c-5.966,0.833-12.983,1.25-21.05,1.25
			c-7.251,0-13.668-0.333-19.25-1v-2.05c-1.034-0.167-2.05-0.334-3.05-0.5c-6.633-1.134-9.95-2.533-9.95-4.2v-4.875
			c1.283,0.606,3.183,1.165,5.7,1.675c0.7,0.167,1.45,0.334,2.25,0.5c1,0.167,2.017,0.334,3.05,0.5
			c1.433,0.167,2.917,0.334,4.45,0.5c5,0.467,10.6,0.7,16.8,0.7c6.433,0,12.216-0.25,17.35-0.75c1.267-0.167,2.5-0.316,3.7-0.45
			c0.4-0.066,0.767-0.116,1.1-0.149c0.7-0.134,1.367-0.25,2-0.351c0.833-0.166,1.617-0.333,2.35-0.5c4.7-0.934,7.233-2.05,7.6-3.35
			v8v0.649c-1.65,0.775-4.3,1.476-7.95,2.101c-1,0.2-2.033,0.366-3.1,0.5v1.5C63.464,380.315,62.797,380.415,62.117,380.5z"/>
		<linearGradient id="SVGID_11_" gradientUnits="userSpaceOnUse" x1="6.8047" y1="368.7754" x2="75.1297" y2="368.7754">
			<stop  offset="0" style="stop-color:#575354"/>
			<stop  offset="1" style="stop-color:#000000"/>
		</linearGradient>
		<path fill-rule="evenodd" clip-rule="evenodd" fill="url(#SVGID_11_)" d="M75.167,367.45c-0.367,1.3-2.9,2.416-7.6,3.35
			c-0.733,0.167-1.517,0.334-2.35,0.5c-0.633,0.101-1.3,0.217-2,0.351c-0.333,0.033-0.7,0.083-1.1,0.149
			c-1.2,0.134-2.433,0.283-3.7,0.45c-5.134,0.5-10.917,0.75-17.35,0.75c-6.2,0-11.8-0.233-16.8-0.7
			c-1.533-0.166-3.017-0.333-4.45-0.5c-1.034-0.166-2.05-0.333-3.05-0.5c-0.8-0.166-1.55-0.333-2.25-0.5
			c-2.517-0.51-4.417-1.068-5.7-1.675V365.3c0.003-0.102,0.02-0.201,0.05-0.3c0.313-0.154,0.663-0.304,1.05-0.45v1.9
			c0.033,1.2,2.366,2.217,7,3.05c0.633,0.1,1.316,0.217,2.05,0.35c0.3,0.034,0.583,0.084,0.85,0.15c1.466,0.2,3.017,0.4,4.65,0.6
			c4.833,0.434,10.35,0.65,16.55,0.65c6.434,0,12.15-0.25,17.15-0.75c1.667-0.2,3.267-0.417,4.8-0.65
			c0.767-0.133,2.517-0.5,5.25-1.1c2.733-0.634,3.983-1.467,3.75-2.5v-1.7c1.9,0.667,2.967,1.4,3.2,2.2V367.45z"/>
		<linearGradient id="SVGID_12_" gradientUnits="userSpaceOnUse" x1="19.8174" y1="390.5752" x2="62.1174" y2="390.5752">
			<stop  offset="0" style="stop-color:#000000"/>
			<stop  offset="0.3294" style="stop-color:#000000"/>
			<stop  offset="0.6627" style="stop-color:#373435"/>
			<stop  offset="0.8745" style="stop-color:#040404"/>
			<stop  offset="1" style="stop-color:#000000"/>
		</linearGradient>
		<path fill-rule="evenodd" clip-rule="evenodd" fill="url(#SVGID_12_)" d="M21.817,380.75c5.582,0.667,11.999,1,19.25,1
			c8.066,0,15.083-0.417,21.05-1.25v14.7c-0.072,0.733-0.322,1.408-0.75,2.024c-0.548,0.336-1.182,0.645-1.9,0.926
			c-0.5,0.133-1,0.3-1.5,0.5c-4.1,1.333-9.083,2-14.95,2c-5.866,0-10.866-0.667-15-2c-0.533-0.2-1.017-0.367-1.45-0.5
			c-3.167-1.267-4.75-2.717-4.75-4.351c0-0.033,0-0.066,0-0.1V380.75z"/>
	</g>
</g>
<g id="Layer_10">
	<g>
		<g>
			<g>
				<linearGradient id="SVGID_13_" gradientUnits="userSpaceOnUse" x1="10.8672" y1="9.3252" x2="75.4673" y2="9.3252">
					<stop  offset="0" style="stop-color:#FFFFFF"/>
					<stop  offset="1" style="stop-color:#74828F"/>
				</linearGradient>
				<path fill-rule="evenodd" clip-rule="evenodd" fill="url(#SVGID_13_)" d="M75.467,9.6c-0.333,0.833-2.733,1.566-7.2,2.2
					c-0.7,0.1-1.433,0.2-2.2,0.3c-6.333,0.767-13.95,1.15-22.85,1.15c-8.967,0-16.6-0.383-22.9-1.15c-0.767-0.1-1.483-0.2-2.15-0.3
					c-4.833-0.7-7.267-1.517-7.3-2.45c0.034-1.1,3.184-2.034,9.45-2.8c6.3-0.767,13.933-1.15,22.9-1.15
					c8.9,0,16.517,0.383,22.85,1.15c5.833,0.7,8.966,1.55,9.4,2.55V9.6z M52.567,8.8c0-0.233-0.867-0.45-2.6-0.65
					c-1.767-0.167-3.9-0.25-6.4-0.25c-2.467,0-4.583,0.083-6.35,0.25c-1.733,0.2-2.6,0.417-2.6,0.65c0,0.267,0.867,0.483,2.6,0.65
					c1.767,0.167,3.883,0.25,6.35,0.25c2.5,0,4.633-0.083,6.4-0.25C51.701,9.283,52.567,9.066,52.567,8.8z"/>
				<linearGradient id="SVGID_14_" gradientUnits="userSpaceOnUse" x1="10.8672" y1="13.7998" x2="75.4673" y2="13.7998">
					<stop  offset="0" style="stop-color:#6C6C68"/>
					<stop  offset="0.2275" style="stop-color:#797979"/>
					<stop  offset="0.3725" style="stop-color:#8E8E8E"/>
					<stop  offset="0.8118" style="stop-color:#626262"/>
					<stop  offset="1" style="stop-color:#3F3F3F"/>
				</linearGradient>
				<path fill-rule="evenodd" clip-rule="evenodd" fill="url(#SVGID_14_)" d="M10.867,9.35c0.034,0.933,2.467,1.75,7.3,2.45
					c0.667,0.1,1.383,0.2,2.15,0.3c6.3,0.767,13.933,1.15,22.9,1.15c8.9,0,16.517-0.383,22.85-1.15c0.767-0.1,1.5-0.2,2.2-0.3
					c4.467-0.633,6.867-1.366,7.2-2.2v4.95c-0.167,0.367-0.7,0.717-1.6,1.05c-1.566,0.533-4.167,1.033-7.8,1.5
					c-6.333,0.767-13.95,1.15-22.85,1.15c-8.967,0-16.6-0.383-22.9-1.15c-3.467-0.434-5.967-0.9-7.5-1.4
					c-1.3-0.434-1.95-0.9-1.95-1.4V9.35z"/>
				<linearGradient id="SVGID_15_" gradientUnits="userSpaceOnUse" x1="12.8174" y1="45.7251" x2="73.8672" y2="45.7251">
					<stop  offset="0" style="stop-color:#16171B"/>
					<stop  offset="0.098" style="stop-color:#595E61"/>
					<stop  offset="0.1725" style="stop-color:#77848D"/>
					<stop  offset="0.2431" style="stop-color:#FAFBFF"/>
					<stop  offset="0.3255" style="stop-color:#FFFFFF"/>
					<stop  offset="0.4078" style="stop-color:#A4ADE4"/>
					<stop  offset="0.4706" style="stop-color:#555C8A"/>
					<stop  offset="0.5373" style="stop-color:#565B6F"/>
					<stop  offset="0.6353" style="stop-color:#353A3E"/>
					<stop  offset="0.8275" style="stop-color:#878F98"/>
					<stop  offset="1" style="stop-color:#0F1012"/>
				</linearGradient>
				<path fill-rule="evenodd" clip-rule="evenodd" fill="url(#SVGID_15_)" d="M73.817,71.35v1.4v0.5c-0.333,0.4-1.7,0.8-4.1,1.2
					c-0.8,0.1-1.7,0.216-2.7,0.35c-0.633,0.067-1.333,0.133-2.1,0.2c-5.967,0.567-13.184,0.85-21.65,0.85
					c-8.5,0-15.716-0.283-21.65-0.85c-0.767-0.067-1.483-0.133-2.15-0.2c-0.367-0.033-0.733-0.083-1.1-0.15
					c-3.2-0.433-5.05-0.883-5.55-1.35v-2V15.7c1.533,0.5,4.033,0.966,7.5,1.4c6.3,0.767,13.933,1.15,22.9,1.15
					c8.9,0,16.517-0.383,22.85-1.15c3.633-0.467,6.233-0.967,7.8-1.5L73.817,71.35z"/>
				<linearGradient id="SVGID_16_" gradientUnits="userSpaceOnUse" x1="34.4673" y1="8.7998" x2="51.8673" y2="8.7998">
					<stop  offset="0" style="stop-color:#8F9BA5"/>
					<stop  offset="0.5373" style="stop-color:#34373A"/>
					<stop  offset="1" style="stop-color:#808D99"/>
				</linearGradient>
				<path fill-rule="evenodd" clip-rule="evenodd" fill="url(#SVGID_16_)" d="M52.567,8.8c0,0.267-0.867,0.483-2.6,0.65
					c-1.767,0.167-3.9,0.25-6.4,0.25c-2.467,0-4.583-0.083-6.35-0.25c-1.733-0.167-2.6-0.384-2.6-0.65c0-0.233,0.867-0.45,2.6-0.65
					c1.767-0.167,3.883-0.25,6.35-0.25c2.5,0,4.633,0.083,6.4,0.25C51.701,8.35,52.567,8.566,52.567,8.8z"/>
				<linearGradient id="SVGID_17_" gradientUnits="userSpaceOnUse" x1="6.6675" y1="74.75" x2="79.4175" y2="74.75">
					<stop  offset="0" style="stop-color:#FFFFFF"/>
					<stop  offset="1" style="stop-color:#74828F"/>
				</linearGradient>
				<path fill-rule="evenodd" clip-rule="evenodd" fill="url(#SVGID_17_)" d="M73.817,72.75v-1.4c3.4,0.633,5.267,1.35,5.6,2.15V74
					c-0.367,0.967-3.067,1.817-8.1,2.55c-0.434,0.067-0.85,0.133-1.25,0.2c-0.4,0.033-0.817,0.083-1.25,0.15
					c-0.5,0.067-1,0.133-1.5,0.2c-0.7,0.033-1.4,0.083-2.1,0.15c-6.333,0.633-13.65,0.95-21.95,0.95c-0.033,0-0.083,0-0.15,0
					c-8.267,0-15.533-0.3-21.8-0.9c-1.1-0.1-2.15-0.2-3.15-0.3c-0.3-0.033-0.583-0.067-0.85-0.1c-0.867-0.133-1.684-0.25-2.45-0.35
					c-5.433-0.8-8.167-1.733-8.2-2.8c0.033-0.8,1.633-1.533,4.8-2.2c0.4-0.1,0.85-0.183,1.35-0.25v2c0.5,0.467,2.35,0.917,5.55,1.35
					c0.367,0.067,0.733,0.117,1.1,0.15c0.667,0.067,1.383,0.133,2.15,0.2c5.934,0.567,13.15,0.85,21.65,0.85
					c8.467,0,15.684-0.283,21.65-0.85c0.767-0.067,1.466-0.133,2.1-0.2c1-0.133,1.9-0.25,2.7-0.35c2.4-0.4,3.767-0.8,4.1-1.2
					c0.033-0.033,0.05-0.067,0.05-0.1c0.034-0.066,0.05-0.133,0.05-0.2c0-0.067-0.017-0.133-0.05-0.2H73.817z"/>
				<linearGradient id="SVGID_18_" gradientUnits="userSpaceOnUse" x1="79.4175" y1="80.4751" x2="6.6675" y2="80.4751">
					<stop  offset="0" style="stop-color:#16171B"/>
					<stop  offset="0.098" style="stop-color:#595E61"/>
					<stop  offset="0.1725" style="stop-color:#77848D"/>
					<stop  offset="0.2431" style="stop-color:#FAFBFF"/>
					<stop  offset="0.3255" style="stop-color:#FFFFFF"/>
					<stop  offset="0.4078" style="stop-color:#A4ADE4"/>
					<stop  offset="0.4706" style="stop-color:#555C8A"/>
					<stop  offset="0.5373" style="stop-color:#565B6F"/>
					<stop  offset="0.6353" style="stop-color:#353A3E"/>
					<stop  offset="0.8275" style="stop-color:#878F98"/>
					<stop  offset="1" style="stop-color:#0F1012"/>
				</linearGradient>
				<path fill-rule="evenodd" clip-rule="evenodd" fill="url(#SVGID_18_)" d="M76.667,84.6c-1.8,0.467-4.417,0.9-7.85,1.3
					c-7.1,0.867-15.667,1.3-25.7,1.3c-10.066,0-18.667-0.434-25.8-1.3c-3.167-0.367-5.633-0.767-7.4-1.2
					c-2.167-0.6-3.25-1.233-3.25-1.9v-9.05c0.033,1.067,2.767,2,8.2,2.8c0.767,0.1,1.583,0.217,2.45,0.35
					c0.267,0.033,0.55,0.067,0.85,0.1c1,0.1,2.05,0.2,3.15,0.3c6.267,0.6,13.533,0.9,21.8,0.9c0.067,0,0.117,0,0.15,0
					c8.3,0,15.617-0.317,21.95-0.95c0.7-0.067,1.4-0.117,2.1-0.15c0.5-0.067,1-0.133,1.5-0.2c0.433-0.066,0.85-0.117,1.25-0.15
					c0.4-0.067,0.816-0.133,1.25-0.2c5.033-0.733,7.733-1.583,8.1-2.55v8.55v0.5C79.25,83.583,78.334,84.1,76.667,84.6z"/>
				<linearGradient id="SVGID_19_" gradientUnits="userSpaceOnUse" x1="9.9175" y1="106.6504" x2="76.6675" y2="106.6504">
					<stop  offset="0" style="stop-color:#16171B"/>
					<stop  offset="0.098" style="stop-color:#595E61"/>
					<stop  offset="0.1725" style="stop-color:#77848D"/>
					<stop  offset="0.2431" style="stop-color:#FAFBFF"/>
					<stop  offset="0.3255" style="stop-color:#FFFFFF"/>
					<stop  offset="0.4078" style="stop-color:#A4ADE4"/>
					<stop  offset="0.4706" style="stop-color:#555C8A"/>
					<stop  offset="0.5373" style="stop-color:#565B6F"/>
					<stop  offset="0.6353" style="stop-color:#353A3E"/>
					<stop  offset="0.8275" style="stop-color:#878F98"/>
					<stop  offset="1" style="stop-color:#0F1012"/>
				</linearGradient>
				<path fill-rule="evenodd" clip-rule="evenodd" fill="url(#SVGID_19_)" d="M76.667,128.7h-66.7H9.942l-0.025-44
					c1.767,0.433,4.233,0.833,7.4,1.2c7.133,0.867,15.733,1.3,25.8,1.3c10.034,0,18.6-0.434,25.7-1.3c3.433-0.4,6.05-0.833,7.85-1.3
					V128.7z"/>
				<linearGradient id="SVGID_20_" gradientUnits="userSpaceOnUse" x1="9.9673" y1="179.8999" x2="76.6675" y2="179.8999">
					<stop  offset="0" style="stop-color:#16171B"/>
					<stop  offset="0.098" style="stop-color:#595E61"/>
					<stop  offset="0.1725" style="stop-color:#77848D"/>
					<stop  offset="0.2431" style="stop-color:#FAFBFF"/>
					<stop  offset="0.3255" style="stop-color:#FFFFFF"/>
					<stop  offset="0.4078" style="stop-color:#A4ADE4"/>
					<stop  offset="0.4706" style="stop-color:#555C8A"/>
					<stop  offset="0.5373" style="stop-color:#565B6F"/>
					<stop  offset="0.6353" style="stop-color:#353A3E"/>
					<stop  offset="0.8275" style="stop-color:#878F98"/>
					<stop  offset="1" style="stop-color:#0F1012"/>
				</linearGradient>
				<polygon fill-rule="evenodd" clip-rule="evenodd" fill="url(#SVGID_20_)" points="73.967,231.1 11.917,231.1 9.967,231.1 
					9.967,128.7 76.667,128.7 76.667,231.1 				"/>
				<linearGradient id="SVGID_21_" gradientUnits="userSpaceOnUse" x1="11.9175" y1="300.2754" x2="73.9946" y2="300.2754">
					<stop  offset="0" style="stop-color:#16171B"/>
					<stop  offset="0.098" style="stop-color:#595E61"/>
					<stop  offset="0.1725" style="stop-color:#77848D"/>
					<stop  offset="0.2431" style="stop-color:#FAFBFF"/>
					<stop  offset="0.3255" style="stop-color:#FFFFFF"/>
					<stop  offset="0.4078" style="stop-color:#A4ADE4"/>
					<stop  offset="0.4706" style="stop-color:#555C8A"/>
					<stop  offset="0.5373" style="stop-color:#565B6F"/>
					<stop  offset="0.6353" style="stop-color:#353A3E"/>
					<stop  offset="0.8275" style="stop-color:#878F98"/>
					<stop  offset="1" style="stop-color:#0F1012"/>
				</linearGradient>
				<path fill-rule="evenodd" clip-rule="evenodd" fill="url(#SVGID_21_)" d="M73.967,362.75v1.7c0.233,1.033-1.017,1.866-3.75,2.5
					c-2.733,0.6-4.483,0.967-5.25,1.1c-1.533,0.233-3.133,0.45-4.8,0.65c-5,0.5-10.717,0.75-17.15,0.75
					c-6.2,0-11.716-0.217-16.55-0.65c-1.633-0.2-3.184-0.399-4.65-0.6c-0.267-0.066-0.55-0.117-0.85-0.15
					c-0.733-0.133-1.417-0.25-2.05-0.35c-4.634-0.834-6.967-1.851-7-3.05v-1.9V231.1h62.05V362.75z"/>
				<linearGradient id="SVGID_22_" gradientUnits="userSpaceOnUse" x1="-0.6079" y1="372.625" x2="86.6421" y2="372.625">
					<stop  offset="0" style="stop-color:#0A0B10"/>
					<stop  offset="0.3804" style="stop-color:#050608"/>
					<stop  offset="0.6314" style="stop-color:#575354"/>
					<stop  offset="0.8745" style="stop-color:#030405"/>
					<stop  offset="1" style="stop-color:#000000"/>
				</linearGradient>
				<path fill-rule="evenodd" clip-rule="evenodd" fill="url(#SVGID_22_)" d="M64.117,378.7c-5.966,0.833-12.983,1.25-21.05,1.25
					c-8.133,0-15.217-0.417-21.25-1.25c-1.034-0.167-2.05-0.334-3.05-0.5c-6.633-1.134-9.95-2.533-9.95-4.2v-8.7
					c0.033,1.434,2.6,2.667,7.7,3.7c0.7,0.167,1.45,0.333,2.25,0.5c1,0.167,2.017,0.333,3.05,0.5c1.433,0.167,2.917,0.333,4.45,0.5
					c5,0.467,10.6,0.7,16.8,0.7c6.433,0,12.216-0.25,17.35-0.75c1.267-0.167,2.5-0.316,3.7-0.45c0.4-0.066,0.767-0.116,1.1-0.15
					c0.7-0.133,1.367-0.25,2-0.35c0.833-0.167,1.617-0.333,2.35-0.5c4.7-0.934,7.233-2.05,7.6-3.35v8v0.699
					c-0.4,1.5-3.717,2.784-9.95,3.851C66.217,378.4,65.184,378.566,64.117,378.7z"/>
				<linearGradient id="SVGID_23_" gradientUnits="userSpaceOnUse" x1="8.8174" y1="366.9746" x2="77.1675" y2="366.9746">
					<stop  offset="0" style="stop-color:#575354"/>
					<stop  offset="1" style="stop-color:#000000"/>
				</linearGradient>
				<path fill-rule="evenodd" clip-rule="evenodd" fill="url(#SVGID_23_)" d="M11.917,362.75v1.9c0.033,1.199,2.366,2.216,7,3.05
					c0.633,0.1,1.316,0.217,2.05,0.35c0.3,0.033,0.583,0.084,0.85,0.15c1.466,0.2,3.017,0.399,4.65,0.6
					c4.833,0.434,10.35,0.65,16.55,0.65c6.434,0,12.15-0.25,17.15-0.75c1.667-0.2,3.267-0.417,4.8-0.65
					c0.767-0.133,2.517-0.5,5.25-1.1c2.733-0.634,3.983-1.467,3.75-2.5v-1.7c1.9,0.667,2.967,1.4,3.2,2.2v0.7
					c-0.367,1.3-2.9,2.416-7.6,3.35c-0.733,0.167-1.517,0.333-2.35,0.5c-0.633,0.1-1.3,0.217-2,0.35
					c-0.333,0.034-0.7,0.084-1.1,0.15c-1.2,0.134-2.433,0.283-3.7,0.45c-5.134,0.5-10.917,0.75-17.35,0.75
					c-6.2,0-11.8-0.233-16.8-0.7c-1.533-0.167-3.017-0.333-4.45-0.5c-1.034-0.167-2.05-0.333-3.05-0.5
					c-0.8-0.167-1.55-0.333-2.25-0.5c-5.1-1.033-7.667-2.267-7.7-3.7C8.851,364.366,9.884,363.517,11.917,362.75z"/>
				<linearGradient id="SVGID_24_" gradientUnits="userSpaceOnUse" x1="21.8174" y1="389.6758" x2="64.1172" y2="389.6758">
					<stop  offset="0" style="stop-color:#000000"/>
					<stop  offset="0.3294" style="stop-color:#000000"/>
					<stop  offset="0.6627" style="stop-color:#373435"/>
					<stop  offset="0.8745" style="stop-color:#040404"/>
					<stop  offset="1" style="stop-color:#000000"/>
				</linearGradient>
				<path fill-rule="evenodd" clip-rule="evenodd" fill="url(#SVGID_24_)" d="M21.817,378.7c6.033,0.833,13.117,1.25,21.25,1.25
					c8.066,0,15.083-0.417,21.05-1.25v14.7c-0.2,2.033-1.75,3.616-4.65,4.75c-0.5,0.133-1,0.3-1.5,0.5c-4.1,1.333-9.083,2-14.95,2
					c-5.866,0-10.866-0.667-15-2c-0.533-0.2-1.017-0.367-1.45-0.5c-3.167-1.267-4.75-2.717-4.75-4.351c0-0.033,0-0.066,0-0.1V378.7z
					"/>
			</g>
		</g>
		<g>
			<radialGradient id="SVGID_25_" cx="43.2671" cy="77" r="36.8125" gradientUnits="userSpaceOnUse">
				<stop  offset="0" style="stop-color:#FFFFFF"/>
				<stop  offset="1" style="stop-color:#FFFFFF;stop-opacity:0"/>
			</radialGradient>
			<path fill-rule="evenodd" clip-rule="evenodd" fill="url(#SVGID_25_)" d="M6.817,74.4l3.05,1c1.3,0.333,3.034,0.667,5.2,1
				c0.767,0.1,1.583,0.2,2.45,0.3c7.067,0.867,15.65,1.3,25.75,1.3c10,0,18.534-0.433,25.6-1.3c0.867-0.1,1.7-0.2,2.5-0.3
				c2.133-0.3,4.517-0.867,7.15-1.7c-2.433,1.833-6.75,3-12.95,3.5c-6.167,0.533-13.55,0.85-22.15,0.95
				c-8.567,0.133-15.067-0.033-19.5-0.5c-4.434-0.533-8.134-1.133-11.1-1.8C9.784,76.183,7.784,75.367,6.817,74.4z"/>
		</g>
		<g>
			
				<radialGradient id="SVGID_26_" cx="43.9175" cy="12.25" r="33.8625" gradientTransform="matrix(1 0 0 1.0871 0 -1.0672)" gradientUnits="userSpaceOnUse">
				<stop  offset="0" style="stop-color:#FFFFFF"/>
				<stop  offset="1" style="stop-color:#FFFFFF;stop-opacity:0"/>
			</radialGradient>
			<path fill-rule="evenodd" clip-rule="evenodd" fill="url(#SVGID_26_)" d="M67.517,11.95c0.8-0.134,1.567-0.25,2.3-0.35
				c1.933-0.267,4.117-0.817,6.55-1.65c-2.233,1.8-6.2,2.95-11.9,3.45c-5.7,0.567-12.483,0.9-20.35,1
				c-7.9,0.1-13.883-0.083-17.95-0.55c-4.067-0.5-7.483-1.083-10.25-1.75c-2.8-0.667-4.634-1.5-5.5-2.5l2.8,1
				c1.2,0.367,2.8,0.7,4.8,1c0.7,0.1,1.45,0.216,2.25,0.35c6.5,0.866,14.384,1.3,23.65,1.3C53.151,13.25,61.017,12.816,67.517,11.95
				z"/>
		</g>
		
			<radialGradient id="SVGID_27_" cx="264.1177" cy="445.4004" r="19.35" gradientTransform="matrix(1.4344 0.0462 0 0.2964 -352.4613 -66.2234)" gradientUnits="userSpaceOnUse">
			<stop  offset="0" style="stop-color:#FFFFFF"/>
			<stop  offset="0.1216" style="stop-color:#FFFFFF"/>
			<stop  offset="0.2824" style="stop-color:#FFFFFF;stop-opacity:0.4471"/>
			<stop  offset="0.502" style="stop-color:#FFFFFF;stop-opacity:0.1882"/>
			<stop  offset="0.6824" style="stop-color:#FFFFFF;stop-opacity:0.0863"/>
			<stop  offset="0.9294" style="stop-color:#FFFFFF;stop-opacity:0"/>
		</radialGradient>
		<path fill-rule="evenodd" clip-rule="evenodd" fill="url(#SVGID_27_)" d="M26.394,72.546c7.267,0.234,13.482,0.968,18.647,2.201
			c5.164,1.233,7.745,2.601,7.745,4.103s-2.582,2.703-7.745,3.604c-5.165,0.901-11.38,1.234-18.647,1
			c-7.269-0.234-13.484-0.968-18.647-2.201C2.582,80.02,0,78.652,0,77.15s2.582-2.703,7.747-3.604
			C12.91,72.646,19.125,72.312,26.394,72.546z"/>
		
			<radialGradient id="SVGID_28_" cx="264.1177" cy="445.4004" r="19.35" gradientTransform="matrix(1.2454 0.0032 -6.514787e-004 0.2532 -295.2311 -102.9109)" gradientUnits="userSpaceOnUse">
			<stop  offset="0" style="stop-color:#FFFFFF"/>
			<stop  offset="0.1216" style="stop-color:#FFFFFF"/>
			<stop  offset="0.2824" style="stop-color:#FFFFFF;stop-opacity:0.4471"/>
			<stop  offset="0.502" style="stop-color:#FFFFFF;stop-opacity:0.1882"/>
			<stop  offset="0.6824" style="stop-color:#FFFFFF;stop-opacity:0.0863"/>
			<stop  offset="0.9294" style="stop-color:#FFFFFF;stop-opacity:0"/>
		</radialGradient>
		<path fill-rule="evenodd" clip-rule="evenodd" fill="url(#SVGID_28_)" d="M33.424,6.053c6.31,0.016,11.705,0.486,16.187,1.409
			c4.48,0.923,6.719,2.026,6.716,3.309c-0.003,1.283-2.248,2.375-6.733,3.274c-4.486,0.9-9.884,1.342-16.193,1.326
			c-6.311-0.016-11.707-0.486-16.187-1.409c-4.482-0.923-6.72-2.026-6.717-3.309c0.003-1.283,2.248-2.375,6.734-3.274
			C21.715,6.479,27.113,6.037,33.424,6.053z"/>
		
			<radialGradient id="SVGID_29_" cx="264.1177" cy="445.3994" r="19.3505" gradientTransform="matrix(1.5588 0 0 0.278 -373.6086 247.9421)" gradientUnits="userSpaceOnUse">
			<stop  offset="0" style="stop-color:#FFFFFF"/>
			<stop  offset="0.1216" style="stop-color:#FFFFFF"/>
			<stop  offset="0.2824" style="stop-color:#FFFFFF;stop-opacity:0.4471"/>
			<stop  offset="0.502" style="stop-color:#FFFFFF;stop-opacity:0.1882"/>
			<stop  offset="0.6824" style="stop-color:#FFFFFF;stop-opacity:0.0863"/>
			<stop  offset="0.9294" style="stop-color:#FFFFFF;stop-opacity:0"/>
		</radialGradient>
		<path fill-rule="evenodd" clip-rule="evenodd" fill="url(#SVGID_29_)" d="M38.107,366.642c7.898,0,14.652,0.5,20.265,1.501
			c5.611,1.001,8.417,2.205,8.417,3.614c0,1.408-2.805,2.612-8.417,3.613c-5.613,1.001-12.367,1.501-20.265,1.501
			c-7.899,0-14.654-0.5-20.265-1.501c-5.613-1.001-8.418-2.205-8.418-3.613c0-1.409,2.806-2.613,8.418-3.614
			C23.454,367.142,30.208,366.642,38.107,366.642z"/>
	</g>
</g>
</svg>
